solid exported
	facet normal 0 0 -1
		outer loop
			vertex 5.022595524865996 5.23232701248887 0.028886108556974766
			vertex 0.04493947334946302 0.03257657173487365 0.028886108556974766
			vertex 0.04493947334946302 5.23232701248887 0.028886108556974766
		endloop
	endfacet
	facet normal 0 0 -1
		outer loop
			vertex 0.04493947334946302 0.03257657173487365 0.028886108556974766
			vertex 5.022595524865996 5.23232701248887 0.028886108556974766
			vertex 5.022595524865996 0.03257657173487365 0.028886108556974766
		endloop
	endfacet
	facet normal 0 0 1
		outer loop
			vertex 5.022595524865996 0.03257657173487365 4.974385898271788
			vertex 0.04493947334946302 5.23232701248887 4.974385898271788
			vertex 0.04493947334946302 0.03257657173487365 4.974385898271788
		endloop
	endfacet
	facet normal 0 0 1
		outer loop
			vertex 0.04493947334946302 5.23232701248887 4.974385898271788
			vertex 5.022595524865996 0.03257657173487365 4.974385898271788
			vertex 5.022595524865996 5.23232701248887 4.974385898271788
		endloop
	endfacet
	facet normal -1 0 0
		outer loop
			vertex 0.04493947334946302 5.23232701248887 4.974385898271788
			vertex 0.04493947334946302 0.03257657173487365 0.028886108556974766
			vertex 0.04493947334946302 0.03257657173487365 4.974385898271788
		endloop
	endfacet
	facet normal -1 0 0
		outer loop
			vertex 0.04493947334946302 0.03257657173487365 0.028886108556974766
			vertex 0.04493947334946302 5.23232701248887 4.974385898271788
			vertex 0.04493947334946302 5.23232701248887 0.028886108556974766
		endloop
	endfacet
	facet normal 0 1 0
		outer loop
			vertex 0.04493947334946302 5.23232701248887 4.974385898271788
			vertex 5.022595524865996 5.23232701248887 0.028886108556974766
			vertex 0.04493947334946302 5.23232701248887 0.028886108556974766
		endloop
	endfacet
	facet normal 0 1 0
		outer loop
			vertex 5.022595524865996 5.23232701248887 0.028886108556974766
			vertex 0.04493947334946302 5.23232701248887 4.974385898271788
			vertex 5.022595524865996 5.23232701248887 4.974385898271788
		endloop
	endfacet
	facet normal 1 0 0
		outer loop
			vertex 5.022595524865996 5.23232701248887 0.028886108556974766
			vertex 5.022595524865996 0.03257657173487365 4.974385898271788
			vertex 5.022595524865996 0.03257657173487365 0.028886108556974766
		endloop
	endfacet
	facet normal 1 0 0
		outer loop
			vertex 5.022595524865996 0.03257657173487365 4.974385898271788
			vertex 5.022595524865996 5.23232701248887 0.028886108556974766
			vertex 5.022595524865996 5.23232701248887 4.974385898271788
		endloop
	endfacet
	facet normal 0 -1 0
		outer loop
			vertex 5.022595524865996 0.03257657173487365 4.974385898271788
			vertex 0.04493947334946302 0.03257657173487365 0.028886108556974766
			vertex 5.022595524865996 0.03257657173487365 0.028886108556974766
		endloop
	endfacet
	facet normal 0 -1 0
		outer loop
			vertex 0.04493947334946302 0.03257657173487365 0.028886108556974766
			vertex 5.022595524865996 0.03257657173487365 4.974385898271788
			vertex 0.04493947334946302 0.03257657173487365 4.974385898271788
		endloop
	endfacet
endsolid exported
