solid exported
	facet normal 0.9820623802078471 -3.2771049599727095e-8 0.1885563082490131
		outer loop
			vertex 2.351999998092652 0.04512501135468483 0.24999973177909895
			vertex 2.400000095367432 1.8050000667572021 -2.9802321943606103e-8
			vertex 2.351999998092652 1.7598750591278076 0.25000002980232283
		endloop
	endfacet
	facet normal 0.9820623780719405 -3.1132498878079025e-8 0.18855631937350698
		outer loop
			vertex 2.400000095367432 1.8050000667572021 -2.9802321943606103e-8
			vertex 2.351999998092652 0.04512501135468483 0.24999973177909895
			vertex 2.400000095367432 1.1922788978324661e-8 -3.2782554582055923e-7
		endloop
	endfacet
	facet normal -3.2867995216566824e-17 0.9840974966144324 0.17762915627004291
		outer loop
			vertex 0.04800000041723257 1.7598750591278076 1.7499999962747097
			vertex 2.4000000953674316 1.8049999475479126 1.4999999925494198
			vertex 1.1102230411687688e-16 1.8049999475479126 1.4999999925494194
		endloop
	endfacet
	facet normal -3.4237496412276254e-17 0.9840974966144324 0.17762915627004291
		outer loop
			vertex 2.4000000953674316 1.8049999475479126 1.4999999925494198
			vertex 0.04800000041723257 1.7598750591278076 1.7499999962747097
			vertex 2.3519999980926514 1.7598750591278076 1.7499999962747101
		endloop
	endfacet
	facet normal -0.9820624427217389 -2.867461869838914e-8 0.1885559826561082
		outer loop
			vertex 1.1102230411687688e-16 1.8049999475479126 1.4999999925494194
			vertex 0.04800000041723257 0.045125000178813934 1.7499997355043888
			vertex 0.04800000041723257 1.7598750591278076 1.7499999962747097
		endloop
	endfacet
	facet normal -0.9820624408528292 -2.7240890942793513e-8 0.1885559923900138
		outer loop
			vertex 0.04800000041723257 0.045125000178813934 1.7499997355043888
			vertex 1.1102230411687688e-16 1.8049999475479126 1.4999999925494194
			vertex 1.1102236201951976e-16 2.9802351697583163e-9 1.4999997317790985
		endloop
	endfacet
	facet normal -3.286799758815686e-17 0.9840974943010001 0.17762916908687365
		outer loop
			vertex 0.04800000041723268 1.7598750591278076 1.2499999701976776
			vertex 2.400000095367432 1.8049999475479126 0.9999999850988393
			vertex 3.1096902514650435e-15 1.8049999475479126 0.9999999850988388
		endloop
	endfacet
	facet normal -3.423749888268261e-17 0.9840974943010002 0.17762916908687365
		outer loop
			vertex 2.400000095367432 1.8049999475479126 0.9999999850988393
			vertex 0.04800000041723268 1.7598750591278076 1.2499999701976776
			vertex 2.3519999980926514 1.7598750591278076 1.249999970197678
		endloop
	endfacet
	facet normal -3.286807219159236e-17 0.9840974215269522 0.17762957226769463
		outer loop
			vertex 0.0480000004172329 1.7598750591278076 0.2500000298023224
			vertex 2.400000095367432 1.8050000667572021 -2.9802321943606103e-8
			vertex 6.219380502930087e-15 1.8050000667572021 -2.9802322387695312e-8
		endloop
	endfacet
	facet normal -3.423757659459771e-17 0.9840974215269523 0.1776295722676946
		outer loop
			vertex 2.400000095367432 1.8050000667572021 -2.9802321943606103e-8
			vertex 0.0480000004172329 1.7598750591278076 0.2500000298023224
			vertex 2.351999998092652 1.7598750591278076 0.25000002980232283
		endloop
	endfacet
	facet normal 3.4142748206999087e-17 0.9840974030193989 -0.1776296748025929
		outer loop
			vertex 2.400000095367432 1.8050000667572021 0.49999994039535567
			vertex 0.0480000004172329 1.7598750591278076 0.2500000298023224
			vertex 3.2207125638537265e-15 1.8050000667572021 0.4999999403953552
		endloop
	endfacet
	facet normal 3.556536416474761e-17 0.984097403019399 -0.1776296748025929
		outer loop
			vertex 0.0480000004172329 1.7598750591278076 0.2500000298023224
			vertex 2.400000095367432 1.8050000667572021 0.49999994039535567
			vertex 2.351999998092652 1.7598750591278076 0.25000002980232283
		endloop
	endfacet
	facet normal -0.9820624399834085 -2.457824651108315e-8 0.1885559969182471
		outer loop
			vertex 3.1096902514650435e-15 1.8049999475479126 0.9999999850988388
			vertex 0.04800000041723268 0.04512500390410423 1.2499997466802597
			vertex 0.04800000041723268 1.7598750591278076 1.2499999701976776
		endloop
	endfacet
	facet normal -0.9820624383814852 -2.3349336726298374e-8 0.1885560052615959
		outer loop
			vertex 0.04800000041723268 0.04512500390410423 1.2499997466802597
			vertex 3.1096902514650435e-15 1.8049999475479126 0.9999999850988388
			vertex 3.1096903010958802e-15 5.960839821739228e-9 0.9999997615814209
		endloop
	endfacet
	facet normal 3.2868076947919276e-17 -0.9840974168872518 -0.17762959797240663
		outer loop
			vertex 0.04800000041723268 0.04512500390410423 1.2499997466802597
			vertex 2.4000000953674316 2.9802351697583163e-9 1.499999731779099
			vertex 1.1102236201951976e-16 2.9802351697583163e-9 1.4999997317790985
		endloop
	endfacet
	facet normal 3.423758154910521e-17 -0.9840974168872518 -0.17762959797240666
		outer loop
			vertex 2.4000000953674316 2.9802351697583163e-9 1.499999731779099
			vertex 0.04800000041723268 0.04512500390410423 1.2499997466802597
			vertex 2.3519999980926514 0.04512500390410423 1.2499997466802601
		endloop
	endfacet
	facet normal 3.2868075094265636e-17 -0.9840974186954533 -0.1776295879546696
		outer loop
			vertex 0.04800000041723257 0.045125000178813934 1.7499997355043888
			vertex 2.4000000953674316 0 1.9999997310340487
			vertex 5.972243849083461e-23 0 1.9999997310340483
		endloop
	endfacet
	facet normal 3.423757961821592e-17 -0.9840974186954533 -0.17762958795466963
		outer loop
			vertex 2.4000000953674316 0 1.9999997310340487
			vertex 0.04800000041723257 0.045125000178813934 1.7499997355043888
			vertex 2.3519999980926514 0.045125000178813934 1.7499997355043893
		endloop
	endfacet
	facet normal -0.9820624282359544 1.5566227844166685e-8 -0.1885560581028914
		outer loop
			vertex 0.0480000004172329 1.7598750591278076 0.2500000298023224
			vertex 3.220712596940951e-15 8.942553364477135e-9 0.4999997913837433
			vertex 3.2207125638537265e-15 1.8050000667572021 0.4999999403953552
		endloop
	endfacet
	facet normal -0.9820624506629057 3.2770985823340206e-8 -0.18855594129585743
		outer loop
			vertex 3.220712596940951e-15 8.942553364477135e-9 0.4999997913837433
			vertex 0.0480000004172329 1.7598750591278076 0.2500000298023224
			vertex 0.0480000004172329 0.04512501135468483 0.2499997317790985
		endloop
	endfacet
	facet normal -0.9820624506629059 -3.2770985752145135e-8 0.18855594129585634
		outer loop
			vertex 3.2207125638537265e-15 1.8050000667572021 0.4999999403953552
			vertex 0.04800000041723279 0.04512500762939453 0.7499997019767761
			vertex 0.04800000041723279 1.7598750591278076 0.75
		endloop
	endfacet
	facet normal -0.9820624282359546 -1.5566227844166642e-8 0.18855605810289047
		outer loop
			vertex 0.04800000041723279 0.04512500762939453 0.7499997019767761
			vertex 3.2207125638537265e-15 1.8050000667572021 0.4999999403953552
			vertex 3.220712596940951e-15 8.942553364477135e-9 0.4999997913837433
		endloop
	endfacet
	facet normal 0.9820623577808099 1.5566258137967782e-8 -0.18855642505625825
		outer loop
			vertex 2.400000095367432 8.942553364477135e-9 0.49999979138374373
			vertex 2.351999998092652 1.7598750591278076 0.25000002980232283
			vertex 2.400000095367432 1.8050000667572021 0.49999994039535567
		endloop
	endfacet
	facet normal 0.982062380207847 3.277104959972721e-8 -0.18855630824901373
		outer loop
			vertex 2.351999998092652 0.04512501135468483 0.24999973177909895
			vertex 2.351999998092652 1.7598750591278076 0.25000002980232283
			vertex 2.400000095367432 8.942553364477135e-9 0.49999979138374373
		endloop
	endfacet
	facet normal 3.414274119863338e-17 0.9840974943010002 -0.17762916908687365
		outer loop
			vertex 2.400000095367432 1.8049999475479126 0.9999999850988393
			vertex 0.04800000041723279 1.7598750591278076 0.75
			vertex 3.1096902514650435e-15 1.8049999475479126 0.9999999850988388
		endloop
	endfacet
	facet normal 3.556535686436637e-17 0.9840974943010002 -0.17762916908687365
		outer loop
			vertex 0.04800000041723279 1.7598750591278076 0.75
			vertex 2.400000095367432 1.8049999475479126 0.9999999850988393
			vertex 2.351999998092652 1.7598750591278076 0.7500000000000004
		endloop
	endfacet
	facet normal -0.9820624506629081 -3.277098582333812e-8 0.18855594129584544
		outer loop
			vertex 6.219380502930087e-15 1.8050000667572021 -2.9802322387695312e-8
			vertex 0.0480000004172329 0.04512501135468483 0.2499997317790985
			vertex 0.0480000004172329 1.7598750591278076 0.2500000298023224
		endloop
	endfacet
	facet normal -0.9820624485270096 -3.113243829050638e-8 0.18855595242031928
		outer loop
			vertex 0.0480000004172329 0.04512501135468483 0.2499997317790985
			vertex 6.219380502930087e-15 1.8050000667572021 -2.9802322387695312e-8
			vertex 6.219380569104536e-15 1.1922788978324661e-8 -3.2782554626464844e-7
		endloop
	endfacet
	facet normal 0.9820623679263815 2.3349382166989934e-8 -0.1885563722148581
		outer loop
			vertex 2.400000095367432 5.960839821739228e-9 0.9999997615814213
			vertex 2.351999998092652 1.7598750591278076 0.7500000000000004
			vertex 2.400000095367432 1.8049999475479126 0.9999999850988393
		endloop
	endfacet
	facet normal 0.982062380207847 3.27710495285322e-8 -0.18855630824901387
		outer loop
			vertex 2.351999998092652 1.7598750591278076 0.7500000000000004
			vertex 2.400000095367432 5.960839821739228e-9 0.9999997615814213
			vertex 2.351999998092652 0.04512500762939453 0.7499997019767766
		endloop
	endfacet
	facet normal -0.9820624434542475 2.7240888985346704e-8 -0.18855597884095934
		outer loop
			vertex 0.04800000041723268 1.7598750591278076 1.2499999701976776
			vertex 1.1102236201951976e-16 2.9802351697583163e-9 1.4999997317790985
			vertex 1.1102230411687688e-16 1.8049999475479126 1.4999999925494194
		endloop
	endfacet
	facet normal -0.9820624399834083 2.457824651108324e-8 -0.18855599691824776
		outer loop
			vertex 1.1102236201951976e-16 2.9802351697583163e-9 1.4999997317790985
			vertex 0.04800000041723268 1.7598750591278076 1.2499999701976776
			vertex 0.04800000041723268 0.04512500390410423 1.2499997466802597
		endloop
	endfacet
	facet normal -3.1297510368631055e-17 -0.9840974189382056 0.1776295866097818
		outer loop
			vertex 2.400000095367432 5.960839821739228e-9 0.9999997615814213
			vertex 0.04800000041723268 0.04512500390410423 1.2499997466802597
			vertex 3.1096903010958802e-15 5.960839821739228e-9 0.9999997615814209
		endloop
	endfacet
	facet normal -3.260157462902024e-17 -0.9840974189382057 0.17762958660978181
		outer loop
			vertex 0.04800000041723268 0.04512500390410423 1.2499997466802597
			vertex 2.400000095367432 5.960839821739228e-9 0.9999997615814213
			vertex 2.3519999980926514 0.04512500390410423 1.2499997466802601
		endloop
	endfacet
	facet normal -3.286807219159232e-17 0.9840974215269523 0.17762957226769463
		outer loop
			vertex 0.04800000041723279 1.7598750591278076 0.75
			vertex 2.400000095367432 1.8050000667572021 0.49999994039535567
			vertex 3.2207125638537265e-15 1.8050000667572021 0.4999999403953552
		endloop
	endfacet
	facet normal -3.423757659459771e-17 0.9840974215269523 0.1776295722676946
		outer loop
			vertex 2.400000095367432 1.8050000667572021 0.49999994039535567
			vertex 0.04800000041723279 1.7598750591278076 0.75
			vertex 2.351999998092652 1.7598750591278076 0.7500000000000004
		endloop
	endfacet
	facet normal -3.4142748420487225e-17 -0.9840974091727733 0.1776296407118906
		outer loop
			vertex 2.400000095367432 8.942553364477135e-9 0.49999979138374373
			vertex 0.04800000041723279 0.04512500762939453 0.7499997019767761
			vertex 3.220712596940951e-15 8.942553364477135e-9 0.4999997913837433
		endloop
	endfacet
	facet normal -3.5565364387131085e-17 -0.9840974091727733 0.17762964071189058
		outer loop
			vertex 0.04800000041723279 0.04512500762939453 0.7499997019767761
			vertex 2.400000095367432 8.942553364477135e-9 0.49999979138374373
			vertex 2.351999998092652 0.04512500762939453 0.7499997019767766
		endloop
	endfacet
	facet normal 0.9820623703691215 2.809708707096695e-8 -0.18855635949227947
		outer loop
			vertex 2.4000000953674316 0 1.9999997310340487
			vertex 2.3519999980926514 1.7598750591278076 1.7499999962747101
			vertex 2.4000000953674316 1.8049999475479126 2.0000000000000004
		endloop
	endfacet
	facet normal 0.9820623711220279 2.8674675409342148e-8 -0.18855635557090036
		outer loop
			vertex 2.3519999980926514 1.7598750591278076 1.7499999962747101
			vertex 2.4000000953674316 0 1.9999997310340487
			vertex 2.3519999980926514 0.045125000178813934 1.7499997355043893
		endloop
	endfacet
	facet normal 0.9820623722666519 -2.8674674502737148e-8 0.1885563496093286
		outer loop
			vertex 2.3519999980926514 0.045125000178813934 1.7499997355043893
			vertex 2.4000000953674316 1.8049999475479126 1.4999999925494198
			vertex 2.3519999980926514 1.7598750591278076 1.7499999962747101
		endloop
	endfacet
	facet normal 0.9820623703977349 -2.7240943956930066e-8 0.18855635934325168
		outer loop
			vertex 2.4000000953674316 1.8049999475479126 1.4999999925494198
			vertex 2.3519999980926514 0.045125000178813934 1.7499997355043893
			vertex 2.4000000953674316 2.9802351697583163e-9 1.499999731779099
		endloop
	endfacet
	facet normal 3.2868068511354613e-17 -0.9840974251169491 -0.17762955237851324
		outer loop
			vertex 0.0480000004172329 0.04512501135468483 0.2499997317790985
			vertex 2.400000095367432 8.942553364477135e-9 0.49999979138374373
			vertex 3.220712596940951e-15 8.942553364477135e-9 0.4999997913837433
		endloop
	endfacet
	facet normal 3.260156511768802e-17 -0.9840974251169491 -0.17762955237851327
		outer loop
			vertex 2.351999998092652 0.04512501135468483 0.24999973177909895
			vertex 2.400000095367432 8.942553364477135e-9 0.49999979138374373
			vertex 0.0480000004172329 0.04512501135468483 0.2499997317790985
		endloop
	endfacet
	facet normal 0.9820623695283085 -2.4578294343386308e-8 0.18855636387150576
		outer loop
			vertex 2.3519999980926514 0.04512500390410423 1.2499997466802601
			vertex 2.400000095367432 1.8049999475479126 0.9999999850988393
			vertex 2.3519999980926514 1.7598750591278076 1.249999970197678
		endloop
	endfacet
	facet normal 0.9820623679263794 -2.3349382166991148e-8 0.18855637221486962
		outer loop
			vertex 2.400000095367432 1.8049999475479126 0.9999999850988393
			vertex 2.3519999980926514 0.04512500390410423 1.2499997466802601
			vertex 2.400000095367432 5.960839821739228e-9 0.9999997615814213
		endloop
	endfacet
	facet normal 0.9820623729991633 2.724094199947973e-8 -0.18855634579417238
		outer loop
			vertex 2.4000000953674316 2.9802351697583163e-9 1.499999731779099
			vertex 2.3519999980926514 1.7598750591278076 1.249999970197678
			vertex 2.4000000953674316 1.8049999475479126 1.4999999925494198
		endloop
	endfacet
	facet normal 0.9820623695283109 2.4578294343384925e-8 -0.1885563638714934
		outer loop
			vertex 2.3519999980926514 1.7598750591278076 1.249999970197678
			vertex 2.4000000953674316 2.9802351697583163e-9 1.499999731779099
			vertex 2.3519999980926514 0.04512500390410423 1.2499997466802601
		endloop
	endfacet
	facet normal -3.4142736138170646e-17 -0.9840974217640666 0.17762957095404153
		outer loop
			vertex 2.4000000953674316 2.9802351697583163e-9 1.499999731779099
			vertex 0.04800000041723257 0.045125000178813934 1.7499997355043888
			vertex 1.1102236201951976e-16 2.9802351697583163e-9 1.4999997317790985
		endloop
	endfacet
	facet normal -3.556535159305084e-17 -0.9840974217640667 0.17762957095404153
		outer loop
			vertex 0.04800000041723257 0.045125000178813934 1.7499997355043888
			vertex 2.4000000953674316 2.9802351697583163e-9 1.499999731779099
			vertex 2.3519999980926514 0.045125000178813934 1.7499997355043893
		endloop
	endfacet
	facet normal 0.9820623802078472 -3.277104952853208e-8 0.18855630824901315
		outer loop
			vertex 2.351999998092652 0.04512500762939453 0.7499997019767766
			vertex 2.400000095367432 1.8050000667572021 0.49999994039535567
			vertex 2.351999998092652 1.7598750591278076 0.7500000000000004
		endloop
	endfacet
	facet normal 0.9820623577808101 -1.556625813796774e-8 0.18855642505625775
		outer loop
			vertex 2.400000095367432 1.8050000667572021 0.49999994039535567
			vertex 2.351999998092652 0.04512500762939453 0.7499997019767766
			vertex 2.400000095367432 8.942553364477135e-9 0.49999979138374373
		endloop
	endfacet
	facet normal -0.9820624383814872 2.3349336726297163e-8 -0.1885560052615865
		outer loop
			vertex 0.04800000041723279 1.7598750591278076 0.75
			vertex 3.1096903010958802e-15 5.960839821739228e-9 0.9999997615814209
			vertex 3.1096902514650435e-15 1.8049999475479126 0.9999999850988388
		endloop
	endfacet
	facet normal -0.9820624506629058 3.2770985752145347e-8 -0.18855594129585757
		outer loop
			vertex 3.1096903010958802e-15 5.960839821739228e-9 0.9999997615814209
			vertex 0.04800000041723279 1.7598750591278076 0.75
			vertex 0.04800000041723279 0.04512500762939453 0.7499997019767761
		endloop
	endfacet
	facet normal 3.414273627149546e-17 0.9840974989278642 -0.17762914345321398
		outer loop
			vertex 2.4000000953674316 1.8049999475479126 1.4999999925494198
			vertex 0.04800000041723268 1.7598750591278076 1.2499999701976776
			vertex 1.1102230411687688e-16 1.8049999475479126 1.4999999925494194
		endloop
	endfacet
	facet normal 3.556535173193087e-17 0.9840974989278642 -0.17762914345321398
		outer loop
			vertex 0.04800000041723268 1.7598750591278076 1.2499999701976776
			vertex 2.4000000953674316 1.8049999475479126 1.4999999925494198
			vertex 2.3519999980926514 1.7598750591278076 1.249999970197678
		endloop
	endfacet
	facet normal -0.9820624408242157 2.8097032388901937e-8 -0.18855599253904173
		outer loop
			vertex 0.04800000041723257 1.7598750591278076 1.7499999962747097
			vertex 5.972243849083461e-23 0 1.9999997310340483
			vertex 0 1.8049999475479126 2
		endloop
	endfacet
	facet normal -0.9820624415771193 2.8674619604992586e-8 -0.18855598861766973
		outer loop
			vertex 5.972243849083461e-23 0 1.9999997310340483
			vertex 0.04800000041723257 1.7598750591278076 1.7499999962747097
			vertex 0.04800000041723257 0.045125000178813934 1.7499997355043888
		endloop
	endfacet
	facet normal -3.129750130297143e-17 -0.9840974271676478 0.17762954101729833
		outer loop
			vertex 2.400000095367432 1.1922788978324661e-8 -3.2782554582055923e-7
			vertex 0.0480000004172329 0.04512501135468483 0.2499997317790985
			vertex 6.219380569104536e-15 1.1922788978324661e-8 -3.2782554626464844e-7
		endloop
	endfacet
	facet normal -3.4237570571175924e-17 -0.9840974271676479 0.17762954101729836
		outer loop
			vertex 2.351999998092652 0.04512501135468483 0.24999973177909895
			vertex 0.0480000004172329 0.04512501135468483 0.2499997317790985
			vertex 2.400000095367432 1.1922788978324661e-8 -3.2782554582055923e-7
		endloop
	endfacet
	facet normal 3.414273873506423e-17 0.9840974966144324 -0.17762915627004291
		outer loop
			vertex 2.4000000953674316 1.8049999475479126 2.0000000000000004
			vertex 0.04800000041723257 1.7598750591278076 1.7499999962747097
			vertex 0 1.8049999475479126 2
		endloop
	endfacet
	facet normal 3.556535429814844e-17 0.9840974966144324 -0.17762915627004291
		outer loop
			vertex 0.04800000041723257 1.7598750591278076 1.7499999962747097
			vertex 2.4000000953674316 1.8049999475479126 2.0000000000000004
			vertex 2.3519999980926514 1.7598750591278076 1.7499999962747101
		endloop
	endfacet
	facet normal 3.286806798683837e-17 -0.984097425628604 -0.17762954954385973
		outer loop
			vertex 0.04800000041723279 0.04512500762939453 0.7499997019767761
			vertex 2.400000095367432 5.960839821739228e-9 0.9999997615814213
			vertex 3.1096903010958802e-15 5.960839821739228e-9 0.9999997615814209
		endloop
	endfacet
	facet normal 3.423757221464551e-17 -0.9840974256286039 -0.17762954954385976
		outer loop
			vertex 2.400000095367432 5.960839821739228e-9 0.9999997615814213
			vertex 0.04800000041723279 0.04512500762939453 0.7499997019767761
			vertex 2.351999998092652 0.04512500762939453 0.7499997019767766
		endloop
	endfacet
endsolid exported
