solid exported
	facet normal 0 0 -1
		outer loop
			vertex 0.3161675035953522 1.298656534063617 0.014443053863942623
			vertex -0.18159808218479156 0.7786814927914982 0.014443053863942623
			vertex -0.18159808218479156 1.298656534063617 0.014443053863942623
		endloop
	endfacet
	facet normal 0 0 -1
		outer loop
			vertex -0.18159808218479156 0.7786814927914982 0.014443053863942623
			vertex 0.3161675035953522 1.298656534063617 0.014443053863942623
			vertex 0.3161675035953522 0.7786814927914982 0.014443053863942623
		endloop
	endfacet
	facet normal 0 0 1
		outer loop
			vertex 0.3161675035953522 0.7786814927914982 2.4871928691864014
			vertex -0.18159808218479156 1.298656534063617 2.4871928691864014
			vertex -0.18159808218479156 0.7786814927914982 2.4871928691864014
		endloop
	endfacet
	facet normal 0 0 1
		outer loop
			vertex -0.18159808218479156 1.298656534063617 2.4871928691864014
			vertex 0.3161675035953522 0.7786814927914982 2.4871928691864014
			vertex 0.3161675035953522 1.298656534063617 2.4871928691864014
		endloop
	endfacet
	facet normal -1 0 0
		outer loop
			vertex -0.18159808218479156 1.298656534063617 2.4871928691864014
			vertex -0.18159808218479156 0.7786814927914982 0.014443053863942623
			vertex -0.18159808218479156 0.7786814927914982 2.4871928691864014
		endloop
	endfacet
	facet normal -1 0 0
		outer loop
			vertex -0.18159808218479156 0.7786814927914982 0.014443053863942623
			vertex -0.18159808218479156 1.298656534063617 2.4871928691864014
			vertex -0.18159808218479156 1.298656534063617 0.014443053863942623
		endloop
	endfacet
	facet normal 0 1 0
		outer loop
			vertex -0.18159808218479156 1.298656534063617 2.4871928691864014
			vertex 0.3161675035953522 1.298656534063617 0.014443053863942623
			vertex -0.18159808218479156 1.298656534063617 0.014443053863942623
		endloop
	endfacet
	facet normal 0 1 0
		outer loop
			vertex 0.3161675035953522 1.298656534063617 0.014443053863942623
			vertex -0.18159808218479156 1.298656534063617 2.4871928691864014
			vertex 0.3161675035953522 1.298656534063617 2.4871928691864014
		endloop
	endfacet
	facet normal 1 0 0
		outer loop
			vertex 0.3161675035953522 1.298656534063617 0.014443053863942623
			vertex 0.3161675035953522 0.7786814927914982 2.4871928691864014
			vertex 0.3161675035953522 0.7786814927914982 0.014443053863942623
		endloop
	endfacet
	facet normal 1 0 0
		outer loop
			vertex 0.3161675035953522 0.7786814927914982 2.4871928691864014
			vertex 0.3161675035953522 1.298656534063617 0.014443053863942623
			vertex 0.3161675035953522 1.298656534063617 2.4871928691864014
		endloop
	endfacet
	facet normal 0 -1 0
		outer loop
			vertex 0.3161675035953522 0.7786814927914982 2.4871928691864014
			vertex -0.18159808218479156 0.7786814927914982 0.014443053863942623
			vertex 0.3161675035953522 0.7786814927914982 0.014443053863942623
		endloop
	endfacet
	facet normal 0 -1 0
		outer loop
			vertex -0.18159808218479156 0.7786814927914982 0.014443053863942623
			vertex 0.3161675035953522 0.7786814927914982 2.4871928691864014
			vertex -0.18159808218479156 0.7786814927914982 2.4871928691864014
		endloop
	endfacet
	facet normal -0.9914448721424665 -1.2762404929957324e-9 -0.13052611042396314
		outer loop
			vertex -0.38021206855773926 0.672798510300914 1.691979943527089e-16
			vertex -0.3672298192977905 1.4347985495207702 -0.0986100435256958
			vertex -0.3672298192977905 0.672798510300914 -0.0986100360751152
		endloop
	endfacet
	facet normal -0.9914448734187062 -2.898261590222253e-17 -0.1305261007299524
		outer loop
			vertex -0.3672298192977905 1.4347985495207702 -0.0986100435256958
			vertex -0.38021206855773926 0.672798510300914 1.691979943527089e-16
			vertex -0.38021206855773926 1.4347985495207702 0
		endloop
	endfacet
	facet normal -0.9238795537760979 0 -0.3826833810272909
		outer loop
			vertex -0.3672298192977905 0.672798510300914 -0.0986100360751152
			vertex -0.32916775345802307 1.4347985495207702 -0.19050000607967377
			vertex -0.32916775345802307 0.672798510300914 -0.19050000607967377
		endloop
	endfacet
	facet normal -0.9238795428058456 -3.741749900290564e-9 -0.3826834075118257
		outer loop
			vertex -0.32916775345802307 1.4347985495207702 -0.19050000607967377
			vertex -0.3672298192977905 0.672798510300914 -0.0986100360751152
			vertex -0.3672298192977905 1.4347985495207702 -0.0986100435256958
		endloop
	endfacet
	facet normal -0.7933532801464609 0 -0.6087615073909087
		outer loop
			vertex -0.32916775345802307 0.672798510300914 -0.19050000607967377
			vertex -0.26861974596977234 1.4347985495207702 -0.2694076895713806
			vertex -0.26861974596977234 0.672798510300914 -0.2694076895713806
		endloop
	endfacet
	facet normal -0.7933532801464609 0 -0.6087615073909087
		outer loop
			vertex -0.26861974596977234 1.4347985495207702 -0.2694076895713806
			vertex -0.32916775345802307 0.672798510300914 -0.19050000607967377
			vertex -0.32916775345802307 1.4347985495207702 -0.19050000607967377
		endloop
	endfacet
	facet normal -0.6087613911527635 0 -0.7933533693391315
		outer loop
			vertex -0.18971207737922668 0.672798510300914 -0.32995566725730896
			vertex -0.26861974596977234 1.4347985495207702 -0.2694076895713806
			vertex -0.18971207737922668 1.4347985495207702 -0.32995566725730896
		endloop
	endfacet
	facet normal -0.6087613911527635 0 -0.7933533693391315
		outer loop
			vertex -0.26861974596977234 1.4347985495207702 -0.2694076895713806
			vertex -0.18971207737922668 0.672798510300914 -0.32995566725730896
			vertex -0.26861974596977234 0.672798510300914 -0.2694076895713806
		endloop
	endfacet
	facet normal -0.9238795428058456 0 0.3826834075118257
		outer loop
			vertex -0.32916775345802307 0.672798510300914 0.19050000607967377
			vertex -0.3672298192977905 1.4347985495207702 0.0986100435256958
			vertex -0.3672298192977905 0.672798510300914 0.0986100435256958
		endloop
	endfacet
	facet normal -0.9238795428058456 0 0.3826834075118257
		outer loop
			vertex -0.3672298192977905 1.4347985495207702 0.0986100435256958
			vertex -0.32916775345802307 0.672798510300914 0.19050000607967377
			vertex -0.32916775345802307 1.4347985495207702 0.19050000607967377
		endloop
	endfacet
	facet normal -0.9914448734187061 2.861097751847705e-17 0.13052610072995263
		outer loop
			vertex -0.38021206855773926 0.672798510300914 1.691979943527089e-16
			vertex -0.3672298192977905 0.672798510300914 0.0986100435256958
			vertex -0.38021206855773926 1.4347985495207702 0
		endloop
	endfacet
	facet normal -0.9914448734187062 0 0.1305261007299524
		outer loop
			vertex -0.38021206855773926 1.4347985495207702 0
			vertex -0.3672298192977905 0.672798510300914 0.0986100435256958
			vertex -0.3672298192977905 1.4347985495207702 0.0986100435256958
		endloop
	endfacet
	facet normal -0.3826833810272909 0 -0.9238795537760979
		outer loop
			vertex -0.09782210737466812 0.672798510300914 -0.3680177330970764
			vertex -0.18971207737922668 1.4347985495207702 -0.32995566725730896
			vertex -0.09782210737466812 1.4347985495207702 -0.3680177330970764
		endloop
	endfacet
	facet normal -0.3826833810272909 0 -0.9238795537760979
		outer loop
			vertex -0.18971207737922668 1.4347985495207702 -0.32995566725730896
			vertex -0.09782210737466812 0.672798510300914 -0.3680177330970764
			vertex -0.18971207737922668 0.672798510300914 -0.32995566725730896
		endloop
	endfacet
	facet normal -0.6087613911527635 0 0.7933533693391315
		outer loop
			vertex -0.26861974596977234 0.672798510300914 0.2694076895713806
			vertex -0.18971207737922668 1.4347985495207702 0.32995566725730896
			vertex -0.26861974596977234 1.4347985495207702 0.2694076895713806
		endloop
	endfacet
	facet normal -0.6087613911527635 0 0.7933533693391315
		outer loop
			vertex -0.18971207737922668 1.4347985495207702 0.32995566725730896
			vertex -0.26861974596977234 0.672798510300914 0.2694076895713806
			vertex -0.18971207737922668 0.672798510300914 0.32995566725730896
		endloop
	endfacet
	facet normal -0.3826833810272909 0 0.9238795537760979
		outer loop
			vertex -0.18971207737922668 0.672798510300914 0.32995566725730896
			vertex -0.09782210737466812 1.4347985495207702 0.3680177330970764
			vertex -0.18971207737922668 1.4347985495207702 0.32995566725730896
		endloop
	endfacet
	facet normal -0.3826833810272909 0 0.9238795537760979
		outer loop
			vertex -0.09782210737466812 1.4347985495207702 0.3680177330970764
			vertex -0.18971207737922668 0.672798510300914 0.32995566725730896
			vertex -0.09782210737466812 0.672798510300914 0.3680177330970764
		endloop
	endfacet
	facet normal -0.13052639715678307 0 0.9914448343933565
		outer loop
			vertex -0.09782210737466812 0.672798510300914 0.3680177330970764
			vertex 0.0007879346958361566 1.4347985495207702 0.38100001215934753
			vertex -0.09782210737466812 1.4347985495207702 0.3680177330970764
		endloop
	endfacet
	facet normal -0.13052639715678307 0 0.9914448343933565
		outer loop
			vertex 0.0007879346958361566 1.4347985495207702 0.38100001215934753
			vertex -0.09782210737466812 0.672798510300914 0.3680177330970764
			vertex 0.0007879346958361566 0.672798510300914 0.38100001215934753
		endloop
	endfacet
	facet normal -0.13052639715678307 0 -0.9914448343933565
		outer loop
			vertex 0.0007879346958361566 0.672798510300914 -0.38100001215934753
			vertex -0.09782210737466812 1.4347985495207702 -0.3680177330970764
			vertex 0.0007879346958361566 1.4347985495207702 -0.38100001215934753
		endloop
	endfacet
	facet normal -0.13052639715678307 0 -0.9914448343933565
		outer loop
			vertex -0.09782210737466812 1.4347985495207702 -0.3680177330970764
			vertex 0.0007879346958361566 0.672798510300914 -0.38100001215934753
			vertex -0.09782210737466812 0.672798510300914 -0.3680177330970764
		endloop
	endfacet
	facet normal 0.13052640306408383 0 -0.9914448336156442
		outer loop
			vertex 0.09939797222614288 0.672798510300914 -0.3680177330970764
			vertex 0.0007879346958361566 1.4347985495207702 -0.38100001215934753
			vertex 0.09939797222614288 1.4347985495207702 -0.3680177330970764
		endloop
	endfacet
	facet normal 0.13052640306408383 0 -0.9914448336156442
		outer loop
			vertex 0.0007879346958361566 1.4347985495207702 -0.38100001215934753
			vertex 0.09939797222614288 0.672798510300914 -0.3680177330970764
			vertex 0.0007879346958361566 0.672798510300914 -0.38100001215934753
		endloop
	endfacet
	facet normal 0.13052640306408383 0 0.9914448336156442
		outer loop
			vertex 0.0007879346958361566 0.672798510300914 0.38100001215934753
			vertex 0.09939797222614288 1.4347985495207702 0.3680177330970764
			vertex 0.0007879346958361566 1.4347985495207702 0.38100001215934753
		endloop
	endfacet
	facet normal 0.13052640306408383 0 0.9914448336156442
		outer loop
			vertex 0.09939797222614288 1.4347985495207702 0.3680177330970764
			vertex 0.0007879346958361566 0.672798510300914 0.38100001215934753
			vertex 0.09939797222614288 0.672798510300914 0.3680177330970764
		endloop
	endfacet
	facet normal 0 -1 0
		outer loop
			vertex -0.38021206855773926 0.672798510300914 1.691979943527089e-16
			vertex -0.3672298192977905 0.672798510300914 -0.0986100360751152
			vertex -0.3672298192977905 0.672798510300914 0.0986100435256958
		endloop
	endfacet
	facet normal 0 -1 0
		outer loop
			vertex -0.3672298192977905 0.672798510300914 0.0986100435256958
			vertex -0.3672298192977905 0.672798510300914 -0.0986100360751152
			vertex -0.32916775345802307 0.672798510300914 -0.19050000607967377
		endloop
	endfacet
	facet normal 0 -1 0
		outer loop
			vertex -0.3672298192977905 0.672798510300914 0.0986100435256958
			vertex -0.32916775345802307 0.672798510300914 -0.19050000607967377
			vertex -0.32916775345802307 0.672798510300914 0.19050000607967377
		endloop
	endfacet
	facet normal 0 -1 0
		outer loop
			vertex -0.32916775345802307 0.672798510300914 0.19050000607967377
			vertex -0.32916775345802307 0.672798510300914 -0.19050000607967377
			vertex -0.26861974596977234 0.672798510300914 -0.2694076895713806
		endloop
	endfacet
	facet normal 0 -1 0
		outer loop
			vertex -0.32916775345802307 0.672798510300914 0.19050000607967377
			vertex -0.26861974596977234 0.672798510300914 -0.2694076895713806
			vertex -0.26861974596977234 0.672798510300914 0.2694076895713806
		endloop
	endfacet
	facet normal 0 -1 0
		outer loop
			vertex -0.26861974596977234 0.672798510300914 0.2694076895713806
			vertex -0.26861974596977234 0.672798510300914 -0.2694076895713806
			vertex -0.18971207737922668 0.672798510300914 -0.32995566725730896
		endloop
	endfacet
	facet normal 0 -1 0
		outer loop
			vertex -0.26861974596977234 0.672798510300914 0.2694076895713806
			vertex -0.18971207737922668 0.672798510300914 -0.32995566725730896
			vertex -0.18971207737922668 0.672798510300914 0.32995566725730896
		endloop
	endfacet
	facet normal 0 -1 0
		outer loop
			vertex -0.18971207737922668 0.672798510300914 0.32995566725730896
			vertex -0.18971207737922668 0.672798510300914 -0.32995566725730896
			vertex -0.09782210737466812 0.672798510300914 -0.3680177330970764
		endloop
	endfacet
	facet normal 0 -1 0
		outer loop
			vertex -0.18971207737922668 0.672798510300914 0.32995566725730896
			vertex -0.09782210737466812 0.672798510300914 -0.3680177330970764
			vertex -0.09782210737466812 0.672798510300914 0.3680177330970764
		endloop
	endfacet
	facet normal 0 -1 0
		outer loop
			vertex -0.09782210737466812 0.672798510300914 0.3680177330970764
			vertex -0.09782210737466812 0.672798510300914 -0.3680177330970764
			vertex 0.0007879346958361566 0.672798510300914 -0.38100001215934753
		endloop
	endfacet
	facet normal 0 -1 0
		outer loop
			vertex -0.09782210737466812 0.672798510300914 0.3680177330970764
			vertex 0.0007879346958361566 0.672798510300914 -0.38100001215934753
			vertex 0.0007879346958361566 0.672798510300914 0.38100001215934753
		endloop
	endfacet
	facet normal 0 -1 0
		outer loop
			vertex 0.0007879346958361566 0.672798510300914 0.38100001215934753
			vertex 0.0007879346958361566 0.672798510300914 -0.38100001215934753
			vertex 0.09939797222614288 0.672798510300914 -0.3680177330970764
		endloop
	endfacet
	facet normal 0 -1 0
		outer loop
			vertex 0.0007879346958361566 0.672798510300914 0.38100001215934753
			vertex 0.09939797222614288 0.672798510300914 -0.3680177330970764
			vertex 0.09939797222614288 0.672798510300914 0.3680177330970764
		endloop
	endfacet
	facet normal 0 -1 0
		outer loop
			vertex 0.09939797222614288 0.672798510300914 0.3680177330970764
			vertex 0.09939797222614288 0.672798510300914 -0.3680177330970764
			vertex 0.19128793478012085 0.672798510300914 -0.32995566725730896
		endloop
	endfacet
	facet normal 0 -1 0
		outer loop
			vertex 0.09939797222614288 0.672798510300914 0.3680177330970764
			vertex 0.19128793478012085 0.672798510300914 -0.32995566725730896
			vertex 0.19128793478012085 0.672798510300914 0.32995566725730896
		endloop
	endfacet
	facet normal 0 -1 0
		outer loop
			vertex 0.19128793478012085 0.672798510300914 0.32995566725730896
			vertex 0.19128793478012085 0.672798510300914 -0.32995566725730896
			vertex 0.2701956331729889 0.672798510300914 -0.2694076895713806
		endloop
	endfacet
	facet normal 0 -1 0
		outer loop
			vertex 0.19128793478012085 0.672798510300914 0.32995566725730896
			vertex 0.2701956331729889 0.672798510300914 -0.2694076895713806
			vertex 0.2701956331729889 0.672798510300914 0.2694076895713806
		endloop
	endfacet
	facet normal 0 -1 0
		outer loop
			vertex 0.2701956331729889 0.672798510300914 0.2694076895713806
			vertex 0.2701956331729889 0.672798510300914 -0.2694076895713806
			vertex 0.33074361085891724 0.672798510300914 -0.19050000607967377
		endloop
	endfacet
	facet normal 0 -1 0
		outer loop
			vertex 0.2701956331729889 0.672798510300914 0.2694076895713806
			vertex 0.33074361085891724 0.672798510300914 -0.19050000607967377
			vertex 0.33074361085891724 0.672798510300914 0.19050000607967377
		endloop
	endfacet
	facet normal 0 -1 0
		outer loop
			vertex 0.33074361085891724 0.672798510300914 0.19050000607967377
			vertex 0.33074361085891724 0.672798510300914 -0.19050000607967377
			vertex 0.3688056766986847 0.672798510300914 -0.0986100360751152
		endloop
	endfacet
	facet normal 0 -1 0
		outer loop
			vertex 0.33074361085891724 0.672798510300914 0.19050000607967377
			vertex 0.3688056766986847 0.672798510300914 -0.0986100360751152
			vertex 0.3688056766986847 0.672798510300914 0.0986100435256958
		endloop
	endfacet
	facet normal 0 -1 0
		outer loop
			vertex 0.3688056766986847 0.672798510300914 0.0986100435256958
			vertex 0.3688056766986847 0.672798510300914 -0.0986100360751152
			vertex 0.3817879557609558 0.672798510300914 1.691979943527089e-16
		endloop
	endfacet
	facet normal 0.3826834075118257 0 -0.9238795428058456
		outer loop
			vertex 0.19128793478012085 0.672798510300914 -0.32995566725730896
			vertex 0.09939797222614288 1.4347985495207702 -0.3680177330970764
			vertex 0.19128793478012085 1.4347985495207702 -0.32995566725730896
		endloop
	endfacet
	facet normal 0.3826834075118257 0 -0.9238795428058456
		outer loop
			vertex 0.09939797222614288 1.4347985495207702 -0.3680177330970764
			vertex 0.19128793478012085 0.672798510300914 -0.32995566725730896
			vertex 0.09939797222614288 0.672798510300914 -0.3680177330970764
		endloop
	endfacet
	facet normal 0.3826834075118257 0 0.9238795428058456
		outer loop
			vertex 0.09939797222614288 0.672798510300914 0.3680177330970764
			vertex 0.19128793478012085 1.4347985495207702 0.32995566725730896
			vertex 0.09939797222614288 1.4347985495207702 0.3680177330970764
		endloop
	endfacet
	facet normal 0.3826834075118257 0 0.9238795428058456
		outer loop
			vertex 0.19128793478012085 1.4347985495207702 0.32995566725730896
			vertex 0.09939797222614288 0.672798510300914 0.3680177330970764
			vertex 0.19128793478012085 0.672798510300914 0.32995566725730896
		endloop
	endfacet
	facet normal 0.6087612464385244 0 -0.7933534803822407
		outer loop
			vertex 0.2701956331729889 0.672798510300914 -0.2694076895713806
			vertex 0.19128793478012085 1.4347985495207702 -0.32995566725730896
			vertex 0.2701956331729889 1.4347985495207702 -0.2694076895713806
		endloop
	endfacet
	facet normal 0.6087612464385244 0 -0.7933534803822407
		outer loop
			vertex 0.19128793478012085 1.4347985495207702 -0.32995566725730896
			vertex 0.2701956331729889 0.672798510300914 -0.2694076895713806
			vertex 0.19128793478012085 0.672798510300914 -0.32995566725730896
		endloop
	endfacet
	facet normal 0.6087612464385244 0 0.7933534803822407
		outer loop
			vertex 0.19128793478012085 0.672798510300914 0.32995566725730896
			vertex 0.2701956331729889 1.4347985495207702 0.2694076895713806
			vertex 0.19128793478012085 1.4347985495207702 0.32995566725730896
		endloop
	endfacet
	facet normal 0.6087612464385244 0 0.7933534803822407
		outer loop
			vertex 0.2701956331729889 1.4347985495207702 0.2694076895713806
			vertex 0.19128793478012085 0.672798510300914 0.32995566725730896
			vertex 0.2701956331729889 0.672798510300914 0.2694076895713806
		endloop
	endfacet
	facet normal 0.7933534248606959 0 -0.6087613187956379
		outer loop
			vertex 0.33074361085891724 1.4347985495207702 -0.19050000607967377
			vertex 0.2701956331729889 0.672798510300914 -0.2694076895713806
			vertex 0.2701956331729889 1.4347985495207702 -0.2694076895713806
		endloop
	endfacet
	facet normal 0.7933534248606959 0 -0.6087613187956379
		outer loop
			vertex 0.2701956331729889 0.672798510300914 -0.2694076895713806
			vertex 0.33074361085891724 1.4347985495207702 -0.19050000607967377
			vertex 0.33074361085891724 0.672798510300914 -0.19050000607967377
		endloop
	endfacet
	facet normal 0.9238795428058456 0 -0.3826834075118257
		outer loop
			vertex 0.3688056766986847 1.4347985495207702 -0.0986100435256958
			vertex 0.33074361085891724 0.672798510300914 -0.19050000607967377
			vertex 0.33074361085891724 1.4347985495207702 -0.19050000607967377
		endloop
	endfacet
	facet normal 0.9238795537760979 -3.741749641333673e-9 -0.3826833810272909
		outer loop
			vertex 0.33074361085891724 0.672798510300914 -0.19050000607967377
			vertex 0.3688056766986847 1.4347985495207702 -0.0986100435256958
			vertex 0.3688056766986847 0.672798510300914 -0.0986100360751152
		endloop
	endfacet
	facet normal 0.991444834642623 -1.2762432780603029e-9 -0.13052639526341753
		outer loop
			vertex 0.3817879557609558 1.4347985495207702 0
			vertex 0.3688056766986847 0.672798510300914 -0.0986100360751152
			vertex 0.3688056766986847 1.4347985495207702 -0.0986100435256958
		endloop
	endfacet
	facet normal 0.9914448333663776 -2.8982683454295584e-17 -0.13052640495744938
		outer loop
			vertex 0.3688056766986847 0.672798510300914 -0.0986100360751152
			vertex 0.3817879557609558 1.4347985495207702 0
			vertex 0.3817879557609558 0.672798510300914 1.691979943527089e-16
		endloop
	endfacet
	facet normal 0.991444834642623 2.898268130178815e-17 0.13052639526341753
		outer loop
			vertex 0.3688056766986847 1.4347985495207702 0.0986100435256958
			vertex 0.3817879557609558 0.672798510300914 1.691979943527089e-16
			vertex 0.3817879557609558 1.4347985495207702 0
		endloop
	endfacet
	facet normal 0.9914448346426231 0 0.13052639526341775
		outer loop
			vertex 0.3817879557609558 0.672798510300914 1.691979943527089e-16
			vertex 0.3688056766986847 1.4347985495207702 0.0986100435256958
			vertex 0.3688056766986847 0.672798510300914 0.0986100435256958
		endloop
	endfacet
	facet normal 0.9238795428058456 0 0.3826834075118257
		outer loop
			vertex 0.33074361085891724 1.4347985495207702 0.19050000607967377
			vertex 0.3688056766986847 0.672798510300914 0.0986100435256958
			vertex 0.3688056766986847 1.4347985495207702 0.0986100435256958
		endloop
	endfacet
	facet normal 0.9238795428058456 0 0.3826834075118257
		outer loop
			vertex 0.3688056766986847 0.672798510300914 0.0986100435256958
			vertex 0.33074361085891724 1.4347985495207702 0.19050000607967377
			vertex 0.33074361085891724 0.672798510300914 0.19050000607967377
		endloop
	endfacet
	facet normal 0.7933534248606959 0 0.6087613187956379
		outer loop
			vertex 0.2701956331729889 1.4347985495207702 0.2694076895713806
			vertex 0.33074361085891724 0.672798510300914 0.19050000607967377
			vertex 0.33074361085891724 1.4347985495207702 0.19050000607967377
		endloop
	endfacet
	facet normal 0.7933534248606959 0 0.6087613187956379
		outer loop
			vertex 0.33074361085891724 0.672798510300914 0.19050000607967377
			vertex 0.2701956331729889 1.4347985495207702 0.2694076895713806
			vertex 0.2701956331729889 0.672798510300914 0.2694076895713806
		endloop
	endfacet
	facet normal 0 1 0
		outer loop
			vertex -0.3672298192977905 1.4347985495207702 0.0986100435256958
			vertex -0.3672298192977905 1.4347985495207702 -0.0986100435256958
			vertex -0.38021206855773926 1.4347985495207702 0
		endloop
	endfacet
	facet normal 0 1 0
		outer loop
			vertex -0.3672298192977905 1.4347985495207702 -0.0986100435256958
			vertex -0.3672298192977905 1.4347985495207702 0.0986100435256958
			vertex -0.32916775345802307 1.4347985495207702 0.19050000607967377
		endloop
	endfacet
	facet normal 0 1 0
		outer loop
			vertex -0.3672298192977905 1.4347985495207702 -0.0986100435256958
			vertex -0.32916775345802307 1.4347985495207702 0.19050000607967377
			vertex -0.32916775345802307 1.4347985495207702 -0.19050000607967377
		endloop
	endfacet
	facet normal 0 1 0
		outer loop
			vertex -0.32916775345802307 1.4347985495207702 -0.19050000607967377
			vertex -0.32916775345802307 1.4347985495207702 0.19050000607967377
			vertex -0.26861974596977234 1.4347985495207702 0.2694076895713806
		endloop
	endfacet
	facet normal 0 1 0
		outer loop
			vertex -0.32916775345802307 1.4347985495207702 -0.19050000607967377
			vertex -0.26861974596977234 1.4347985495207702 0.2694076895713806
			vertex -0.26861974596977234 1.4347985495207702 -0.2694076895713806
		endloop
	endfacet
	facet normal 0 1 0
		outer loop
			vertex -0.26861974596977234 1.4347985495207702 -0.2694076895713806
			vertex -0.26861974596977234 1.4347985495207702 0.2694076895713806
			vertex -0.18971207737922668 1.4347985495207702 0.32995566725730896
		endloop
	endfacet
	facet normal 0 1 0
		outer loop
			vertex -0.26861974596977234 1.4347985495207702 -0.2694076895713806
			vertex -0.18971207737922668 1.4347985495207702 0.32995566725730896
			vertex -0.18971207737922668 1.4347985495207702 -0.32995566725730896
		endloop
	endfacet
	facet normal 0 1 0
		outer loop
			vertex -0.18971207737922668 1.4347985495207702 -0.32995566725730896
			vertex -0.18971207737922668 1.4347985495207702 0.32995566725730896
			vertex -0.09782210737466812 1.4347985495207702 0.3680177330970764
		endloop
	endfacet
	facet normal 0 1 0
		outer loop
			vertex -0.18971207737922668 1.4347985495207702 -0.32995566725730896
			vertex -0.09782210737466812 1.4347985495207702 0.3680177330970764
			vertex -0.09782210737466812 1.4347985495207702 -0.3680177330970764
		endloop
	endfacet
	facet normal 0 1 0
		outer loop
			vertex -0.09782210737466812 1.4347985495207702 -0.3680177330970764
			vertex -0.09782210737466812 1.4347985495207702 0.3680177330970764
			vertex 0.0007879346958361566 1.4347985495207702 0.38100001215934753
		endloop
	endfacet
	facet normal 0 1 0
		outer loop
			vertex -0.09782210737466812 1.4347985495207702 -0.3680177330970764
			vertex 0.0007879346958361566 1.4347985495207702 0.38100001215934753
			vertex 0.0007879346958361566 1.4347985495207702 -0.38100001215934753
		endloop
	endfacet
	facet normal 0 1 0
		outer loop
			vertex 0.0007879346958361566 1.4347985495207702 -0.38100001215934753
			vertex 0.0007879346958361566 1.4347985495207702 0.38100001215934753
			vertex 0.09939797222614288 1.4347985495207702 0.3680177330970764
		endloop
	endfacet
	facet normal 0 1 0
		outer loop
			vertex 0.0007879346958361566 1.4347985495207702 -0.38100001215934753
			vertex 0.09939797222614288 1.4347985495207702 0.3680177330970764
			vertex 0.09939797222614288 1.4347985495207702 -0.3680177330970764
		endloop
	endfacet
	facet normal 0 1 0
		outer loop
			vertex 0.09939797222614288 1.4347985495207702 -0.3680177330970764
			vertex 0.09939797222614288 1.4347985495207702 0.3680177330970764
			vertex 0.19128793478012085 1.4347985495207702 0.32995566725730896
		endloop
	endfacet
	facet normal 0 1 0
		outer loop
			vertex 0.09939797222614288 1.4347985495207702 -0.3680177330970764
			vertex 0.19128793478012085 1.4347985495207702 0.32995566725730896
			vertex 0.19128793478012085 1.4347985495207702 -0.32995566725730896
		endloop
	endfacet
	facet normal 0 1 0
		outer loop
			vertex 0.19128793478012085 1.4347985495207702 -0.32995566725730896
			vertex 0.19128793478012085 1.4347985495207702 0.32995566725730896
			vertex 0.2701956331729889 1.4347985495207702 0.2694076895713806
		endloop
	endfacet
	facet normal 0 1 0
		outer loop
			vertex 0.19128793478012085 1.4347985495207702 -0.32995566725730896
			vertex 0.2701956331729889 1.4347985495207702 0.2694076895713806
			vertex 0.2701956331729889 1.4347985495207702 -0.2694076895713806
		endloop
	endfacet
	facet normal 0 1 0
		outer loop
			vertex 0.2701956331729889 1.4347985495207702 -0.2694076895713806
			vertex 0.2701956331729889 1.4347985495207702 0.2694076895713806
			vertex 0.33074361085891724 1.4347985495207702 0.19050000607967377
		endloop
	endfacet
	facet normal 0 1 0
		outer loop
			vertex 0.2701956331729889 1.4347985495207702 -0.2694076895713806
			vertex 0.33074361085891724 1.4347985495207702 0.19050000607967377
			vertex 0.33074361085891724 1.4347985495207702 -0.19050000607967377
		endloop
	endfacet
	facet normal 0 1 0
		outer loop
			vertex 0.33074361085891724 1.4347985495207702 -0.19050000607967377
			vertex 0.33074361085891724 1.4347985495207702 0.19050000607967377
			vertex 0.3688056766986847 1.4347985495207702 0.0986100435256958
		endloop
	endfacet
	facet normal 0 1 0
		outer loop
			vertex 0.33074361085891724 1.4347985495207702 -0.19050000607967377
			vertex 0.3688056766986847 1.4347985495207702 0.0986100435256958
			vertex 0.3688056766986847 1.4347985495207702 -0.0986100435256958
		endloop
	endfacet
	facet normal 0 1 0
		outer loop
			vertex 0.3688056766986847 1.4347985495207702 -0.0986100435256958
			vertex 0.3688056766986847 1.4347985495207702 0.0986100435256958
			vertex 0.3817879557609558 1.4347985495207702 0
		endloop
	endfacet
	facet normal -0.7933532801464609 0 0.6087615073909087
		outer loop
			vertex -0.26861974596977234 0.672798510300914 0.2694076895713806
			vertex -0.32916775345802307 1.4347985495207702 0.19050000607967377
			vertex -0.32916775345802307 0.672798510300914 0.19050000607967377
		endloop
	endfacet
	facet normal -0.7933532801464609 0 0.6087615073909087
		outer loop
			vertex -0.32916775345802307 1.4347985495207702 0.19050000607967377
			vertex -0.26861974596977234 0.672798510300914 0.2694076895713806
			vertex -0.26861974596977234 1.4347985495207702 0.2694076895713806
		endloop
	endfacet
	facet normal -0.9914448436985298 0 -0.13052632647706705
		outer loop
			vertex -0.1292659044265747 0.013423811304370092 1.691979943527089e-16
			vertex -0.1249384805560112 0.7754238356230652 -0.032870013266801834
			vertex -0.1249384805560112 0.013423811304370092 -0.032870013266801834
		endloop
	endfacet
	facet normal -0.9914448436985298 -2.8982666594916155e-17 -0.13052632647706772
		outer loop
			vertex -0.1249384805560112 0.7754238356230652 -0.032870013266801834
			vertex -0.1292659044265747 0.013423811304370092 1.691979943527089e-16
			vertex -0.1292659044265747 0.7754238356230652 0
		endloop
	endfacet
	facet normal -0.9238795482909719 0 -0.3826833942695578
		outer loop
			vertex -0.1249384805560112 0.013423811304370092 -0.032870013266801834
			vertex -0.11225112527608871 0.7754238356230652 -0.06350000202655792
			vertex -0.11225112527608871 0.013423811304370092 -0.06350000202655792
		endloop
	endfacet
	facet normal -0.9238795482909719 0 -0.3826833942695578
		outer loop
			vertex -0.11225112527608871 0.7754238356230652 -0.06350000202655792
			vertex -0.1249384805560112 0.013423811304370092 -0.032870013266801834
			vertex -0.1249384805560112 0.7754238356230652 -0.032870013266801834
		endloop
	endfacet
	facet normal -0.7933533886821363 0 -0.6087613659444653
		outer loop
			vertex -0.11225112527608871 0.013423811304370092 -0.06350000202655792
			vertex -0.09206846356391907 0.7754238356230652 -0.0898025631904602
			vertex -0.09206846356391907 0.013423811304370092 -0.0898025631904602
		endloop
	endfacet
	facet normal -0.7933533886821363 0 -0.6087613659444653
		outer loop
			vertex -0.09206846356391907 0.7754238356230652 -0.0898025631904602
			vertex -0.11225112527608871 0.013423811304370092 -0.06350000202655792
			vertex -0.11225112527608871 0.7754238356230652 -0.06350000202655792
		endloop
	endfacet
	facet normal -0.6087613659444653 0 -0.7933533886821363
		outer loop
			vertex -0.06576590240001678 0.013423811304370092 -0.10998522490262985
			vertex -0.09206846356391907 0.7754238356230652 -0.0898025631904602
			vertex -0.06576590240001678 0.7754238356230652 -0.10998522490262985
		endloop
	endfacet
	facet normal -0.6087613659444653 0 -0.7933533886821363
		outer loop
			vertex -0.09206846356391907 0.7754238356230652 -0.0898025631904602
			vertex -0.06576590240001678 0.013423811304370092 -0.10998522490262985
			vertex -0.09206846356391907 0.013423811304370092 -0.0898025631904602
		endloop
	endfacet
	facet normal -0.9238795482909719 0 0.3826833942695578
		outer loop
			vertex -0.11225112527608871 0.013423811304370092 0.06350000202655792
			vertex -0.1249384805560112 0.7754238356230652 0.032870013266801834
			vertex -0.1249384805560112 0.013423811304370092 0.032870013266801834
		endloop
	endfacet
	facet normal -0.9238795482909719 0 0.3826833942695578
		outer loop
			vertex -0.1249384805560112 0.7754238356230652 0.032870013266801834
			vertex -0.11225112527608871 0.013423811304370092 0.06350000202655792
			vertex -0.11225112527608871 0.7754238356230652 0.06350000202655792
		endloop
	endfacet
	facet normal -0.9914448436985296 2.896861552994381e-17 0.13052632647706836
		outer loop
			vertex -0.1292659044265747 0.013423811304370092 1.691979943527089e-16
			vertex -0.1249384805560112 0.013423811304370092 0.032870013266801834
			vertex -0.1292659044265747 0.7754238356230652 0
		endloop
	endfacet
	facet normal -0.9914448436985298 0 0.13052632647706772
		outer loop
			vertex -0.1292659044265747 0.7754238356230652 0
			vertex -0.1249384805560112 0.013423811304370092 0.032870013266801834
			vertex -0.1249384805560112 0.7754238356230652 0.032870013266801834
		endloop
	endfacet
	facet normal -0.3826833545427594 0 -0.9238795647463477
		outer loop
			vertex -0.0351359099149704 0.013423811304370092 -0.12267258018255234
			vertex -0.06576590240001678 0.7754238356230652 -0.10998522490262985
			vertex -0.0351359099149704 0.7754238356230652 -0.12267258018255234
		endloop
	endfacet
	facet normal -0.3826833545427594 0 -0.9238795647463477
		outer loop
			vertex -0.06576590240001678 0.7754238356230652 -0.10998522490262985
			vertex -0.0351359099149704 0.013423811304370092 -0.12267258018255234
			vertex -0.06576590240001678 0.013423811304370092 -0.10998522490262985
		endloop
	endfacet
	facet normal -0.6087613659444653 0 0.7933533886821363
		outer loop
			vertex -0.09206846356391907 0.013423811304370092 0.0898025631904602
			vertex -0.06576590240001678 0.7754238356230652 0.10998522490262985
			vertex -0.09206846356391907 0.7754238356230652 0.0898025631904602
		endloop
	endfacet
	facet normal -0.6087613659444653 0 0.7933533886821363
		outer loop
			vertex -0.06576590240001678 0.7754238356230652 0.10998522490262985
			vertex -0.09206846356391907 0.013423811304370092 0.0898025631904602
			vertex -0.06576590240001678 0.013423811304370092 0.10998522490262985
		endloop
	endfacet
	facet normal -0.3826833545427594 0 0.9238795647463477
		outer loop
			vertex -0.06576590240001678 0.013423811304370092 0.10998522490262985
			vertex -0.0351359099149704 0.7754238356230652 0.12267258018255234
			vertex -0.06576590240001678 0.7754238356230652 0.10998522490262985
		endloop
	endfacet
	facet normal -0.3826833545427594 0 0.9238795647463477
		outer loop
			vertex -0.0351359099149704 0.7754238356230652 0.12267258018255234
			vertex -0.06576590240001678 0.013423811304370092 0.10998522490262985
			vertex -0.0351359099149704 0.013423811304370092 0.12267258018255234
		endloop
	endfacet
	facet normal -0.13052632829469776 0 0.991444843459234
		outer loop
			vertex -0.0351359099149704 0.013423811304370092 0.12267258018255234
			vertex -0.002265897113829851 0.7754238356230652 0.12700000405311584
			vertex -0.0351359099149704 0.7754238356230652 0.12267258018255234
		endloop
	endfacet
	facet normal -0.13052632829469776 0 0.991444843459234
		outer loop
			vertex -0.002265897113829851 0.7754238356230652 0.12700000405311584
			vertex -0.0351359099149704 0.013423811304370092 0.12267258018255234
			vertex -0.002265897113829851 0.013423811304370092 0.12700000405311584
		endloop
	endfacet
	facet normal -0.13052632829469776 0 -0.991444843459234
		outer loop
			vertex -0.002265897113829851 0.013423811304370092 -0.12700000405311584
			vertex -0.0351359099149704 0.7754238356230652 -0.12267258018255234
			vertex -0.002265897113829851 0.7754238356230652 -0.12700000405311584
		endloop
	endfacet
	facet normal -0.13052632829469776 0 -0.991444843459234
		outer loop
			vertex -0.0351359099149704 0.7754238356230652 -0.12267258018255234
			vertex -0.002265897113829851 0.013423811304370092 -0.12700000405311584
			vertex -0.0351359099149704 0.013423811304370092 -0.12267258018255234
		endloop
	endfacet
	facet normal 0.13052632465943773 0 -0.9914448439378256
		outer loop
			vertex 0.03060411661863327 0.013423811304370092 -0.12267258018255234
			vertex -0.002265897113829851 0.7754238356230652 -0.12700000405311584
			vertex 0.03060411661863327 0.7754238356230652 -0.12267258018255234
		endloop
	endfacet
	facet normal 0.13052632465943773 0 -0.9914448439378256
		outer loop
			vertex -0.002265897113829851 0.7754238356230652 -0.12700000405311584
			vertex 0.03060411661863327 0.013423811304370092 -0.12267258018255234
			vertex -0.002265897113829851 0.013423811304370092 -0.12700000405311584
		endloop
	endfacet
	facet normal 0.13052632465943773 0 0.9914448439378256
		outer loop
			vertex -0.002265897113829851 0.013423811304370092 0.12700000405311584
			vertex 0.03060411661863327 0.7754238356230652 0.12267258018255234
			vertex -0.002265897113829851 0.7754238356230652 0.12700000405311584
		endloop
	endfacet
	facet normal 0.13052632465943773 0 0.9914448439378256
		outer loop
			vertex 0.03060411661863327 0.7754238356230652 0.12267258018255234
			vertex -0.002265897113829851 0.013423811304370092 0.12700000405311584
			vertex 0.03060411661863327 0.013423811304370092 0.12267258018255234
		endloop
	endfacet
	facet normal 0 -1 0
		outer loop
			vertex -0.1292659044265747 0.013423811304370092 1.691979943527089e-16
			vertex -0.1249384805560112 0.013423811304370092 -0.032870013266801834
			vertex -0.1249384805560112 0.013423811304370092 0.032870013266801834
		endloop
	endfacet
	facet normal 0 -1 0
		outer loop
			vertex -0.1249384805560112 0.013423811304370092 0.032870013266801834
			vertex -0.1249384805560112 0.013423811304370092 -0.032870013266801834
			vertex -0.11225112527608871 0.013423811304370092 -0.06350000202655792
		endloop
	endfacet
	facet normal 0 -1 0
		outer loop
			vertex -0.1249384805560112 0.013423811304370092 0.032870013266801834
			vertex -0.11225112527608871 0.013423811304370092 -0.06350000202655792
			vertex -0.11225112527608871 0.013423811304370092 0.06350000202655792
		endloop
	endfacet
	facet normal 0 -1 0
		outer loop
			vertex -0.11225112527608871 0.013423811304370092 0.06350000202655792
			vertex -0.11225112527608871 0.013423811304370092 -0.06350000202655792
			vertex -0.09206846356391907 0.013423811304370092 -0.0898025631904602
		endloop
	endfacet
	facet normal 0 -1 0
		outer loop
			vertex -0.11225112527608871 0.013423811304370092 0.06350000202655792
			vertex -0.09206846356391907 0.013423811304370092 -0.0898025631904602
			vertex -0.09206846356391907 0.013423811304370092 0.0898025631904602
		endloop
	endfacet
	facet normal 0 -1 0
		outer loop
			vertex -0.09206846356391907 0.013423811304370092 0.0898025631904602
			vertex -0.09206846356391907 0.013423811304370092 -0.0898025631904602
			vertex -0.06576590240001678 0.013423811304370092 -0.10998522490262985
		endloop
	endfacet
	facet normal 0 -1 0
		outer loop
			vertex -0.09206846356391907 0.013423811304370092 0.0898025631904602
			vertex -0.06576590240001678 0.013423811304370092 -0.10998522490262985
			vertex -0.06576590240001678 0.013423811304370092 0.10998522490262985
		endloop
	endfacet
	facet normal 0 -1 0
		outer loop
			vertex -0.06576590240001678 0.013423811304370092 0.10998522490262985
			vertex -0.06576590240001678 0.013423811304370092 -0.10998522490262985
			vertex -0.0351359099149704 0.013423811304370092 -0.12267258018255234
		endloop
	endfacet
	facet normal 0 -1 0
		outer loop
			vertex -0.06576590240001678 0.013423811304370092 0.10998522490262985
			vertex -0.0351359099149704 0.013423811304370092 -0.12267258018255234
			vertex -0.0351359099149704 0.013423811304370092 0.12267258018255234
		endloop
	endfacet
	facet normal 0 -1 0
		outer loop
			vertex -0.0351359099149704 0.013423811304370092 0.12267258018255234
			vertex -0.0351359099149704 0.013423811304370092 -0.12267258018255234
			vertex -0.002265897113829851 0.013423811304370092 -0.12700000405311584
		endloop
	endfacet
	facet normal 0 -1 0
		outer loop
			vertex -0.0351359099149704 0.013423811304370092 0.12267258018255234
			vertex -0.002265897113829851 0.013423811304370092 -0.12700000405311584
			vertex -0.002265897113829851 0.013423811304370092 0.12700000405311584
		endloop
	endfacet
	facet normal 0 -1 0
		outer loop
			vertex -0.002265897113829851 0.013423811304370092 0.12700000405311584
			vertex -0.002265897113829851 0.013423811304370092 -0.12700000405311584
			vertex 0.03060411661863327 0.013423811304370092 -0.12267258018255234
		endloop
	endfacet
	facet normal 0 -1 0
		outer loop
			vertex -0.002265897113829851 0.013423811304370092 0.12700000405311584
			vertex 0.03060411661863327 0.013423811304370092 -0.12267258018255234
			vertex 0.03060411661863327 0.013423811304370092 0.12267258018255234
		endloop
	endfacet
	facet normal 0 -1 0
		outer loop
			vertex 0.03060411661863327 0.013423811304370092 0.12267258018255234
			vertex 0.03060411661863327 0.013423811304370092 -0.12267258018255234
			vertex 0.06123410537838936 0.013423811304370092 -0.10998522490262985
		endloop
	endfacet
	facet normal 0 -1 0
		outer loop
			vertex 0.03060411661863327 0.013423811304370092 0.12267258018255234
			vertex 0.06123410537838936 0.013423811304370092 -0.10998522490262985
			vertex 0.06123410537838936 0.013423811304370092 0.10998522490262985
		endloop
	endfacet
	facet normal 0 -1 0
		outer loop
			vertex 0.06123410537838936 0.013423811304370092 0.10998522490262985
			vertex 0.06123410537838936 0.013423811304370092 -0.10998522490262985
			vertex 0.08753666281700134 0.013423811304370092 -0.0898025631904602
		endloop
	endfacet
	facet normal 0 -1 0
		outer loop
			vertex 0.06123410537838936 0.013423811304370092 0.10998522490262985
			vertex 0.08753666281700134 0.013423811304370092 -0.0898025631904602
			vertex 0.08753666281700134 0.013423811304370092 0.0898025631904602
		endloop
	endfacet
	facet normal 0 -1 0
		outer loop
			vertex 0.08753666281700134 0.013423811304370092 0.0898025631904602
			vertex 0.08753666281700134 0.013423811304370092 -0.0898025631904602
			vertex 0.10771932452917099 0.013423811304370092 -0.06350000202655792
		endloop
	endfacet
	facet normal 0 -1 0
		outer loop
			vertex 0.08753666281700134 0.013423811304370092 0.0898025631904602
			vertex 0.10771932452917099 0.013423811304370092 -0.06350000202655792
			vertex 0.10771932452917099 0.013423811304370092 0.06350000202655792
		endloop
	endfacet
	facet normal 0 -1 0
		outer loop
			vertex 0.10771932452917099 0.013423811304370092 0.06350000202655792
			vertex 0.10771932452917099 0.013423811304370092 -0.06350000202655792
			vertex 0.12040667980909348 0.013423811304370092 -0.032870013266801834
		endloop
	endfacet
	facet normal 0 -1 0
		outer loop
			vertex 0.10771932452917099 0.013423811304370092 0.06350000202655792
			vertex 0.12040667980909348 0.013423811304370092 -0.032870013266801834
			vertex 0.12040667980909348 0.013423811304370092 0.032870013266801834
		endloop
	endfacet
	facet normal 0 -1 0
		outer loop
			vertex 0.12040667980909348 0.013423811304370092 0.032870013266801834
			vertex 0.12040667980909348 0.013423811304370092 -0.032870013266801834
			vertex 0.12473410367965698 0.013423811304370092 1.691979943527089e-16
		endloop
	endfacet
	facet normal 0.3826833942695578 0 -0.9238795482909719
		outer loop
			vertex 0.06123410537838936 0.013423811304370092 -0.10998522490262985
			vertex 0.03060411661863327 0.7754238356230652 -0.12267258018255234
			vertex 0.06123410537838936 0.7754238356230652 -0.10998522490262985
		endloop
	endfacet
	facet normal 0.3826833942695578 0 -0.9238795482909719
		outer loop
			vertex 0.03060411661863327 0.7754238356230652 -0.12267258018255234
			vertex 0.06123410537838936 0.013423811304370092 -0.10998522490262985
			vertex 0.03060411661863327 0.013423811304370092 -0.12267258018255234
		endloop
	endfacet
	facet normal 0.3826833942695578 0 0.9238795482909719
		outer loop
			vertex 0.03060411661863327 0.013423811304370092 0.12267258018255234
			vertex 0.06123410537838936 0.7754238356230652 0.10998522490262985
			vertex 0.03060411661863327 0.7754238356230652 0.12267258018255234
		endloop
	endfacet
	facet normal 0.3826833942695578 0 0.9238795482909719
		outer loop
			vertex 0.06123410537838936 0.7754238356230652 0.10998522490262985
			vertex 0.03060411661863327 0.013423811304370092 0.12267258018255234
			vertex 0.06123410537838936 0.013423811304370092 0.10998522490262985
		endloop
	endfacet
	facet normal 0.6087614202123076 0 -0.7933533470409604
		outer loop
			vertex 0.08753666281700134 0.013423811304370092 -0.0898025631904602
			vertex 0.06123410537838936 0.7754238356230652 -0.10998522490262985
			vertex 0.08753666281700134 0.7754238356230652 -0.0898025631904602
		endloop
	endfacet
	facet normal 0.6087614202123076 0 -0.7933533470409604
		outer loop
			vertex 0.06123410537838936 0.7754238356230652 -0.10998522490262985
			vertex 0.08753666281700134 0.013423811304370092 -0.0898025631904602
			vertex 0.06123410537838936 0.013423811304370092 -0.10998522490262985
		endloop
	endfacet
	facet normal 0.6087614202123076 0 0.7933533470409604
		outer loop
			vertex 0.06123410537838936 0.013423811304370092 0.10998522490262985
			vertex 0.08753666281700134 0.7754238356230652 0.0898025631904602
			vertex 0.06123410537838936 0.7754238356230652 0.10998522490262985
		endloop
	endfacet
	facet normal 0.6087614202123076 0 0.7933533470409604
		outer loop
			vertex 0.08753666281700134 0.7754238356230652 0.0898025631904602
			vertex 0.06123410537838936 0.013423811304370092 0.10998522490262985
			vertex 0.08753666281700134 0.013423811304370092 0.0898025631904602
		endloop
	endfacet
	facet normal 0.7933533886821363 0 -0.6087613659444653
		outer loop
			vertex 0.10771932452917099 0.7754238356230652 -0.06350000202655792
			vertex 0.08753666281700134 0.013423811304370092 -0.0898025631904602
			vertex 0.08753666281700134 0.7754238356230652 -0.0898025631904602
		endloop
	endfacet
	facet normal 0.7933533886821363 0 -0.6087613659444653
		outer loop
			vertex 0.08753666281700134 0.013423811304370092 -0.0898025631904602
			vertex 0.10771932452917099 0.7754238356230652 -0.06350000202655792
			vertex 0.10771932452917099 0.013423811304370092 -0.06350000202655792
		endloop
	endfacet
	facet normal 0.9238795482909719 0 -0.3826833942695578
		outer loop
			vertex 0.12040667980909348 0.7754238356230652 -0.032870013266801834
			vertex 0.10771932452917099 0.013423811304370092 -0.06350000202655792
			vertex 0.10771932452917099 0.7754238356230652 -0.06350000202655792
		endloop
	endfacet
	facet normal 0.9238795482909719 0 -0.3826833942695578
		outer loop
			vertex 0.10771932452917099 0.013423811304370092 -0.06350000202655792
			vertex 0.12040667980909348 0.7754238356230652 -0.032870013266801834
			vertex 0.12040667980909348 0.013423811304370092 -0.032870013266801834
		endloop
	endfacet
	facet normal 0.9914448436985298 0 -0.13052632647706772
		outer loop
			vertex 0.12473410367965698 0.7754238356230652 0
			vertex 0.12040667980909348 0.013423811304370092 -0.032870013266801834
			vertex 0.12040667980909348 0.7754238356230652 -0.032870013266801834
		endloop
	endfacet
	facet normal 0.9914448436985298 -2.8982666594916007e-17 -0.13052632647706705
		outer loop
			vertex 0.12040667980909348 0.013423811304370092 -0.032870013266801834
			vertex 0.12473410367965698 0.7754238356230652 0
			vertex 0.12473410367965698 0.013423811304370092 1.691979943527089e-16
		endloop
	endfacet
	facet normal 0.9914448436985298 2.8982666594916155e-17 0.13052632647706772
		outer loop
			vertex 0.12040667980909348 0.7754238356230652 0.032870013266801834
			vertex 0.12473410367965698 0.013423811304370092 1.691979943527089e-16
			vertex 0.12473410367965698 0.7754238356230652 0
		endloop
	endfacet
	facet normal 0.9914448436985296 0 0.13052632647706836
		outer loop
			vertex 0.12473410367965698 0.013423811304370092 1.691979943527089e-16
			vertex 0.12040667980909348 0.7754238356230652 0.032870013266801834
			vertex 0.12040667980909348 0.013423811304370092 0.032870013266801834
		endloop
	endfacet
	facet normal 0.9238795482909719 0 0.3826833942695578
		outer loop
			vertex 0.10771932452917099 0.7754238356230652 0.06350000202655792
			vertex 0.12040667980909348 0.013423811304370092 0.032870013266801834
			vertex 0.12040667980909348 0.7754238356230652 0.032870013266801834
		endloop
	endfacet
	facet normal 0.9238795482909719 0 0.3826833942695578
		outer loop
			vertex 0.12040667980909348 0.013423811304370092 0.032870013266801834
			vertex 0.10771932452917099 0.7754238356230652 0.06350000202655792
			vertex 0.10771932452917099 0.013423811304370092 0.06350000202655792
		endloop
	endfacet
	facet normal 0.7933533886821363 0 0.6087613659444653
		outer loop
			vertex 0.08753666281700134 0.7754238356230652 0.0898025631904602
			vertex 0.10771932452917099 0.013423811304370092 0.06350000202655792
			vertex 0.10771932452917099 0.7754238356230652 0.06350000202655792
		endloop
	endfacet
	facet normal 0.7933533886821363 0 0.6087613659444653
		outer loop
			vertex 0.10771932452917099 0.013423811304370092 0.06350000202655792
			vertex 0.08753666281700134 0.7754238356230652 0.0898025631904602
			vertex 0.08753666281700134 0.013423811304370092 0.0898025631904602
		endloop
	endfacet
	facet normal 0 1 0
		outer loop
			vertex -0.1249384805560112 0.7754238356230652 0.032870013266801834
			vertex -0.1249384805560112 0.7754238356230652 -0.032870013266801834
			vertex -0.1292659044265747 0.7754238356230652 0
		endloop
	endfacet
	facet normal 0 1 0
		outer loop
			vertex -0.1249384805560112 0.7754238356230652 -0.032870013266801834
			vertex -0.1249384805560112 0.7754238356230652 0.032870013266801834
			vertex -0.11225112527608871 0.7754238356230652 0.06350000202655792
		endloop
	endfacet
	facet normal 0 1 0
		outer loop
			vertex -0.1249384805560112 0.7754238356230652 -0.032870013266801834
			vertex -0.11225112527608871 0.7754238356230652 0.06350000202655792
			vertex -0.11225112527608871 0.7754238356230652 -0.06350000202655792
		endloop
	endfacet
	facet normal 0 1 0
		outer loop
			vertex -0.11225112527608871 0.7754238356230652 -0.06350000202655792
			vertex -0.11225112527608871 0.7754238356230652 0.06350000202655792
			vertex -0.09206846356391907 0.7754238356230652 0.0898025631904602
		endloop
	endfacet
	facet normal 0 1 0
		outer loop
			vertex -0.11225112527608871 0.7754238356230652 -0.06350000202655792
			vertex -0.09206846356391907 0.7754238356230652 0.0898025631904602
			vertex -0.09206846356391907 0.7754238356230652 -0.0898025631904602
		endloop
	endfacet
	facet normal 0 1 0
		outer loop
			vertex -0.09206846356391907 0.7754238356230652 -0.0898025631904602
			vertex -0.09206846356391907 0.7754238356230652 0.0898025631904602
			vertex -0.06576590240001678 0.7754238356230652 0.10998522490262985
		endloop
	endfacet
	facet normal 0 1 0
		outer loop
			vertex -0.09206846356391907 0.7754238356230652 -0.0898025631904602
			vertex -0.06576590240001678 0.7754238356230652 0.10998522490262985
			vertex -0.06576590240001678 0.7754238356230652 -0.10998522490262985
		endloop
	endfacet
	facet normal 0 1 0
		outer loop
			vertex -0.06576590240001678 0.7754238356230652 -0.10998522490262985
			vertex -0.06576590240001678 0.7754238356230652 0.10998522490262985
			vertex -0.0351359099149704 0.7754238356230652 0.12267258018255234
		endloop
	endfacet
	facet normal 0 1 0
		outer loop
			vertex -0.06576590240001678 0.7754238356230652 -0.10998522490262985
			vertex -0.0351359099149704 0.7754238356230652 0.12267258018255234
			vertex -0.0351359099149704 0.7754238356230652 -0.12267258018255234
		endloop
	endfacet
	facet normal 0 1 0
		outer loop
			vertex -0.0351359099149704 0.7754238356230652 -0.12267258018255234
			vertex -0.0351359099149704 0.7754238356230652 0.12267258018255234
			vertex -0.002265897113829851 0.7754238356230652 0.12700000405311584
		endloop
	endfacet
	facet normal 0 1 0
		outer loop
			vertex -0.0351359099149704 0.7754238356230652 -0.12267258018255234
			vertex -0.002265897113829851 0.7754238356230652 0.12700000405311584
			vertex -0.002265897113829851 0.7754238356230652 -0.12700000405311584
		endloop
	endfacet
	facet normal 0 1 0
		outer loop
			vertex -0.002265897113829851 0.7754238356230652 -0.12700000405311584
			vertex -0.002265897113829851 0.7754238356230652 0.12700000405311584
			vertex 0.03060411661863327 0.7754238356230652 0.12267258018255234
		endloop
	endfacet
	facet normal 0 1 0
		outer loop
			vertex -0.002265897113829851 0.7754238356230652 -0.12700000405311584
			vertex 0.03060411661863327 0.7754238356230652 0.12267258018255234
			vertex 0.03060411661863327 0.7754238356230652 -0.12267258018255234
		endloop
	endfacet
	facet normal 0 1 0
		outer loop
			vertex 0.03060411661863327 0.7754238356230652 -0.12267258018255234
			vertex 0.03060411661863327 0.7754238356230652 0.12267258018255234
			vertex 0.06123410537838936 0.7754238356230652 0.10998522490262985
		endloop
	endfacet
	facet normal 0 1 0
		outer loop
			vertex 0.03060411661863327 0.7754238356230652 -0.12267258018255234
			vertex 0.06123410537838936 0.7754238356230652 0.10998522490262985
			vertex 0.06123410537838936 0.7754238356230652 -0.10998522490262985
		endloop
	endfacet
	facet normal 0 1 0
		outer loop
			vertex 0.06123410537838936 0.7754238356230652 -0.10998522490262985
			vertex 0.06123410537838936 0.7754238356230652 0.10998522490262985
			vertex 0.08753666281700134 0.7754238356230652 0.0898025631904602
		endloop
	endfacet
	facet normal 0 1 0
		outer loop
			vertex 0.06123410537838936 0.7754238356230652 -0.10998522490262985
			vertex 0.08753666281700134 0.7754238356230652 0.0898025631904602
			vertex 0.08753666281700134 0.7754238356230652 -0.0898025631904602
		endloop
	endfacet
	facet normal 0 1 0
		outer loop
			vertex 0.08753666281700134 0.7754238356230652 -0.0898025631904602
			vertex 0.08753666281700134 0.7754238356230652 0.0898025631904602
			vertex 0.10771932452917099 0.7754238356230652 0.06350000202655792
		endloop
	endfacet
	facet normal 0 1 0
		outer loop
			vertex 0.08753666281700134 0.7754238356230652 -0.0898025631904602
			vertex 0.10771932452917099 0.7754238356230652 0.06350000202655792
			vertex 0.10771932452917099 0.7754238356230652 -0.06350000202655792
		endloop
	endfacet
	facet normal 0 1 0
		outer loop
			vertex 0.10771932452917099 0.7754238356230652 -0.06350000202655792
			vertex 0.10771932452917099 0.7754238356230652 0.06350000202655792
			vertex 0.12040667980909348 0.7754238356230652 0.032870013266801834
		endloop
	endfacet
	facet normal 0 1 0
		outer loop
			vertex 0.10771932452917099 0.7754238356230652 -0.06350000202655792
			vertex 0.12040667980909348 0.7754238356230652 0.032870013266801834
			vertex 0.12040667980909348 0.7754238356230652 -0.032870013266801834
		endloop
	endfacet
	facet normal 0 1 0
		outer loop
			vertex 0.12040667980909348 0.7754238356230652 -0.032870013266801834
			vertex 0.12040667980909348 0.7754238356230652 0.032870013266801834
			vertex 0.12473410367965698 0.7754238356230652 0
		endloop
	endfacet
	facet normal -0.7933533886821363 0 0.6087613659444653
		outer loop
			vertex -0.09206846356391907 0.013423811304370092 0.0898025631904602
			vertex -0.11225112527608871 0.7754238356230652 0.06350000202655792
			vertex -0.11225112527608871 0.013423811304370092 0.06350000202655792
		endloop
	endfacet
	facet normal -0.7933533886821363 0 0.6087613659444653
		outer loop
			vertex -0.11225112527608871 0.7754238356230652 0.06350000202655792
			vertex -0.09206846356391907 0.013423811304370092 0.0898025631904602
			vertex -0.09206846356391907 0.7754238356230652 0.0898025631904602
		endloop
	endfacet
endsolid exported
