solid exported
	facet normal 0 1 0
		outer loop
			vertex 0.4926646947860718 0.933794379234314 2.57313871383667
			vertex 0.4520246982574463 0.933794379234314 2.552818775177002
			vertex 0.4520246982574463 0.933794379234314 2.57313871383667
		endloop
	endfacet
	facet normal 0 1 0
		outer loop
			vertex 0.4520246982574463 0.933794379234314 2.552818775177002
			vertex 0.4926646947860718 0.933794379234314 2.57313871383667
			vertex 0.4926646947860718 0.933794379234314 2.552818775177002
		endloop
	endfacet
	facet normal 0 1 0
		outer loop
			vertex -0.025495288893580437 0.933794379234314 2.57313871383667
			vertex -0.06613530963659286 0.933794379234314 2.552818775177002
			vertex -0.06613530963659286 0.933794379234314 2.57313871383667
		endloop
	endfacet
	facet normal 0 1 0
		outer loop
			vertex -0.06613530963659286 0.933794379234314 2.552818775177002
			vertex -0.025495288893580437 0.933794379234314 2.57313871383667
			vertex -0.025495288893580437 0.933794379234314 2.552818775177002
		endloop
	endfacet
	facet normal 0 1 0
		outer loop
			vertex 0.5028247237205505 0.9947543740272522 2.517258882522583
			vertex 0.4418647289276123 0.9947543740272522 2.441058874130249
			vertex 0.4418647289276123 0.9947543740272522 2.517258882522583
		endloop
	endfacet
	facet normal 0 1 0
		outer loop
			vertex 0.4418647289276123 0.9947543740272522 2.441058874130249
			vertex 0.5028247237205505 0.9947543740272522 2.517258882522583
			vertex 0.5028247237205505 0.9947543740272522 2.441058874130249
		endloop
	endfacet
endsolid exported
