solid exported
	facet normal 0 1 0
		outer loop
			vertex -0.015335296280682087 1.4062345027923584 2.578218698501587
			vertex -0.07629530131816864 1.4062345027923584 2.547738790512085
			vertex -0.07629530131816864 1.4062345027923584 2.578218698501587
		endloop
	endfacet
	facet normal 0 1 0
		outer loop
			vertex -0.07629530131816864 1.4062345027923584 2.547738790512085
			vertex -0.015335296280682087 1.4062345027923584 2.578218698501587
			vertex -0.015335296280682087 1.4062345027923584 2.547738790512085
		endloop
	endfacet
	facet normal 0 1 0
		outer loop
			vertex 0.5028247237205505 1.4062345027923584 2.578218698501587
			vertex 0.4418647289276123 1.4062345027923584 2.547738790512085
			vertex 0.4418647289276123 1.4062345027923584 2.578218698501587
		endloop
	endfacet
	facet normal 0 1 0
		outer loop
			vertex 0.4418647289276123 1.4062345027923584 2.547738790512085
			vertex 0.5028247237205505 1.4062345027923584 2.578218698501587
			vertex 0.5028247237205505 1.4062345027923584 2.547738790512085
		endloop
	endfacet
	facet normal -1 0 0
		outer loop
			vertex -0.015335296280682087 1.441794514656067 2.935220956802368
			vertex -0.015335296280682087 1.4519543647766113 2.9403011798858643
			vertex -0.015335296280682087 1.4519543647766113 2.578218698501587
		endloop
	endfacet
	facet normal -1 0 0
		outer loop
			vertex -0.015335296280682087 1.441794514656067 2.935220956802368
			vertex -0.015335296280682087 1.4519543647766113 2.578218698501587
			vertex -0.015335296280682087 1.441794514656067 2.8844211101531982
		endloop
	endfacet
	facet normal -1 0 0
		outer loop
			vertex -0.015335296280682087 1.441794514656067 2.8844211101531982
			vertex -0.015335296280682087 1.4519543647766113 2.578218698501587
			vertex -0.015335296280682087 1.441794514656067 2.8793411254882812
		endloop
	endfacet
	facet normal -1 0 0
		outer loop
			vertex -0.015335296280682087 1.441794514656067 2.8793411254882812
			vertex -0.015335296280682087 1.4519543647766113 2.578218698501587
			vertex -0.015335296280682087 1.441794514656067 2.7929811477661133
		endloop
	endfacet
	facet normal -1 0 0
		outer loop
			vertex -0.015335296280682087 1.441794514656067 2.7929811477661133
			vertex -0.015335296280682087 1.4519543647766113 2.578218698501587
			vertex -0.015335296280682087 1.441794514656067 2.7879011631011963
		endloop
	endfacet
	facet normal -1 0 0
		outer loop
			vertex -0.015335296280682087 1.441794514656067 2.7879011631011963
			vertex -0.015335296280682087 1.4519543647766113 2.578218698501587
			vertex -0.015335296280682087 1.441794514656067 2.7015411853790283
		endloop
	endfacet
	facet normal -1 0 0
		outer loop
			vertex -0.015335296280682087 1.441794514656067 2.7015411853790283
			vertex -0.015335296280682087 1.4519543647766113 2.578218698501587
			vertex -0.015335296280682087 1.441794514656067 2.6964609622955322
		endloop
	endfacet
	facet normal -1 0 0
		outer loop
			vertex -0.015335296280682087 1.441794514656067 2.6964609622955322
			vertex -0.015335296280682087 1.4519543647766113 2.578218698501587
			vertex -0.015335296280682087 1.441794514656067 2.6101009845733643
		endloop
	endfacet
	facet normal -1 0 0
		outer loop
			vertex -0.015335296280682087 1.441794514656067 2.6101009845733643
			vertex -0.015335296280682087 1.4519543647766113 2.578218698501587
			vertex -0.015335296280682087 1.441794514656067 2.6050209999084473
		endloop
	endfacet
	facet normal -1 0 0
		outer loop
			vertex -0.015335296280682087 1.441794514656067 2.6050209999084473
			vertex -0.015335296280682087 1.4519543647766113 2.578218698501587
			vertex -0.015335296280682087 1.441794514656067 2.578218698501587
		endloop
	endfacet
	facet normal -1 0 0
		outer loop
			vertex -0.015335296280682087 1.4519543647766113 2.4221410751342773
			vertex -0.015335296280682087 1.441794514656067 2.547738790512085
			vertex -0.015335296280682087 1.4519543647766113 2.547738790512085
		endloop
	endfacet
	facet normal -1 0 0
		outer loop
			vertex -0.015335296280682087 1.441794514656067 2.547738790512085
			vertex -0.015335296280682087 1.4519543647766113 2.4221410751342773
			vertex -0.015335296280682087 1.441794514656067 2.5186610221862793
		endloop
	endfacet
	facet normal -1 0 0
		outer loop
			vertex -0.015335296280682087 1.441794514656067 2.5186610221862793
			vertex -0.015335296280682087 1.4519543647766113 2.4221410751342773
			vertex -0.015335296280682087 1.441794514656067 2.5135810375213623
		endloop
	endfacet
	facet normal -1 0 0
		outer loop
			vertex -0.015335296280682087 1.441794514656067 2.5135810375213623
			vertex -0.015335296280682087 1.4519543647766113 2.4221410751342773
			vertex -0.015335296280682087 1.441794514656067 2.4272210597991943
		endloop
	endfacet
	facet normal 1 0 0
		outer loop
			vertex 0.4418647289276123 1.4519543647766113 2.9403011798858643
			vertex 0.4418647289276123 1.441794514656067 2.935220956802368
			vertex 0.4418647289276123 1.4519543647766113 2.578218698501587
		endloop
	endfacet
	facet normal 1 0 0
		outer loop
			vertex 0.4418647289276123 1.4519543647766113 2.578218698501587
			vertex 0.4418647289276123 1.441794514656067 2.935220956802368
			vertex 0.4418647289276123 1.441794514656067 2.8844211101531982
		endloop
	endfacet
	facet normal 1 0 0
		outer loop
			vertex 0.4418647289276123 1.4519543647766113 2.578218698501587
			vertex 0.4418647289276123 1.441794514656067 2.8844211101531982
			vertex 0.4418647289276123 1.441794514656067 2.8793411254882812
		endloop
	endfacet
	facet normal 1 0 0
		outer loop
			vertex 0.4418647289276123 1.4519543647766113 2.578218698501587
			vertex 0.4418647289276123 1.441794514656067 2.8793411254882812
			vertex 0.4418647289276123 1.441794514656067 2.7929811477661133
		endloop
	endfacet
	facet normal 1 0 0
		outer loop
			vertex 0.4418647289276123 1.4519543647766113 2.578218698501587
			vertex 0.4418647289276123 1.441794514656067 2.7929811477661133
			vertex 0.4418647289276123 1.441794514656067 2.7879011631011963
		endloop
	endfacet
	facet normal 1 0 0
		outer loop
			vertex 0.4418647289276123 1.4519543647766113 2.578218698501587
			vertex 0.4418647289276123 1.441794514656067 2.7879011631011963
			vertex 0.4418647289276123 1.441794514656067 2.7015411853790283
		endloop
	endfacet
	facet normal 1 0 0
		outer loop
			vertex 0.4418647289276123 1.4519543647766113 2.578218698501587
			vertex 0.4418647289276123 1.441794514656067 2.7015411853790283
			vertex 0.4418647289276123 1.441794514656067 2.6964609622955322
		endloop
	endfacet
	facet normal 1 0 0
		outer loop
			vertex 0.4418647289276123 1.4519543647766113 2.578218698501587
			vertex 0.4418647289276123 1.441794514656067 2.6964609622955322
			vertex 0.4418647289276123 1.441794514656067 2.6101009845733643
		endloop
	endfacet
	facet normal 1 0 0
		outer loop
			vertex 0.4418647289276123 1.4519543647766113 2.578218698501587
			vertex 0.4418647289276123 1.441794514656067 2.6101009845733643
			vertex 0.4418647289276123 1.441794514656067 2.6050209999084473
		endloop
	endfacet
	facet normal 1 0 0
		outer loop
			vertex 0.4418647289276123 1.4519543647766113 2.578218698501587
			vertex 0.4418647289276123 1.441794514656067 2.6050209999084473
			vertex 0.4418647289276123 1.441794514656067 2.578218698501587
		endloop
	endfacet
	facet normal 1 0 0
		outer loop
			vertex 0.4418647289276123 1.441794514656067 2.5186610221862793
			vertex 0.4418647289276123 1.4519543647766113 2.547738790512085
			vertex 0.4418647289276123 1.441794514656067 2.547738790512085
		endloop
	endfacet
	facet normal 1 0 0
		outer loop
			vertex 0.4418647289276123 1.4519543647766113 2.547738790512085
			vertex 0.4418647289276123 1.441794514656067 2.5186610221862793
			vertex 0.4418647289276123 1.4519543647766113 2.4221410751342773
		endloop
	endfacet
	facet normal 1 0 0
		outer loop
			vertex 0.4418647289276123 1.4519543647766113 2.4221410751342773
			vertex 0.4418647289276123 1.441794514656067 2.5186610221862793
			vertex 0.4418647289276123 1.441794514656067 2.5135810375213623
		endloop
	endfacet
	facet normal 1 0 0
		outer loop
			vertex 0.4418647289276123 1.4519543647766113 2.4221410751342773
			vertex 0.4418647289276123 1.441794514656067 2.5135810375213623
			vertex 0.4418647289276123 1.441794514656067 2.4272210597991943
		endloop
	endfacet
	facet normal 0 0 1
		outer loop
			vertex 0.43170469999313354 1.441794514656067 2.9403011798858643
			vertex 0.4418647289276123 1.4519543647766113 2.9403011798858643
			vertex 0.29454469680786133 1.441794514656067 2.9403011798858643
		endloop
	endfacet
	facet normal 0 0 1
		outer loop
			vertex 0.29454469680786133 1.441794514656067 2.9403011798858643
			vertex 0.4418647289276123 1.4519543647766113 2.9403011798858643
			vertex 0.28438472747802734 1.441794514656067 2.9403011798858643
		endloop
	endfacet
	facet normal 0 0 1
		outer loop
			vertex 0.28438472747802734 1.441794514656067 2.9403011798858643
			vertex 0.4418647289276123 1.4519543647766113 2.9403011798858643
			vertex 0.14214470982551575 1.441794514656067 2.9403011798858643
		endloop
	endfacet
	facet normal 0 0 1
		outer loop
			vertex 0.14214470982551575 1.441794514656067 2.9403011798858643
			vertex 0.4418647289276123 1.4519543647766113 2.9403011798858643
			vertex 0.13198469579219818 1.441794514656067 2.9403011798858643
		endloop
	endfacet
	facet normal 0 0 1
		outer loop
			vertex 0.13198469579219818 1.441794514656067 2.9403011798858643
			vertex 0.4418647289276123 1.4519543647766113 2.9403011798858643
			vertex -0.00517530320212245 1.441794514656067 2.9403011798858643
		endloop
	endfacet
	facet normal 0 0 1
		outer loop
			vertex -0.015335296280682087 1.4519543647766113 2.9403011798858643
			vertex -0.00517530320212245 1.441794514656067 2.9403011798858643
			vertex 0.4418647289276123 1.4519543647766113 2.9403011798858643
		endloop
	endfacet
	facet normal -1 0 0
		outer loop
			vertex -0.055975291877985 1.4621144533157349 2.557898759841919
			vertex -0.055975291877985 1.4519544839859009 2.568058729171753
			vertex -0.055975291877985 1.4621144533157349 2.568058729171753
		endloop
	endfacet
	facet normal -1 0 0
		outer loop
			vertex -0.055975291877985 1.4519544839859009 2.568058729171753
			vertex -0.055975291877985 1.4621144533157349 2.557898759841919
			vertex -0.055975291877985 1.4519544839859009 2.557898759841919
		endloop
	endfacet
	facet normal 1 0 0
		outer loop
			vertex -0.015335296280682087 1.4214744567871094 2.547738552093506
			vertex -0.015335296280682087 1.4519544839859009 2.578218698501587
			vertex -0.015335296280682087 1.4214744567871094 2.578218698501587
		endloop
	endfacet
	facet normal 1 0 0
		outer loop
			vertex -0.015335296280682087 1.4519544839859009 2.578218698501587
			vertex -0.015335296280682087 1.4214744567871094 2.547738552093506
			vertex -0.015335296280682087 1.4519544839859009 2.547738552093506
		endloop
	endfacet
	facet normal 1 0 0
		outer loop
			vertex -0.03057529777288437 1.4621144533157349 2.555358648300171
			vertex -0.03057529777288437 1.5433944463729858 2.570598840713501
			vertex -0.03057529777288437 1.4621144533157349 2.570598840713501
		endloop
	endfacet
	facet normal 1 0 0
		outer loop
			vertex -0.03057529777288437 1.5433944463729858 2.570598840713501
			vertex -0.03057529777288437 1.4621144533157349 2.555358648300171
			vertex -0.03057529777288437 1.5433944463729858 2.555358648300171
		endloop
	endfacet
	facet normal 1 0 0
		outer loop
			vertex -0.03565530478954315 1.4519544839859009 2.557898759841919
			vertex -0.03565530478954315 1.4621144533157349 2.568058729171753
			vertex -0.03565530478954315 1.4519544839859009 2.568058729171753
		endloop
	endfacet
	facet normal 1 0 0
		outer loop
			vertex -0.03565530478954315 1.4621144533157349 2.568058729171753
			vertex -0.03565530478954315 1.4519544839859009 2.557898759841919
			vertex -0.03565530478954315 1.4621144533157349 2.557898759841919
		endloop
	endfacet
	facet normal 1 0 0
		outer loop
			vertex -0.00517530320212245 1.4062345027923584 2.542658567428589
			vertex -0.00517530320212245 1.4214744567871094 2.585838556289673
			vertex -0.00517530320212245 1.4062345027923584 2.585838556289673
		endloop
	endfacet
	facet normal 1 0 0
		outer loop
			vertex -0.00517530320212245 1.4214744567871094 2.585838556289673
			vertex -0.00517530320212245 1.4062345027923584 2.542658567428589
			vertex -0.00517530320212245 1.4214744567871094 2.542658567428589
		endloop
	endfacet
	facet normal 0 0 -1
		outer loop
			vertex -0.07629530131816864 1.4519544839859009 2.547738552093506
			vertex -0.015335296280682087 1.4214744567871094 2.547738552093506
			vertex -0.07629530131816864 1.4214744567871094 2.547738552093506
		endloop
	endfacet
	facet normal 0 0 -1
		outer loop
			vertex -0.015335296280682087 1.4214744567871094 2.547738552093506
			vertex -0.07629530131816864 1.4519544839859009 2.547738552093506
			vertex -0.015335296280682087 1.4519544839859009 2.547738552093506
		endloop
	endfacet
	facet normal 0 0 1
		outer loop
			vertex -0.03057529777288437 1.5433944463729858 2.570598840713501
			vertex -0.06105530261993408 1.4621144533157349 2.570598840713501
			vertex -0.03057529777288437 1.4621144533157349 2.570598840713501
		endloop
	endfacet
	facet normal 0 0 1
		outer loop
			vertex -0.06105530261993408 1.4621144533157349 2.570598840713501
			vertex -0.03057529777288437 1.5433944463729858 2.570598840713501
			vertex -0.06105530261993408 1.5433944463729858 2.570598840713501
		endloop
	endfacet
	facet normal -1 0 0
		outer loop
			vertex -0.06105530261993408 1.5433944463729858 2.555358648300171
			vertex -0.06105530261993408 1.4621144533157349 2.570598840713501
			vertex -0.06105530261993408 1.5433944463729858 2.570598840713501
		endloop
	endfacet
	facet normal -1 0 0
		outer loop
			vertex -0.06105530261993408 1.4621144533157349 2.570598840713501
			vertex -0.06105530261993408 1.5433944463729858 2.555358648300171
			vertex -0.06105530261993408 1.4621144533157349 2.555358648300171
		endloop
	endfacet
	facet normal 0 0 -1
		outer loop
			vertex -0.06105530261993408 1.5433944463729858 2.555358648300171
			vertex -0.03057529777288437 1.4621144533157349 2.555358648300171
			vertex -0.06105530261993408 1.4621144533157349 2.555358648300171
		endloop
	endfacet
	facet normal 0 0 -1
		outer loop
			vertex -0.03057529777288437 1.4621144533157349 2.555358648300171
			vertex -0.06105530261993408 1.5433944463729858 2.555358648300171
			vertex -0.03057529777288437 1.5433944463729858 2.555358648300171
		endloop
	endfacet
	facet normal 0 1 0
		outer loop
			vertex -0.03057529777288437 1.5433944463729858 2.570598840713501
			vertex -0.06105530261993408 1.5433944463729858 2.555358648300171
			vertex -0.06105530261993408 1.5433944463729858 2.570598840713501
		endloop
	endfacet
	facet normal 0 1 0
		outer loop
			vertex -0.06105530261993408 1.5433944463729858 2.555358648300171
			vertex -0.03057529777288437 1.5433944463729858 2.570598840713501
			vertex -0.03057529777288437 1.5433944463729858 2.555358648300171
		endloop
	endfacet
	facet normal 0 -1 0
		outer loop
			vertex -0.06105530261993408 1.4621144533157349 2.555358648300171
			vertex -0.055975291877985 1.4621144533157349 2.557898759841919
			vertex -0.06105530261993408 1.4621144533157349 2.570598840713501
		endloop
	endfacet
	facet normal 0 -1 0
		outer loop
			vertex -0.055975291877985 1.4621144533157349 2.557898759841919
			vertex -0.06105530261993408 1.4621144533157349 2.555358648300171
			vertex -0.03057529777288437 1.4621144533157349 2.555358648300171
		endloop
	endfacet
	facet normal 0 -1 0
		outer loop
			vertex -0.055975291877985 1.4621144533157349 2.557898759841919
			vertex -0.03057529777288437 1.4621144533157349 2.555358648300171
			vertex -0.03565530478954315 1.4621144533157349 2.557898759841919
		endloop
	endfacet
	facet normal 0 -1 0
		outer loop
			vertex -0.03565530478954315 1.4621144533157349 2.557898759841919
			vertex -0.03057529777288437 1.4621144533157349 2.555358648300171
			vertex -0.03565530478954315 1.4621144533157349 2.568058729171753
		endloop
	endfacet
	facet normal 0 -1 0
		outer loop
			vertex -0.06105530261993408 1.4621144533157349 2.570598840713501
			vertex -0.055975291877985 1.4621144533157349 2.568058729171753
			vertex -0.03057529777288437 1.4621144533157349 2.570598840713501
		endloop
	endfacet
	facet normal 0 -1 0
		outer loop
			vertex -0.055975291877985 1.4621144533157349 2.557898759841919
			vertex -0.055975291877985 1.4621144533157349 2.568058729171753
			vertex -0.06105530261993408 1.4621144533157349 2.570598840713501
		endloop
	endfacet
	facet normal 0 -1 0
		outer loop
			vertex -0.03057529777288437 1.4621144533157349 2.570598840713501
			vertex -0.055975291877985 1.4621144533157349 2.568058729171753
			vertex -0.03565530478954315 1.4621144533157349 2.568058729171753
		endloop
	endfacet
	facet normal 0 -1 0
		outer loop
			vertex -0.03057529777288437 1.4621144533157349 2.570598840713501
			vertex -0.03565530478954315 1.4621144533157349 2.568058729171753
			vertex -0.03057529777288437 1.4621144533157349 2.555358648300171
		endloop
	endfacet
	facet normal 0 0 -1
		outer loop
			vertex -0.055975291877985 1.4621144533157349 2.557898759841919
			vertex -0.03565530478954315 1.4519544839859009 2.557898759841919
			vertex -0.055975291877985 1.4519544839859009 2.557898759841919
		endloop
	endfacet
	facet normal 0 0 -1
		outer loop
			vertex -0.03565530478954315 1.4519544839859009 2.557898759841919
			vertex -0.055975291877985 1.4621144533157349 2.557898759841919
			vertex -0.03565530478954315 1.4621144533157349 2.557898759841919
		endloop
	endfacet
	facet normal 0 1 0
		outer loop
			vertex -0.015335296280682087 1.4214744567871094 2.578218698501587
			vertex -0.07629530131816864 1.4214744567871094 2.547738552093506
			vertex -0.07629530131816864 1.4214744567871094 2.578218698501587
		endloop
	endfacet
	facet normal 0 1 0
		outer loop
			vertex -0.07629530131816864 1.4214744567871094 2.547738552093506
			vertex -0.015335296280682087 1.4214744567871094 2.578218698501587
			vertex -0.015335296280682087 1.4214744567871094 2.547738552093506
		endloop
	endfacet
	facet normal 0 0 1
		outer loop
			vertex -0.03565530478954315 1.4621144533157349 2.568058729171753
			vertex -0.055975291877985 1.4519544839859009 2.568058729171753
			vertex -0.03565530478954315 1.4519544839859009 2.568058729171753
		endloop
	endfacet
	facet normal 0 0 1
		outer loop
			vertex -0.055975291877985 1.4519544839859009 2.568058729171753
			vertex -0.03565530478954315 1.4621144533157349 2.568058729171753
			vertex -0.055975291877985 1.4621144533157349 2.568058729171753
		endloop
	endfacet
	facet normal 0 1 0
		outer loop
			vertex -0.07629530131816864 1.4519544839859009 2.578218698501587
			vertex -0.055975291877985 1.4519544839859009 2.568058729171753
			vertex -0.07629530131816864 1.4519544839859009 2.547738552093506
		endloop
	endfacet
	facet normal 0 1 0
		outer loop
			vertex -0.055975291877985 1.4519544839859009 2.568058729171753
			vertex -0.07629530131816864 1.4519544839859009 2.578218698501587
			vertex -0.015335296280682087 1.4519544839859009 2.578218698501587
		endloop
	endfacet
	facet normal 0 1 0
		outer loop
			vertex -0.055975291877985 1.4519544839859009 2.568058729171753
			vertex -0.015335296280682087 1.4519544839859009 2.578218698501587
			vertex -0.03565530478954315 1.4519544839859009 2.568058729171753
		endloop
	endfacet
	facet normal 0 1 0
		outer loop
			vertex -0.03565530478954315 1.4519544839859009 2.568058729171753
			vertex -0.015335296280682087 1.4519544839859009 2.578218698501587
			vertex -0.03565530478954315 1.4519544839859009 2.557898759841919
		endloop
	endfacet
	facet normal 0 1 0
		outer loop
			vertex -0.07629530131816864 1.4519544839859009 2.547738552093506
			vertex -0.055975291877985 1.4519544839859009 2.557898759841919
			vertex -0.015335296280682087 1.4519544839859009 2.547738552093506
		endloop
	endfacet
	facet normal 0 1 0
		outer loop
			vertex -0.055975291877985 1.4519544839859009 2.557898759841919
			vertex -0.07629530131816864 1.4519544839859009 2.547738552093506
			vertex -0.055975291877985 1.4519544839859009 2.568058729171753
		endloop
	endfacet
	facet normal 0 1 0
		outer loop
			vertex -0.015335296280682087 1.4519544839859009 2.547738552093506
			vertex -0.055975291877985 1.4519544839859009 2.557898759841919
			vertex -0.03565530478954315 1.4519544839859009 2.557898759841919
		endloop
	endfacet
	facet normal 0 1 0
		outer loop
			vertex -0.015335296280682087 1.4519544839859009 2.547738552093506
			vertex -0.03565530478954315 1.4519544839859009 2.557898759841919
			vertex -0.015335296280682087 1.4519544839859009 2.578218698501587
		endloop
	endfacet
	facet normal -1 0 0
		outer loop
			vertex -0.07629530131816864 1.4519544839859009 2.547738552093506
			vertex -0.07629530131816864 1.4214744567871094 2.578218698501587
			vertex -0.07629530131816864 1.4519544839859009 2.578218698501587
		endloop
	endfacet
	facet normal -1 0 0
		outer loop
			vertex -0.07629530131816864 1.4214744567871094 2.578218698501587
			vertex -0.07629530131816864 1.4519544839859009 2.547738552093506
			vertex -0.07629530131816864 1.4214744567871094 2.547738552093506
		endloop
	endfacet
	facet normal 0 -1 0
		outer loop
			vertex -0.08645529299974442 1.4062345027923584 2.542658567428589
			vertex -0.07629530131816864 1.4062345027923584 2.547738552093506
			vertex -0.08645529299974442 1.4062345027923584 2.585838556289673
		endloop
	endfacet
	facet normal 0 -1 0
		outer loop
			vertex -0.07629530131816864 1.4062345027923584 2.547738552093506
			vertex -0.08645529299974442 1.4062345027923584 2.542658567428589
			vertex -0.00517530320212245 1.4062345027923584 2.542658567428589
		endloop
	endfacet
	facet normal 0 -1 0
		outer loop
			vertex -0.07629530131816864 1.4062345027923584 2.547738552093506
			vertex -0.00517530320212245 1.4062345027923584 2.542658567428589
			vertex -0.015335296280682087 1.4062345027923584 2.547738552093506
		endloop
	endfacet
	facet normal 0 -1 0
		outer loop
			vertex -0.015335296280682087 1.4062345027923584 2.547738552093506
			vertex -0.00517530320212245 1.4062345027923584 2.542658567428589
			vertex -0.015335296280682087 1.4062345027923584 2.578218698501587
		endloop
	endfacet
	facet normal 0 -1 0
		outer loop
			vertex -0.08645529299974442 1.4062345027923584 2.585838556289673
			vertex -0.07629530131816864 1.4062345027923584 2.578218698501587
			vertex -0.00517530320212245 1.4062345027923584 2.585838556289673
		endloop
	endfacet
	facet normal 0 -1 0
		outer loop
			vertex -0.07629530131816864 1.4062345027923584 2.578218698501587
			vertex -0.08645529299974442 1.4062345027923584 2.585838556289673
			vertex -0.07629530131816864 1.4062345027923584 2.547738552093506
		endloop
	endfacet
	facet normal 0 -1 0
		outer loop
			vertex -0.00517530320212245 1.4062345027923584 2.585838556289673
			vertex -0.07629530131816864 1.4062345027923584 2.578218698501587
			vertex -0.015335296280682087 1.4062345027923584 2.578218698501587
		endloop
	endfacet
	facet normal 0 -1 0
		outer loop
			vertex -0.00517530320212245 1.4062345027923584 2.585838556289673
			vertex -0.015335296280682087 1.4062345027923584 2.578218698501587
			vertex -0.00517530320212245 1.4062345027923584 2.542658567428589
		endloop
	endfacet
	facet normal -1 0 0
		outer loop
			vertex -0.08645529299974442 1.4214744567871094 2.542658567428589
			vertex -0.08645529299974442 1.4062345027923584 2.585838556289673
			vertex -0.08645529299974442 1.4214744567871094 2.585838556289673
		endloop
	endfacet
	facet normal -1 0 0
		outer loop
			vertex -0.08645529299974442 1.4062345027923584 2.585838556289673
			vertex -0.08645529299974442 1.4214744567871094 2.542658567428589
			vertex -0.08645529299974442 1.4062345027923584 2.542658567428589
		endloop
	endfacet
	facet normal 0 0 -1
		outer loop
			vertex -0.08645529299974442 1.4214744567871094 2.542658567428589
			vertex -0.00517530320212245 1.4062345027923584 2.542658567428589
			vertex -0.08645529299974442 1.4062345027923584 2.542658567428589
		endloop
	endfacet
	facet normal 0 0 -1
		outer loop
			vertex -0.00517530320212245 1.4062345027923584 2.542658567428589
			vertex -0.08645529299974442 1.4214744567871094 2.542658567428589
			vertex -0.00517530320212245 1.4214744567871094 2.542658567428589
		endloop
	endfacet
	facet normal 0 0 1
		outer loop
			vertex -0.00517530320212245 1.4214744567871094 2.585838556289673
			vertex -0.08645529299974442 1.4062345027923584 2.585838556289673
			vertex -0.00517530320212245 1.4062345027923584 2.585838556289673
		endloop
	endfacet
	facet normal 0 0 1
		outer loop
			vertex -0.08645529299974442 1.4062345027923584 2.585838556289673
			vertex -0.00517530320212245 1.4214744567871094 2.585838556289673
			vertex -0.08645529299974442 1.4214744567871094 2.585838556289673
		endloop
	endfacet
	facet normal 0 0 1
		outer loop
			vertex -0.015335296280682087 1.4519544839859009 2.578218698501587
			vertex -0.07629530131816864 1.4214744567871094 2.578218698501587
			vertex -0.015335296280682087 1.4214744567871094 2.578218698501587
		endloop
	endfacet
	facet normal 0 0 1
		outer loop
			vertex -0.07629530131816864 1.4214744567871094 2.578218698501587
			vertex -0.015335296280682087 1.4519544839859009 2.578218698501587
			vertex -0.07629530131816864 1.4519544839859009 2.578218698501587
		endloop
	endfacet
	facet normal 0 1 0
		outer loop
			vertex -0.08645529299974442 1.4214744567871094 2.585838556289673
			vertex -0.07629530131816864 1.4214744567871094 2.578218698501587
			vertex -0.08645529299974442 1.4214744567871094 2.542658567428589
		endloop
	endfacet
	facet normal 0 1 0
		outer loop
			vertex -0.07629530131816864 1.4214744567871094 2.578218698501587
			vertex -0.08645529299974442 1.4214744567871094 2.585838556289673
			vertex -0.00517530320212245 1.4214744567871094 2.585838556289673
		endloop
	endfacet
	facet normal 0 1 0
		outer loop
			vertex -0.07629530131816864 1.4214744567871094 2.578218698501587
			vertex -0.00517530320212245 1.4214744567871094 2.585838556289673
			vertex -0.015335296280682087 1.4214744567871094 2.578218698501587
		endloop
	endfacet
	facet normal 0 1 0
		outer loop
			vertex -0.015335296280682087 1.4214744567871094 2.578218698501587
			vertex -0.00517530320212245 1.4214744567871094 2.585838556289673
			vertex -0.015335296280682087 1.4214744567871094 2.547738552093506
		endloop
	endfacet
	facet normal 0 1 0
		outer loop
			vertex -0.08645529299974442 1.4214744567871094 2.542658567428589
			vertex -0.07629530131816864 1.4214744567871094 2.547738552093506
			vertex -0.00517530320212245 1.4214744567871094 2.542658567428589
		endloop
	endfacet
	facet normal 0 1 0
		outer loop
			vertex -0.07629530131816864 1.4214744567871094 2.547738552093506
			vertex -0.08645529299974442 1.4214744567871094 2.542658567428589
			vertex -0.07629530131816864 1.4214744567871094 2.578218698501587
		endloop
	endfacet
	facet normal 0 1 0
		outer loop
			vertex -0.00517530320212245 1.4214744567871094 2.542658567428589
			vertex -0.07629530131816864 1.4214744567871094 2.547738552093506
			vertex -0.015335296280682087 1.4214744567871094 2.547738552093506
		endloop
	endfacet
	facet normal 0 1 0
		outer loop
			vertex -0.00517530320212245 1.4214744567871094 2.542658567428589
			vertex -0.015335296280682087 1.4214744567871094 2.547738552093506
			vertex -0.00517530320212245 1.4214744567871094 2.585838556289673
		endloop
	endfacet
	facet normal -1 0 0
		outer loop
			vertex 0.46218469738960266 1.4621144533157349 2.557898759841919
			vertex 0.46218469738960266 1.4519544839859009 2.568058729171753
			vertex 0.46218469738960266 1.4621144533157349 2.568058729171753
		endloop
	endfacet
	facet normal -1 0 0
		outer loop
			vertex 0.46218469738960266 1.4519544839859009 2.568058729171753
			vertex 0.46218469738960266 1.4621144533157349 2.557898759841919
			vertex 0.46218469738960266 1.4519544839859009 2.557898759841919
		endloop
	endfacet
	facet normal 1 0 0
		outer loop
			vertex 0.5028246641159058 1.4214744567871094 2.547738552093506
			vertex 0.5028246641159058 1.4519544839859009 2.578218698501587
			vertex 0.5028246641159058 1.4214744567871094 2.578218698501587
		endloop
	endfacet
	facet normal 1 0 0
		outer loop
			vertex 0.5028246641159058 1.4519544839859009 2.578218698501587
			vertex 0.5028246641159058 1.4214744567871094 2.547738552093506
			vertex 0.5028246641159058 1.4519544839859009 2.547738552093506
		endloop
	endfacet
	facet normal 1 0 0
		outer loop
			vertex 0.4875846803188324 1.4621144533157349 2.555358648300171
			vertex 0.4875846803188324 1.5433944463729858 2.570598840713501
			vertex 0.4875846803188324 1.4621144533157349 2.570598840713501
		endloop
	endfacet
	facet normal 1 0 0
		outer loop
			vertex 0.4875846803188324 1.5433944463729858 2.570598840713501
			vertex 0.4875846803188324 1.4621144533157349 2.555358648300171
			vertex 0.4875846803188324 1.5433944463729858 2.555358648300171
		endloop
	endfacet
	facet normal 1 0 0
		outer loop
			vertex 0.4825046956539154 1.4519544839859009 2.557898759841919
			vertex 0.4825046956539154 1.4621144533157349 2.568058729171753
			vertex 0.4825046956539154 1.4519544839859009 2.568058729171753
		endloop
	endfacet
	facet normal 1 0 0
		outer loop
			vertex 0.4825046956539154 1.4621144533157349 2.568058729171753
			vertex 0.4825046956539154 1.4519544839859009 2.557898759841919
			vertex 0.4825046956539154 1.4621144533157349 2.557898759841919
		endloop
	endfacet
	facet normal 1 0 0
		outer loop
			vertex 0.5129846930503845 1.4062345027923584 2.542658567428589
			vertex 0.5129846930503845 1.4214744567871094 2.585838556289673
			vertex 0.5129846930503845 1.4062345027923584 2.585838556289673
		endloop
	endfacet
	facet normal 1 0 0
		outer loop
			vertex 0.5129846930503845 1.4214744567871094 2.585838556289673
			vertex 0.5129846930503845 1.4062345027923584 2.542658567428589
			vertex 0.5129846930503845 1.4214744567871094 2.542658567428589
		endloop
	endfacet
	facet normal 0 0 -1
		outer loop
			vertex 0.44186466932296753 1.4519544839859009 2.547738552093506
			vertex 0.5028246641159058 1.4214744567871094 2.547738552093506
			vertex 0.44186466932296753 1.4214744567871094 2.547738552093506
		endloop
	endfacet
	facet normal 0 0 -1
		outer loop
			vertex 0.5028246641159058 1.4214744567871094 2.547738552093506
			vertex 0.44186466932296753 1.4519544839859009 2.547738552093506
			vertex 0.5028246641159058 1.4519544839859009 2.547738552093506
		endloop
	endfacet
	facet normal 0 0 1
		outer loop
			vertex 0.4875846803188324 1.5433944463729858 2.570598840713501
			vertex 0.4571046829223633 1.4621144533157349 2.570598840713501
			vertex 0.4875846803188324 1.4621144533157349 2.570598840713501
		endloop
	endfacet
	facet normal 0 0 1
		outer loop
			vertex 0.4571046829223633 1.4621144533157349 2.570598840713501
			vertex 0.4875846803188324 1.5433944463729858 2.570598840713501
			vertex 0.4571046829223633 1.5433944463729858 2.570598840713501
		endloop
	endfacet
	facet normal -1 0 0
		outer loop
			vertex 0.4571046829223633 1.5433944463729858 2.555358648300171
			vertex 0.4571046829223633 1.4621144533157349 2.570598840713501
			vertex 0.4571046829223633 1.5433944463729858 2.570598840713501
		endloop
	endfacet
	facet normal -1 0 0
		outer loop
			vertex 0.4571046829223633 1.4621144533157349 2.570598840713501
			vertex 0.4571046829223633 1.5433944463729858 2.555358648300171
			vertex 0.4571046829223633 1.4621144533157349 2.555358648300171
		endloop
	endfacet
	facet normal 0 0 -1
		outer loop
			vertex 0.4571046829223633 1.5433944463729858 2.555358648300171
			vertex 0.4875846803188324 1.4621144533157349 2.555358648300171
			vertex 0.4571046829223633 1.4621144533157349 2.555358648300171
		endloop
	endfacet
	facet normal 0 0 -1
		outer loop
			vertex 0.4875846803188324 1.4621144533157349 2.555358648300171
			vertex 0.4571046829223633 1.5433944463729858 2.555358648300171
			vertex 0.4875846803188324 1.5433944463729858 2.555358648300171
		endloop
	endfacet
	facet normal 0 1 0
		outer loop
			vertex 0.4875846803188324 1.5433944463729858 2.570598840713501
			vertex 0.4571046829223633 1.5433944463729858 2.555358648300171
			vertex 0.4571046829223633 1.5433944463729858 2.570598840713501
		endloop
	endfacet
	facet normal 0 1 0
		outer loop
			vertex 0.4571046829223633 1.5433944463729858 2.555358648300171
			vertex 0.4875846803188324 1.5433944463729858 2.570598840713501
			vertex 0.4875846803188324 1.5433944463729858 2.555358648300171
		endloop
	endfacet
	facet normal 0 -1 0
		outer loop
			vertex 0.4571046829223633 1.4621144533157349 2.555358648300171
			vertex 0.46218469738960266 1.4621144533157349 2.557898759841919
			vertex 0.4571046829223633 1.4621144533157349 2.570598840713501
		endloop
	endfacet
	facet normal 0 -1 0
		outer loop
			vertex 0.46218469738960266 1.4621144533157349 2.557898759841919
			vertex 0.4571046829223633 1.4621144533157349 2.555358648300171
			vertex 0.4875846803188324 1.4621144533157349 2.555358648300171
		endloop
	endfacet
	facet normal 0 -1 0
		outer loop
			vertex 0.46218469738960266 1.4621144533157349 2.557898759841919
			vertex 0.4875846803188324 1.4621144533157349 2.555358648300171
			vertex 0.4825046956539154 1.4621144533157349 2.557898759841919
		endloop
	endfacet
	facet normal 0 -1 0
		outer loop
			vertex 0.4825046956539154 1.4621144533157349 2.557898759841919
			vertex 0.4875846803188324 1.4621144533157349 2.555358648300171
			vertex 0.4825046956539154 1.4621144533157349 2.568058729171753
		endloop
	endfacet
	facet normal 0 -1 0
		outer loop
			vertex 0.4571046829223633 1.4621144533157349 2.570598840713501
			vertex 0.46218469738960266 1.4621144533157349 2.568058729171753
			vertex 0.4875846803188324 1.4621144533157349 2.570598840713501
		endloop
	endfacet
	facet normal 0 -1 0
		outer loop
			vertex 0.46218469738960266 1.4621144533157349 2.557898759841919
			vertex 0.46218469738960266 1.4621144533157349 2.568058729171753
			vertex 0.4571046829223633 1.4621144533157349 2.570598840713501
		endloop
	endfacet
	facet normal 0 -1 0
		outer loop
			vertex 0.4875846803188324 1.4621144533157349 2.570598840713501
			vertex 0.46218469738960266 1.4621144533157349 2.568058729171753
			vertex 0.4825046956539154 1.4621144533157349 2.568058729171753
		endloop
	endfacet
	facet normal 0 -1 0
		outer loop
			vertex 0.4875846803188324 1.4621144533157349 2.570598840713501
			vertex 0.4825046956539154 1.4621144533157349 2.568058729171753
			vertex 0.4875846803188324 1.4621144533157349 2.555358648300171
		endloop
	endfacet
	facet normal 0 0 -1
		outer loop
			vertex 0.46218469738960266 1.4621144533157349 2.557898759841919
			vertex 0.4825046956539154 1.4519544839859009 2.557898759841919
			vertex 0.46218469738960266 1.4519544839859009 2.557898759841919
		endloop
	endfacet
	facet normal 0 0 -1
		outer loop
			vertex 0.4825046956539154 1.4519544839859009 2.557898759841919
			vertex 0.46218469738960266 1.4621144533157349 2.557898759841919
			vertex 0.4825046956539154 1.4621144533157349 2.557898759841919
		endloop
	endfacet
	facet normal 0 1 0
		outer loop
			vertex 0.5028246641159058 1.4214744567871094 2.578218698501587
			vertex 0.44186466932296753 1.4214744567871094 2.547738552093506
			vertex 0.44186466932296753 1.4214744567871094 2.578218698501587
		endloop
	endfacet
	facet normal 0 1 0
		outer loop
			vertex 0.44186466932296753 1.4214744567871094 2.547738552093506
			vertex 0.5028246641159058 1.4214744567871094 2.578218698501587
			vertex 0.5028246641159058 1.4214744567871094 2.547738552093506
		endloop
	endfacet
	facet normal 0 0 1
		outer loop
			vertex 0.4825046956539154 1.4621144533157349 2.568058729171753
			vertex 0.46218469738960266 1.4519544839859009 2.568058729171753
			vertex 0.4825046956539154 1.4519544839859009 2.568058729171753
		endloop
	endfacet
	facet normal 0 0 1
		outer loop
			vertex 0.46218469738960266 1.4519544839859009 2.568058729171753
			vertex 0.4825046956539154 1.4621144533157349 2.568058729171753
			vertex 0.46218469738960266 1.4621144533157349 2.568058729171753
		endloop
	endfacet
	facet normal 0 1 0
		outer loop
			vertex 0.44186466932296753 1.4519544839859009 2.578218698501587
			vertex 0.46218469738960266 1.4519544839859009 2.568058729171753
			vertex 0.44186466932296753 1.4519544839859009 2.547738552093506
		endloop
	endfacet
	facet normal 0 1 0
		outer loop
			vertex 0.46218469738960266 1.4519544839859009 2.568058729171753
			vertex 0.44186466932296753 1.4519544839859009 2.578218698501587
			vertex 0.5028246641159058 1.4519544839859009 2.578218698501587
		endloop
	endfacet
	facet normal 0 1 0
		outer loop
			vertex 0.46218469738960266 1.4519544839859009 2.568058729171753
			vertex 0.5028246641159058 1.4519544839859009 2.578218698501587
			vertex 0.4825046956539154 1.4519544839859009 2.568058729171753
		endloop
	endfacet
	facet normal 0 1 0
		outer loop
			vertex 0.4825046956539154 1.4519544839859009 2.568058729171753
			vertex 0.5028246641159058 1.4519544839859009 2.578218698501587
			vertex 0.4825046956539154 1.4519544839859009 2.557898759841919
		endloop
	endfacet
	facet normal 0 1 0
		outer loop
			vertex 0.44186466932296753 1.4519544839859009 2.547738552093506
			vertex 0.46218469738960266 1.4519544839859009 2.557898759841919
			vertex 0.5028246641159058 1.4519544839859009 2.547738552093506
		endloop
	endfacet
	facet normal 0 1 0
		outer loop
			vertex 0.46218469738960266 1.4519544839859009 2.557898759841919
			vertex 0.44186466932296753 1.4519544839859009 2.547738552093506
			vertex 0.46218469738960266 1.4519544839859009 2.568058729171753
		endloop
	endfacet
	facet normal 0 1 0
		outer loop
			vertex 0.5028246641159058 1.4519544839859009 2.547738552093506
			vertex 0.46218469738960266 1.4519544839859009 2.557898759841919
			vertex 0.4825046956539154 1.4519544839859009 2.557898759841919
		endloop
	endfacet
	facet normal 0 1 0
		outer loop
			vertex 0.5028246641159058 1.4519544839859009 2.547738552093506
			vertex 0.4825046956539154 1.4519544839859009 2.557898759841919
			vertex 0.5028246641159058 1.4519544839859009 2.578218698501587
		endloop
	endfacet
	facet normal -1 0 0
		outer loop
			vertex 0.44186466932296753 1.4519544839859009 2.547738552093506
			vertex 0.44186466932296753 1.4214744567871094 2.578218698501587
			vertex 0.44186466932296753 1.4519544839859009 2.578218698501587
		endloop
	endfacet
	facet normal -1 0 0
		outer loop
			vertex 0.44186466932296753 1.4214744567871094 2.578218698501587
			vertex 0.44186466932296753 1.4519544839859009 2.547738552093506
			vertex 0.44186466932296753 1.4214744567871094 2.547738552093506
		endloop
	endfacet
	facet normal 0 -1 0
		outer loop
			vertex 0.43170469999313354 1.4062345027923584 2.542658567428589
			vertex 0.44186466932296753 1.4062345027923584 2.547738552093506
			vertex 0.43170469999313354 1.4062345027923584 2.585838556289673
		endloop
	endfacet
	facet normal 0 -1 0
		outer loop
			vertex 0.44186466932296753 1.4062345027923584 2.547738552093506
			vertex 0.43170469999313354 1.4062345027923584 2.542658567428589
			vertex 0.5129846930503845 1.4062345027923584 2.542658567428589
		endloop
	endfacet
	facet normal 0 -1 0
		outer loop
			vertex 0.44186466932296753 1.4062345027923584 2.547738552093506
			vertex 0.5129846930503845 1.4062345027923584 2.542658567428589
			vertex 0.5028246641159058 1.4062345027923584 2.547738552093506
		endloop
	endfacet
	facet normal 0 -1 0
		outer loop
			vertex 0.5028246641159058 1.4062345027923584 2.547738552093506
			vertex 0.5129846930503845 1.4062345027923584 2.542658567428589
			vertex 0.5028246641159058 1.4062345027923584 2.578218698501587
		endloop
	endfacet
	facet normal 0 -1 0
		outer loop
			vertex 0.43170469999313354 1.4062345027923584 2.585838556289673
			vertex 0.44186466932296753 1.4062345027923584 2.578218698501587
			vertex 0.5129846930503845 1.4062345027923584 2.585838556289673
		endloop
	endfacet
	facet normal 0 -1 0
		outer loop
			vertex 0.44186466932296753 1.4062345027923584 2.578218698501587
			vertex 0.43170469999313354 1.4062345027923584 2.585838556289673
			vertex 0.44186466932296753 1.4062345027923584 2.547738552093506
		endloop
	endfacet
	facet normal 0 -1 0
		outer loop
			vertex 0.5129846930503845 1.4062345027923584 2.585838556289673
			vertex 0.44186466932296753 1.4062345027923584 2.578218698501587
			vertex 0.5028246641159058 1.4062345027923584 2.578218698501587
		endloop
	endfacet
	facet normal 0 -1 0
		outer loop
			vertex 0.5129846930503845 1.4062345027923584 2.585838556289673
			vertex 0.5028246641159058 1.4062345027923584 2.578218698501587
			vertex 0.5129846930503845 1.4062345027923584 2.542658567428589
		endloop
	endfacet
	facet normal -1 0 0
		outer loop
			vertex 0.43170469999313354 1.4214744567871094 2.542658567428589
			vertex 0.43170469999313354 1.4062345027923584 2.585838556289673
			vertex 0.43170469999313354 1.4214744567871094 2.585838556289673
		endloop
	endfacet
	facet normal -1 0 0
		outer loop
			vertex 0.43170469999313354 1.4062345027923584 2.585838556289673
			vertex 0.43170469999313354 1.4214744567871094 2.542658567428589
			vertex 0.43170469999313354 1.4062345027923584 2.542658567428589
		endloop
	endfacet
	facet normal 0 0 -1
		outer loop
			vertex 0.43170469999313354 1.4214744567871094 2.542658567428589
			vertex 0.5129846930503845 1.4062345027923584 2.542658567428589
			vertex 0.43170469999313354 1.4062345027923584 2.542658567428589
		endloop
	endfacet
	facet normal 0 0 -1
		outer loop
			vertex 0.5129846930503845 1.4062345027923584 2.542658567428589
			vertex 0.43170469999313354 1.4214744567871094 2.542658567428589
			vertex 0.5129846930503845 1.4214744567871094 2.542658567428589
		endloop
	endfacet
	facet normal 0 0 1
		outer loop
			vertex 0.5129846930503845 1.4214744567871094 2.585838556289673
			vertex 0.43170469999313354 1.4062345027923584 2.585838556289673
			vertex 0.5129846930503845 1.4062345027923584 2.585838556289673
		endloop
	endfacet
	facet normal 0 0 1
		outer loop
			vertex 0.43170469999313354 1.4062345027923584 2.585838556289673
			vertex 0.5129846930503845 1.4214744567871094 2.585838556289673
			vertex 0.43170469999313354 1.4214744567871094 2.585838556289673
		endloop
	endfacet
	facet normal 0 0 1
		outer loop
			vertex 0.5028246641159058 1.4519544839859009 2.578218698501587
			vertex 0.44186466932296753 1.4214744567871094 2.578218698501587
			vertex 0.5028246641159058 1.4214744567871094 2.578218698501587
		endloop
	endfacet
	facet normal 0 0 1
		outer loop
			vertex 0.44186466932296753 1.4214744567871094 2.578218698501587
			vertex 0.5028246641159058 1.4519544839859009 2.578218698501587
			vertex 0.44186466932296753 1.4519544839859009 2.578218698501587
		endloop
	endfacet
	facet normal 0 1 0
		outer loop
			vertex 0.43170469999313354 1.4214744567871094 2.585838556289673
			vertex 0.44186466932296753 1.4214744567871094 2.578218698501587
			vertex 0.43170469999313354 1.4214744567871094 2.542658567428589
		endloop
	endfacet
	facet normal 0 1 0
		outer loop
			vertex 0.44186466932296753 1.4214744567871094 2.578218698501587
			vertex 0.43170469999313354 1.4214744567871094 2.585838556289673
			vertex 0.5129846930503845 1.4214744567871094 2.585838556289673
		endloop
	endfacet
	facet normal 0 1 0
		outer loop
			vertex 0.44186466932296753 1.4214744567871094 2.578218698501587
			vertex 0.5129846930503845 1.4214744567871094 2.585838556289673
			vertex 0.5028246641159058 1.4214744567871094 2.578218698501587
		endloop
	endfacet
	facet normal 0 1 0
		outer loop
			vertex 0.5028246641159058 1.4214744567871094 2.578218698501587
			vertex 0.5129846930503845 1.4214744567871094 2.585838556289673
			vertex 0.5028246641159058 1.4214744567871094 2.547738552093506
		endloop
	endfacet
	facet normal 0 1 0
		outer loop
			vertex 0.43170469999313354 1.4214744567871094 2.542658567428589
			vertex 0.44186466932296753 1.4214744567871094 2.547738552093506
			vertex 0.5129846930503845 1.4214744567871094 2.542658567428589
		endloop
	endfacet
	facet normal 0 1 0
		outer loop
			vertex 0.44186466932296753 1.4214744567871094 2.547738552093506
			vertex 0.43170469999313354 1.4214744567871094 2.542658567428589
			vertex 0.44186466932296753 1.4214744567871094 2.578218698501587
		endloop
	endfacet
	facet normal 0 1 0
		outer loop
			vertex 0.5129846930503845 1.4214744567871094 2.542658567428589
			vertex 0.44186466932296753 1.4214744567871094 2.547738552093506
			vertex 0.5028246641159058 1.4214744567871094 2.547738552093506
		endloop
	endfacet
	facet normal 0 1 0
		outer loop
			vertex 0.5129846930503845 1.4214744567871094 2.542658567428589
			vertex 0.5028246641159058 1.4214744567871094 2.547738552093506
			vertex 0.5129846930503845 1.4214744567871094 2.585838556289673
		endloop
	endfacet
	facet normal 0 1 0
		outer loop
			vertex 0.08163332939147949 1.4519544839859009 3.242155075073242
			vertex -0.0098066795617342 1.4519544839859009 3.162966012954712
			vertex -0.1012466624379158 1.4519544839859009 3.242155075073242
		endloop
	endfacet
endsolid exported
