solid exported
	facet normal 0 -1 0
		outer loop
			vertex 0.39614471793174744 0.11083439737558365 2.547738790512085
			vertex 0.030384697020053864 0.11083439737558365 2.578218698501587
			vertex 0.030384697020053864 0.11083439737558365 2.547738790512085
		endloop
	endfacet
	facet normal 0 -1 0
		outer loop
			vertex 0.030384697020053864 0.11083439737558365 2.578218698501587
			vertex 0.39614471793174744 0.11083439737558365 2.547738790512085
			vertex 0.39614471793174744 0.11083439737558365 2.578218698501587
		endloop
	endfacet
	facet normal -3.552806374683818e-7 -0.4472115247800312 -0.8944282263568124
		outer loop
			vertex 0.4875847101211548 0.09559439867734909 2.5214035511016846
			vertex 0.4875847101211548 0.06212500482797623 2.5381381511688232
			vertex 0.42662471532821655 0.06212505325675011 2.5381381511688232
		endloop
	endfacet
	facet normal 0 -0.4472120424584611 -0.894427967518979
		outer loop
			vertex 0.42662471532821655 0.06212505325675011 2.5381381511688232
			vertex 0.42662471532821655 0.09559439867734909 2.5214035511016846
			vertex 0.4875847101211548 0.09559439867734909 2.5214035511016846
		endloop
	endfacet
	facet normal -3.5528104873039617e-7 -0.4472120424584328 0.8944279675189225
		outer loop
			vertex 0.42662471532821655 0.09559439867734909 2.600592851638794
			vertex 0.42662471532821655 0.06212505325675011 2.5838582515716553
			vertex 0.4875847101211548 0.06212500482797623 2.5838582515716553
		endloop
	endfacet
	facet normal 0 -0.44721152478005943 0.8944282263568689
		outer loop
			vertex 0.4875847101211548 0.06212500482797623 2.5838582515716553
			vertex 0.4875847101211548 0.09559439867734909 2.600592851638794
			vertex 0.42662471532821655 0.09559439867734909 2.600592851638794
		endloop
	endfacet
	facet normal 0 -0.8814124508605825 -0.47234742665536084
		outer loop
			vertex 0.4875847101211548 0.04987439140677452 2.5609982013702393
			vertex 0.42662471532821655 0.04987439140677452 2.5609982013702393
			vertex 0.42662471532821655 0.06212505325675011 2.5381381511688232
		endloop
	endfacet
	facet normal -7.002258131972758e-7 -0.8814132282628537 -0.47234597599933487
		outer loop
			vertex 0.42662471532821655 0.06212505325675011 2.5381381511688232
			vertex 0.4875847101211548 0.06212500482797623 2.5381381511688232
			vertex 0.4875847101211548 0.04987439140677452 2.5609982013702393
		endloop
	endfacet
	facet normal -7.002251956012704e-7 -0.8814124508603663 0.47234742665524504
		outer loop
			vertex 0.4875847101211548 0.06212500482797623 2.5838582515716553
			vertex 0.42662471532821655 0.06212505325675011 2.5838582515716553
			vertex 0.42662471532821655 0.04987439140677452 2.5609982013702393
		endloop
	endfacet
	facet normal 0 -0.8814132282630699 0.47234597599945066
		outer loop
			vertex 0.42662471532821655 0.04987439140677452 2.5609982013702393
			vertex 0.4875847101211548 0.04987439140677452 2.5609982013702393
			vertex 0.4875847101211548 0.06212500482797623 2.5838582515716553
		endloop
	endfacet
	facet normal 0 -0.7700780670400478 -0.6379496615438117
		outer loop
			vertex 0.42662471532821655 0.09559439867734909 2.5609982013702393
			vertex 0.39614471793174744 0.09559439867734909 2.5609982013702393
			vertex 0.39614471793174744 0.10898546129465103 2.5448336601257324
		endloop
	endfacet
	facet normal 0 -0.7700780670400478 -0.6379496615438117
		outer loop
			vertex 0.39614471793174744 0.10898546129465103 2.5448336601257324
			vertex 0.42662471532821655 0.10898546129465103 2.5448336601257324
			vertex 0.42662471532821655 0.09559439867734909 2.5609982013702393
		endloop
	endfacet
	facet normal 0 -0.7700780670400478 0.6379496615438117
		outer loop
			vertex 0.42662471532821655 0.10898546129465103 2.577162742614746
			vertex 0.39614471793174744 0.10898546129465103 2.577162742614746
			vertex 0.39614471793174744 0.09559439867734909 2.5609982013702393
		endloop
	endfacet
	facet normal 0 -0.7700780670400478 0.6379496615438117
		outer loop
			vertex 0.39614471793174744 0.09559439867734909 2.5609982013702393
			vertex 0.42662471532821655 0.09559439867734909 2.5609982013702393
			vertex 0.42662471532821655 0.10898546129465103 2.577162742614746
		endloop
	endfacet
	facet normal -1 0 0
		outer loop
			vertex 0.42662471532821655 0.06212505325675011 2.5381381511688232
			vertex 0.42662471532821655 0.04987439140677452 2.5609982013702393
			vertex 0.42662471532821655 0.10898546129465103 2.5448336601257324
		endloop
	endfacet
	facet normal -1 0 0
		outer loop
			vertex 0.42662471532821655 0.04987439140677452 2.5609982013702393
			vertex 0.42662471532821655 0.09559439867734909 2.5609982013702393
			vertex 0.42662471532821655 0.10898546129465103 2.5448336601257324
		endloop
	endfacet
	facet normal -1 0 0
		outer loop
			vertex 0.42662471532821655 0.04987439140677452 2.5609982013702393
			vertex 0.42662471532821655 0.10898546129465103 2.577162742614746
			vertex 0.42662471532821655 0.09559439867734909 2.5609982013702393
		endloop
	endfacet
	facet normal -1 0 0
		outer loop
			vertex 0.42662471532821655 0.04987439140677452 2.5609982013702393
			vertex 0.42662471532821655 0.06212505325675011 2.5838582515716553
			vertex 0.42662471532821655 0.10898546129465103 2.577162742614746
		endloop
	endfacet
	facet normal 0 -0.44721713960514925 0.8944254189385433
		outer loop
			vertex -0.06105530261993408 0.09559439867734909 2.6025736331939697
			vertex -0.06105530261993408 0.06212505325675011 2.585838794708252
			vertex -0.0000952947375481017 0.06212505325675011 2.585838794708252
		endloop
	endfacet
	facet normal 0 -0.44721713960514925 0.8944254189385433
		outer loop
			vertex -0.0000952947375481017 0.06212505325675011 2.585838794708252
			vertex -0.0000952947375481017 0.09559439867734909 2.6025736331939697
			vertex -0.06105530261993408 0.09559439867734909 2.6025736331939697
		endloop
	endfacet
	facet normal 0 -0.447212042458461 -0.8944279675189789
		outer loop
			vertex -0.0000952947375481017 0.09559439867734909 2.5233840942382812
			vertex -0.0000952947375481017 0.06212505325675011 2.54011869430542
			vertex -0.06105530261993408 0.06212505325675011 2.54011869430542
		endloop
	endfacet
	facet normal 0 -0.447212042458461 -0.8944279675189789
		outer loop
			vertex -0.06105530261993408 0.06212505325675011 2.54011869430542
			vertex -0.06105530261993408 0.09559439867734909 2.5233840942382812
			vertex -0.0000952947375481017 0.09559439867734909 2.5233840942382812
		endloop
	endfacet
	facet normal 0 -0.88141039983781 0.47235125389666555
		outer loop
			vertex -0.06105530261993408 0.04987439140677452 2.562978982925415
			vertex -0.0000952947375481017 0.04987439140677452 2.562978982925415
			vertex -0.0000952947375481017 0.06212505325675011 2.585838794708252
		endloop
	endfacet
	facet normal 0 -0.88141039983781 0.47235125389666555
		outer loop
			vertex -0.0000952947375481017 0.06212505325675011 2.585838794708252
			vertex -0.06105530261993408 0.06212505325675011 2.585838794708252
			vertex -0.06105530261993408 0.04987439140677452 2.562978982925415
		endloop
	endfacet
	facet normal 0 -0.8814145018335 -0.4723435994671707
		outer loop
			vertex -0.06105530261993408 0.06212505325675011 2.54011869430542
			vertex -0.0000952947375481017 0.06212505325675011 2.54011869430542
			vertex -0.0000952947375481017 0.04987439140677452 2.562978982925415
		endloop
	endfacet
	facet normal 0 -0.8814145018335 -0.4723435994671707
		outer loop
			vertex -0.0000952947375481017 0.04987439140677452 2.562978982925415
			vertex -0.06105530261993408 0.04987439140677452 2.562978982925415
			vertex -0.06105530261993408 0.06212505325675011 2.54011869430542
		endloop
	endfacet
	facet normal 0 -0.7700734444009664 0.6379552415557317
		outer loop
			vertex -0.0000952947375481017 0.09559439867734909 2.562978982925415
			vertex 0.03038470819592476 0.09559439867734909 2.562978982925415
			vertex 0.03038470819592476 0.10898546129465103 2.5791432857513428
		endloop
	endfacet
	facet normal 0 -0.7700734444009664 0.6379552415557317
		outer loop
			vertex 0.03038470819592476 0.10898546129465103 2.5791432857513428
			vertex -0.0000952947375481017 0.10898546129465103 2.5791432857513428
			vertex -0.0000952947375481017 0.09559439867734909 2.562978982925415
		endloop
	endfacet
	facet normal 0 -0.7700826895578318 -0.6379440815960098
		outer loop
			vertex -0.0000952947375481017 0.10898546129465103 2.546814203262329
			vertex 0.03038470819592476 0.10898546129465103 2.546814203262329
			vertex 0.03038470819592476 0.09559439867734909 2.562978982925415
		endloop
	endfacet
	facet normal 0 -0.7700826895578318 -0.6379440815960098
		outer loop
			vertex 0.03038470819592476 0.09559439867734909 2.562978982925415
			vertex -0.0000952947375481017 0.09559439867734909 2.562978982925415
			vertex -0.0000952947375481017 0.10898546129465103 2.546814203262329
		endloop
	endfacet
	facet normal 1 0 0
		outer loop
			vertex -0.0000952947375481017 0.06212505325675011 2.585838794708252
			vertex -0.0000952947375481017 0.04987439140677452 2.562978982925415
			vertex -0.0000952947375481017 0.10898546129465103 2.5791432857513428
		endloop
	endfacet
	facet normal 1 0 0
		outer loop
			vertex -0.0000952947375481017 0.04987439140677452 2.562978982925415
			vertex -0.0000952947375481017 0.09559439867734909 2.562978982925415
			vertex -0.0000952947375481017 0.10898546129465103 2.5791432857513428
		endloop
	endfacet
	facet normal 1 0 0
		outer loop
			vertex -0.0000952947375481017 0.04987439140677452 2.562978982925415
			vertex -0.0000952947375481017 0.10898546129465103 2.546814203262329
			vertex -0.0000952947375481017 0.09559439867734909 2.562978982925415
		endloop
	endfacet
	facet normal 1 0 0
		outer loop
			vertex -0.0000952947375481017 0.04987439140677452 2.562978982925415
			vertex -0.0000952947375481017 0.06212505325675011 2.54011869430542
			vertex -0.0000952947375481017 0.10898546129465103 2.546814203262329
		endloop
	endfacet
	facet normal 0 -1 0
		outer loop
			vertex 0.16047179698944092 0.04987439140677452 -0.012581219896674156
			vertex 0.16047179698944092 0.04987439140677452 0.017898783087730408
			vertex 0.15230470895767212 0.04987439140677452 0.0026586868334561586
		endloop
	endfacet
	facet normal 0 -1 0
		outer loop
			vertex 0.16047179698944092 0.04987439140677452 0.017898783087730408
			vertex 0.16047179698944092 0.04987439140677452 -0.012581219896674156
			vertex 0.18278470635414124 0.04987439140677452 0.029055247083306313
		endloop
	endfacet
	facet normal 0 -1 0
		outer loop
			vertex 0.18278470635414124 0.04987439140677452 0.029055247083306313
			vertex 0.16047179698944092 0.04987439140677452 -0.012581219896674156
			vertex 0.18278470635414124 0.04987439140677452 -0.02373768389225006
		endloop
	endfacet
	facet normal 0 -1 0
		outer loop
			vertex 0.18278470635414124 0.04987439140677452 0.029055247083306313
			vertex 0.18278470635414124 0.04987439140677452 -0.02373768389225006
			vertex 0.21326470375061035 0.04987439140677452 0.033138785511255264
		endloop
	endfacet
	facet normal 0 -1 0
		outer loop
			vertex 0.21326470375061035 0.04987439140677452 0.033138785511255264
			vertex 0.18278470635414124 0.04987439140677452 -0.02373768389225006
			vertex 0.21326470375061035 0.04987439140677452 -0.027821317315101624
		endloop
	endfacet
	facet normal 0 -1 0
		outer loop
			vertex 0.21326470375061035 0.04987439140677452 0.033138785511255264
			vertex 0.21326470375061035 0.04987439140677452 -0.027821317315101624
			vertex 0.24374470114707947 0.04987439140677452 -0.02373768389225006
		endloop
	endfacet
	facet normal 0 -1 0
		outer loop
			vertex 0.21326470375061035 0.04987439140677452 0.033138785511255264
			vertex 0.24374470114707947 0.04987439140677452 -0.02373768389225006
			vertex 0.24374470114707947 0.04987439140677452 0.029055247083306313
		endloop
	endfacet
	facet normal 0 -1 0
		outer loop
			vertex 0.24374470114707947 0.04987439140677452 0.029055247083306313
			vertex 0.24374470114707947 0.04987439140677452 -0.02373768389225006
			vertex 0.2660576105117798 0.04987439140677452 0.017898783087730408
		endloop
	endfacet
	facet normal 0 -1 0
		outer loop
			vertex 0.2660576105117798 0.04987439140677452 0.017898783087730408
			vertex 0.24374470114707947 0.04987439140677452 -0.02373768389225006
			vertex 0.2660576105117798 0.04987439140677452 -0.012581219896674156
		endloop
	endfacet
	facet normal 0 -1 0
		outer loop
			vertex 0.2660576105117798 0.04987439140677452 0.017898783087730408
			vertex 0.2660576105117798 0.04987439140677452 -0.012581219896674156
			vertex 0.2742246985435486 0.04987439140677452 0.0026586868334561586
		endloop
	endfacet
	facet normal 0 -1 0
		outer loop
			vertex 0.10623017698526382 -0.01776019111275673 -0.01621376909315586
			vertex 0.10623017698526382 -0.01776019111275673 0.036792367696762085
			vertex 0.10274098813533783 -0.01776019111275673 0.010289300233125687
		endloop
	endfacet
	facet normal 0 -1 0
		outer loop
			vertex 0.10623017698526382 -0.01776019111275673 0.036792367696762085
			vertex 0.10623017698526382 -0.01776019111275673 -0.01621376909315586
			vertex 0.11645998060703278 -0.01776019111275673 -0.04091069847345352
		endloop
	endfacet
	facet normal 0 -1 0
		outer loop
			vertex 0.10623017698526382 -0.01776019111275673 0.036792367696762085
			vertex 0.11645998060703278 -0.01776019111275673 -0.04091069847345352
			vertex 0.11645998060703278 -0.01776019111275673 0.061489298939704895
		endloop
	endfacet
	facet normal 0 -1 0
		outer loop
			vertex 0.11645998060703278 -0.01776019111275673 0.061489298939704895
			vertex 0.11645998060703278 -0.01776019111275673 -0.04091069847345352
			vertex 0.13273325562477112 -0.01776019111275673 -0.06211843341588974
		endloop
	endfacet
	facet normal 0 -1 0
		outer loop
			vertex 0.11645998060703278 -0.01776019111275673 0.061489298939704895
			vertex 0.13273325562477112 -0.01776019111275673 -0.06211843341588974
			vertex 0.13273325562477112 -0.01776019111275673 0.08269703388214111
		endloop
	endfacet
	facet normal 0 -1 0
		outer loop
			vertex 0.13273325562477112 -0.01776019111275673 0.08269703388214111
			vertex 0.13273325562477112 -0.01776019111275673 -0.06211843341588974
			vertex 0.15394099056720734 -0.01776019111275673 -0.07839170098304749
		endloop
	endfacet
	facet normal 0 -1 0
		outer loop
			vertex 0.13273325562477112 -0.01776019111275673 0.08269703388214111
			vertex 0.15394099056720734 -0.01776019111275673 -0.07839170098304749
			vertex 0.15394099056720734 -0.01776019111275673 0.09897030144929886
		endloop
	endfacet
	facet normal 0 -1 0
		outer loop
			vertex 0.15394099056720734 -0.01776019111275673 0.09897030144929886
			vertex 0.15394099056720734 -0.01776019111275673 -0.07839170098304749
			vertex 0.17863792181015015 -0.01776019111275673 -0.08862151205539703
		endloop
	endfacet
	facet normal 0 -1 0
		outer loop
			vertex 0.15394099056720734 -0.01776019111275673 0.09897030144929886
			vertex 0.17863792181015015 -0.01776019111275673 -0.08862151205539703
			vertex 0.17863792181015015 -0.01776019111275673 0.10920010507106781
		endloop
	endfacet
	facet normal 0 -1 0
		outer loop
			vertex 0.17863792181015015 -0.01776019111275673 0.10920010507106781
			vertex 0.17863792181015015 -0.01776019111275673 -0.08862151205539703
			vertex 0.20514097809791565 -0.01776019111275673 -0.09211070090532303
		endloop
	endfacet
	facet normal 0 -1 0
		outer loop
			vertex 0.17863792181015015 -0.01776019111275673 0.10920010507106781
			vertex 0.20514097809791565 -0.01776019111275673 -0.09211070090532303
			vertex 0.20514097809791565 -0.01776019111275673 0.1126892939209938
		endloop
	endfacet
	facet normal 0 -1 0
		outer loop
			vertex 0.20514097809791565 -0.01776019111275673 0.1126892939209938
			vertex 0.20514097809791565 -0.01776019111275673 -0.09211070090532303
			vertex 0.23164404928684235 -0.01776019111275673 -0.08862151205539703
		endloop
	endfacet
	facet normal 0 -1 0
		outer loop
			vertex 0.20514097809791565 -0.01776019111275673 0.1126892939209938
			vertex 0.23164404928684235 -0.01776019111275673 -0.08862151205539703
			vertex 0.23164404928684235 -0.01776019111275673 0.10920010507106781
		endloop
	endfacet
	facet normal 0 -1 0
		outer loop
			vertex 0.23164404928684235 -0.01776019111275673 0.10920010507106781
			vertex 0.23164404928684235 -0.01776019111275673 -0.08862151205539703
			vertex 0.25634098052978516 -0.01776019111275673 -0.07839170098304749
		endloop
	endfacet
	facet normal 0 -1 0
		outer loop
			vertex 0.23164404928684235 -0.01776019111275673 0.10920010507106781
			vertex 0.25634098052978516 -0.01776019111275673 -0.07839170098304749
			vertex 0.25634098052978516 -0.01776019111275673 0.09897030144929886
		endloop
	endfacet
	facet normal 0 -1 0
		outer loop
			vertex 0.25634098052978516 -0.01776019111275673 0.09897030144929886
			vertex 0.25634098052978516 -0.01776019111275673 -0.07839170098304749
			vertex 0.27754873037338257 -0.01776019111275673 -0.06211843341588974
		endloop
	endfacet
	facet normal 0 -1 0
		outer loop
			vertex 0.25634098052978516 -0.01776019111275673 0.09897030144929886
			vertex 0.27754873037338257 -0.01776019111275673 -0.06211843341588974
			vertex 0.27754873037338257 -0.01776019111275673 0.08269703388214111
		endloop
	endfacet
	facet normal 0 -1 0
		outer loop
			vertex 0.27754873037338257 -0.01776019111275673 0.08269703388214111
			vertex 0.27754873037338257 -0.01776019111275673 -0.06211843341588974
			vertex 0.2938219904899597 -0.01776019111275673 -0.04091069847345352
		endloop
	endfacet
	facet normal 0 -1 0
		outer loop
			vertex 0.27754873037338257 -0.01776019111275673 0.08269703388214111
			vertex 0.2938219904899597 -0.01776019111275673 -0.04091069847345352
			vertex 0.2938219904899597 -0.01776019111275673 0.061489298939704895
		endloop
	endfacet
	facet normal 0 -1 0
		outer loop
			vertex 0.2938219904899597 -0.01776019111275673 0.061489298939704895
			vertex 0.2938219904899597 -0.01776019111275673 -0.04091069847345352
			vertex 0.30405178666114807 -0.01776019111275673 -0.01621376909315586
		endloop
	endfacet
	facet normal 0 -1 0
		outer loop
			vertex 0.2938219904899597 -0.01776019111275673 0.061489298939704895
			vertex 0.30405178666114807 -0.01776019111275673 -0.01621376909315586
			vertex 0.30405178666114807 -0.01776019111275673 0.036792367696762085
		endloop
	endfacet
	facet normal 0 -1 0
		outer loop
			vertex 0.30405178666114807 -0.01776019111275673 0.036792367696762085
			vertex 0.30405178666114807 -0.01776019111275673 -0.01621376909315586
			vertex 0.30754098296165466 -0.01776019111275673 0.010289300233125687
		endloop
	endfacet
endsolid exported
