solid exported
	facet normal 0 1 0
		outer loop
			vertex 0.4926646947860718 0.32419443130493164 2.578218698501587
			vertex -0.06613530963659286 0.32419443130493164 2.57313871383667
			vertex -0.06613530963659286 0.32419443130493164 2.578218698501587
		endloop
	endfacet
	facet normal 0 1 0
		outer loop
			vertex -0.06613530963659286 0.32419443130493164 2.57313871383667
			vertex 0.4926646947860718 0.32419443130493164 2.578218698501587
			vertex -0.025495288893580437 0.32419443130493164 2.57313871383667
		endloop
	endfacet
	facet normal 0 1 0
		outer loop
			vertex -0.025495288893580437 0.32419443130493164 2.57313871383667
			vertex 0.4926646947860718 0.32419443130493164 2.578218698501587
			vertex -0.025495288893580437 0.32419443130493164 2.552818775177002
		endloop
	endfacet
	facet normal 0 1 0
		outer loop
			vertex -0.025495288893580437 0.32419443130493164 2.552818775177002
			vertex 0.4926646947860718 0.32419443130493164 2.578218698501587
			vertex 0.4520246982574463 0.32419443130493164 2.57313871383667
		endloop
	endfacet
	facet normal 0 1 0
		outer loop
			vertex 0.4520246982574463 0.32419443130493164 2.57313871383667
			vertex 0.4926646947860718 0.32419443130493164 2.578218698501587
			vertex 0.4926646947860718 0.32419443130493164 2.57313871383667
		endloop
	endfacet
	facet normal 0 1 0
		outer loop
			vertex -0.025495288893580437 0.32419443130493164 2.552818775177002
			vertex -0.06613530963659286 0.32419443130493164 2.547738790512085
			vertex -0.06613530963659286 0.32419443130493164 2.552818775177002
		endloop
	endfacet
	facet normal 0 1 0
		outer loop
			vertex -0.06613530963659286 0.32419443130493164 2.547738790512085
			vertex -0.025495288893580437 0.32419443130493164 2.552818775177002
			vertex 0.4926646947860718 0.32419443130493164 2.547738790512085
		endloop
	endfacet
	facet normal 0 1 0
		outer loop
			vertex 0.4926646947860718 0.32419443130493164 2.547738790512085
			vertex -0.025495288893580437 0.32419443130493164 2.552818775177002
			vertex 0.4520246982574463 0.32419443130493164 2.552818775177002
		endloop
	endfacet
	facet normal 0 1 0
		outer loop
			vertex 0.4520246982574463 0.32419443130493164 2.552818775177002
			vertex -0.025495288893580437 0.32419443130493164 2.552818775177002
			vertex 0.4520246982574463 0.32419443130493164 2.57313871383667
		endloop
	endfacet
	facet normal 0 1 0
		outer loop
			vertex 0.4926646947860718 0.32419443130493164 2.547738790512085
			vertex 0.4520246982574463 0.32419443130493164 2.552818775177002
			vertex 0.4926646947860718 0.32419443130493164 2.552818775177002
		endloop
	endfacet
	facet normal 0 -1 0
		outer loop
			vertex 0.4418647289276123 0.3851543664932251 2.044818878173828
			vertex -0.015335296280682087 0.3851543664932251 2.380098819732666
			vertex -0.015335296280682087 0.3851543664932251 2.044818878173828
		endloop
	endfacet
	facet normal 0 -1 0
		outer loop
			vertex -0.015335296280682087 0.3851543664932251 2.380098819732666
			vertex 0.4418647289276123 0.3851543664932251 2.044818878173828
			vertex 0.4418647289276123 0.3851543664932251 2.380098819732666
		endloop
	endfacet
	facet normal -1 0 0
		outer loop
			vertex -0.25917530059814453 0.41823890805244446 2.4245424270629883
			vertex -0.25917530059814453 0.35467442870140076 2.349618673324585
			vertex -0.25917530059814453 0.41369521617889404 2.4199986457824707
		endloop
	endfacet
	facet normal -1 0 0
		outer loop
			vertex -0.25917530059814453 0.41369521617889404 2.4199986457824707
			vertex -0.25917530059814453 0.35467442870140076 2.349618673324585
			vertex -0.25917530059814453 0.3483951985836029 2.354698657989502
		endloop
	endfacet
	facet normal -1 0 0
		outer loop
			vertex -0.25917530059814453 0.3409961462020874 2.438173532485962
			vertex -0.25917530059814453 0.3455398380756378 2.4427170753479004
			vertex -0.25917530059814453 0.35462725162506104 2.4404454231262207
		endloop
	endfacet
	facet normal -1 0 0
		outer loop
			vertex -0.25917530059814453 0.3409961462020874 2.438173532485962
			vertex -0.25917530059814453 0.35462725162506104 2.4404454231262207
			vertex -0.25917530059814453 0.41823890805244446 2.4245424270629883
		endloop
	endfacet
	facet normal -1 0 0
		outer loop
			vertex -0.25917530059814453 0.3409961462020874 2.438173532485962
			vertex -0.25917530059814453 0.41823890805244446 2.4245424270629883
			vertex -0.25917530059814453 0.350083589553833 2.4359018802642822
		endloop
	endfacet
	facet normal -1 0 0
		outer loop
			vertex -0.25917530059814453 0.350083589553833 2.4359018802642822
			vertex -0.25917530059814453 0.41823890805244446 2.4245424270629883
			vertex -0.25917530059814453 0.41369521617889404 2.4199986457824707
		endloop
	endfacet
	facet normal -1 0 0
		outer loop
			vertex -0.25917530059814453 0.4318699836730957 2.517688035964966
			vertex -0.25917530059814453 0.3455398380756378 2.4427170753479004
			vertex -0.25917530059814453 0.4227825999259949 2.5199599266052246
		endloop
	endfacet
	facet normal -1 0 0
		outer loop
			vertex -0.25917530059814453 0.3455398380756378 2.4427170753479004
			vertex -0.25917530059814453 0.4318699836730957 2.517688035964966
			vertex -0.25917530059814453 0.35462725162506104 2.4404454231262207
		endloop
	endfacet
	facet normal -1 0 0
		outer loop
			vertex -0.25917530059814453 0.4273262917995453 2.524503707885742
			vertex -0.25917530059814453 0.3582650125026703 2.5360891819000244
			vertex -0.25917530059814453 0.3628087043762207 2.540632963180542
		endloop
	endfacet
	facet normal -1 0 0
		outer loop
			vertex -0.25917530059814453 0.3582650125026703 2.5360891819000244
			vertex -0.25917530059814453 0.4273262917995453 2.524503707885742
			vertex -0.25917530059814453 0.4227825999259949 2.5199599266052246
		endloop
	endfacet
	facet normal -1 0 0
		outer loop
			vertex -0.25917530059814453 0.4227825999259949 2.5199599266052246
			vertex -0.25917530059814453 0.4273262917995453 2.524503707885742
			vertex -0.25917530059814453 0.43641364574432373 2.5222318172454834
		endloop
	endfacet
	facet normal 1 0 0
		outer loop
			vertex -0.07629530131816864 0.3582650125026703 2.5360891819000244
			vertex -0.07629530131816864 0.4273262917995453 2.524503707885742
			vertex -0.07629530131816864 0.3628087043762207 2.540632963180542
		endloop
	endfacet
	facet normal 1 0 0
		outer loop
			vertex -0.07629530131816864 0.4273262917995453 2.524503707885742
			vertex -0.07629530131816864 0.3582650125026703 2.5360891819000244
			vertex -0.07629530131816864 0.4227825999259949 2.5199599266052246
		endloop
	endfacet
	facet normal 1 0 0
		outer loop
			vertex -0.07629530131816864 0.4273262917995453 2.524503707885742
			vertex -0.07629530131816864 0.4227825999259949 2.5199599266052246
			vertex -0.07629530131816864 0.43641364574432373 2.5222318172454834
		endloop
	endfacet
	facet normal 1 0 0
		outer loop
			vertex -0.07629530131816864 0.3455398380756378 2.4427170753479004
			vertex -0.07629530131816864 0.3409961462020874 2.438173532485962
			vertex -0.07629530131816864 0.35462725162506104 2.4404454231262207
		endloop
	endfacet
	facet normal 1 0 0
		outer loop
			vertex -0.07629530131816864 0.35462725162506104 2.4404454231262207
			vertex -0.07629530131816864 0.3409961462020874 2.438173532485962
			vertex -0.07629530131816864 0.41823890805244446 2.4245424270629883
		endloop
	endfacet
	facet normal 1 0 0
		outer loop
			vertex -0.07629530131816864 0.41823890805244446 2.4245424270629883
			vertex -0.07629530131816864 0.3409961462020874 2.438173532485962
			vertex -0.07629530131816864 0.350083589553833 2.4359018802642822
		endloop
	endfacet
	facet normal 1 0 0
		outer loop
			vertex -0.07629530131816864 0.41823890805244446 2.4245424270629883
			vertex -0.07629530131816864 0.350083589553833 2.4359018802642822
			vertex -0.07629530131816864 0.41369521617889404 2.4199986457824707
		endloop
	endfacet
	facet normal 1 0 0
		outer loop
			vertex -0.07629530131816864 0.35467442870140076 2.349618673324585
			vertex -0.07629530131816864 0.41823890805244446 2.4245424270629883
			vertex -0.07629530131816864 0.41369521617889404 2.4199986457824707
		endloop
	endfacet
	facet normal 1 0 0
		outer loop
			vertex -0.07629530131816864 0.35467442870140076 2.349618673324585
			vertex -0.07629530131816864 0.41369521617889404 2.4199986457824707
			vertex -0.07629530131816864 0.3483951985836029 2.354698657989502
		endloop
	endfacet
	facet normal 1 0 0
		outer loop
			vertex -0.07629530131816864 0.3455398380756378 2.4427170753479004
			vertex -0.07629530131816864 0.4318699836730957 2.517688035964966
			vertex -0.07629530131816864 0.4227825999259949 2.5199599266052246
		endloop
	endfacet
	facet normal 1 0 0
		outer loop
			vertex -0.07629530131816864 0.4318699836730957 2.517688035964966
			vertex -0.07629530131816864 0.3455398380756378 2.4427170753479004
			vertex -0.07629530131816864 0.35462725162506104 2.4404454231262207
		endloop
	endfacet
	facet normal 0 1 0
		outer loop
			vertex -0.07629530131816864 0.4156343936920166 2.623938798904419
			vertex -0.25917530059814453 0.4156343936920166 2.593458652496338
			vertex -0.25917530059814453 0.4156343936920166 2.623938798904419
		endloop
	endfacet
	facet normal 0 1 0
		outer loop
			vertex -0.25917530059814453 0.4156343936920166 2.593458652496338
			vertex -0.07629530131816864 0.4156343936920166 2.623938798904419
			vertex -0.07629530131816864 0.4156343936920166 2.593458652496338
		endloop
	endfacet
	facet normal 0 1 0
		outer loop
			vertex -0.07629530131816864 0.3851543664932251 2.593458652496338
			vertex -0.25917530059814453 0.3851543664932251 2.562978744506836
			vertex -0.25917530059814453 0.3851543664932251 2.593458652496338
		endloop
	endfacet
	facet normal 0 1 0
		outer loop
			vertex -0.25917530059814453 0.3851543664932251 2.562978744506836
			vertex -0.07629530131816864 0.3851543664932251 2.593458652496338
			vertex -0.07629530131816864 0.3851543664932251 2.562978744506836
		endloop
	endfacet
	facet normal 0 1 0
		outer loop
			vertex -0.07629530131816864 0.35467442870140076 2.562978744506836
			vertex -0.25917530059814453 0.35467442870140076 2.532498598098755
			vertex -0.25917530059814453 0.35467442870140076 2.562978744506836
		endloop
	endfacet
	facet normal 0 1 0
		outer loop
			vertex -0.25917530059814453 0.35467442870140076 2.532498598098755
			vertex -0.07629530131816864 0.35467442870140076 2.562978744506836
			vertex -0.07629530131816864 0.35467442870140076 2.532498598098755
		endloop
	endfacet
	facet normal 0 1 0
		outer loop
			vertex -0.07629530131816864 0.4461143910884857 2.654418706893921
			vertex -0.25917530059814453 0.4461143910884857 2.623938798904419
			vertex -0.25917530059814453 0.4461143910884857 2.654418706893921
		endloop
	endfacet
	facet normal 0 1 0
		outer loop
			vertex -0.25917530059814453 0.4461143910884857 2.623938798904419
			vertex -0.07629530131816864 0.4461143910884857 2.654418706893921
			vertex -0.07629530131816864 0.4461143910884857 2.623938798904419
		endloop
	endfacet
	facet normal 0 1 0
		outer loop
			vertex -0.07629530131816864 0.32419443130493164 2.532498598098755
			vertex -0.25917530059814453 0.32419443130493164 2.502018690109253
			vertex -0.25917530059814453 0.32419443130493164 2.532498598098755
		endloop
	endfacet
	facet normal 0 1 0
		outer loop
			vertex -0.25917530059814453 0.32419443130493164 2.502018690109253
			vertex -0.07629530131816864 0.32419443130493164 2.532498598098755
			vertex -0.07629530131816864 0.32419443130493164 2.502018690109253
		endloop
	endfacet
	facet normal 0 -1 0
		outer loop
			vertex 0.4520335793495178 0.42475625872612 1.7142643928527832
			vertex 0.0040445527993142605 0.42475625872612 0.9724394679069519
			vertex 0.4520335793495178 0.42475625872612 0.9724394679069519
		endloop
	endfacet
	facet normal 0 -1 0
		outer loop
			vertex 0.0040445527993142605 0.42475625872612 0.9724394679069519
			vertex 0.4520335793495178 0.42475625872612 1.7142643928527832
			vertex 0.0040445527993142605 0.42475625872612 1.7142643928527832
		endloop
	endfacet
endsolid exported
