solid exported
	facet normal 0 -1 0
		outer loop
			vertex 0.3656647205352783 0.5070744156837463 2.989698648452759
			vertex 0.06086470186710358 0.5070744156837463 3.081138849258423
			vertex 0.06086470186710358 0.5070744156837463 2.989698648452759
		endloop
	endfacet
	facet normal 0 -1 0
		outer loop
			vertex 0.06086470186710358 0.5070744156837463 3.081138849258423
			vertex 0.3656647205352783 0.5070744156837463 2.989698648452759
			vertex 0.3656647205352783 0.5070744156837463 3.081138849258423
		endloop
	endfacet
	facet normal -1 0 0
		outer loop
			vertex -0.25917530059814453 0.5954428315162659 2.6812610626220703
			vertex -0.25917530059814453 0.5091127157211304 2.606290102005005
			vertex -0.25917530059814453 0.586355447769165 2.683532953262329
		endloop
	endfacet
	facet normal -1 0 0
		outer loop
			vertex -0.25917530059814453 0.5091127157211304 2.606290102005005
			vertex -0.25917530059814453 0.5954428315162659 2.6812610626220703
			vertex -0.25917530059814453 0.5182000994682312 2.604018211364746
		endloop
	endfacet
	facet normal -1 0 0
		outer loop
			vertex -0.25917530059814453 0.5908991098403931 2.6880764961242676
			vertex -0.25917530059814453 0.5218378305435181 2.699662208557129
			vertex -0.25917530059814453 0.5263815522193909 2.7042057514190674
		endloop
	endfacet
	facet normal -1 0 0
		outer loop
			vertex -0.25917530059814453 0.5218378305435181 2.699662208557129
			vertex -0.25917530059814453 0.5908991098403931 2.6880764961242676
			vertex -0.25917530059814453 0.586355447769165 2.683532953262329
		endloop
	endfacet
	facet normal -1 0 0
		outer loop
			vertex -0.25917530059814453 0.586355447769165 2.683532953262329
			vertex -0.25917530059814453 0.5908991098403931 2.6880764961242676
			vertex -0.25917530059814453 0.5999864935874939 2.685804605484009
		endloop
	endfacet
	facet normal -1 0 0
		outer loop
			vertex -0.25917530059814453 0.5045689940452576 2.6017463207244873
			vertex -0.25917530059814453 0.5091127157211304 2.606290102005005
			vertex -0.25917530059814453 0.5182000994682312 2.604018211364746
		endloop
	endfacet
	facet normal -1 0 0
		outer loop
			vertex -0.25917530059814453 0.5045689940452576 2.6017463207244873
			vertex -0.25917530059814453 0.5182000994682312 2.604018211364746
			vertex -0.25917530059814453 0.5818117260932922 2.5881152153015137
		endloop
	endfacet
	facet normal -1 0 0
		outer loop
			vertex -0.25917530059814453 0.5045689940452576 2.6017463207244873
			vertex -0.25917530059814453 0.5818117260932922 2.5881152153015137
			vertex -0.25917530059814453 0.5136564373970032 2.5994744300842285
		endloop
	endfacet
	facet normal -1 0 0
		outer loop
			vertex -0.25917530059814453 0.5136564373970032 2.5994744300842285
			vertex -0.25917530059814453 0.5818117260932922 2.5881152153015137
			vertex -0.25917530059814453 0.5772680640220642 2.583571672439575
		endloop
	endfacet
	facet normal 1 0 0
		outer loop
			vertex -0.07629530131816864 0.5218378305435181 2.699662208557129
			vertex -0.07629530131816864 0.5908991098403931 2.6880764961242676
			vertex -0.07629530131816864 0.5263815522193909 2.7042057514190674
		endloop
	endfacet
	facet normal 1 0 0
		outer loop
			vertex -0.07629530131816864 0.5908991098403931 2.6880764961242676
			vertex -0.07629530131816864 0.5218378305435181 2.699662208557129
			vertex -0.07629530131816864 0.586355447769165 2.683532953262329
		endloop
	endfacet
	facet normal 1 0 0
		outer loop
			vertex -0.07629530131816864 0.5908991098403931 2.6880764961242676
			vertex -0.07629530131816864 0.586355447769165 2.683532953262329
			vertex -0.07629530131816864 0.5999864935874939 2.685804605484009
		endloop
	endfacet
	facet normal 1 0 0
		outer loop
			vertex -0.07629530131816864 0.5091127157211304 2.606290102005005
			vertex -0.07629530131816864 0.5045689940452576 2.6017463207244873
			vertex -0.07629530131816864 0.5182000994682312 2.604018211364746
		endloop
	endfacet
	facet normal 1 0 0
		outer loop
			vertex -0.07629530131816864 0.5182000994682312 2.604018211364746
			vertex -0.07629530131816864 0.5045689940452576 2.6017463207244873
			vertex -0.07629530131816864 0.5818117260932922 2.5881152153015137
		endloop
	endfacet
	facet normal 1 0 0
		outer loop
			vertex -0.07629530131816864 0.5818117260932922 2.5881152153015137
			vertex -0.07629530131816864 0.5045689940452576 2.6017463207244873
			vertex -0.07629530131816864 0.5136564373970032 2.5994744300842285
		endloop
	endfacet
	facet normal 1 0 0
		outer loop
			vertex -0.07629530131816864 0.5818117260932922 2.5881152153015137
			vertex -0.07629530131816864 0.5136564373970032 2.5994744300842285
			vertex -0.07629530131816864 0.5772680640220642 2.583571672439575
		endloop
	endfacet
	facet normal 1 0 0
		outer loop
			vertex -0.07629530131816864 0.5091127157211304 2.606290102005005
			vertex -0.07629530131816864 0.5954428315162659 2.6812610626220703
			vertex -0.07629530131816864 0.586355447769165 2.683532953262329
		endloop
	endfacet
	facet normal 1 0 0
		outer loop
			vertex -0.07629530131816864 0.5954428315162659 2.6812610626220703
			vertex -0.07629530131816864 0.5091127157211304 2.606290102005005
			vertex -0.07629530131816864 0.5182000994682312 2.604018211364746
		endloop
	endfacet
	facet normal 0 1 0
		outer loop
			vertex -0.07629530131816864 0.47659438848495483 2.684898614883423
			vertex -0.25917530059814453 0.47659438848495483 2.654418706893921
			vertex -0.25917530059814453 0.47659438848495483 2.684898614883423
		endloop
	endfacet
	facet normal 0 1 0
		outer loop
			vertex -0.25917530059814453 0.47659438848495483 2.654418706893921
			vertex -0.07629530131816864 0.47659438848495483 2.684898614883423
			vertex -0.07629530131816864 0.47659438848495483 2.654418706893921
		endloop
	endfacet
	facet normal 0 1 0
		outer loop
			vertex -0.07629530131816864 0.5985143780708313 2.806818723678589
			vertex -0.25917530059814453 0.5985143780708313 2.776338815689087
			vertex -0.25917530059814453 0.5985143780708313 2.806818723678589
		endloop
	endfacet
	facet normal 0 1 0
		outer loop
			vertex -0.25917530059814453 0.5985143780708313 2.776338815689087
			vertex -0.07629530131816864 0.5985143780708313 2.806818723678589
			vertex -0.07629530131816864 0.5985143780708313 2.776338815689087
		endloop
	endfacet
	facet normal 0 1 0
		outer loop
			vertex -0.07629530131816864 0.5070744156837463 2.715378761291504
			vertex -0.25917530059814453 0.5070744156837463 2.684898614883423
			vertex -0.25917530059814453 0.5070744156837463 2.715378761291504
		endloop
	endfacet
	facet normal 0 1 0
		outer loop
			vertex -0.25917530059814453 0.5070744156837463 2.684898614883423
			vertex -0.07629530131816864 0.5070744156837463 2.715378761291504
			vertex -0.07629530131816864 0.5070744156837463 2.684898614883423
		endloop
	endfacet
	facet normal 0 1 0
		outer loop
			vertex -0.07629530131816864 0.5375543832778931 2.745858669281006
			vertex -0.25917530059814453 0.5375543832778931 2.715378761291504
			vertex -0.25917530059814453 0.5375543832778931 2.745858669281006
		endloop
	endfacet
	facet normal 0 1 0
		outer loop
			vertex -0.25917530059814453 0.5375543832778931 2.715378761291504
			vertex -0.07629530131816864 0.5375543832778931 2.745858669281006
			vertex -0.07629530131816864 0.5375543832778931 2.715378761291504
		endloop
	endfacet
	facet normal 0 1 0
		outer loop
			vertex -0.07629530131816864 0.5680344104766846 2.776338815689087
			vertex -0.25917530059814453 0.5680344104766846 2.745858669281006
			vertex -0.25917530059814453 0.5680344104766846 2.776338815689087
		endloop
	endfacet
	facet normal 0 1 0
		outer loop
			vertex -0.25917530059814453 0.5680344104766846 2.745858669281006
			vertex -0.07629530131816864 0.5680344104766846 2.776338815689087
			vertex -0.07629530131816864 0.5680344104766846 2.745858669281006
		endloop
	endfacet
endsolid exported
