solid exported
	facet normal 0 1 0
		outer loop
			vertex 0.4113847017288208 1.23859441280365 1.6790587902069092
			vertex 0.015144706703722477 1.23859441280365 0.9170587658882141
			vertex 0.015144706703722477 1.23859441280365 1.6790587902069092
		endloop
	endfacet
	facet normal 0 1 0
		outer loop
			vertex 0.015144706703722477 1.23859441280365 0.9170587658882141
			vertex 0.4113847017288208 1.23859441280365 1.6790587902069092
			vertex 0.4113847017288208 1.23859441280365 0.9170587658882141
		endloop
	endfacet
	facet normal 0 1 0
		outer loop
			vertex 0.15230469405651093 1.2690744400024414 0.15505880117416382
			vertex -0.03057529777288437 1.2690744400024414 0.0026586868334561586
			vertex -0.03057529777288437 1.2690744400024414 0.15505880117416382
		endloop
	endfacet
	facet normal 0 1 0
		outer loop
			vertex -0.03057529777288437 1.2690744400024414 0.0026586868334561586
			vertex 0.15230469405651093 1.2690744400024414 0.15505880117416382
			vertex -0.022266648709774017 1.2690744400024414 -0.02889648824930191
		endloop
	endfacet
	facet normal 0 1 0
		outer loop
			vertex -0.022266648709774017 1.2690744400024414 -0.02889648824930191
			vertex 0.15230469405651093 1.2690744400024414 0.15505880117416382
			vertex 0.0020930778700858355 1.2690744400024414 -0.05830112844705582
		endloop
	endfacet
	facet normal 0 1 0
		outer loop
			vertex 0.0020930778700858355 1.2690744400024414 -0.05830112844705582
			vertex 0.15230469405651093 1.2690744400024414 0.15505880117416382
			vertex 0.04084378480911255 1.2690744400024414 -0.08355175703763962
		endloop
	endfacet
	facet normal 0 1 0
		outer loop
			vertex 0.04084378480911255 1.2690744400024414 -0.08355175703763962
			vertex 0.15230469405651093 1.2690744400024414 0.15505880117416382
			vertex 0.09134470671415329 1.2690744400024414 -0.10292698442935944
		endloop
	endfacet
	facet normal 0 1 0
		outer loop
			vertex 0.09134470671415329 1.2690744400024414 -0.10292698442935944
			vertex 0.15230469405651093 1.2690744400024414 0.15505880117416382
			vertex 0.1501542627811432 1.2690744400024414 -0.11510693281888962
		endloop
	endfacet
	facet normal 0 1 0
		outer loop
			vertex 0.1501542627811432 1.2690744400024414 -0.11510693281888962
			vertex 0.15230469405651093 1.2690744400024414 0.15505880117416382
			vertex 0.21326470375061035 1.2690744400024414 -0.11926113814115524
		endloop
	endfacet
	facet normal 0 1 0
		outer loop
			vertex 0.21326470375061035 1.2690744400024414 -0.11926113814115524
			vertex 0.15230469405651093 1.2690744400024414 0.15505880117416382
			vertex 0.2742246985435486 1.2690744400024414 0.15505880117416382
		endloop
	endfacet
	facet normal 0 1 0
		outer loop
			vertex 0.21326470375061035 1.2690744400024414 -0.11926113814115524
			vertex 0.2742246985435486 1.2690744400024414 0.15505880117416382
			vertex 0.2763751447200775 1.2690744400024414 -0.11510693281888962
		endloop
	endfacet
	facet normal 0 1 0
		outer loop
			vertex 0.2763751447200775 1.2690744400024414 -0.11510693281888962
			vertex 0.2742246985435486 1.2690744400024414 0.15505880117416382
			vertex 0.45710471272468567 1.2690744400024414 0.15505880117416382
		endloop
	endfacet
	facet normal 0 1 0
		outer loop
			vertex 0.2763751447200775 1.2690744400024414 -0.11510693281888962
			vertex 0.45710471272468567 1.2690744400024414 0.15505880117416382
			vertex 0.3351846933364868 1.2690744400024414 -0.10292698442935944
		endloop
	endfacet
	facet normal 0 1 0
		outer loop
			vertex 0.3351846933364868 1.2690744400024414 -0.10292698442935944
			vertex 0.45710471272468567 1.2690744400024414 0.15505880117416382
			vertex 0.38568562269210815 1.2690744400024414 -0.08355175703763962
		endloop
	endfacet
	facet normal 0 1 0
		outer loop
			vertex 0.38568562269210815 1.2690744400024414 -0.08355175703763962
			vertex 0.45710471272468567 1.2690744400024414 0.15505880117416382
			vertex 0.4244363605976105 1.2690744400024414 -0.05830112844705582
		endloop
	endfacet
	facet normal 0 1 0
		outer loop
			vertex 0.4244363605976105 1.2690744400024414 -0.05830112844705582
			vertex 0.45710471272468567 1.2690744400024414 0.15505880117416382
			vertex 0.4487960636615753 1.2690744400024414 -0.02889648824930191
		endloop
	endfacet
	facet normal 0 1 0
		outer loop
			vertex 0.4487960636615753 1.2690744400024414 -0.02889648824930191
			vertex 0.45710471272468567 1.2690744400024414 0.15505880117416382
			vertex 0.45710471272468567 1.2690744400024414 0.0026586868334561586
		endloop
	endfacet
	facet normal -0.9670394134807374 0 -0.25462673224709087
		outer loop
			vertex -0.022266648709774017 1.2690744400024414 -0.02889648824930191
			vertex -0.03057529777288437 1.23859441280365 0.0026586868334561586
			vertex -0.03057529777288437 1.2690744400024414 0.0026586868334561586
		endloop
	endfacet
	facet normal 1 0 0
		outer loop
			vertex 0.45710471272468567 1.2690744400024414 0.15505880117416382
			vertex 0.45710471272468567 1.23859441280365 0.07885879278182983
			vertex 0.45710471272468567 1.2690744400024414 0.0026586868334561586
		endloop
	endfacet
	facet normal 1 0 0
		outer loop
			vertex 0.45710471272468567 1.2690744400024414 0.0026586868334561586
			vertex 0.45710471272468567 1.23859441280365 0.07885879278182983
			vertex 0.45710471272468567 1.23859441280365 0.0026586868334561586
		endloop
	endfacet
	facet normal -1 0 0
		outer loop
			vertex -0.03057529777288437 1.23859441280365 0.07885879278182983
			vertex -0.03057529777288437 1.2690744400024414 0.15505880117416382
			vertex -0.03057529777288437 1.2690744400024414 0.0026586868334561586
		endloop
	endfacet
	facet normal -1 0 0
		outer loop
			vertex -0.03057529777288437 1.23859441280365 0.07885879278182983
			vertex -0.03057529777288437 1.2690744400024414 0.0026586868334561586
			vertex -0.03057529777288437 1.23859441280365 0.0026586868334561586
		endloop
	endfacet
	facet normal 0 -1 0
		outer loop
			vertex 0.4487960636615753 1.23859441280365 0.03421395644545555
			vertex 0.45710471272468567 1.23859441280365 0.07885879278182983
			vertex 0.4244363605976105 1.23859441280365 0.06361878663301468
		endloop
	endfacet
	facet normal 0 -1 0
		outer loop
			vertex 0.45710471272468567 1.23859441280365 0.07885879278182983
			vertex 0.4487960636615753 1.23859441280365 0.03421395644545555
			vertex 0.45710471272468567 1.23859441280365 0.0026586868334561586
		endloop
	endfacet
	facet normal 0 -1 0
		outer loop
			vertex -0.022266648709774017 1.23859441280365 0.03421395644545555
			vertex -0.03057529777288437 1.23859441280365 0.07885879278182983
			vertex -0.03057529777288437 1.23859441280365 0.0026586868334561586
		endloop
	endfacet
	facet normal 0 -1 0
		outer loop
			vertex -0.03057529777288437 1.23859441280365 0.07885879278182983
			vertex -0.022266648709774017 1.23859441280365 0.03421395644545555
			vertex 0.0020930778700858355 1.23859441280365 0.06361878663301468
		endloop
	endfacet
	facet normal -1 0 0
		outer loop
			vertex 0.15230469405651093 1.299554467201233 0.15505880117416382
			vertex 0.15230469405651093 1.2843143939971924 0.2312588095664978
			vertex 0.15230469405651093 1.299554467201233 0.2312588095664978
		endloop
	endfacet
	facet normal 0 0 1
		outer loop
			vertex 0.2742246985435486 1.299554467201233 0.2312588095664978
			vertex 0.15230469405651093 1.2843143939971924 0.2312588095664978
			vertex 0.2742246985435486 1.2843143939971924 0.2312588095664978
		endloop
	endfacet
	facet normal 0 0 1
		outer loop
			vertex 0.15230469405651093 1.2843143939971924 0.2312588095664978
			vertex 0.2742246985435486 1.299554467201233 0.2312588095664978
			vertex 0.15230469405651093 1.299554467201233 0.2312588095664978
		endloop
	endfacet
	facet normal 0 1 0
		outer loop
			vertex 0.15230469405651093 1.299554467201233 0.2312588095664978
			vertex 0.16754469275474548 1.299554467201233 0.22363875806331635
			vertex 0.15230469405651093 1.299554467201233 0.15505880117416382
		endloop
	endfacet
	facet normal 0 1 0
		outer loop
			vertex 0.16754469275474548 1.299554467201233 0.22363875806331635
			vertex 0.15230469405651093 1.299554467201233 0.2312588095664978
			vertex 0.2742246985435486 1.299554467201233 0.2312588095664978
		endloop
	endfacet
	facet normal 0 1 0
		outer loop
			vertex 0.16754469275474548 1.299554467201233 0.22363875806331635
			vertex 0.2742246985435486 1.299554467201233 0.2312588095664978
			vertex 0.2589847147464752 1.299554467201233 0.22363875806331635
		endloop
	endfacet
	facet normal 0 1 0
		outer loop
			vertex 0.2589847147464752 1.299554467201233 0.22363875806331635
			vertex 0.2742246985435486 1.299554467201233 0.2312588095664978
			vertex 0.2589847147464752 1.299554467201233 0.17791874706745148
		endloop
	endfacet
	facet normal 0 1 0
		outer loop
			vertex 0.15230469405651093 1.299554467201233 0.15505880117416382
			vertex 0.16754469275474548 1.299554467201233 0.17791874706745148
			vertex 0.2742246985435486 1.299554467201233 0.15505880117416382
		endloop
	endfacet
	facet normal 0 1 0
		outer loop
			vertex 0.16754469275474548 1.299554467201233 0.17791874706745148
			vertex 0.15230469405651093 1.299554467201233 0.15505880117416382
			vertex 0.16754469275474548 1.299554467201233 0.22363875806331635
		endloop
	endfacet
	facet normal 0 1 0
		outer loop
			vertex 0.2742246985435486 1.299554467201233 0.15505880117416382
			vertex 0.16754469275474548 1.299554467201233 0.17791874706745148
			vertex 0.2589847147464752 1.299554467201233 0.17791874706745148
		endloop
	endfacet
	facet normal 0 1 0
		outer loop
			vertex 0.2742246985435486 1.299554467201233 0.15505880117416382
			vertex 0.2589847147464752 1.299554467201233 0.17791874706745148
			vertex 0.2742246985435486 1.299554467201233 0.2312588095664978
		endloop
	endfacet
	facet normal 0 0 -1
		outer loop
			vertex 0.15230469405651093 1.2690744400024414 0.15505880117416382
			vertex 0.15230469405651093 1.299554467201233 0.15505880117416382
			vertex 0.2742246985435486 1.2690744400024414 0.15505880117416382
		endloop
	endfacet
	facet normal 0 0 -1
		outer loop
			vertex 0.2742246985435486 1.2690744400024414 0.15505880117416382
			vertex 0.15230469405651093 1.299554467201233 0.15505880117416382
			vertex 0.2742246985435486 1.299554467201233 0.15505880117416382
		endloop
	endfacet
	facet normal -1 0 0
		outer loop
			vertex 0.16754469275474548 1.3147944211959839 0.17791874706745148
			vertex 0.16754469275474548 1.299554467201233 0.22363875806331635
			vertex 0.16754469275474548 1.3147944211959839 0.22363875806331635
		endloop
	endfacet
	facet normal -1 0 0
		outer loop
			vertex 0.16754469275474548 1.299554467201233 0.22363875806331635
			vertex 0.16754469275474548 1.3147944211959839 0.17791874706745148
			vertex 0.16754469275474548 1.299554467201233 0.17791874706745148
		endloop
	endfacet
	facet normal 0 0 1
		outer loop
			vertex 0.2589847147464752 1.3147944211959839 0.22363875806331635
			vertex 0.16754469275474548 1.299554467201233 0.22363875806331635
			vertex 0.2589847147464752 1.299554467201233 0.22363875806331635
		endloop
	endfacet
	facet normal 0 0 1
		outer loop
			vertex 0.16754469275474548 1.299554467201233 0.22363875806331635
			vertex 0.2589847147464752 1.3147944211959839 0.22363875806331635
			vertex 0.16754469275474548 1.3147944211959839 0.22363875806331635
		endloop
	endfacet
	facet normal 1 0 0
		outer loop
			vertex 0.2589847147464752 1.299554467201233 0.17791874706745148
			vertex 0.2589847147464752 1.3147944211959839 0.22363875806331635
			vertex 0.2589847147464752 1.299554467201233 0.22363875806331635
		endloop
	endfacet
	facet normal 1 0 0
		outer loop
			vertex 0.2589847147464752 1.3147944211959839 0.22363875806331635
			vertex 0.2589847147464752 1.299554467201233 0.17791874706745148
			vertex 0.2589847147464752 1.3147944211959839 0.17791874706745148
		endloop
	endfacet
	facet normal 0 0 -1
		outer loop
			vertex 0.16754469275474548 1.3147944211959839 0.17791874706745148
			vertex 0.2589847147464752 1.299554467201233 0.17791874706745148
			vertex 0.16754469275474548 1.299554467201233 0.17791874706745148
		endloop
	endfacet
	facet normal 0 0 -1
		outer loop
			vertex 0.2589847147464752 1.299554467201233 0.17791874706745148
			vertex 0.16754469275474548 1.3147944211959839 0.17791874706745148
			vertex 0.2589847147464752 1.3147944211959839 0.17791874706745148
		endloop
	endfacet
	facet normal 0 -1 0
		outer loop
			vertex 0.15230469405651093 1.3147944211959839 0.17029879987239838
			vertex 0.16754469275474548 1.3147944211959839 0.17791874706745148
			vertex 0.15230469405651093 1.3147944211959839 0.2312588095664978
		endloop
	endfacet
	facet normal 0 -1 0
		outer loop
			vertex 0.16754469275474548 1.3147944211959839 0.17791874706745148
			vertex 0.15230469405651093 1.3147944211959839 0.17029879987239838
			vertex 0.2742246985435486 1.3147944211959839 0.17029879987239838
		endloop
	endfacet
	facet normal 0 -1 0
		outer loop
			vertex 0.16754469275474548 1.3147944211959839 0.17791874706745148
			vertex 0.2742246985435486 1.3147944211959839 0.17029879987239838
			vertex 0.2589847147464752 1.3147944211959839 0.17791874706745148
		endloop
	endfacet
	facet normal 0 -1 0
		outer loop
			vertex 0.2589847147464752 1.3147944211959839 0.17791874706745148
			vertex 0.2742246985435486 1.3147944211959839 0.17029879987239838
			vertex 0.2589847147464752 1.3147944211959839 0.22363875806331635
		endloop
	endfacet
	facet normal 0 -1 0
		outer loop
			vertex 0.15230469405651093 1.3147944211959839 0.2312588095664978
			vertex 0.16754469275474548 1.3147944211959839 0.22363875806331635
			vertex 0.2742246985435486 1.3147944211959839 0.2312588095664978
		endloop
	endfacet
	facet normal 0 -1 0
		outer loop
			vertex 0.16754469275474548 1.3147944211959839 0.22363875806331635
			vertex 0.15230469405651093 1.3147944211959839 0.2312588095664978
			vertex 0.16754469275474548 1.3147944211959839 0.17791874706745148
		endloop
	endfacet
	facet normal 0 -1 0
		outer loop
			vertex 0.2742246985435486 1.3147944211959839 0.2312588095664978
			vertex 0.16754469275474548 1.3147944211959839 0.22363875806331635
			vertex 0.2589847147464752 1.3147944211959839 0.22363875806331635
		endloop
	endfacet
	facet normal 0 -1 0
		outer loop
			vertex 0.2742246985435486 1.3147944211959839 0.2312588095664978
			vertex 0.2589847147464752 1.3147944211959839 0.22363875806331635
			vertex 0.2742246985435486 1.3147944211959839 0.17029879987239838
		endloop
	endfacet
	facet normal 0 1 0
		outer loop
			vertex 0.2742246985435486 1.375754475593567 0.2312588095664978
			vertex 0.15230469405651093 1.375754475593567 0.17029879987239838
			vertex 0.15230469405651093 1.375754475593567 0.2312588095664978
		endloop
	endfacet
	facet normal 0 1 0
		outer loop
			vertex 0.15230469405651093 1.375754475593567 0.17029879987239838
			vertex 0.2742246985435486 1.375754475593567 0.2312588095664978
			vertex 0.2742246985435486 1.375754475593567 0.17029879987239838
		endloop
	endfacet
	facet normal 0 0 1
		outer loop
			vertex 0.2742246985435486 1.375754475593567 0.2312588095664978
			vertex 0.15230469405651093 1.3147944211959839 0.2312588095664978
			vertex 0.2742246985435486 1.3147944211959839 0.2312588095664978
		endloop
	endfacet
	facet normal 0 0 1
		outer loop
			vertex 0.15230469405651093 1.3147944211959839 0.2312588095664978
			vertex 0.2742246985435486 1.375754475593567 0.2312588095664978
			vertex 0.15230469405651093 1.375754475593567 0.2312588095664978
		endloop
	endfacet
	facet normal 0 0 -1
		outer loop
			vertex 0.15230469405651093 1.375754475593567 0.17029879987239838
			vertex 0.2742246985435486 1.3147944211959839 0.17029879987239838
			vertex 0.15230469405651093 1.3147944211959839 0.17029879987239838
		endloop
	endfacet
	facet normal 0 0 -1
		outer loop
			vertex 0.2742246985435486 1.3147944211959839 0.17029879987239838
			vertex 0.15230469405651093 1.375754475593567 0.17029879987239838
			vertex 0.2742246985435486 1.375754475593567 0.17029879987239838
		endloop
	endfacet
	facet normal -1 0 0
		outer loop
			vertex 0.15230469405651093 1.375754475593567 0.17029879987239838
			vertex 0.15230469405651093 1.3147944211959839 0.2312588095664978
			vertex 0.15230469405651093 1.375754475593567 0.2312588095664978
		endloop
	endfacet
	facet normal -1 0 0
		outer loop
			vertex 0.15230469405651093 1.3147944211959839 0.2312588095664978
			vertex 0.15230469405651093 1.375754475593567 0.17029879987239838
			vertex 0.15230469405651093 1.3147944211959839 0.17029879987239838
		endloop
	endfacet
	facet normal 1 0 0
		outer loop
			vertex 0.2742246985435486 1.3147944211959839 0.17029879987239838
			vertex 0.2742246985435486 1.375754475593567 0.2312588095664978
			vertex 0.2742246985435486 1.3147944211959839 0.2312588095664978
		endloop
	endfacet
	facet normal 1 0 0
		outer loop
			vertex 0.2742246985435486 1.375754475593567 0.2312588095664978
			vertex 0.2742246985435486 1.3147944211959839 0.17029879987239838
			vertex 0.2742246985435486 1.375754475593567 0.17029879987239838
		endloop
	endfacet
	facet normal 0 0 1
		outer loop
			vertex -0.02631063386797905 1.2690744400024414 3.2182986736297607
			vertex -0.02631063386797905 1.23859441280365 3.2182986736297607
			vertex 0.45284003019332886 1.23859441280365 3.2182986736297607
		endloop
	endfacet
	facet normal 0 0 1
		outer loop
			vertex -0.02631063386797905 1.2690744400024414 3.2182986736297607
			vertex 0.45284003019332886 1.23859441280365 3.2182986736297607
			vertex 0.45284003019332886 1.2690744400024414 3.2182986736297607
		endloop
	endfacet
	facet normal 0 0.8320492659813681 0.5547017387568445
		outer loop
			vertex 0.5790246725082397 1.2401986122131348 3.3530526161193848
			vertex -0.15249529480934143 1.2698765993118286 3.3085358142852783
			vertex -0.15249529480934143 1.2401986122131348 3.3530526161193848
		endloop
	endfacet
	facet normal 0 0.8320492659813681 0.5547017387568445
		outer loop
			vertex -0.15249529480934143 1.2698765993118286 3.3085358142852783
			vertex 0.5790246725082397 1.2401986122131348 3.3530526161193848
			vertex 0.5790246725082397 1.2698765993118286 3.3085358142852783
		endloop
	endfacet
	facet normal 0 0 -1
		outer loop
			vertex -0.15249529480934143 1.299554467201233 3.264019012451172
			vertex -0.09153527766466141 1.2690744400024414 3.264019012451172
			vertex -0.15249529480934143 1.2690744400024414 3.264019012451172
		endloop
	endfacet
	facet normal 0 0 -1
		outer loop
			vertex -0.09153527766466141 1.2690744400024414 3.264019012451172
			vertex -0.15249529480934143 1.299554467201233 3.264019012451172
			vertex 0.5180646777153015 1.2690744400024414 3.264019012451172
		endloop
	endfacet
	facet normal 0 0 -1
		outer loop
			vertex 0.5180646777153015 1.2690744400024414 3.264019012451172
			vertex -0.15249529480934143 1.299554467201233 3.264019012451172
			vertex 0.5790246725082397 1.2690744400024414 3.264019012451172
		endloop
	endfacet
	facet normal 0 0 -1
		outer loop
			vertex 0.5790246725082397 1.2690744400024414 3.264019012451172
			vertex -0.15249529480934143 1.299554467201233 3.264019012451172
			vertex 0.5790246725082397 1.299554467201233 3.264019012451172
		endloop
	endfacet
	facet normal 0 1 0
		outer loop
			vertex -0.02631063386797905 1.2690744400024414 3.2182986736297607
			vertex 0.1185990571975708 1.2690744400024414 3.1968274116516113
			vertex 0.03038470819592476 1.2690744400024414 3.1785576343536377
		endloop
	endfacet
	facet normal 0 1 0
		outer loop
			vertex 0.1185990571975708 1.2690744400024414 3.1968274116516113
			vertex -0.02631063386797905 1.2690744400024414 3.2182986736297607
			vertex 0.21326470375061035 1.2690744400024414 3.203059196472168
		endloop
	endfacet
	facet normal 0 1 0
		outer loop
			vertex 0.21326470375061035 1.2690744400024414 3.203059196472168
			vertex -0.02631063386797905 1.2690744400024414 3.2182986736297607
			vertex 0.45284003019332886 1.2690744400024414 3.2182986736297607
		endloop
	endfacet
	facet normal 0 1 0
		outer loop
			vertex 0.21326470375061035 1.2690744400024414 3.203059196472168
			vertex 0.45284003019332886 1.2690744400024414 3.2182986736297607
			vertex 0.3079303503036499 1.2690744400024414 3.1968274116516113
		endloop
	endfacet
	facet normal 0 1 0
		outer loop
			vertex 0.3079303503036499 1.2690744400024414 3.1968274116516113
			vertex 0.45284003019332886 1.2690744400024414 3.2182986736297607
			vertex 0.39614471793174744 1.2690744400024414 3.1785576343536377
		endloop
	endfacet
	facet normal 0 -0.8245245077253986 -0.5658262420215141
		outer loop
			vertex 0.5180646777153015 1.2690744400024414 3.264019012451172
			vertex -0.09153527766466141 1.2409194707870483 3.305046558380127
			vertex -0.09153527766466141 1.2690744400024414 3.264019012451172
		endloop
	endfacet
	facet normal 0 1 0
		outer loop
			vertex 0.5180646777153015 1.2690744400024414 3.264019012451172
			vertex -0.02631063386797905 1.2690744400024414 3.2182986736297607
			vertex -0.09153527766466141 1.2690744400024414 3.264019012451172
		endloop
	endfacet
	facet normal 0 1 0
		outer loop
			vertex -0.02631063386797905 1.2690744400024414 3.2182986736297607
			vertex 0.5180646777153015 1.2690744400024414 3.264019012451172
			vertex 0.45284003019332886 1.2690744400024414 3.2182986736297607
		endloop
	endfacet
	facet normal 0 1 0
		outer loop
			vertex 0.45284003019332886 1.23859441280365 3.2182986736297607
			vertex 0.47189605236053467 1.23859441280365 3.1494946479797363
			vertex 0.39614471793174744 1.23859441280365 3.1785576343536377
		endloop
	endfacet
	facet normal 0 1 0
		outer loop
			vertex 0.47189605236053467 1.23859441280365 3.1494946479797363
			vertex 0.45284003019332886 1.23859441280365 3.2182986736297607
			vertex 0.5028246641159058 1.23859441280365 3.1991217136383057
		endloop
	endfacet
	facet normal 0 1 0
		outer loop
			vertex 0.47189605236053467 1.23859441280365 3.1494946479797363
			vertex 0.5028246641159058 1.23859441280365 3.1991217136383057
			vertex 0.5028246641159058 1.23859441280365 3.1711742877960205
		endloop
	endfacet
	facet normal 0.5739887802741208 0 -0.8188631632448898
		outer loop
			vertex 0.39614471793174744 1.23859441280365 3.1785576343536377
			vertex 0.45284003019332886 1.2690744400024414 3.2182986736297607
			vertex 0.45284003019332886 1.23859441280365 3.2182986736297607
		endloop
	endfacet
	facet normal 0.5739887802741208 0 -0.8188631632448898
		outer loop
			vertex 0.45284003019332886 1.2690744400024414 3.2182986736297607
			vertex 0.39614471793174744 1.23859441280365 3.1785576343536377
			vertex 0.39614471793174744 1.2690744400024414 3.1785576343536377
		endloop
	endfacet
	facet normal 0 1 0
		outer loop
			vertex -0.02631063386797905 1.23859441280365 3.2182986736297607
			vertex -0.07629527896642685 1.23859441280365 3.1711742877960205
			vertex -0.07629527896642685 1.23859441280365 3.1991217136383057
		endloop
	endfacet
	facet normal 0 1 0
		outer loop
			vertex -0.07629527896642685 1.23859441280365 3.1711742877960205
			vertex -0.02631063386797905 1.23859441280365 3.2182986736297607
			vertex -0.045366667211055756 1.23859441280365 3.1494946479797363
		endloop
	endfacet
	facet normal 0 1 0
		outer loop
			vertex -0.045366667211055756 1.23859441280365 3.1494946479797363
			vertex -0.02631063386797905 1.23859441280365 3.2182986736297607
			vertex 0.03038470819592476 1.23859441280365 3.1785576343536377
		endloop
	endfacet
	facet normal -0.5739885779587338 0 -0.8188633050594653
		outer loop
			vertex -0.02631063386797905 1.2690744400024414 3.2182986736297607
			vertex 0.03038470819592476 1.2690744400024414 3.1785576343536377
			vertex -0.02631063386797905 1.23859441280365 3.2182986736297607
		endloop
	endfacet
	facet normal -0.5739885779587338 0 -0.8188633050594653
		outer loop
			vertex -0.02631063386797905 1.23859441280365 3.2182986736297607
			vertex 0.03038470819592476 1.2690744400024414 3.1785576343536377
			vertex 0.03038470819592476 1.23859441280365 3.1785576343536377
		endloop
	endfacet
	facet normal 0 0.8320502943378437 0.5547001962252291
		outer loop
			vertex 0.5790246725082397 1.2698765993118286 3.3085358142852783
			vertex -0.15249529480934143 1.299554467201233 3.264019012451172
			vertex -0.15249529480934143 1.2698765993118286 3.3085358142852783
		endloop
	endfacet
	facet normal 0 0.8320502943378437 0.5547001962252291
		outer loop
			vertex -0.15249529480934143 1.299554467201233 3.264019012451172
			vertex 0.5790246725082397 1.2698765993118286 3.3085358142852783
			vertex 0.5790246725082397 1.299554467201233 3.264019012451172
		endloop
	endfacet
	facet normal 0 -0.1644029439583621 0.9863932643818203
		outer loop
			vertex 0.5790246725082397 1.284334421157837 3.310945510864258
			vertex -0.15249529480934143 1.2698765993118286 3.3085358142852783
			vertex 0.5790246725082397 1.2698765993118286 3.3085358142852783
		endloop
	endfacet
	facet normal 0 -0.1644029439583621 0.9863932643818203
		outer loop
			vertex -0.15249529480934143 1.2698765993118286 3.3085358142852783
			vertex 0.5790246725082397 1.284334421157837 3.310945510864258
			vertex -0.15249529480934143 1.284334421157837 3.310945510864258
		endloop
	endfacet
	facet normal 0 1 0
		outer loop
			vertex -0.1400323510169983 1.2690744400024414 3.067511558532715
			vertex -0.1400323510169983 1.2690744400024414 2.972846031188965
			vertex -0.15249529480934143 1.2690744400024414 3.02017879486084
		endloop
	endfacet
	facet normal 0 1 0
		outer loop
			vertex -0.1400323510169983 1.2690744400024414 2.972846031188965
			vertex -0.1400323510169983 1.2690744400024414 3.067511558532715
			vertex -0.10349273681640625 1.2690744400024414 3.111618757247925
		endloop
	endfacet
	facet normal 0 1 0
		outer loop
			vertex -0.1400323510169983 1.2690744400024414 2.972846031188965
			vertex -0.10349273681640625 1.2690744400024414 3.111618757247925
			vertex -0.10349273681640625 1.2690744400024414 2.928738832473755
		endloop
	endfacet
	facet normal 0 1 0
		outer loop
			vertex -0.10349273681640625 1.2690744400024414 2.928738832473755
			vertex -0.10349273681640625 1.2690744400024414 3.111618757247925
			vertex -0.045366667211055756 1.2690744400024414 3.1494944095611572
		endloop
	endfacet
	facet normal 0 1 0
		outer loop
			vertex -0.10349273681640625 1.2690744400024414 2.928738832473755
			vertex -0.045366667211055756 1.2690744400024414 3.1494944095611572
			vertex -0.045366667211055756 1.2690744400024414 2.8908629417419434
		endloop
	endfacet
	facet normal 0 1 0
		outer loop
			vertex -0.045366667211055756 1.2690744400024414 2.8908629417419434
			vertex -0.045366667211055756 1.2690744400024414 3.1494944095611572
			vertex 0.03038470819592476 1.2690744400024414 3.1785573959350586
		endloop
	endfacet
	facet normal 0 1 0
		outer loop
			vertex -0.045366667211055756 1.2690744400024414 2.8908629417419434
			vertex 0.03038470819592476 1.2690744400024414 3.1785573959350586
			vertex -0.015335296280682087 1.2690744400024414 2.8793411254882812
		endloop
	endfacet
	facet normal 0 1 0
		outer loop
			vertex -0.015335296280682087 1.2690744400024414 2.8793411254882812
			vertex 0.03038470819592476 1.2690744400024414 3.1785573959350586
			vertex 0.4418647289276123 1.2690744400024414 2.8793411254882812
		endloop
	endfacet
	facet normal 0 1 0
		outer loop
			vertex 0.4418647289276123 1.2690744400024414 2.8793411254882812
			vertex 0.03038470819592476 1.2690744400024414 3.1785573959350586
			vertex 0.1185990497469902 1.2690744400024414 3.1968271732330322
		endloop
	endfacet
	facet normal 0 1 0
		outer loop
			vertex 0.4418647289276123 1.2690744400024414 2.8793411254882812
			vertex 0.1185990497469902 1.2690744400024414 3.1968271732330322
			vertex 0.21326470375061035 1.2690744400024414 3.2030587196350098
		endloop
	endfacet
	facet normal 0 1 0
		outer loop
			vertex 0.4418647289276123 1.2690744400024414 2.8793411254882812
			vertex 0.21326470375061035 1.2690744400024414 3.2030587196350098
			vertex 0.3079303503036499 1.2690744400024414 3.1968271732330322
		endloop
	endfacet
	facet normal 0 1 0
		outer loop
			vertex 0.4418647289276123 1.2690744400024414 2.8793411254882812
			vertex 0.3079303503036499 1.2690744400024414 3.1968271732330322
			vertex 0.39614471793174744 1.2690744400024414 3.1785573959350586
		endloop
	endfacet
	facet normal 0 1 0
		outer loop
			vertex 0.4418647289276123 1.2690744400024414 2.8793411254882812
			vertex 0.39614471793174744 1.2690744400024414 3.1785573959350586
			vertex 0.47189611196517944 1.2690744400024414 3.1494944095611572
		endloop
	endfacet
	facet normal 0 1 0
		outer loop
			vertex 0.4418647289276123 1.2690744400024414 2.8793411254882812
			vertex 0.47189611196517944 1.2690744400024414 3.1494944095611572
			vertex 0.47189611196517944 1.2690744400024414 2.8908629417419434
		endloop
	endfacet
	facet normal 0 1 0
		outer loop
			vertex 0.47189611196517944 1.2690744400024414 2.8908629417419434
			vertex 0.47189611196517944 1.2690744400024414 3.1494944095611572
			vertex 0.5300222039222717 1.2690744400024414 3.111618757247925
		endloop
	endfacet
	facet normal 0 1 0
		outer loop
			vertex 0.47189611196517944 1.2690744400024414 2.8908629417419434
			vertex 0.5300222039222717 1.2690744400024414 3.111618757247925
			vertex 0.5300222039222717 1.2690744400024414 2.928738832473755
		endloop
	endfacet
	facet normal 0 1 0
		outer loop
			vertex 0.5300222039222717 1.2690744400024414 2.928738832473755
			vertex 0.5300222039222717 1.2690744400024414 3.111618757247925
			vertex 0.566561758518219 1.2690744400024414 3.067511558532715
		endloop
	endfacet
	facet normal 0 1 0
		outer loop
			vertex 0.5300222039222717 1.2690744400024414 2.928738832473755
			vertex 0.566561758518219 1.2690744400024414 3.067511558532715
			vertex 0.566561758518219 1.2690744400024414 2.972846031188965
		endloop
	endfacet
	facet normal 0 1 0
		outer loop
			vertex 0.566561758518219 1.2690744400024414 2.972846031188965
			vertex 0.566561758518219 1.2690744400024414 3.067511558532715
			vertex 0.5790247321128845 1.2690744400024414 3.02017879486084
		endloop
	endfacet
	facet normal 0 0 -1
		outer loop
			vertex 0.015144706703722477 1.23859441280365 1.67905855178833
			vertex -0.015335296280682087 1.2690744400024414 1.67905855178833
			vertex 0.4113847017288208 1.23859441280365 1.67905855178833
		endloop
	endfacet
	facet normal 0 0 -1
		outer loop
			vertex 0.4418647289276123 1.2690744400024414 1.67905855178833
			vertex 0.4113847017288208 1.23859441280365 1.67905855178833
			vertex -0.015335296280682087 1.2690744400024414 1.67905855178833
		endloop
	endfacet
	facet normal -0.3582013837947554 0 -0.9336443480509709
		outer loop
			vertex -0.045366667211055756 1.2690744400024414 2.8908629417419434
			vertex -0.015335296280682087 1.23859441280365 2.8793411254882812
			vertex -0.045366667211055756 1.23859441280365 2.8908629417419434
		endloop
	endfacet
	facet normal -0.3582013837947554 0 -0.9336443480509709
		outer loop
			vertex -0.015335296280682087 1.23859441280365 2.8793411254882812
			vertex -0.045366667211055756 1.2690744400024414 2.8908629417419434
			vertex -0.015335296280682087 1.2690744400024414 2.8793411254882812
		endloop
	endfacet
	facet normal -0.5459399307548678 0 -0.837824320491695
		outer loop
			vertex -0.045366667211055756 1.2690744400024414 2.8908629417419434
			vertex -0.10349273681640625 1.23859441280365 2.928738832473755
			vertex -0.10349273681640625 1.2690744400024414 2.928738832473755
		endloop
	endfacet
	facet normal -0.5459399307548678 0 -0.837824320491695
		outer loop
			vertex -0.10349273681640625 1.23859441280365 2.928738832473755
			vertex -0.045366667211055756 1.2690744400024414 2.8908629417419434
			vertex -0.045366667211055756 1.23859441280365 2.8908629417419434
		endloop
	endfacet
	facet normal -0.7700760289673576 0 -0.6379521217222068
		outer loop
			vertex -0.10349273681640625 1.2690744400024414 2.928738832473755
			vertex -0.1400323510169983 1.23859441280365 2.972846031188965
			vertex -0.1400323510169983 1.2690744400024414 2.972846031188965
		endloop
	endfacet
	facet normal -0.7700760289673576 0 -0.6379521217222068
		outer loop
			vertex -0.1400323510169983 1.23859441280365 2.972846031188965
			vertex -0.10349273681640625 1.2690744400024414 2.928738832473755
			vertex -0.10349273681640625 1.23859441280365 2.928738832473755
		endloop
	endfacet
	facet normal -0.9670395647956974 0 -0.25462615757173945
		outer loop
			vertex -0.1400323510169983 1.2690744400024414 2.972846031188965
			vertex -0.15249529480934143 1.23859441280365 3.02017879486084
			vertex -0.15249529480934143 1.2690744400024414 3.02017879486084
		endloop
	endfacet
	facet normal -0.9670395647956974 0 -0.25462615757173945
		outer loop
			vertex -0.15249529480934143 1.23859441280365 3.02017879486084
			vertex -0.1400323510169983 1.2690744400024414 2.972846031188965
			vertex -0.1400323510169983 1.23859441280365 2.972846031188965
		endloop
	endfacet
	facet normal 0 -1 0
		outer loop
			vertex -0.015335296280682087 1.23859441280365 2.8793411254882812
			vertex -0.015335296280682087 1.23859441280365 2.898258686065674
			vertex -0.045366667211055756 1.23859441280365 2.8908629417419434
		endloop
	endfacet
	facet normal 0 -1 0
		outer loop
			vertex -0.1400323510169983 1.23859441280365 2.972846031188965
			vertex -0.015335296280682087 1.23859441280365 2.959218740463257
			vertex -0.15249529480934143 1.23859441280365 3.02017879486084
		endloop
	endfacet
	facet normal 0 -1 0
		outer loop
			vertex -0.015335296280682087 1.23859441280365 2.959218740463257
			vertex -0.1400323510169983 1.23859441280365 2.972846031188965
			vertex -0.10349273681640625 1.23859441280365 2.928738832473755
		endloop
	endfacet
	facet normal 0 -1 0
		outer loop
			vertex -0.015335296280682087 1.23859441280365 2.959218740463257
			vertex -0.10349273681640625 1.23859441280365 2.928738832473755
			vertex -0.045366667211055756 1.23859441280365 2.8908629417419434
		endloop
	endfacet
	facet normal 0 -1 0
		outer loop
			vertex -0.015335296280682087 1.23859441280365 2.959218740463257
			vertex -0.045366667211055756 1.23859441280365 2.8908629417419434
			vertex -0.015335296280682087 1.23859441280365 2.898258686065674
		endloop
	endfacet
	facet normal 1 0 0
		outer loop
			vertex -0.015335296280682087 1.2690744400024414 2.547738790512085
			vertex -0.015335296280682087 1.3503544330596924 2.578218698501587
			vertex -0.015335296280682087 1.2690744400024414 2.578218698501587
		endloop
	endfacet
	facet normal 1 0 0
		outer loop
			vertex -0.015335296280682087 1.3503544330596924 2.578218698501587
			vertex -0.015335296280682087 1.2690744400024414 2.547738790512085
			vertex -0.015335296280682087 1.3605144023895264 2.578218698501587
		endloop
	endfacet
	facet normal -1 0 0
		outer loop
			vertex -0.015335296280682087 1.2690744400024414 2.7929811477661133
			vertex -0.015335296280682087 1.23859441280365 2.8793411254882812
			vertex -0.015335296280682087 1.2690744400024414 2.8793411254882812
		endloop
	endfacet
	facet normal 0 0 0
		outer loop
			vertex -0.015335296280682087 1.2690744400024414 2.8793411254882812
			vertex -0.015335296280682087 1.2690744400024414 2.7879011631011963
			vertex -0.015335296280682087 1.2690744400024414 2.7929811477661133
		endloop
	endfacet
	facet normal 0 0 0
		outer loop
			vertex -0.015335296280682087 1.2690744400024414 2.7879011631011963
			vertex -0.015335296280682087 1.2690744400024414 2.8793411254882812
			vertex -0.015335296280682087 1.2690744400024414 2.7015411853790283
		endloop
	endfacet
	facet normal 0 0 0
		outer loop
			vertex -0.015335296280682087 1.2690744400024414 2.7015411853790283
			vertex -0.015335296280682087 1.2690744400024414 2.8793411254882812
			vertex -0.015335296280682087 1.2690744400024414 2.6964609622955322
		endloop
	endfacet
	facet normal 0 0 0
		outer loop
			vertex -0.015335296280682087 1.2690744400024414 2.6964609622955322
			vertex -0.015335296280682087 1.2690744400024414 2.8793411254882812
			vertex -0.015335296280682087 1.2690744400024414 2.6101009845733643
		endloop
	endfacet
	facet normal 0 0 0
		outer loop
			vertex -0.015335296280682087 1.2690744400024414 2.6101009845733643
			vertex -0.015335296280682087 1.2690744400024414 2.8793411254882812
			vertex -0.015335296280682087 1.2690744400024414 2.6050209999084473
		endloop
	endfacet
	facet normal 0 0 0
		outer loop
			vertex -0.015335296280682087 1.2690744400024414 2.6050209999084473
			vertex -0.015335296280682087 1.2690744400024414 2.8793411254882812
			vertex -0.015335296280682087 1.2690744400024414 2.578218698501587
		endloop
	endfacet
	facet normal 0 1 0
		outer loop
			vertex -0.015335296280682087 1.2690744400024414 2.578218698501587
			vertex -0.015335296280682087 1.2690744400024414 2.8793411254882812
			vertex 0.4418647289276123 1.2690744400024414 2.8793411254882812
		endloop
	endfacet
	facet normal 0 1 0
		outer loop
			vertex -0.015335296280682087 1.2690744400024414 2.578218698501587
			vertex 0.4418647289276123 1.2690744400024414 2.8793411254882812
			vertex -0.015335296280682087 1.2690744400024414 2.547738790512085
		endloop
	endfacet
	facet normal 0 1 0
		outer loop
			vertex -0.015335296280682087 1.2690744400024414 2.547738790512085
			vertex 0.4418647289276123 1.2690744400024414 2.8793411254882812
			vertex -0.015335296280682087 1.2690744400024414 1.67905855178833
		endloop
	endfacet
	facet normal 0 1 0
		outer loop
			vertex -0.015335296280682087 1.2690744400024414 1.67905855178833
			vertex 0.4418647289276123 1.2690744400024414 2.8793411254882812
			vertex 0.4418647289276123 1.2690744400024414 1.67905855178833
		endloop
	endfacet
	facet normal 0 0 0
		outer loop
			vertex 0.4418647289276123 1.2690744400024414 1.67905855178833
			vertex 0.4418647289276123 1.2690744400024414 2.8793411254882812
			vertex 0.4418647289276123 1.2690744400024414 2.7929811477661133
		endloop
	endfacet
	facet normal 0 0 0
		outer loop
			vertex 0.4418647289276123 1.2690744400024414 1.67905855178833
			vertex 0.4418647289276123 1.2690744400024414 2.7929811477661133
			vertex 0.4418647289276123 1.2690744400024414 2.7879011631011963
		endloop
	endfacet
	facet normal 0 0 0
		outer loop
			vertex 0.4418647289276123 1.2690744400024414 1.67905855178833
			vertex 0.4418647289276123 1.2690744400024414 2.7879011631011963
			vertex 0.4418647289276123 1.2690744400024414 2.7015411853790283
		endloop
	endfacet
	facet normal 0 0 0
		outer loop
			vertex 0.4418647289276123 1.2690744400024414 1.67905855178833
			vertex 0.4418647289276123 1.2690744400024414 2.7015411853790283
			vertex 0.4418647289276123 1.2690744400024414 2.6964609622955322
		endloop
	endfacet
	facet normal 0 0 0
		outer loop
			vertex 0.4418647289276123 1.2690744400024414 1.67905855178833
			vertex 0.4418647289276123 1.2690744400024414 2.6964609622955322
			vertex 0.4418647289276123 1.2690744400024414 2.6101009845733643
		endloop
	endfacet
	facet normal 0 0 0
		outer loop
			vertex 0.4418647289276123 1.2690744400024414 1.67905855178833
			vertex 0.4418647289276123 1.2690744400024414 2.6101009845733643
			vertex 0.4418647289276123 1.2690744400024414 2.6050209999084473
		endloop
	endfacet
	facet normal 0 0 0
		outer loop
			vertex 0.4418647289276123 1.2690744400024414 1.67905855178833
			vertex 0.4418647289276123 1.2690744400024414 2.6050209999084473
			vertex 0.4418647289276123 1.2690744400024414 2.578218698501587
		endloop
	endfacet
	facet normal 0 0 0
		outer loop
			vertex 0.4418647289276123 1.2690744400024414 1.67905855178833
			vertex 0.4418647289276123 1.2690744400024414 2.578218698501587
			vertex 0.4418647289276123 1.2690744400024414 2.547738790512085
		endloop
	endfacet
	facet normal 0 0 0
		outer loop
			vertex 0.4418647289276123 1.2690744400024414 1.67905855178833
			vertex 0.4418647289276123 1.2690744400024414 2.547738790512085
			vertex 0.4418647289276123 1.2690744400024414 2.5186610221862793
		endloop
	endfacet
	facet normal 0 0 0
		outer loop
			vertex 0.4418647289276123 1.2690744400024414 1.67905855178833
			vertex 0.4418647289276123 1.2690744400024414 2.5186610221862793
			vertex 0.4418647289276123 1.2690744400024414 2.5135810375213623
		endloop
	endfacet
	facet normal 0 0 0
		outer loop
			vertex 0.4418647289276123 1.2690744400024414 1.67905855178833
			vertex 0.4418647289276123 1.2690744400024414 2.5135810375213623
			vertex 0.4418647289276123 1.2690744400024414 2.4272210597991943
		endloop
	endfacet
	facet normal 0 0 0
		outer loop
			vertex 0.4418647289276123 1.2690744400024414 1.67905855178833
			vertex 0.4418647289276123 1.2690744400024414 2.4272210597991943
			vertex 0.4418647289276123 1.2690744400024414 2.4221410751342773
		endloop
	endfacet
	facet normal 0 0 0
		outer loop
			vertex -0.015335296280682087 1.2690744400024414 2.547738790512085
			vertex -0.015335296280682087 1.2690744400024414 2.5135810375213623
			vertex -0.015335296280682087 1.2690744400024414 2.5186610221862793
		endloop
	endfacet
	facet normal 0 0 0
		outer loop
			vertex -0.015335296280682087 1.2690744400024414 2.5135810375213623
			vertex -0.015335296280682087 1.2690744400024414 2.547738790512085
			vertex -0.015335296280682087 1.2690744400024414 2.4272210597991943
		endloop
	endfacet
	facet normal 0 0 0
		outer loop
			vertex -0.015335296280682087 1.2690744400024414 2.4272210597991943
			vertex -0.015335296280682087 1.2690744400024414 2.547738790512085
			vertex -0.015335296280682087 1.2690744400024414 2.4221410751342773
		endloop
	endfacet
	facet normal 0 0 0
		outer loop
			vertex -0.015335296280682087 1.2690744400024414 2.4221410751342773
			vertex -0.015335296280682087 1.2690744400024414 2.547738790512085
			vertex -0.015335296280682087 1.2690744400024414 1.67905855178833
		endloop
	endfacet
	facet normal -1 0 0
		outer loop
			vertex -0.015335296280682087 1.3605144023895264 2.7929811477661133
			vertex -0.015335296280682087 1.3503544330596924 2.8793411254882812
			vertex -0.015335296280682087 1.3605144023895264 2.8793411254882812
		endloop
	endfacet
	facet normal -1 0 0
		outer loop
			vertex -0.015335296280682087 1.3503544330596924 2.8793411254882812
			vertex -0.015335296280682087 1.3605144023895264 2.7929811477661133
			vertex -0.015335296280682087 1.3503544330596924 2.7929811477661133
		endloop
	endfacet
	facet normal 0 0 0
		outer loop
			vertex -0.015335296280682087 1.2690744400024414 2.8793411254882812
			vertex -0.015335296280682087 1.3605144023895264 2.8793411254882812
			vertex -0.015335296280682087 1.3503544330596924 2.8793411254882812
		endloop
	endfacet
	facet normal -1 0 0
		outer loop
			vertex -0.015335296280682087 1.3503544330596924 2.9403011798858643
			vertex -0.015335296280682087 1.3605144023895264 2.935220956802368
			vertex -0.015335296280682087 1.3503544330596924 2.8844211101531982
		endloop
	endfacet
	facet normal -1 0 0
		outer loop
			vertex -0.015335296280682087 1.3503544330596924 2.8844211101531982
			vertex -0.015335296280682087 1.3605144023895264 2.935220956802368
			vertex -0.015335296280682087 1.3605144023895264 2.8844211101531982
		endloop
	endfacet
	facet normal -1 0 0
		outer loop
			vertex -0.015335296280682087 1.3605144023895264 2.7015411853790283
			vertex -0.015335296280682087 1.3503544330596924 2.7879011631011963
			vertex -0.015335296280682087 1.3605144023895264 2.7879011631011963
		endloop
	endfacet
	facet normal -1 0 0
		outer loop
			vertex -0.015335296280682087 1.3503544330596924 2.7879011631011963
			vertex -0.015335296280682087 1.3605144023895264 2.7015411853790283
			vertex -0.015335296280682087 1.3503544330596924 2.7015411853790283
		endloop
	endfacet
	facet normal 0 0 0
		outer loop
			vertex -0.015335296280682087 1.2690744400024414 2.7879011631011963
			vertex -0.015335296280682087 1.3605144023895264 2.7879011631011963
			vertex -0.015335296280682087 1.3503544330596924 2.7879011631011963
		endloop
	endfacet
	facet normal -1 0 0
		outer loop
			vertex -0.015335296280682087 1.3605144023895264 2.6101009845733643
			vertex -0.015335296280682087 1.3503544330596924 2.6964609622955322
			vertex -0.015335296280682087 1.3605144023895264 2.6964609622955322
		endloop
	endfacet
	facet normal -1 0 0
		outer loop
			vertex -0.015335296280682087 1.3503544330596924 2.6964609622955322
			vertex -0.015335296280682087 1.3605144023895264 2.6101009845733643
			vertex -0.015335296280682087 1.3503544330596924 2.6101009845733643
		endloop
	endfacet
	facet normal 0 0 0
		outer loop
			vertex -0.015335296280682087 1.2690744400024414 2.6964609622955322
			vertex -0.015335296280682087 1.3605144023895264 2.6964609622955322
			vertex -0.015335296280682087 1.3503544330596924 2.6964609622955322
		endloop
	endfacet
	facet normal -1 0 0
		outer loop
			vertex -0.015335296280682087 1.3605144023895264 2.578218698501587
			vertex -0.015335296280682087 1.3503544330596924 2.6050209999084473
			vertex -0.015335296280682087 1.3605144023895264 2.6050209999084473
		endloop
	endfacet
	facet normal -1 0 0
		outer loop
			vertex -0.015335296280682087 1.3503544330596924 2.6050209999084473
			vertex -0.015335296280682087 1.3605144023895264 2.578218698501587
			vertex -0.015335296280682087 1.3503544330596924 2.578218698501587
		endloop
	endfacet
	facet normal 0 0 0
		outer loop
			vertex -0.015335296280682087 1.2690744400024414 2.6050209999084473
			vertex -0.015335296280682087 1.3605144023895264 2.6050209999084473
			vertex -0.015335296280682087 1.3503544330596924 2.6050209999084473
		endloop
	endfacet
	facet normal -1 0 0
		outer loop
			vertex -0.015335296280682087 1.3605144023895264 2.4272210597991943
			vertex -0.015335296280682087 1.3503544330596924 2.5135810375213623
			vertex -0.015335296280682087 1.3605144023895264 2.5135810375213623
		endloop
	endfacet
	facet normal -1 0 0
		outer loop
			vertex -0.015335296280682087 1.3503544330596924 2.5135810375213623
			vertex -0.015335296280682087 1.3605144023895264 2.4272210597991943
			vertex -0.015335296280682087 1.3503544330596924 2.4272210597991943
		endloop
	endfacet
	facet normal 0 0 0
		outer loop
			vertex -0.015335296280682087 1.2690744400024414 2.5135810375213623
			vertex -0.015335296280682087 1.3605144023895264 2.5135810375213623
			vertex -0.015335296280682087 1.3503544330596924 2.5135810375213623
		endloop
	endfacet
	facet normal -1 0 0
		outer loop
			vertex -0.015335296280682087 1.3605144023895264 2.5186610221862793
			vertex -0.015335296280682087 1.3503544330596924 2.547738790512085
			vertex -0.015335296280682087 1.3605144023895264 2.547738790512085
		endloop
	endfacet
	facet normal -1 0 0
		outer loop
			vertex -0.015335296280682087 1.3503544330596924 2.547738790512085
			vertex -0.015335296280682087 1.3605144023895264 2.5186610221862793
			vertex -0.015335296280682087 1.3503544330596924 2.5186610221862793
		endloop
	endfacet
	facet normal 1 0 0
		outer loop
			vertex 0.4418647289276123 1.2690744400024414 2.8793411254882812
			vertex 0.4418647289276123 1.3503544330596924 2.8844211101531982
			vertex 0.4418647289276123 1.2690744400024414 2.8844211101531982
		endloop
	endfacet
	facet normal 1 0 0
		outer loop
			vertex 0.4418647289276123 1.3503544330596924 2.8844211101531982
			vertex 0.4418647289276123 1.2690744400024414 2.8793411254882812
			vertex 0.4418647289276123 1.3605144023895264 2.8844211101531982
		endloop
	endfacet
	facet normal 1 0 0
		outer loop
			vertex 0.4418647289276123 1.2690744400024414 2.7879011631011963
			vertex 0.4418647289276123 1.3503544330596924 2.7929811477661133
			vertex 0.4418647289276123 1.2690744400024414 2.7929811477661133
		endloop
	endfacet
	facet normal 1 0 0
		outer loop
			vertex 0.4418647289276123 1.3503544330596924 2.7929811477661133
			vertex 0.4418647289276123 1.2690744400024414 2.7879011631011963
			vertex 0.4418647289276123 1.3605144023895264 2.7929811477661133
		endloop
	endfacet
	facet normal 1 0 0
		outer loop
			vertex 0.4418647289276123 1.2690744400024414 2.6964609622955322
			vertex 0.4418647289276123 1.3503544330596924 2.7015411853790283
			vertex 0.4418647289276123 1.2690744400024414 2.7015411853790283
		endloop
	endfacet
	facet normal 1 0 0
		outer loop
			vertex 0.4418647289276123 1.3503544330596924 2.7015411853790283
			vertex 0.4418647289276123 1.2690744400024414 2.6964609622955322
			vertex 0.4418647289276123 1.3605144023895264 2.7015411853790283
		endloop
	endfacet
	facet normal 1 0 0
		outer loop
			vertex 0.4418647289276123 1.2690744400024414 2.6050209999084473
			vertex 0.4418647289276123 1.3503544330596924 2.6101009845733643
			vertex 0.4418647289276123 1.2690744400024414 2.6101009845733643
		endloop
	endfacet
	facet normal 1 0 0
		outer loop
			vertex 0.4418647289276123 1.3503544330596924 2.6101009845733643
			vertex 0.4418647289276123 1.2690744400024414 2.6050209999084473
			vertex 0.4418647289276123 1.3605144023895264 2.6101009845733643
		endloop
	endfacet
	facet normal 1 0 0
		outer loop
			vertex 0.4418647289276123 1.3503544330596924 2.578218698501587
			vertex 0.4418647289276123 1.3605144023895264 2.6050209999084473
			vertex 0.4418647289276123 1.3503544330596924 2.6050209999084473
		endloop
	endfacet
	facet normal 1 0 0
		outer loop
			vertex 0.4418647289276123 1.3605144023895264 2.6050209999084473
			vertex 0.4418647289276123 1.3503544330596924 2.578218698501587
			vertex 0.4418647289276123 1.3605144023895264 2.578218698501587
		endloop
	endfacet
	facet normal 1 0 0
		outer loop
			vertex 0.4418647289276123 1.3503544330596924 2.6101009845733643
			vertex 0.4418647289276123 1.3605144023895264 2.6964609622955322
			vertex 0.4418647289276123 1.3503544330596924 2.6964609622955322
		endloop
	endfacet
	facet normal 1 0 0
		outer loop
			vertex 0.4418647289276123 1.3605144023895264 2.6964609622955322
			vertex 0.4418647289276123 1.3503544330596924 2.6101009845733643
			vertex 0.4418647289276123 1.3605144023895264 2.6101009845733643
		endloop
	endfacet
	facet normal 1 0 0
		outer loop
			vertex 0.4418647289276123 1.3503544330596924 2.7015411853790283
			vertex 0.4418647289276123 1.3605144023895264 2.7879011631011963
			vertex 0.4418647289276123 1.3503544330596924 2.7879011631011963
		endloop
	endfacet
	facet normal 1 0 0
		outer loop
			vertex 0.4418647289276123 1.3605144023895264 2.7879011631011963
			vertex 0.4418647289276123 1.3503544330596924 2.7015411853790283
			vertex 0.4418647289276123 1.3605144023895264 2.7015411853790283
		endloop
	endfacet
	facet normal 1 0 0
		outer loop
			vertex 0.4418647289276123 1.3503544330596924 2.7929811477661133
			vertex 0.4418647289276123 1.3605144023895264 2.8793411254882812
			vertex 0.4418647289276123 1.3503544330596924 2.8793411254882812
		endloop
	endfacet
	facet normal 1 0 0
		outer loop
			vertex 0.4418647289276123 1.3605144023895264 2.8793411254882812
			vertex 0.4418647289276123 1.3503544330596924 2.7929811477661133
			vertex 0.4418647289276123 1.3605144023895264 2.7929811477661133
		endloop
	endfacet
	facet normal 1 0 0
		outer loop
			vertex 0.4418647289276123 1.3605144023895264 2.935220956802368
			vertex 0.4418647289276123 1.3503544330596924 2.9403011798858643
			vertex 0.4418647289276123 1.3503544330596924 2.8844211101531982
		endloop
	endfacet
	facet normal 1 0 0
		outer loop
			vertex 0.4418647289276123 1.3605144023895264 2.935220956802368
			vertex 0.4418647289276123 1.3503544330596924 2.8844211101531982
			vertex 0.4418647289276123 1.3605144023895264 2.8844211101531982
		endloop
	endfacet
	facet normal 1 0 0
		outer loop
			vertex 0.4418647289276123 1.2690744400024414 2.5135810375213623
			vertex 0.4418647289276123 1.3503544330596924 2.5186610221862793
			vertex 0.4418647289276123 1.2690744400024414 2.5186610221862793
		endloop
	endfacet
	facet normal 1 0 0
		outer loop
			vertex 0.4418647289276123 1.3503544330596924 2.5186610221862793
			vertex 0.4418647289276123 1.2690744400024414 2.5135810375213623
			vertex 0.4418647289276123 1.3605144023895264 2.5186610221862793
		endloop
	endfacet
	facet normal 1 0 0
		outer loop
			vertex 0.4418647289276123 1.2690744400024414 2.4221410751342773
			vertex 0.4418647289276123 1.3503544330596924 2.4272210597991943
			vertex 0.4418647289276123 1.2690744400024414 2.4272210597991943
		endloop
	endfacet
	facet normal 1 0 0
		outer loop
			vertex 0.4418647289276123 1.3503544330596924 2.4272210597991943
			vertex 0.4418647289276123 1.2690744400024414 2.4221410751342773
			vertex 0.4418647289276123 1.3605144023895264 2.4272210597991943
		endloop
	endfacet
	facet normal 1 0 0
		outer loop
			vertex 0.4418647289276123 1.3503544330596924 2.4272210597991943
			vertex 0.4418647289276123 1.3605144023895264 2.5135810375213623
			vertex 0.4418647289276123 1.3503544330596924 2.5135810375213623
		endloop
	endfacet
	facet normal 1 0 0
		outer loop
			vertex 0.4418647289276123 1.3605144023895264 2.5135810375213623
			vertex 0.4418647289276123 1.3503544330596924 2.4272210597991943
			vertex 0.4418647289276123 1.3605144023895264 2.4272210597991943
		endloop
	endfacet
	facet normal 1 0 0
		outer loop
			vertex 0.4418647289276123 1.3503544330596924 2.5186610221862793
			vertex 0.4418647289276123 1.3605144023895264 2.547738790512085
			vertex 0.4418647289276123 1.3503544330596924 2.547738790512085
		endloop
	endfacet
	facet normal 1 0 0
		outer loop
			vertex 0.4418647289276123 1.3605144023895264 2.547738790512085
			vertex 0.4418647289276123 1.3503544330596924 2.5186610221862793
			vertex 0.4418647289276123 1.3605144023895264 2.5186610221862793
		endloop
	endfacet
	facet normal 0 0 0
		outer loop
			vertex 0.4418647289276123 1.2690744400024414 2.547738790512085
			vertex 0.4418647289276123 1.3605144023895264 2.547738790512085
			vertex 0.4418647289276123 1.3503544330596924 2.547738790512085
		endloop
	endfacet
	facet normal 0 0 1
		outer loop
			vertex 0.4418647289276123 1.3503544330596924 2.9403011798858643
			vertex 0.43170469999313354 1.3605144023895264 2.9403011798858643
			vertex -0.015335296280682087 1.3503544330596924 2.9403011798858643
		endloop
	endfacet
	facet normal 0 0 1
		outer loop
			vertex -0.00517530320212245 1.3605144023895264 2.9403011798858643
			vertex -0.015335296280682087 1.3503544330596924 2.9403011798858643
			vertex 0.43170469999313354 1.3605144023895264 2.9403011798858643
		endloop
	endfacet
	facet normal 0 0 0
		outer loop
			vertex -0.00517530320212245 1.3605144023895264 2.9403011798858643
			vertex 0.43170469999313354 1.3605144023895264 2.9403011798858643
			vertex 0.29454469680786133 1.3605144023895264 2.9403011798858643
		endloop
	endfacet
	facet normal 0 0 0
		outer loop
			vertex -0.00517530320212245 1.3605144023895264 2.9403011798858643
			vertex 0.29454469680786133 1.3605144023895264 2.9403011798858643
			vertex 0.28438472747802734 1.3605144023895264 2.9403011798858643
		endloop
	endfacet
	facet normal 0 0 0
		outer loop
			vertex -0.00517530320212245 1.3605144023895264 2.9403011798858643
			vertex 0.28438472747802734 1.3605144023895264 2.9403011798858643
			vertex 0.14214470982551575 1.3605144023895264 2.9403011798858643
		endloop
	endfacet
	facet normal 0 0 0
		outer loop
			vertex -0.00517530320212245 1.3605144023895264 2.9403011798858643
			vertex 0.14214470982551575 1.3605144023895264 2.9403011798858643
			vertex 0.13198469579219818 1.3605144023895264 2.9403011798858643
		endloop
	endfacet
	facet normal -0.27734714716697206 0 0.9607697746902439
		outer loop
			vertex -0.004726671148091555 1.3300344944000244 3.2172253131866455
			vertex -0.004726671148091555 1.302941083908081 3.2172253131866455
			vertex 0.035913337022066116 1.3300344944000244 3.228956937789917
		endloop
	endfacet
	facet normal 0 -1 0
		outer loop
			vertex -0.0098066795617342 1.3300344944000244 3.162966012954712
			vertex -0.014886664226651192 1.3300344944000244 3.213218927383423
			vertex -0.1012466624379158 1.3300344944000244 3.242155075073242
		endloop
	endfacet
	facet normal 0 -1 0
		outer loop
			vertex -0.014886664226651192 1.3300344944000244 3.213218927383423
			vertex -0.0098066795617342 1.3300344944000244 3.162966012954712
			vertex -0.0098066795617342 1.3300344944000244 3.213218927383423
		endloop
	endfacet
	facet normal 0 -1 0
		outer loop
			vertex -0.0098066795617342 1.3300344944000244 3.213218927383423
			vertex -0.0098066795617342 1.3300344944000244 3.162966012954712
			vertex -0.004726671148091555 1.3300344944000244 3.213218927383423
		endloop
	endfacet
	facet normal 0 -1 0
		outer loop
			vertex -0.004726671148091555 1.3300344944000244 3.213218927383423
			vertex -0.0098066795617342 1.3300344944000244 3.162966012954712
			vertex 0.08163332939147949 1.3300344944000244 3.242155075073242
		endloop
	endfacet
	facet normal 0 -1 0
		outer loop
			vertex -0.004726671148091555 1.3300344944000244 3.2172253131866455
			vertex -0.004726671148091555 1.3300344944000244 3.213218927383423
			vertex 0.08163332939147949 1.3300344944000244 3.242155075073242
		endloop
	endfacet
	facet normal 0 -1 0
		outer loop
			vertex -0.004726671148091555 1.3300344944000244 3.2172253131866455
			vertex 0.08163332939147949 1.3300344944000244 3.242155075073242
			vertex -0.004726671148091555 1.3300344944000244 3.2182986736297607
		endloop
	endfacet
	facet normal 0 -1 0
		outer loop
			vertex -0.1012466624379158 1.3300344944000244 3.242155075073242
			vertex -0.014886664226651192 1.3300344944000244 3.2182986736297607
			vertex 0.08163332939147949 1.3300344944000244 3.242155075073242
		endloop
	endfacet
	facet normal 0 -1 0
		outer loop
			vertex -0.014886664226651192 1.3300344944000244 3.2182986736297607
			vertex -0.1012466624379158 1.3300344944000244 3.242155075073242
			vertex -0.014886664226651192 1.3300344944000244 3.213218927383423
		endloop
	endfacet
	facet normal 0 0 0
		outer loop
			vertex -0.014886664226651192 1.3300344944000244 3.2182986736297607
			vertex -0.014886664226651192 1.3300344944000244 3.213218927383423
			vertex -0.014886664226651192 1.3300344944000244 3.2172253131866455
		endloop
	endfacet
	facet normal 0 -1 0
		outer loop
			vertex 0.08163332939147949 1.3300344944000244 3.242155075073242
			vertex -0.014886664226651192 1.3300344944000244 3.2182986736297607
			vertex -0.004726671148091555 1.3300344944000244 3.2182986736297607
		endloop
	endfacet
	facet normal 0 -1 0
		outer loop
			vertex -0.004726671148091555 1.2690744400024414 3.213218927383423
			vertex -0.014886664226651192 1.2690744400024414 3.2182986736297607
			vertex -0.014886664226651192 1.2690744400024414 3.213218927383423
		endloop
	endfacet
	facet normal 0 -1 0
		outer loop
			vertex -0.014886664226651192 1.2690744400024414 3.2182986736297607
			vertex -0.004726671148091555 1.2690744400024414 3.213218927383423
			vertex -0.004726671148091555 1.2690744400024414 3.2182986736297607
		endloop
	endfacet
	facet normal 0.2773472322370519 0 0.9607697501329061
		outer loop
			vertex -0.05552665889263153 1.3300344944000244 3.228956937789917
			vertex -0.014886664226651192 1.302941083908081 3.2172253131866455
			vertex -0.014886664226651192 1.3300344944000244 3.2172253131866455
		endloop
	endfacet
	facet normal -1 0 0
		outer loop
			vertex -0.0098066795617342 1.3300344944000244 3.1893625259399414
			vertex -0.0098066795617342 1.3024873733520508 3.213218927383423
			vertex -0.0098066795617342 1.3300344944000244 3.213218927383423
		endloop
	endfacet
	facet normal 1 0 0
		outer loop
			vertex -0.004726671148091555 1.2690744400024414 3.213218927383423
			vertex -0.004726671148091555 1.3300344944000244 3.2182986736297607
			vertex -0.004726671148091555 1.2690744400024414 3.2182986736297607
		endloop
	endfacet
	facet normal 1 0 0
		outer loop
			vertex -0.004726671148091555 1.3300344944000244 3.2172253131866455
			vertex -0.004726671148091555 1.3300344944000244 3.2182986736297607
			vertex -0.004726671148091555 1.2690744400024414 3.213218927383423
		endloop
	endfacet
	facet normal 1 0 0
		outer loop
			vertex -0.004726671148091555 1.3300344944000244 3.2172253131866455
			vertex -0.004726671148091555 1.2690744400024414 3.213218927383423
			vertex -0.004726671148091555 1.3300344944000244 3.213218927383423
		endloop
	endfacet
	facet normal 0 0 -1
		outer loop
			vertex -0.014886664226651192 1.3300344944000244 3.213218927383423
			vertex -0.004726671148091555 1.2690744400024414 3.213218927383423
			vertex -0.014886664226651192 1.2690744400024414 3.213218927383423
		endloop
	endfacet
	facet normal 0 0 -1
		outer loop
			vertex -0.004726671148091555 1.2690744400024414 3.213218927383423
			vertex -0.014886664226651192 1.3300344944000244 3.213218927383423
			vertex -0.004726671148091555 1.3300344944000244 3.213218927383423
		endloop
	endfacet
	facet normal 0 0 0
		outer loop
			vertex -0.004726671148091555 1.3300344944000244 3.213218927383423
			vertex -0.014886664226651192 1.3300344944000244 3.213218927383423
			vertex -0.0098066795617342 1.3300344944000244 3.213218927383423
		endloop
	endfacet
	facet normal -1 0 0
		outer loop
			vertex -0.014886664226651192 1.3300344944000244 3.2172253131866455
			vertex -0.014886664226651192 1.2690744400024414 3.2182986736297607
			vertex -0.014886664226651192 1.3300344944000244 3.2182986736297607
		endloop
	endfacet
	facet normal -1 0 0
		outer loop
			vertex -0.014886664226651192 1.2690744400024414 3.2182986736297607
			vertex -0.014886664226651192 1.3300344944000244 3.2172253131866455
			vertex -0.014886664226651192 1.2690744400024414 3.213218927383423
		endloop
	endfacet
	facet normal -1 0 0
		outer loop
			vertex -0.014886664226651192 1.2690744400024414 3.213218927383423
			vertex -0.014886664226651192 1.3300344944000244 3.2172253131866455
			vertex -0.014886664226651192 1.3300344944000244 3.213218927383423
		endloop
	endfacet
	facet normal 0 0 1
		outer loop
			vertex -0.004726671148091555 1.3300344944000244 3.2182986736297607
			vertex -0.014886664226651192 1.2690744400024414 3.2182986736297607
			vertex -0.004726671148091555 1.2690744400024414 3.2182986736297607
		endloop
	endfacet
	facet normal 0 0 1
		outer loop
			vertex -0.014886664226651192 1.2690744400024414 3.2182986736297607
			vertex -0.004726671148091555 1.3300344944000244 3.2182986736297607
			vertex -0.014886664226651192 1.3300344944000244 3.2182986736297607
		endloop
	endfacet
endsolid exported
