solid exported
	facet normal 0 1 0
		outer loop
			vertex 0.3809047043323517 1.2081143856048584 0.9170587658882141
			vertex 0.045624710619449615 1.2081143856048584 0.15505880117416382
			vertex 0.045624710619449615 1.2081143856048584 0.9170587658882141
		endloop
	endfacet
	facet normal 0 1 0
		outer loop
			vertex 0.045624710619449615 1.2081143856048584 0.15505880117416382
			vertex 0.3809047043323517 1.2081143856048584 0.9170587658882141
			vertex 0.3809047043323517 1.2081143856048584 0.15505880117416382
		endloop
	endfacet
	facet normal 0 -1 0
		outer loop
			vertex 0.2589847147464752 1.1776344776153564 0.17791874706745148
			vertex 0.16754469275474548 1.1776344776153564 0.22363875806331635
			vertex 0.16754469275474548 1.1776344776153564 0.17791874706745148
		endloop
	endfacet
	facet normal 0 -1 0
		outer loop
			vertex 0.16754469275474548 1.1776344776153564 0.22363875806331635
			vertex 0.2589847147464752 1.1776344776153564 0.17791874706745148
			vertex 0.2589847147464752 1.1776344776153564 0.22363875806331635
		endloop
	endfacet
	facet normal 0 -0.16439685249083075 0.9863942796321905
		outer loop
			vertex -0.09153527766466141 1.2112828493118286 3.3482329845428467
			vertex -0.15249529480934143 1.1487586498260498 3.3378124237060547
			vertex -0.09153527766466141 1.1487586498260498 3.3378124237060547
		endloop
	endfacet
	facet normal 0 -1 0
		outer loop
			vertex 0.563784658908844 1.086194396018982 2.456299066543579
			vertex 0.4418647289276123 1.086194396018982 2.502018928527832
			vertex 0.4418647289276123 1.086194396018982 2.456299066543579
		endloop
	endfacet
	facet normal 0 -1 0
		outer loop
			vertex 0.4418647289276123 1.086194396018982 2.502018928527832
			vertex 0.563784658908844 1.086194396018982 2.456299066543579
			vertex 0.563784658908844 1.086194396018982 2.502018928527832
		endloop
	endfacet
	facet normal 0 0 -1
		outer loop
			vertex 0.4418647289276123 1.147154450416565 2.456299066543579
			vertex 0.563784658908844 1.086194396018982 2.456299066543579
			vertex 0.4418647289276123 1.086194396018982 2.456299066543579
		endloop
	endfacet
	facet normal 0 0 -1
		outer loop
			vertex 0.563784658908844 1.086194396018982 2.456299066543579
			vertex 0.4418647289276123 1.147154450416565 2.456299066543579
			vertex 0.563784658908844 1.147154450416565 2.456299066543579
		endloop
	endfacet
	facet normal 0 0 1
		outer loop
			vertex 0.563784658908844 1.147154450416565 2.502018928527832
			vertex 0.4418647289276123 1.086194396018982 2.502018928527832
			vertex 0.563784658908844 1.086194396018982 2.502018928527832
		endloop
	endfacet
	facet normal 0 0 1
		outer loop
			vertex 0.4418647289276123 1.086194396018982 2.502018928527832
			vertex 0.563784658908844 1.147154450416565 2.502018928527832
			vertex 0.4418647289276123 1.147154450416565 2.502018928527832
		endloop
	endfacet
	facet normal 1 0 0
		outer loop
			vertex 0.563784658908844 1.086194396018982 2.456299066543579
			vertex 0.563784658908844 1.147154450416565 2.502018928527832
			vertex 0.563784658908844 1.086194396018982 2.502018928527832
		endloop
	endfacet
	facet normal 1 0 0
		outer loop
			vertex 0.563784658908844 1.147154450416565 2.502018928527832
			vertex 0.563784658908844 1.086194396018982 2.456299066543579
			vertex 0.563784658908844 1.147154450416565 2.456299066543579
		endloop
	endfacet
	facet normal 0 1 0
		outer loop
			vertex 0.563784658908844 1.147154450416565 2.502018928527832
			vertex 0.4418647289276123 1.147154450416565 2.456299066543579
			vertex 0.4418647289276123 1.147154450416565 2.502018928527832
		endloop
	endfacet
	facet normal 0 1 0
		outer loop
			vertex 0.4418647289276123 1.147154450416565 2.456299066543579
			vertex 0.563784658908844 1.147154450416565 2.502018928527832
			vertex 0.563784658908844 1.147154450416565 2.456299066543579
		endloop
	endfacet
	facet normal 0 1 0
		outer loop
			vertex -0.2368692010641098 1.2000484466552734 0.12950876355171204
			vertex -0.2368692010641098 1.2000484466552734 -0.10901886224746704
			vertex -0.2525705397129059 1.2000484466552734 0.010244946926832199
		endloop
	endfacet
	facet normal 0 1 0
		outer loop
			vertex -0.2368692010641098 1.2000484466552734 -0.10901886224746704
			vertex -0.2368692010641098 1.2000484466552734 0.12950876355171204
			vertex -0.19083507359027863 1.2000484466552734 0.24064494669437408
		endloop
	endfacet
	facet normal 0 1 0
		outer loop
			vertex -0.2368692010641098 1.2000484466552734 -0.10901886224746704
			vertex -0.19083507359027863 1.2000484466552734 0.24064494669437408
			vertex -0.19083507359027863 1.2000484466552734 -0.2201550453901291
		endloop
	endfacet
	facet normal 0 1 0
		outer loop
			vertex -0.19083507359027863 1.2000484466552734 -0.2201550453901291
			vertex -0.19083507359027863 1.2000484466552734 0.24064494669437408
			vertex -0.11760535091161728 1.2000484466552734 -0.3155898451805115
		endloop
	endfacet
	facet normal 0 1 0
		outer loop
			vertex -0.11760535091161728 1.2000484466552734 -0.3155898451805115
			vertex -0.19083507359027863 1.2000484466552734 0.24064494669437408
			vertex -0.11760535091161728 1.2000484466552734 0.33607974648475647
		endloop
	endfacet
	facet normal 0 1 0
		outer loop
			vertex -0.11760535091161728 1.2000484466552734 -0.3155898451805115
			vertex -0.11760535091161728 1.2000484466552734 0.33607974648475647
			vertex -0.022170554846525192 1.2000484466552734 -0.38881954550743103
		endloop
	endfacet
	facet normal 0 1 0
		outer loop
			vertex -0.022170554846525192 1.2000484466552734 -0.38881954550743103
			vertex -0.11760535091161728 1.2000484466552734 0.33607974648475647
			vertex -0.022170554846525192 1.2000484466552734 0.409309446811676
		endloop
	endfacet
	facet normal 0 1 0
		outer loop
			vertex -0.022170554846525192 1.2000484466552734 -0.38881954550743103
			vertex -0.022170554846525192 1.2000484466552734 0.409309446811676
			vertex 0.08896562457084656 1.2000484466552734 -0.4348537027835846
		endloop
	endfacet
	facet normal 0 1 0
		outer loop
			vertex 0.08896562457084656 1.2000484466552734 -0.4348537027835846
			vertex -0.022170554846525192 1.2000484466552734 0.409309446811676
			vertex 0.08896562457084656 1.2000484466552734 0.4553435742855072
		endloop
	endfacet
	facet normal 0 1 0
		outer loop
			vertex 0.08896562457084656 1.2000484466552734 -0.4348537027835846
			vertex 0.08896562457084656 1.2000484466552734 0.4553435742855072
			vertex 0.2082294374704361 1.2000484466552734 -0.45055505633354187
		endloop
	endfacet
	facet normal 0 1 0
		outer loop
			vertex 0.2082294374704361 1.2000484466552734 -0.45055505633354187
			vertex 0.08896562457084656 1.2000484466552734 0.4553435742855072
			vertex 0.2082294374704361 1.2000484466552734 0.4710449278354645
		endloop
	endfacet
	facet normal 0 1 0
		outer loop
			vertex 0.2082294374704361 1.2000484466552734 -0.45055505633354187
			vertex 0.2082294374704361 1.2000484466552734 0.4710449278354645
			vertex 0.32749325037002563 1.2000484466552734 -0.4348537027835846
		endloop
	endfacet
	facet normal 0 1 0
		outer loop
			vertex 0.32749325037002563 1.2000484466552734 -0.4348537027835846
			vertex 0.2082294374704361 1.2000484466552734 0.4710449278354645
			vertex 0.32749325037002563 1.2000484466552734 0.4553435742855072
		endloop
	endfacet
	facet normal 0 1 0
		outer loop
			vertex 0.32749325037002563 1.2000484466552734 -0.4348537027835846
			vertex 0.32749325037002563 1.2000484466552734 0.4553435742855072
			vertex 0.4386294484138489 1.2000484466552734 -0.38881954550743103
		endloop
	endfacet
	facet normal 0 1 0
		outer loop
			vertex 0.4386294484138489 1.2000484466552734 -0.38881954550743103
			vertex 0.32749325037002563 1.2000484466552734 0.4553435742855072
			vertex 0.4386294484138489 1.2000484466552734 0.409309446811676
		endloop
	endfacet
	facet normal 0 1 0
		outer loop
			vertex 0.4386294484138489 1.2000484466552734 -0.38881954550743103
			vertex 0.4386294484138489 1.2000484466552734 0.409309446811676
			vertex 0.5340642333030701 1.2000484466552734 -0.3155898451805115
		endloop
	endfacet
	facet normal 0 1 0
		outer loop
			vertex 0.5340642333030701 1.2000484466552734 -0.3155898451805115
			vertex 0.4386294484138489 1.2000484466552734 0.409309446811676
			vertex 0.5340642333030701 1.2000484466552734 0.33607974648475647
		endloop
	endfacet
	facet normal 0 1 0
		outer loop
			vertex 0.5340642333030701 1.2000484466552734 -0.3155898451805115
			vertex 0.5340642333030701 1.2000484466552734 0.33607974648475647
			vertex 0.607293963432312 1.2000484466552734 -0.2201550453901291
		endloop
	endfacet
	facet normal 0 1 0
		outer loop
			vertex 0.607293963432312 1.2000484466552734 -0.2201550453901291
			vertex 0.5340642333030701 1.2000484466552734 0.33607974648475647
			vertex 0.607293963432312 1.2000484466552734 0.24064494669437408
		endloop
	endfacet
	facet normal 0 1 0
		outer loop
			vertex 0.607293963432312 1.2000484466552734 -0.2201550453901291
			vertex 0.607293963432312 1.2000484466552734 0.24064494669437408
			vertex 0.6533280611038208 1.2000484466552734 -0.10901886224746704
		endloop
	endfacet
	facet normal 0 1 0
		outer loop
			vertex 0.6533280611038208 1.2000484466552734 -0.10901886224746704
			vertex 0.607293963432312 1.2000484466552734 0.24064494669437408
			vertex 0.6533280611038208 1.2000484466552734 0.12950876355171204
		endloop
	endfacet
	facet normal 0 1 0
		outer loop
			vertex 0.6533280611038208 1.2000484466552734 -0.10901886224746704
			vertex 0.6533280611038208 1.2000484466552734 0.12950876355171204
			vertex 0.6690294146537781 1.2000484466552734 0.010244946926832199
		endloop
	endfacet
	facet normal 0 1 0
		outer loop
			vertex 0.28980565071105957 1.2146230936050415 -0.44655200839042664
			vertex 1.5160281658172607 1.2146230936050415 -0.9688276648521423
			vertex 1.1640547513961792 1.2146230936050415 -1.3208011388778687
		endloop
	endfacet
	facet normal 0 1 0
		outer loop
			vertex 1.5160281658172607 1.2146230936050415 -0.9688276648521423
			vertex 0.28980565071105957 1.2146230936050415 -0.44655200839042664
			vertex 0.6417790651321411 1.2146230936050415 -0.0945785865187645
		endloop
	endfacet
endsolid exported
