solid exported
	facet normal 0 -1 0
		outer loop
			vertex 0.4926646947860718 0.263234406709671 2.547738790512085
			vertex -0.06613530963659286 0.263234406709671 2.578218698501587
			vertex -0.06613530963659286 0.263234406709671 2.547738790512085
		endloop
	endfacet
	facet normal 0 -1 0
		outer loop
			vertex -0.06613530963659286 0.263234406709671 2.578218698501587
			vertex 0.4926646947860718 0.263234406709671 2.547738790512085
			vertex 0.4926646947860718 0.263234406709671 2.578218698501587
		endloop
	endfacet
	facet normal 0 1 0
		outer loop
			vertex 0.39614471793174744 0.17179439961910248 2.578218698501587
			vertex 0.25898468494415283 0.17179439961910248 2.562978982925415
			vertex 0.2463594675064087 0.17179439961910248 2.578218698501587
		endloop
	endfacet
	facet normal 0 1 0
		outer loop
			vertex 0.25898468494415283 0.17179439961910248 2.562978982925415
			vertex 0.39614471793174744 0.17179439961910248 2.547738790512085
			vertex 0.2463594675064087 0.17179439961910248 2.547738790512085
		endloop
	endfacet
	facet normal 0 1 0
		outer loop
			vertex 0.39614471793174744 0.17179439961910248 2.547738790512085
			vertex 0.25898468494415283 0.17179439961910248 2.562978982925415
			vertex 0.39614471793174744 0.17179439961910248 2.578218698501587
		endloop
	endfacet
	facet normal 0 1 0
		outer loop
			vertex 0.18016991019248962 0.17179439961910248 2.578218698501587
			vertex 0.030384697020053864 0.17179439961910248 2.547738790512085
			vertex 0.030384697020053864 0.17179439961910248 2.578218698501587
		endloop
	endfacet
	facet normal 0 1 0
		outer loop
			vertex 0.030384697020053864 0.17179439961910248 2.547738790512085
			vertex 0.18016991019248962 0.17179439961910248 2.578218698501587
			vertex 0.16754469275474548 0.17179439961910248 2.562978982925415
		endloop
	endfacet
	facet normal 0 1 0
		outer loop
			vertex 0.18016991019248962 0.17179439961910248 2.547738790512085
			vertex 0.030384697020053864 0.17179439961910248 2.547738790512085
			vertex 0.16754469275474548 0.17179439961910248 2.562978982925415
		endloop
	endfacet
	facet normal 0 0 1
		outer loop
			vertex 0.2463594675064087 0.14131440222263336 2.578218698501587
			vertex 0.39614471793174744 0.17179439961910248 2.578218698501587
			vertex 0.2463594675064087 0.17179439961910248 2.578218698501587
		endloop
	endfacet
	facet normal 0 0 1
		outer loop
			vertex 0.030384697020053864 0.17179439961910248 2.578218698501587
			vertex 0.18016991019248962 0.14131440222263336 2.578218698501587
			vertex 0.18016991019248962 0.17179439961910248 2.578218698501587
		endloop
	endfacet
	facet normal 0 1 0
		outer loop
			vertex 0.18016991019248962 0.17179439961910248 2.547738790512085
			vertex 0.18016991019248962 0.17179439961910248 2.578218698501587
			vertex 0.2463594675064087 0.17179439961910248 2.547738790512085
		endloop
	endfacet
	facet normal 0 1 0
		outer loop
			vertex 0.2463594675064087 0.17179439961910248 2.547738790512085
			vertex 0.2463594675064087 0.17179439961910248 2.578218698501587
			vertex 0.25898468494415283 0.17179439961910248 2.562978982925415
		endloop
	endfacet
	facet normal 0 1 0
		outer loop
			vertex 0.18016991019248962 0.17179439961910248 2.578218698501587
			vertex 0.18016991019248962 0.17179439961910248 2.547738790512085
			vertex 0.16754469275474548 0.17179439961910248 2.562978982925415
		endloop
	endfacet
	facet normal 0 1 0
		outer loop
			vertex 0.2463594675064087 0.17179439961910248 2.547738790512085
			vertex 0.18016991019248962 0.17179439961910248 2.578218698501587
			vertex 0.2463594675064087 0.17179439961910248 2.578218698501587
		endloop
	endfacet
	facet normal 0 0 -1
		outer loop
			vertex 0.18016991019248962 0.14131440222263336 2.547738790512085
			vertex 0.030384697020053864 0.17179439961910248 2.547738790512085
			vertex 0.18016991019248962 0.17179439961910248 2.547738790512085
		endloop
	endfacet
	facet normal 0 0 -1
		outer loop
			vertex 0.39614471793174744 0.17179439961910248 2.547738790512085
			vertex 0.2463594675064087 0.14131440222263336 2.547738790512085
			vertex 0.2463594675064087 0.17179439961910248 2.547738790512085
		endloop
	endfacet
	facet normal 0 0.4472108372640127 0.8944285701125724
		outer loop
			vertex 0.42662471532821655 0.21022842824459076 2.588995933532715
			vertex 0.42662471532821655 0.18703441321849823 2.600592851638794
			vertex 0.4875847101211548 0.18703441321849823 2.600592851638794
		endloop
	endfacet
	facet normal 6.300048470362026e-7 0.44721216192276786 0.8944279077868532
		outer loop
			vertex 0.4875847101211548 0.18703441321849823 2.600592851638794
			vertex 0.4875847101211548 0.22050374746322632 2.5838582515716553
			vertex 0.42662471532821655 0.21022842824459076 2.588995933532715
		endloop
	endfacet
	facet normal -0.0000023063699290783566 0.44722609828141835 0.8944209394969798
		outer loop
			vertex 0.4875847101211548 0.22050374746322632 2.5838582515716553
			vertex 0.42662471532821655 0.21534518897533417 2.586437463760376
			vertex 0.42662471532821655 0.21022842824459076 2.588995933532715
		endloop
	endfacet
	facet normal 0 0.4472042942217372 0.8944318415785733
		outer loop
			vertex 0.4875847101211548 0.22050374746322632 2.5838582515716553
			vertex 0.42662471532821655 0.22050374746322632 2.5838582515716553
			vertex 0.42662471532821655 0.21534518897533417 2.586437463760376
		endloop
	endfacet
	facet normal 0 0.8814124508605825 0.47234742665536084
		outer loop
			vertex 0.4875847101211548 0.2327544093132019 2.5609982013702393
			vertex 0.42662471532821655 0.2327544093132019 2.5609982013702393
			vertex 0.42662471532821655 0.22050374746322632 2.5838582515716553
		endloop
	endfacet
	facet normal 0 0.8814124508605825 0.47234742665536084
		outer loop
			vertex 0.42662471532821655 0.22050374746322632 2.5838582515716553
			vertex 0.4875847101211548 0.22050374746322632 2.5838582515716553
			vertex 0.4875847101211548 0.2327544093132019 2.5609982013702393
		endloop
	endfacet
	facet normal 0 0.8814124508605825 -0.47234742665536084
		outer loop
			vertex 0.4875847101211548 0.22050374746322632 2.5381381511688232
			vertex 0.42662471532821655 0.22050374746322632 2.5381381511688232
			vertex 0.42662471532821655 0.2327544093132019 2.5609982013702393
		endloop
	endfacet
	facet normal 0 0.8814124508605825 -0.47234742665536084
		outer loop
			vertex 0.42662471532821655 0.2327544093132019 2.5609982013702393
			vertex 0.4875847101211548 0.2327544093132019 2.5609982013702393
			vertex 0.4875847101211548 0.22050374746322632 2.5381381511688232
		endloop
	endfacet
	facet normal 0 0.1327909472169074 -0.9911440684064232
		outer loop
			vertex 0.4875847101211548 0.18703441321849823 2.5214035511016846
			vertex 0.4875847101211548 0.14131440222263336 2.5152781009674072
			vertex 0.42662471532821655 0.14131440222263336 2.5152781009674072
		endloop
	endfacet
	facet normal 0 0.1327909472169074 -0.9911440684064232
		outer loop
			vertex 0.42662471532821655 0.14131440222263336 2.5152781009674072
			vertex 0.42662471532821655 0.18703441321849823 2.5214035511016846
			vertex 0.4875847101211548 0.18703441321849823 2.5214035511016846
		endloop
	endfacet
	facet normal 0 0.13279902665958174 0.9911429859098373
		outer loop
			vertex 0.42662471532821655 0.14877556264400482 2.6057186126708984
			vertex 0.42662471532821655 0.14131440222263336 2.6067183017730713
			vertex 0.4875847101211548 0.14131440222263336 2.6067183017730713
		endloop
	endfacet
	facet normal -0.0000010066303016732247 0.13279094721684012 0.9911440684059211
		outer loop
			vertex 0.4875847101211548 0.14131440222263336 2.6067183017730713
			vertex 0.4875847101211548 0.18703441321849823 2.600592851638794
			vertex 0.42662471532821655 0.14877556264400482 2.6057186126708984
		endloop
	endfacet
	facet normal 0.0000023403414239427823 0.13278570833154277 0.9911447702820277
		outer loop
			vertex 0.4875847101211548 0.18703441321849823 2.600592851638794
			vertex 0.42662471532821655 0.16470488905906677 2.6035845279693604
			vertex 0.42662471532821655 0.14877556264400482 2.6057186126708984
		endloop
	endfacet
	facet normal -0.000025938008936371826 0.1328615470286118 0.9911346067252338
		outer loop
			vertex 0.4875847101211548 0.18703441321849823 2.600592851638794
			vertex 0.42662471532821655 0.16621312499046326 2.6033823490142822
			vertex 0.42662471532821655 0.16470488905906677 2.6035845279693604
		endloop
	endfacet
	facet normal -0.00001067031722680241 0.13281763522334658 0.9911404923923864
		outer loop
			vertex 0.4875847101211548 0.18703441321849823 2.600592851638794
			vertex 0.42662471532821655 0.1699351668357849 2.6028835773468018
			vertex 0.42662471532821655 0.16621312499046326 2.6033823490142822
		endloop
	endfacet
	facet normal 0 0.13278026558248074 0.9911454994458917
		outer loop
			vertex 0.4875847101211548 0.18703441321849823 2.600592851638794
			vertex 0.42662471532821655 0.18703441321849823 2.600592851638794
			vertex 0.42662471532821655 0.1699351668357849 2.6028835773468018
		endloop
	endfacet
	facet normal 0 0.44721216192285645 -0.8944279077870305
		outer loop
			vertex 0.4875847101211548 0.22050374746322632 2.5381381511688232
			vertex 0.4875847101211548 0.18703441321849823 2.5214035511016846
			vertex 0.42662471532821655 0.18703441321849823 2.5214035511016846
		endloop
	endfacet
	facet normal 0 0.44721216192285645 -0.8944279077870305
		outer loop
			vertex 0.42662471532821655 0.18703441321849823 2.5214035511016846
			vertex 0.42662471532821655 0.22050374746322632 2.5381381511688232
			vertex 0.4875847101211548 0.22050374746322632 2.5381381511688232
		endloop
	endfacet
	facet normal -1 0 0
		outer loop
			vertex 0.39614471793174744 0.19710569083690643 2.614349842071533
			vertex 0.39614471793174744 0.2206154316663742 2.6113948822021484
			vertex 0.39614471793174744 0.22324198484420776 2.6047046184539795
		endloop
	endfacet
	facet normal -1 0 0
		outer loop
			vertex 0.39614471793174744 0.19710569083690643 2.614349842071533
			vertex 0.39614471793174744 0.21110786497592926 2.614349842071533
			vertex 0.39614471793174744 0.2206154316663742 2.6113948822021484
		endloop
	endfacet
	facet normal 0 0.7700777182913493 -0.6379500825230682
		outer loop
			vertex 0.42662471532821655 0.1736433357000351 2.5448336601257324
			vertex 0.39614471793174744 0.1736433357000351 2.5448336601257324
			vertex 0.39614471793174744 0.18703441321849823 2.5609982013702393
		endloop
	endfacet
	facet normal -0.000001598734097779387 0.7700762373088307 -0.6379518702298141
		outer loop
			vertex 0.39614471793174744 0.18703441321849823 2.5609982013702393
			vertex 0.39614471793174744 0.22324198484420776 2.6047046184539795
			vertex 0.42662471532821655 0.1736433357000351 2.5448336601257324
		endloop
	endfacet
	facet normal 0 0.770076637159402 -0.6379513875690426
		outer loop
			vertex 0.39614471793174744 0.22324198484420776 2.6047046184539795
			vertex 0.42662471532821655 0.22324198484420776 2.6047046184539795
			vertex 0.42662471532821655 0.1736433357000351 2.5448336601257324
		endloop
	endfacet
	facet normal 1 0 0
		outer loop
			vertex 0.42662471532821655 0.22324198484420776 2.6047046184539795
			vertex 0.42662471532821655 0.18703441321849823 2.5609982013702393
			vertex 0.42662471532821655 0.1736433357000351 2.5448336601257324
		endloop
	endfacet
	facet normal 1 0 0
		outer loop
			vertex 0.42662471532821655 0.22324198484420776 2.6047046184539795
			vertex 0.42662471532821655 0.21022842824459076 2.588995933532715
			vertex 0.42662471532821655 0.18703441321849823 2.5609982013702393
		endloop
	endfacet
	facet normal 0 0.20280206947545815 -0.9792197509325838
		outer loop
			vertex 0.42662471532821655 0.1736433357000351 2.5448336601257324
			vertex 0.42662471532821655 0.14131440222263336 2.5381381511688232
			vertex 0.39614471793174744 0.14131440222263336 2.5381381511688232
		endloop
	endfacet
	facet normal 0 0.20280206947545815 -0.9792197509325838
		outer loop
			vertex 0.39614471793174744 0.14131440222263336 2.5381381511688232
			vertex 0.39614471793174744 0.1736433357000351 2.5448336601257324
			vertex 0.42662471532821655 0.1736433357000351 2.5448336601257324
		endloop
	endfacet
	facet normal 0 0.2967964116715129 0.9549407782783778
		outer loop
			vertex 0.39614471793174744 0.2206154316663742 2.6113948822021484
			vertex 0.39614471793174744 0.21110786497592926 2.614349842071533
			vertex 0.42662471532821655 0.21110786497592926 2.614349842071533
		endloop
	endfacet
	facet normal 0 0.2967964116715129 0.9549407782783778
		outer loop
			vertex 0.42662471532821655 0.21110786497592926 2.614349842071533
			vertex 0.42662471532821655 0.2206154316663742 2.6113948822021484
			vertex 0.39614471793174744 0.2206154316663742 2.6113948822021484
		endloop
	endfacet
	facet normal 0 0.930835031019543 0.36543965989865773
		outer loop
			vertex 0.42662471532821655 0.22324198484420776 2.6047046184539795
			vertex 0.39614471793174744 0.22324198484420776 2.6047046184539795
			vertex 0.39614471793174744 0.2206154316663742 2.6113948822021484
		endloop
	endfacet
	facet normal 0 0.930835031019543 0.36543965989865773
		outer loop
			vertex 0.39614471793174744 0.2206154316663742 2.6113948822021484
			vertex 0.42662471532821655 0.2206154316663742 2.6113948822021484
			vertex 0.42662471532821655 0.22324198484420776 2.6047046184539795
		endloop
	endfacet
	facet normal 0 0 1
		outer loop
			vertex 0.39614471793174744 0.21110786497592926 2.614349842071533
			vertex 0.39614471793174744 0.19710569083690643 2.614349842071533
			vertex 0.42662471532821655 0.19710569083690643 2.614349842071533
		endloop
	endfacet
	facet normal 0 0 1
		outer loop
			vertex 0.42662471532821655 0.19710569083690643 2.614349842071533
			vertex 0.42662471532821655 0.21110786497592926 2.614349842071533
			vertex 0.39614471793174744 0.21110786497592926 2.614349842071533
		endloop
	endfacet
	facet normal -1 0 0
		outer loop
			vertex 0.42662471532821655 0.21022842824459076 2.588995933532715
			vertex 0.42662471532821655 0.18703441321849823 2.5609982013702393
			vertex 0.42662471532821655 0.1736433357000351 2.577162742614746
		endloop
	endfacet
	facet normal -1 0 0
		outer loop
			vertex 0.42662471532821655 0.1736433357000351 2.577162742614746
			vertex 0.42662471532821655 0.14131440222263336 2.5838582515716553
			vertex 0.42662471532821655 0.21022842824459076 2.588995933532715
		endloop
	endfacet
	facet normal -1 0 0
		outer loop
			vertex 0.42662471532821655 0.1699351668357849 2.6028835773468018
			vertex 0.42662471532821655 0.21022842824459076 2.588995933532715
			vertex 0.42662471532821655 0.14131440222263336 2.5838582515716553
		endloop
	endfacet
	facet normal -1 0 0
		outer loop
			vertex 0.42662471532821655 0.1699351668357849 2.6028835773468018
			vertex 0.42662471532821655 0.18703441321849823 2.600592851638794
			vertex 0.42662471532821655 0.21022842824459076 2.588995933532715
		endloop
	endfacet
	facet normal -1 0 0
		outer loop
			vertex 0.42662471532821655 0.22050374746322632 2.5381381511688232
			vertex 0.42662471532821655 0.14131440222263336 2.5381381511688232
			vertex 0.42662471532821655 0.1736433357000351 2.5448336601257324
		endloop
	endfacet
	facet normal -1 0 0
		outer loop
			vertex 0.42662471532821655 0.1736433357000351 2.5448336601257324
			vertex 0.42662471532821655 0.2327544093132019 2.5609982013702393
			vertex 0.42662471532821655 0.22050374746322632 2.5381381511688232
		endloop
	endfacet
	facet normal -1 0 0
		outer loop
			vertex 0.42662471532821655 0.1736433357000351 2.5448336601257324
			vertex 0.42662471532821655 0.18703441321849823 2.5609982013702393
			vertex 0.42662471532821655 0.2327544093132019 2.5609982013702393
		endloop
	endfacet
	facet normal -1 0 0
		outer loop
			vertex 0.42662471532821655 0.18703441321849823 2.5609982013702393
			vertex 0.42662471532821655 0.22050374746322632 2.5838582515716553
			vertex 0.42662471532821655 0.2327544093132019 2.5609982013702393
		endloop
	endfacet
	facet normal -1 0 0
		outer loop
			vertex 0.42662471532821655 0.18703441321849823 2.5609982013702393
			vertex 0.42662471532821655 0.21022842824459076 2.588995933532715
			vertex 0.42662471532821655 0.22050374746322632 2.5838582515716553
		endloop
	endfacet
	facet normal 1 0 0
		outer loop
			vertex 0.42662471532821655 0.21022842824459076 2.588995933532715
			vertex 0.42662471532821655 0.21534518897533417 2.586437463760376
			vertex 0.42662471532821655 0.22050374746322632 2.5838582515716553
		endloop
	endfacet
	facet normal 1 0 0
		outer loop
			vertex 0.42662471532821655 0.16470488905906677 2.6035845279693604
			vertex 0.42662471532821655 0.16621312499046326 2.6033823490142822
			vertex 0.42662471532821655 0.1699351668357849 2.6028835773468018
		endloop
	endfacet
	facet normal 0 -0.388807006855562 0.9213192234074024
		outer loop
			vertex 0.42662471532821655 0.1699351668357849 2.6028835773468018
			vertex 0.42662471532821655 0.19710569083690643 2.614349842071533
			vertex 0.39614471793174744 0.19710569083690643 2.614349842071533
		endloop
	endfacet
	facet normal 1 0 0
		outer loop
			vertex 0.42662471532821655 0.18703441321849823 2.600592851638794
			vertex 0.42662471532821655 0.21022842824459076 2.588995933532715
			vertex 0.42662471532821655 0.22324198484420776 2.6047046184539795
		endloop
	endfacet
	facet normal 1 0 0
		outer loop
			vertex 0.42662471532821655 0.22324198484420776 2.6047046184539795
			vertex 0.42662471532821655 0.1699351668357849 2.6028835773468018
			vertex 0.42662471532821655 0.18703441321849823 2.600592851638794
		endloop
	endfacet
	facet normal 1 0 0
		outer loop
			vertex 0.42662471532821655 0.22324198484420776 2.6047046184539795
			vertex 0.42662471532821655 0.19710569083690643 2.614349842071533
			vertex 0.42662471532821655 0.1699351668357849 2.6028835773468018
		endloop
	endfacet
	facet normal 1 0 0
		outer loop
			vertex 0.42662471532821655 0.22324198484420776 2.6047046184539795
			vertex 0.42662471532821655 0.2206154316663742 2.6113948822021484
			vertex 0.42662471532821655 0.19710569083690643 2.614349842071533
		endloop
	endfacet
	facet normal 1 0 0
		outer loop
			vertex 0.42662471532821655 0.2206154316663742 2.6113948822021484
			vertex 0.42662471532821655 0.21110786497592926 2.614349842071533
			vertex 0.42662471532821655 0.19710569083690643 2.614349842071533
		endloop
	endfacet
	facet normal 0 0.4472108372640128 -0.8944285701125725
		outer loop
			vertex -0.0000952947375481017 0.21022842824459076 2.5349810123443604
			vertex -0.0000952947375481017 0.18703441321849823 2.5233840942382812
			vertex -0.06105530261993408 0.18703441321849823 2.5233840942382812
		endloop
	endfacet
	facet normal -6.300047117603749e-7 0.4472121619227678 -0.8944279077868532
		outer loop
			vertex -0.06105530261993408 0.18703441321849823 2.5233840942382812
			vertex -0.06105530261993408 0.22050374746322632 2.54011869430542
			vertex -0.0000952947375481017 0.21022842824459076 2.5349810123443604
		endloop
	endfacet
	facet normal 0.00000230636943385026 0.4472260982814184 -0.8944209394969799
		outer loop
			vertex -0.06105530261993408 0.22050374746322632 2.54011869430542
			vertex -0.0000952947375481017 0.21534518897533417 2.537539482116699
			vertex -0.0000952947375481017 0.21022842824459076 2.5349810123443604
		endloop
	endfacet
	facet normal 0 0.4472042942217372 -0.8944318415785733
		outer loop
			vertex -0.06105530261993408 0.22050374746322632 2.54011869430542
			vertex -0.0000952947375481017 0.22050374746322632 2.54011869430542
			vertex -0.0000952947375481017 0.21534518897533417 2.537539482116699
		endloop
	endfacet
	facet normal 0 0.8814145018335 -0.4723435994671707
		outer loop
			vertex -0.06105530261993408 0.2327544093132019 2.562978982925415
			vertex -0.0000952947375481017 0.2327544093132019 2.562978982925415
			vertex -0.0000952947375481017 0.22050374746322632 2.54011869430542
		endloop
	endfacet
	facet normal 0 0.8814145018335 -0.4723435994671707
		outer loop
			vertex -0.0000952947375481017 0.22050374746322632 2.54011869430542
			vertex -0.06105530261993408 0.22050374746322632 2.54011869430542
			vertex -0.06105530261993408 0.2327544093132019 2.562978982925415
		endloop
	endfacet
	facet normal 0 0.88141039983781 0.47235125389666555
		outer loop
			vertex -0.06105530261993408 0.22050374746322632 2.585838794708252
			vertex -0.0000952947375481017 0.22050374746322632 2.585838794708252
			vertex -0.0000952947375481017 0.2327544093132019 2.562978982925415
		endloop
	endfacet
	facet normal 0 0.88141039983781 0.47235125389666555
		outer loop
			vertex -0.0000952947375481017 0.2327544093132019 2.562978982925415
			vertex -0.06105530261993408 0.2327544093132019 2.562978982925415
			vertex -0.06105530261993408 0.22050374746322632 2.585838794708252
		endloop
	endfacet
	facet normal 0 0.13278586977953818 0.9911447486552566
		outer loop
			vertex -0.06105530261993408 0.18703441321849823 2.6025736331939697
			vertex -0.06105530261993408 0.14131440222263336 2.608698844909668
			vertex -0.0000952947375481017 0.14131440222263336 2.608698844909668
		endloop
	endfacet
	facet normal 0 0.13278586977953818 0.9911447486552566
		outer loop
			vertex -0.0000952947375481017 0.14131440222263336 2.608698844909668
			vertex -0.0000952947375481017 0.18703441321849823 2.6025736331939697
			vertex -0.06105530261993408 0.18703441321849823 2.6025736331939697
		endloop
	endfacet
	facet normal 0 0.1327679134085467 -0.9911471541447016
		outer loop
			vertex -0.0000952947375481017 0.14877556264400482 2.5182583332061768
			vertex -0.0000952947375481017 0.14131440222263336 2.517258882522583
			vertex -0.06105530261993408 0.14131440222263336 2.517258882522583
		endloop
	endfacet
	facet normal -0.0000022371967681852292 0.1327858697792059 -0.9911447486527762
		outer loop
			vertex -0.06105530261993408 0.14131440222263336 2.517258882522583
			vertex -0.06105530261993408 0.18703441321849823 2.5233840942382812
			vertex -0.0000952947375481017 0.14877556264400482 2.5182583332061768
		endloop
	endfacet
	facet normal 0.000006970009790112061 0.132800281453403 -0.9911428177600421
		outer loop
			vertex -0.06105530261993408 0.18703441321849823 2.5233840942382812
			vertex -0.0000952947375481017 0.16470488905906677 2.520392656326294
			vertex -0.0000952947375481017 0.14877556264400482 2.5182583332061768
		endloop
	endfacet
	facet normal -0.000027576400303666844 0.13270763154697432 -0.9911552268785827
		outer loop
			vertex -0.06105530261993408 0.18703441321849823 2.5233840942382812
			vertex -0.0000952947375481017 0.16621312499046326 2.520594596862793
			vertex -0.0000952947375481017 0.16470488905906677 2.520392656326294
		endloop
	endfacet
	facet normal 0.00001067031493565179 0.1328176352233466 -0.9911404923923866
		outer loop
			vertex -0.06105530261993408 0.18703441321849823 2.5233840942382812
			vertex -0.0000952947375481017 0.1699351668357849 2.5210933685302734
			vertex -0.0000952947375481017 0.16621312499046326 2.520594596862793
		endloop
	endfacet
	facet normal 0 0.13278026558248074 -0.9911454994458917
		outer loop
			vertex -0.06105530261993408 0.18703441321849823 2.5233840942382812
			vertex -0.0000952947375481017 0.18703441321849823 2.5233840942382812
			vertex -0.0000952947375481017 0.1699351668357849 2.5210933685302734
		endloop
	endfacet
	facet normal 0 0.4472172590702254 0.8944253592054034
		outer loop
			vertex -0.06105530261993408 0.22050374746322632 2.585838794708252
			vertex -0.06105530261993408 0.18703441321849823 2.6025736331939697
			vertex -0.0000952947375481017 0.18703441321849823 2.6025736331939697
		endloop
	endfacet
	facet normal 0 0.4472172590702254 0.8944253592054034
		outer loop
			vertex -0.0000952947375481017 0.18703441321849823 2.6025736331939697
			vertex -0.0000952947375481017 0.22050374746322632 2.585838794708252
			vertex -0.06105530261993408 0.22050374746322632 2.585838794708252
		endloop
	endfacet
	facet normal 1 0 0
		outer loop
			vertex 0.03038470819592476 0.19710569083690643 2.509627103805542
			vertex 0.03038470819592476 0.2206154763698578 2.5125820636749268
			vertex 0.03038470819592476 0.22324198484420776 2.5192723274230957
		endloop
	endfacet
	facet normal 1 0 0
		outer loop
			vertex 0.03038470819592476 0.19710569083690643 2.509627103805542
			vertex 0.03038470819592476 0.21110786497592926 2.509627103805542
			vertex 0.03038470819592476 0.2206154763698578 2.5125820636749268
		endloop
	endfacet
	facet normal 0 0.7700730956482604 0.6379556625336161
		outer loop
			vertex -0.0000952947375481017 0.1736433357000351 2.5791432857513428
			vertex 0.03038470819592476 0.1736433357000351 2.5791432857513428
			vertex 0.03038470819592476 0.18703441321849823 2.562978982925415
		endloop
	endfacet
	facet normal -0.000005236956511448361 0.7700779469300595 0.6379498065087559
		outer loop
			vertex 0.03038470819592476 0.18703441321849823 2.562978982925415
			vertex 0.03038470819592476 0.22324198484420776 2.5192723274230957
			vertex -0.0000952947375481017 0.1736433357000351 2.5791432857513428
		endloop
	endfacet
	facet normal 0 0.770076637159402 0.6379513875690425
		outer loop
			vertex 0.03038470819592476 0.22324198484420776 2.5192723274230957
			vertex -0.0000952947375481017 0.22324198484420776 2.5192723274230957
			vertex -0.0000952947375481017 0.1736433357000351 2.5791432857513428
		endloop
	endfacet
	facet normal 1 0 0
		outer loop
			vertex -0.0000952947375481017 0.22324198484420776 2.5192723274230957
			vertex -0.0000952947375481017 0.18703441321849823 2.562978982925415
			vertex -0.0000952947375481017 0.1736433357000351 2.5791432857513428
		endloop
	endfacet
	facet normal -1 0 0
		outer loop
			vertex -0.0000952947375481017 0.22324198484420776 2.5192723274230957
			vertex -0.0000952947375481017 0.21022842824459076 2.5349810123443604
			vertex -0.0000952947375481017 0.18703441321849823 2.562978982925415
		endloop
	endfacet
	facet normal 0 0.20280206947545817 0.9792197509325838
		outer loop
			vertex -0.0000952947375481017 0.1736433357000351 2.5791432857513428
			vertex -0.0000952947375481017 0.14131440222263336 2.585838794708252
			vertex 0.03038470819592476 0.14131440222263336 2.585838794708252
		endloop
	endfacet
	facet normal 0 0.20280206947545817 0.9792197509325838
		outer loop
			vertex 0.03038470819592476 0.14131440222263336 2.585838794708252
			vertex 0.03038470819592476 0.1736433357000351 2.5791432857513428
			vertex -0.0000952947375481017 0.1736433357000351 2.5791432857513428
		endloop
	endfacet
	facet normal 0 0.2967951391013422 -0.954941173793347
		outer loop
			vertex 0.03038470819592476 0.2206154763698578 2.5125820636749268
			vertex 0.03038470819592476 0.21110786497592926 2.509627103805542
			vertex -0.0000952947375481017 0.21110786497592926 2.509627103805542
		endloop
	endfacet
	facet normal 0 0.2967951391013422 -0.954941173793347
		outer loop
			vertex -0.0000952947375481017 0.21110786497592926 2.509627103805542
			vertex -0.0000952947375481017 0.2206154763698578 2.5125820636749268
			vertex 0.03038470819592476 0.2206154763698578 2.5125820636749268
		endloop
	endfacet
	facet normal 0 0.9308371467338823 -0.3654342707797467
		outer loop
			vertex -0.0000952947375481017 0.22324198484420776 2.5192723274230957
			vertex 0.03038470819592476 0.22324198484420776 2.5192723274230957
			vertex 0.03038470819592476 0.2206154763698578 2.5125820636749268
		endloop
	endfacet
	facet normal 0 0.9308371467338823 -0.3654342707797467
		outer loop
			vertex 0.03038470819592476 0.2206154763698578 2.5125820636749268
			vertex -0.0000952947375481017 0.2206154763698578 2.5125820636749268
			vertex -0.0000952947375481017 0.22324198484420776 2.5192723274230957
		endloop
	endfacet
	facet normal 0 0 -1
		outer loop
			vertex 0.03038470819592476 0.21110786497592926 2.509627103805542
			vertex 0.03038470819592476 0.19710569083690643 2.509627103805542
			vertex -0.0000952947375481017 0.19710569083690643 2.509627103805542
		endloop
	endfacet
	facet normal 0 0 -1
		outer loop
			vertex -0.0000952947375481017 0.19710569083690643 2.509627103805542
			vertex -0.0000952947375481017 0.21110786497592926 2.509627103805542
			vertex 0.03038470819592476 0.21110786497592926 2.509627103805542
		endloop
	endfacet
	facet normal 1 0 0
		outer loop
			vertex -0.0000952947375481017 0.21022842824459076 2.5349810123443604
			vertex -0.0000952947375481017 0.18703441321849823 2.562978982925415
			vertex -0.0000952947375481017 0.1736433357000351 2.546814203262329
		endloop
	endfacet
	facet normal 1 0 0
		outer loop
			vertex -0.0000952947375481017 0.1736433357000351 2.546814203262329
			vertex -0.0000952947375481017 0.14131440222263336 2.54011869430542
			vertex -0.0000952947375481017 0.21022842824459076 2.5349810123443604
		endloop
	endfacet
	facet normal 1 0 0
		outer loop
			vertex -0.0000952947375481017 0.1699351668357849 2.5210933685302734
			vertex -0.0000952947375481017 0.21022842824459076 2.5349810123443604
			vertex -0.0000952947375481017 0.14131440222263336 2.54011869430542
		endloop
	endfacet
	facet normal 1 0 0
		outer loop
			vertex -0.0000952947375481017 0.1699351668357849 2.5210933685302734
			vertex -0.0000952947375481017 0.18703441321849823 2.5233840942382812
			vertex -0.0000952947375481017 0.21022842824459076 2.5349810123443604
		endloop
	endfacet
	facet normal 1 0 0
		outer loop
			vertex -0.0000952947375481017 0.22050374746322632 2.585838794708252
			vertex -0.0000952947375481017 0.14131440222263336 2.585838794708252
			vertex -0.0000952947375481017 0.1736433357000351 2.5791432857513428
		endloop
	endfacet
	facet normal 1 0 0
		outer loop
			vertex -0.0000952947375481017 0.1736433357000351 2.5791432857513428
			vertex -0.0000952947375481017 0.2327544093132019 2.562978982925415
			vertex -0.0000952947375481017 0.22050374746322632 2.585838794708252
		endloop
	endfacet
	facet normal 1 0 0
		outer loop
			vertex -0.0000952947375481017 0.1736433357000351 2.5791432857513428
			vertex -0.0000952947375481017 0.18703441321849823 2.562978982925415
			vertex -0.0000952947375481017 0.2327544093132019 2.562978982925415
		endloop
	endfacet
	facet normal 1 0 0
		outer loop
			vertex -0.0000952947375481017 0.18703441321849823 2.562978982925415
			vertex -0.0000952947375481017 0.22050374746322632 2.54011869430542
			vertex -0.0000952947375481017 0.2327544093132019 2.562978982925415
		endloop
	endfacet
	facet normal 1 0 0
		outer loop
			vertex -0.0000952947375481017 0.18703441321849823 2.562978982925415
			vertex -0.0000952947375481017 0.21022842824459076 2.5349810123443604
			vertex -0.0000952947375481017 0.22050374746322632 2.54011869430542
		endloop
	endfacet
	facet normal -1 0 0
		outer loop
			vertex -0.0000952947375481017 0.21022842824459076 2.5349810123443604
			vertex -0.0000952947375481017 0.21534518897533417 2.537539482116699
			vertex -0.0000952947375481017 0.22050374746322632 2.54011869430542
		endloop
	endfacet
	facet normal 1 0 0
		outer loop
			vertex -0.0000952947375481017 0.16470488905906677 2.520392656326294
			vertex -0.0000952947375481017 0.16621312499046326 2.520594596862793
			vertex -0.0000952947375481017 0.1699351668357849 2.5210933685302734
		endloop
	endfacet
	facet normal 0 -0.388807006855562 -0.9213192234074024
		outer loop
			vertex -0.0000952947375481017 0.1699351668357849 2.5210933685302734
			vertex -0.0000952947375481017 0.19710569083690643 2.509627103805542
			vertex 0.03038470819592476 0.19710569083690643 2.509627103805542
		endloop
	endfacet
	facet normal -1 0 0
		outer loop
			vertex -0.0000952947375481017 0.18703441321849823 2.5233840942382812
			vertex -0.0000952947375481017 0.21022842824459076 2.5349810123443604
			vertex -0.0000952947375481017 0.22324198484420776 2.5192723274230957
		endloop
	endfacet
	facet normal -1 0 0
		outer loop
			vertex -0.0000952947375481017 0.22324198484420776 2.5192723274230957
			vertex -0.0000952947375481017 0.1699351668357849 2.5210933685302734
			vertex -0.0000952947375481017 0.18703441321849823 2.5233840942382812
		endloop
	endfacet
	facet normal -1 0 0
		outer loop
			vertex -0.0000952947375481017 0.22324198484420776 2.5192723274230957
			vertex -0.0000952947375481017 0.19710569083690643 2.509627103805542
			vertex -0.0000952947375481017 0.1699351668357849 2.5210933685302734
		endloop
	endfacet
	facet normal -1 0 0
		outer loop
			vertex -0.0000952947375481017 0.22324198484420776 2.5192723274230957
			vertex -0.0000952947375481017 0.2206154763698578 2.5125820636749268
			vertex -0.0000952947375481017 0.19710569083690643 2.509627103805542
		endloop
	endfacet
	facet normal -1 0 0
		outer loop
			vertex -0.0000952947375481017 0.2206154763698578 2.5125820636749268
			vertex -0.0000952947375481017 0.21110786497592926 2.509627103805542
			vertex -0.0000952947375481017 0.19710569083690643 2.509627103805542
		endloop
	endfacet
	facet normal 0 1 0
		outer loop
			vertex 0.1701594740152359 0.263234406709671 2.584531545639038
			vertex 0.1701594740152359 0.263234406709671 2.541426181793213
			vertex 0.15230470895767212 0.263234406709671 2.562978982925415
		endloop
	endfacet
	facet normal 0 1 0
		outer loop
			vertex 0.1701594740152359 0.263234406709671 2.541426181793213
			vertex 0.1701594740152359 0.263234406709671 2.584531545639038
			vertex 0.21326470375061035 0.263234406709671 2.593458890914917
		endloop
	endfacet
	facet normal 0 1 0
		outer loop
			vertex 0.1701594740152359 0.263234406709671 2.541426181793213
			vertex 0.21326470375061035 0.263234406709671 2.593458890914917
			vertex 0.21326470375061035 0.263234406709671 2.532498836517334
		endloop
	endfacet
	facet normal 0 1 0
		outer loop
			vertex 0.21326470375061035 0.263234406709671 2.532498836517334
			vertex 0.21326470375061035 0.263234406709671 2.593458890914917
			vertex 0.256369948387146 0.263234406709671 2.584531545639038
		endloop
	endfacet
	facet normal 0 1 0
		outer loop
			vertex 0.21326470375061035 0.263234406709671 2.532498836517334
			vertex 0.256369948387146 0.263234406709671 2.584531545639038
			vertex 0.256369948387146 0.263234406709671 2.541426181793213
		endloop
	endfacet
	facet normal 0 1 0
		outer loop
			vertex 0.256369948387146 0.263234406709671 2.541426181793213
			vertex 0.256369948387146 0.263234406709671 2.584531545639038
			vertex 0.2742246985435486 0.263234406709671 2.562978982925415
		endloop
	endfacet
	facet normal 0.7700757557356694 0 0.637952451541757
		outer loop
			vertex 0.2742246985435486 0.24799440801143646 2.562978982925415
			vertex 0.256369948387146 0.263234406709671 2.584531545639038
			vertex 0.256369948387146 0.24799440801143646 2.584531545639038
		endloop
	endfacet
	facet normal 0.7700757557356694 0 0.637952451541757
		outer loop
			vertex 0.256369948387146 0.263234406709671 2.584531545639038
			vertex 0.2742246985435486 0.24799440801143646 2.562978982925415
			vertex 0.2742246985435486 0.263234406709671 2.562978982925415
		endloop
	endfacet
	facet normal 0.7700792226808653 0 -0.6379482665508501
		outer loop
			vertex 0.256369948387146 0.24799440801143646 2.541426181793213
			vertex 0.2742246985435486 0.263234406709671 2.562978982925415
			vertex 0.2742246985435486 0.24799440801143646 2.562978982925415
		endloop
	endfacet
	facet normal 0.7700792226808653 0 -0.6379482665508501
		outer loop
			vertex 0.2742246985435486 0.263234406709671 2.562978982925415
			vertex 0.256369948387146 0.24799440801143646 2.541426181793213
			vertex 0.256369948387146 0.263234406709671 2.541426181793213
		endloop
	endfacet
	facet normal 0.20280206947545815 0 -0.9792197509325838
		outer loop
			vertex 0.21326470375061035 0.263234406709671 2.532498836517334
			vertex 0.256369948387146 0.24799440801143646 2.541426181793213
			vertex 0.21326470375061035 0.24799440801143646 2.532498836517334
		endloop
	endfacet
	facet normal 0.20280206947545815 0 -0.9792197509325838
		outer loop
			vertex 0.256369948387146 0.24799440801143646 2.541426181793213
			vertex 0.21326470375061035 0.263234406709671 2.532498836517334
			vertex 0.256369948387146 0.263234406709671 2.541426181793213
		endloop
	endfacet
	facet normal -0.2028021366992261 0 -0.9792197370101507
		outer loop
			vertex 0.1701594740152359 0.263234406709671 2.541426181793213
			vertex 0.21326470375061035 0.24799440801143646 2.532498836517334
			vertex 0.1701594740152359 0.24799440801143646 2.541426181793213
		endloop
	endfacet
	facet normal -0.2028021366992261 0 -0.9792197370101507
		outer loop
			vertex 0.21326470375061035 0.24799440801143646 2.532498836517334
			vertex 0.1701594740152359 0.263234406709671 2.541426181793213
			vertex 0.21326470375061035 0.263234406709671 2.532498836517334
		endloop
	endfacet
	facet normal -0.7700789611200847 0 -0.6379485822856034
		outer loop
			vertex 0.1701594740152359 0.263234406709671 2.541426181793213
			vertex 0.15230470895767212 0.24799440801143646 2.562978982925415
			vertex 0.15230470895767212 0.263234406709671 2.562978982925415
		endloop
	endfacet
	facet normal -0.7700789611200847 0 -0.6379485822856034
		outer loop
			vertex 0.15230470895767212 0.24799440801143646 2.562978982925415
			vertex 0.1701594740152359 0.263234406709671 2.541426181793213
			vertex 0.1701594740152359 0.24799440801143646 2.541426181793213
		endloop
	endfacet
	facet normal -0.7700754941726349 0 0.6379527672757385
		outer loop
			vertex 0.1701594740152359 0.263234406709671 2.584531545639038
			vertex 0.15230470895767212 0.263234406709671 2.562978982925415
			vertex 0.1701594740152359 0.24799440801143646 2.584531545639038
		endloop
	endfacet
	facet normal -0.7700754941726349 0 0.6379527672757385
		outer loop
			vertex 0.1701594740152359 0.24799440801143646 2.584531545639038
			vertex 0.15230470895767212 0.263234406709671 2.562978982925415
			vertex 0.15230470895767212 0.24799440801143646 2.562978982925415
		endloop
	endfacet
	facet normal -0.2028021366992261 0 0.9792197370101507
		outer loop
			vertex 0.21326470375061035 0.263234406709671 2.593458890914917
			vertex 0.1701594740152359 0.24799440801143646 2.584531545639038
			vertex 0.21326470375061035 0.24799440801143646 2.593458890914917
		endloop
	endfacet
	facet normal -0.2028021366992261 0 0.9792197370101507
		outer loop
			vertex 0.1701594740152359 0.263234406709671 2.584531545639038
			vertex 0.1701594740152359 0.24799440801143646 2.584531545639038
			vertex 0.21326470375061035 0.263234406709671 2.593458890914917
		endloop
	endfacet
	facet normal 0.20280206947545815 0 0.9792197509325838
		outer loop
			vertex 0.256369948387146 0.263234406709671 2.584531545639038
			vertex 0.21326470375061035 0.24799440801143646 2.593458890914917
			vertex 0.256369948387146 0.24799440801143646 2.584531545639038
		endloop
	endfacet
	facet normal 0.20280206947545815 0 0.9792197509325838
		outer loop
			vertex 0.21326470375061035 0.24799440801143646 2.593458890914917
			vertex 0.256369948387146 0.263234406709671 2.584531545639038
			vertex 0.21326470375061035 0.263234406709671 2.593458890914917
		endloop
	endfacet
	facet normal 0 -1 0
		outer loop
			vertex 0.18093577027320862 0.14131440222263336 2.546814441680908
			vertex 0.18093577027320862 0.14131440222263336 2.5791432857513428
			vertex 0.16754470765590668 0.14131440222263336 2.562978982925415
		endloop
	endfacet
	facet normal 0 -1 0
		outer loop
			vertex 0.18093577027320862 0.14131440222263336 2.5791432857513428
			vertex 0.18093577027320862 0.14131440222263336 2.546814441680908
			vertex 0.21326470375061035 0.14131440222263336 2.585838794708252
		endloop
	endfacet
	facet normal 0 -1 0
		outer loop
			vertex 0.21326470375061035 0.14131440222263336 2.585838794708252
			vertex 0.18093577027320862 0.14131440222263336 2.546814441680908
			vertex 0.21326470375061035 0.14131440222263336 2.540118932723999
		endloop
	endfacet
	facet normal 0 -1 0
		outer loop
			vertex 0.21326470375061035 0.14131440222263336 2.585838794708252
			vertex 0.21326470375061035 0.14131440222263336 2.540118932723999
			vertex 0.24559363722801208 0.14131440222263336 2.5791432857513428
		endloop
	endfacet
	facet normal 0 -1 0
		outer loop
			vertex 0.24559363722801208 0.14131440222263336 2.5791432857513428
			vertex 0.21326470375061035 0.14131440222263336 2.540118932723999
			vertex 0.24559363722801208 0.14131440222263336 2.546814441680908
		endloop
	endfacet
	facet normal 0 -1 0
		outer loop
			vertex 0.24559363722801208 0.14131440222263336 2.5791432857513428
			vertex 0.24559363722801208 0.14131440222263336 2.546814441680908
			vertex 0.25898468494415283 0.14131440222263336 2.562978982925415
		endloop
	endfacet
	facet normal 0.6101284151353745 -0.6101334878844848 0.5054507335105067
		outer loop
			vertex 0.25898468494415283 0.2327544093132019 2.562978982925415
			vertex 0.256369948387146 0.24799440801143646 2.584531545639038
			vertex 0.24559363722801208 0.2327544093132019 2.5791432857513428
		endloop
	endfacet
	facet normal 0.610131057547137 -0.610131654112886 0.5054497574100576
		outer loop
			vertex 0.256369948387146 0.24799440801143646 2.584531545639038
			vertex 0.25898468494415283 0.2327544093132019 2.562978982925415
			vertex 0.2742246985435486 0.24799440801143646 2.562978982925415
		endloop
	endfacet
	facet normal 0.1821419120208142 -0.4397371912274824 0.8794632036286492
		outer loop
			vertex 0.24559363722801208 0.2327544093132019 2.5791432857513428
			vertex 0.21326470375061035 0.24799440801143646 2.593458890914917
			vertex 0.21326470375061035 0.2327544093132019 2.585838794708252
		endloop
	endfacet
	facet normal 0.1821419120208142 -0.4397371912274824 0.8794632036286492
		outer loop
			vertex 0.21326470375061035 0.24799440801143646 2.593458890914917
			vertex 0.24559363722801208 0.2327544093132019 2.5791432857513428
			vertex 0.256369948387146 0.24799440801143646 2.584531545639038
		endloop
	endfacet
	facet normal -0.18214198359519804 -0.43973707844318344 0.8794632451980356
		outer loop
			vertex 0.18093577027320862 0.2327544093132019 2.5791432857513428
			vertex 0.21326470375061035 0.24799440801143646 2.593458890914917
			vertex 0.1701594740152359 0.24799440801143646 2.584531545639038
		endloop
	endfacet
	facet normal -0.1821419120208142 -0.4397371912274824 0.8794632036286492
		outer loop
			vertex 0.21326470375061035 0.24799440801143646 2.593458890914917
			vertex 0.18093577027320862 0.2327544093132019 2.5791432857513428
			vertex 0.21326470375061035 0.2327544093132019 2.585838794708252
		endloop
	endfacet
	facet normal -0.6101311495342615 -0.6101311495342615 0.5054502554515145
		outer loop
			vertex 0.16754470765590668 0.2327544093132019 2.562978982925415
			vertex 0.1701594740152359 0.24799440801143646 2.584531545639038
			vertex 0.15230470895767212 0.24799440801143646 2.562978982925415
		endloop
	endfacet
	facet normal -0.6101283897299689 -0.6101330647759737 0.5054512749144002
		outer loop
			vertex 0.1701594740152359 0.24799440801143646 2.584531545639038
			vertex 0.16754470765590668 0.2327544093132019 2.562978982925415
			vertex 0.18093577027320862 0.2327544093132019 2.5791432857513428
		endloop
	endfacet
	facet normal -0.6101328738462645 -0.6101328738462645 -0.5054460925798088
		outer loop
			vertex 0.1701594740152359 0.24799440801143646 2.541426181793213
			vertex 0.16754470765590668 0.2327544093132019 2.562978982925415
			vertex 0.15230470895767212 0.24799440801143646 2.562978982925415
		endloop
	endfacet
	facet normal -0.6101316700481177 -0.6101337092616368 -0.5054465372588196
		outer loop
			vertex 0.16754470765590668 0.2327544093132019 2.562978982925415
			vertex 0.1701594740152359 0.24799440801143646 2.541426181793213
			vertex 0.18093577027320862 0.2327544093132019 2.546814441680908
		endloop
	endfacet
	facet normal -0.18214192628503742 -0.439737047572682 -0.8794632725027446
		outer loop
			vertex 0.1701594740152359 0.24799440801143646 2.541426181793213
			vertex 0.21326470375061035 0.2327544093132019 2.540118932723999
			vertex 0.18093577027320862 0.2327544093132019 2.546814441680908
		endloop
	endfacet
	facet normal -0.18214197289702336 -0.4397371861843171 -0.8794631935424468
		outer loop
			vertex 0.21326470375061035 0.2327544093132019 2.540118932723999
			vertex 0.1701594740152359 0.24799440801143646 2.541426181793213
			vertex 0.21326470375061035 0.24799440801143646 2.532498836517334
		endloop
	endfacet
	facet normal 0.1821419120208142 -0.4397371912274824 -0.8794632036286492
		outer loop
			vertex 0.21326470375061035 0.24799440801143646 2.532498836517334
			vertex 0.24559363722801208 0.2327544093132019 2.546814441680908
			vertex 0.21326470375061035 0.2327544093132019 2.540118932723999
		endloop
	endfacet
	facet normal 0.1821419120208142 -0.4397371912274824 -0.8794632036286492
		outer loop
			vertex 0.24559363722801208 0.2327544093132019 2.546814441680908
			vertex 0.21326470375061035 0.24799440801143646 2.532498836517334
			vertex 0.256369948387146 0.24799440801143646 2.541426181793213
		endloop
	endfacet
	facet normal 0.6101323805431149 -0.6101329771101575 -0.5054465634025894
		outer loop
			vertex 0.24559363722801208 0.2327544093132019 2.546814441680908
			vertex 0.2742246985435486 0.24799440801143646 2.562978982925415
			vertex 0.25898468494415283 0.2327544093132019 2.562978982925415
		endloop
	endfacet
	facet normal 0.6101322680352769 -0.6101342448648254 -0.5054451688812136
		outer loop
			vertex 0.2742246985435486 0.24799440801143646 2.562978982925415
			vertex 0.24559363722801208 0.2327544093132019 2.546814441680908
			vertex 0.256369948387146 0.24799440801143646 2.541426181793213
		endloop
	endfacet
	facet normal 0.2028020694754582 0 -0.979219750932584
		outer loop
			vertex 0.21326470375061035 0.2327544093132019 2.540118932723999
			vertex 0.24559363722801208 0.14131440222263336 2.546814441680908
			vertex 0.21326470375061035 0.14131440222263336 2.540118932723999
		endloop
	endfacet
	facet normal 0.2028020694754582 0 -0.979219750932584
		outer loop
			vertex 0.24559363722801208 0.14131440222263336 2.546814441680908
			vertex 0.21326470375061035 0.2327544093132019 2.540118932723999
			vertex 0.24559363722801208 0.2327544093132019 2.546814441680908
		endloop
	endfacet
	facet normal -0.2028020694754582 0 -0.979219750932584
		outer loop
			vertex 0.18093577027320862 0.2327544093132019 2.546814441680908
			vertex 0.21326470375061035 0.14131440222263336 2.540118932723999
			vertex 0.18093577027320862 0.14131440222263336 2.546814441680908
		endloop
	endfacet
	facet normal -0.2028020694754582 0 -0.979219750932584
		outer loop
			vertex 0.21326470375061035 0.14131440222263336 2.540118932723999
			vertex 0.18093577027320862 0.2327544093132019 2.546814441680908
			vertex 0.21326470375061035 0.2327544093132019 2.540118932723999
		endloop
	endfacet
	facet normal 0.7700784157888318 0 -0.6379492405639833
		outer loop
			vertex 0.24559363722801208 0.14131440222263336 2.546814441680908
			vertex 0.25898468494415283 0.2327544093132019 2.562978982925415
			vertex 0.25898468494415283 0.14131440222263336 2.562978982925415
		endloop
	endfacet
	facet normal 0.7700784157888318 0 -0.6379492405639833
		outer loop
			vertex 0.25898468494415283 0.2327544093132019 2.562978982925415
			vertex 0.24559363722801208 0.14131440222263336 2.546814441680908
			vertex 0.24559363722801208 0.2327544093132019 2.546814441680908
		endloop
	endfacet
	facet normal -0.7700780670400478 0 -0.6379496615438117
		outer loop
			vertex 0.18093577027320862 0.2327544093132019 2.546814441680908
			vertex 0.16754470765590668 0.14131440222263336 2.562978982925415
			vertex 0.16754470765590668 0.2327544093132019 2.562978982925415
		endloop
	endfacet
	facet normal -0.7700780670400478 0 -0.6379496615438117
		outer loop
			vertex 0.16754470765590668 0.14131440222263336 2.562978982925415
			vertex 0.18093577027320862 0.2327544093132019 2.546814441680908
			vertex 0.18093577027320862 0.14131440222263336 2.546814441680908
		endloop
	endfacet
	facet normal -0.2028020694754582 0 0.979219750932584
		outer loop
			vertex 0.21326470375061035 0.2327544093132019 2.585838794708252
			vertex 0.18093577027320862 0.14131440222263336 2.5791432857513428
			vertex 0.21326470375061035 0.14131440222263336 2.585838794708252
		endloop
	endfacet
	facet normal -0.2028020694754582 0 0.979219750932584
		outer loop
			vertex 0.18093577027320862 0.14131440222263336 2.5791432857513428
			vertex 0.21326470375061035 0.2327544093132019 2.585838794708252
			vertex 0.18093577027320862 0.2327544093132019 2.5791432857513428
		endloop
	endfacet
	facet normal -0.7700734444009663 0 0.6379552415557317
		outer loop
			vertex 0.16754470765590668 0.2327544093132019 2.562978982925415
			vertex 0.18093577027320862 0.14131440222263336 2.5791432857513428
			vertex 0.18093577027320862 0.2327544093132019 2.5791432857513428
		endloop
	endfacet
	facet normal -0.7700734444009663 0 0.6379552415557317
		outer loop
			vertex 0.18093577027320862 0.14131440222263336 2.5791432857513428
			vertex 0.16754470765590668 0.2327544093132019 2.562978982925415
			vertex 0.16754470765590668 0.14131440222263336 2.562978982925415
		endloop
	endfacet
	facet normal 0.7700737931537579 0 0.6379548205772753
		outer loop
			vertex 0.25898468494415283 0.14131440222263336 2.562978982925415
			vertex 0.24559363722801208 0.2327544093132019 2.5791432857513428
			vertex 0.24559363722801208 0.14131440222263336 2.5791432857513428
		endloop
	endfacet
	facet normal 0.7700737931537579 0 0.6379548205772753
		outer loop
			vertex 0.24559363722801208 0.2327544093132019 2.5791432857513428
			vertex 0.25898468494415283 0.14131440222263336 2.562978982925415
			vertex 0.25898468494415283 0.2327544093132019 2.562978982925415
		endloop
	endfacet
	facet normal 0.2028020694754582 0 0.979219750932584
		outer loop
			vertex 0.24559363722801208 0.2327544093132019 2.5791432857513428
			vertex 0.21326470375061035 0.14131440222263336 2.585838794708252
			vertex 0.24559363722801208 0.14131440222263336 2.5791432857513428
		endloop
	endfacet
	facet normal 0.2028020694754582 0 0.979219750932584
		outer loop
			vertex 0.21326470375061035 0.14131440222263336 2.585838794708252
			vertex 0.24559363722801208 0.2327544093132019 2.5791432857513428
			vertex 0.21326470375061035 0.2327544093132019 2.585838794708252
		endloop
	endfacet
	facet normal -1 0 0
		outer loop
			vertex -0.25917530059814453 0.14131440222263336 2.349618673324585
			vertex -0.25917530059814453 0.281022310256958 2.4588465690612793
			vertex -0.25917530059814453 0.2764786183834076 2.454303026199341
		endloop
	endfacet
	facet normal -1 0 0
		outer loop
			vertex -0.25917530059814453 0.14131440222263336 2.349618673324585
			vertex -0.25917530059814453 0.2764786183834076 2.454303026199341
			vertex -0.25917530059814453 0.17179439961910248 2.349618673324585
		endloop
	endfacet
	facet normal 1 0 0
		outer loop
			vertex -0.07629530131816864 0.281022310256958 2.4588465690612793
			vertex -0.07629530131816864 0.14131440222263336 2.349618673324585
			vertex -0.07629530131816864 0.2764786183834076 2.454303026199341
		endloop
	endfacet
	facet normal 1 0 0
		outer loop
			vertex -0.07629530131816864 0.2764786183834076 2.454303026199341
			vertex -0.07629530131816864 0.14131440222263336 2.349618673324585
			vertex -0.07629530131816864 0.17179439961910248 2.349618673324585
		endloop
	endfacet
	facet normal 0 1 0
		outer loop
			vertex -0.07629530131816864 0.29371440410614014 2.502018690109253
			vertex -0.25917530059814453 0.29371440410614014 2.471538782119751
			vertex -0.25917530059814453 0.29371440410614014 2.502018690109253
		endloop
	endfacet
	facet normal 0 1 0
		outer loop
			vertex -0.25917530059814453 0.29371440410614014 2.471538782119751
			vertex -0.07629530131816864 0.29371440410614014 2.502018690109253
			vertex -0.07629530131816864 0.29371440410614014 2.471538782119751
		endloop
	endfacet
	facet normal 0 1 0
		outer loop
			vertex -0.07629530131816864 0.263234406709671 2.471538782119751
			vertex -0.25917530059814453 0.263234406709671 2.44105863571167
			vertex -0.25917530059814453 0.263234406709671 2.471538782119751
		endloop
	endfacet
	facet normal 0 1 0
		outer loop
			vertex -0.25917530059814453 0.263234406709671 2.44105863571167
			vertex -0.07629530131816864 0.263234406709671 2.471538782119751
			vertex -0.07629530131816864 0.263234406709671 2.44105863571167
		endloop
	endfacet
	facet normal 0 1 0
		outer loop
			vertex -0.07629530131816864 0.2327544093132019 2.44105863571167
			vertex -0.25917530059814453 0.2327544093132019 2.410578727722168
			vertex -0.25917530059814453 0.2327544093132019 2.44105863571167
		endloop
	endfacet
	facet normal 0 1 0
		outer loop
			vertex -0.25917530059814453 0.2327544093132019 2.410578727722168
			vertex -0.07629530131816864 0.2327544093132019 2.44105863571167
			vertex -0.07629530131816864 0.2327544093132019 2.410578727722168
		endloop
	endfacet
	facet normal 0 1 0
		outer loop
			vertex -0.07629530131816864 0.2022744119167328 2.410578727722168
			vertex -0.25917530059814453 0.2022744119167328 2.380098581314087
			vertex -0.25917530059814453 0.2022744119167328 2.410578727722168
		endloop
	endfacet
	facet normal 0 1 0
		outer loop
			vertex -0.25917530059814453 0.2022744119167328 2.380098581314087
			vertex -0.07629530131816864 0.2022744119167328 2.410578727722168
			vertex -0.07629530131816864 0.2022744119167328 2.380098581314087
		endloop
	endfacet
	facet normal 0 1 0
		outer loop
			vertex -0.07629530131816864 0.17179439961910248 2.380098581314087
			vertex -0.25917530059814453 0.17179439961910248 2.349618673324585
			vertex -0.25917530059814453 0.17179439961910248 2.380098581314087
		endloop
	endfacet
	facet normal 0 1 0
		outer loop
			vertex -0.25917530059814453 0.17179439961910248 2.349618673324585
			vertex -0.07629530131816864 0.17179439961910248 2.380098581314087
			vertex -0.07629530131816864 0.17179439961910248 2.349618673324585
		endloop
	endfacet
	facet normal 0 0 -1
		outer loop
			vertex -0.457295298576355 0.17179439961910248 2.349618673324585
			vertex -0.33537527918815613 0.14131440222263336 2.349618673324585
			vertex -0.457295298576355 0.14131440222263336 2.349618673324585
		endloop
	endfacet
	facet normal 0 0 -1
		outer loop
			vertex -0.33537527918815613 0.14131440222263336 2.349618673324585
			vertex -0.457295298576355 0.17179439961910248 2.349618673324585
			vertex -0.33537527918815613 0.17179439961910248 2.349618673324585
		endloop
	endfacet
	facet normal -1 0 0
		outer loop
			vertex -0.457295298576355 0.14131440222263336 2.349618673324585
			vertex -0.457295298576355 0.2083703875541687 2.3861947059631348
			vertex -0.457295298576355 0.17179439961910248 2.349618673324585
		endloop
	endfacet
	facet normal 1 0 0
		outer loop
			vertex -0.33537527918815613 0.2083703875541687 2.3861947059631348
			vertex -0.33537527918815613 0.14131440222263336 2.349618673324585
			vertex -0.33537527918815613 0.17179439961910248 2.349618673324585
		endloop
	endfacet
endsolid exported
