solid exported
	facet normal 0 0 -1
		outer loop
			vertex 0.015144706703722477 0.689954400062561 0.9170587658882141
			vertex 0.045624710619449615 0.7204344272613525 0.9170587658882141
			vertex 0.4113847017288208 0.689954400062561 0.9170587658882141
		endloop
	endfacet
	facet normal 0 0 -1
		outer loop
			vertex 0.3809047043323517 0.7204344272613525 0.9170587658882141
			vertex 0.4113847017288208 0.689954400062561 0.9170587658882141
			vertex 0.045624710619449615 0.7204344272613525 0.9170587658882141
		endloop
	endfacet
	facet normal 0 -1 0
		outer loop
			vertex 0.015144706703722477 0.689954400062561 0.9170587658882141
			vertex 0.4113847017288208 0.689954400062561 0.9170587658882141
			vertex 0.015144706703722477 0.689954400062561 1.6790587902069092
		endloop
	endfacet
	facet normal 0 -1 0
		outer loop
			vertex 0.015144706703722477 0.689954400062561 1.6790587902069092
			vertex 0.4113847017288208 0.689954400062561 0.9170587658882141
			vertex 0.4113847017288208 0.689954400062561 1.6790587902069092
		endloop
	endfacet
	facet normal 0 -1 0
		outer loop
			vertex 0.3809047043323517 0.7204343676567078 0.15505880117416382
			vertex 0.045624710619449615 0.7204343676567078 0.9170587658882141
			vertex 0.045624710619449615 0.7204343676567078 0.15505880117416382
		endloop
	endfacet
	facet normal 0 -1 0
		outer loop
			vertex 0.045624710619449615 0.7204343676567078 0.9170587658882141
			vertex 0.3809047043323517 0.7204343676567078 0.15505880117416382
			vertex 0.3809047043323517 0.7204343676567078 0.9170587658882141
		endloop
	endfacet
	facet normal 0 -1 0
		outer loop
			vertex 0.21326470375061035 0.6594744324684143 0.1245787963271141
			vertex -0.03057529777288437 0.6594744324684143 0.15505880117416382
			vertex -0.03057529777288437 0.6594744324684143 0.1245787963271141
		endloop
	endfacet
	facet normal 0 -1 0
		outer loop
			vertex -0.03057529777288437 0.6594744324684143 0.15505880117416382
			vertex 0.21326470375061035 0.6594744324684143 0.1245787963271141
			vertex 0.45710471272468567 0.6594744324684143 0.15505880117416382
		endloop
	endfacet
	facet normal 0 -1 0
		outer loop
			vertex 0.45710471272468567 0.6594744324684143 0.15505880117416382
			vertex 0.21326470375061035 0.6594744324684143 0.1245787963271141
			vertex 0.45710471272468567 0.6594744324684143 0.1245787963271141
		endloop
	endfacet
	facet normal 0.9670394134807374 0 -0.25462673224709087
		outer loop
			vertex 0.4487960636615753 0.7204344272613525 -0.02889648824930191
			vertex 0.45710471272468567 0.7509143948554993 0.0026586868334561586
			vertex 0.45710471272468567 0.7204344272613525 0.0026586868334561586
		endloop
	endfacet
	facet normal 0 -1 0
		outer loop
			vertex -0.022266648709774017 0.7204344272613525 -0.02889648824930191
			vertex -0.03057529777288437 0.7204344272613525 0.1245787963271141
			vertex -0.03057529777288437 0.7204344272613525 0.0026586868334561586
		endloop
	endfacet
	facet normal 0 -1 0
		outer loop
			vertex -0.03057529777288437 0.7204344272613525 0.1245787963271141
			vertex -0.022266648709774017 0.7204344272613525 -0.02889648824930191
			vertex 0.21326470375061035 0.7204344272613525 0.1245787963271141
		endloop
	endfacet
	facet normal 0 -1 0
		outer loop
			vertex 0.21326470375061035 0.7204344272613525 0.1245787963271141
			vertex -0.022266648709774017 0.7204344272613525 -0.02889648824930191
			vertex 0.0020930778700858355 0.7204344272613525 -0.05830112844705582
		endloop
	endfacet
	facet normal 0 -1 0
		outer loop
			vertex 0.21326470375061035 0.7204344272613525 0.1245787963271141
			vertex 0.0020930778700858355 0.7204344272613525 -0.05830112844705582
			vertex 0.04084378480911255 0.7204344272613525 -0.08355175703763962
		endloop
	endfacet
	facet normal 0 -1 0
		outer loop
			vertex 0.21326470375061035 0.7204344272613525 0.1245787963271141
			vertex 0.04084378480911255 0.7204344272613525 -0.08355175703763962
			vertex 0.09134470671415329 0.7204344272613525 -0.10292698442935944
		endloop
	endfacet
	facet normal 0 -1 0
		outer loop
			vertex 0.21326470375061035 0.7204344272613525 0.1245787963271141
			vertex 0.09134470671415329 0.7204344272613525 -0.10292698442935944
			vertex 0.1501542627811432 0.7204344272613525 -0.11510693281888962
		endloop
	endfacet
	facet normal 0 -1 0
		outer loop
			vertex 0.21326470375061035 0.7204344272613525 0.1245787963271141
			vertex 0.1501542627811432 0.7204344272613525 -0.11510693281888962
			vertex 0.21326470375061035 0.7204344272613525 -0.11926113814115524
		endloop
	endfacet
	facet normal 0 -1 0
		outer loop
			vertex 0.21326470375061035 0.7204344272613525 0.1245787963271141
			vertex 0.21326470375061035 0.7204344272613525 -0.11926113814115524
			vertex 0.45710471272468567 0.7204344272613525 0.1245787963271141
		endloop
	endfacet
	facet normal 0 -1 0
		outer loop
			vertex 0.45710471272468567 0.7204344272613525 0.1245787963271141
			vertex 0.21326470375061035 0.7204344272613525 -0.11926113814115524
			vertex 0.2763751447200775 0.7204344272613525 -0.11510693281888962
		endloop
	endfacet
	facet normal 0 -1 0
		outer loop
			vertex 0.45710471272468567 0.7204344272613525 0.1245787963271141
			vertex 0.2763751447200775 0.7204344272613525 -0.11510693281888962
			vertex 0.3351846933364868 0.7204344272613525 -0.10292698442935944
		endloop
	endfacet
	facet normal 0 -1 0
		outer loop
			vertex 0.45710471272468567 0.7204344272613525 0.1245787963271141
			vertex 0.3351846933364868 0.7204344272613525 -0.10292698442935944
			vertex 0.38568562269210815 0.7204344272613525 -0.08355175703763962
		endloop
	endfacet
	facet normal 0 -1 0
		outer loop
			vertex 0.45710471272468567 0.7204344272613525 0.1245787963271141
			vertex 0.38568562269210815 0.7204344272613525 -0.08355175703763962
			vertex 0.4244363605976105 0.7204344272613525 -0.05830112844705582
		endloop
	endfacet
	facet normal 0 -1 0
		outer loop
			vertex 0.45710471272468567 0.7204344272613525 0.1245787963271141
			vertex 0.4244363605976105 0.7204344272613525 -0.05830112844705582
			vertex 0.4487960636615753 0.7204344272613525 -0.02889648824930191
		endloop
	endfacet
	facet normal 0 -1 0
		outer loop
			vertex 0.45710471272468567 0.7204344272613525 0.1245787963271141
			vertex 0.4487960636615753 0.7204344272613525 -0.02889648824930191
			vertex 0.45710471272468567 0.7204344272613525 0.0026586868334561586
		endloop
	endfacet
	facet normal 0 0 -1
		outer loop
			vertex -0.03057529777288437 0.7204344272613525 0.1245787963271141
			vertex 0.21326470375061035 0.6594744324684143 0.1245787963271141
			vertex -0.03057529777288437 0.6594744324684143 0.1245787963271141
		endloop
	endfacet
	facet normal 0 0 -1
		outer loop
			vertex 0.21326470375061035 0.6594744324684143 0.1245787963271141
			vertex -0.03057529777288437 0.7204344272613525 0.1245787963271141
			vertex 0.21326470375061035 0.7204344272613525 0.1245787963271141
		endloop
	endfacet
	facet normal 1 0 0
		outer loop
			vertex 0.45710471272468567 0.7204344272613525 0.0026586868334561586
			vertex 0.45710471272468567 0.7509143948554993 0.07885879278182983
			vertex 0.45710471272468567 0.7204344272613525 0.1245787963271141
		endloop
	endfacet
	facet normal 1 0 0
		outer loop
			vertex 0.45710471272468567 0.7509143948554993 0.07885879278182983
			vertex 0.45710471272468567 0.7204344272613525 0.0026586868334561586
			vertex 0.45710471272468567 0.7509143948554993 0.0026586868334561586
		endloop
	endfacet
	facet normal 0 0 -1
		outer loop
			vertex 0.21326470375061035 0.7204344272613525 0.1245787963271141
			vertex 0.45710471272468567 0.6594744324684143 0.1245787963271141
			vertex 0.21326470375061035 0.6594744324684143 0.1245787963271141
		endloop
	endfacet
	facet normal 0 0 -1
		outer loop
			vertex 0.45710471272468567 0.6594744324684143 0.1245787963271141
			vertex 0.21326470375061035 0.7204344272613525 0.1245787963271141
			vertex 0.45710471272468567 0.7204344272613525 0.1245787963271141
		endloop
	endfacet
	facet normal 0 1 0
		outer loop
			vertex -0.03057529777288437 0.7509143948554993 0.07885879278182983
			vertex -0.022266648709774017 0.7509143948554993 0.03421395644545555
			vertex -0.03057529777288437 0.7509143948554993 0.0026586868334561586
		endloop
	endfacet
	facet normal 0 1 0
		outer loop
			vertex -0.022266648709774017 0.7509143948554993 0.03421395644545555
			vertex -0.03057529777288437 0.7509143948554993 0.07885879278182983
			vertex 0.0020930778700858355 0.7509143948554993 0.06361878663301468
		endloop
	endfacet
	facet normal -1 0 0
		outer loop
			vertex -0.03057529777288437 0.7204344272613525 0.1245787963271141
			vertex -0.03057529777288437 0.7509143948554993 0.07885879278182983
			vertex -0.03057529777288437 0.7204344272613525 0.0026586868334561586
		endloop
	endfacet
	facet normal -1 0 0
		outer loop
			vertex -0.03057529777288437 0.7204344272613525 0.0026586868334561586
			vertex -0.03057529777288437 0.7509143948554993 0.07885879278182983
			vertex -0.03057529777288437 0.7509143948554993 0.0026586868334561586
		endloop
	endfacet
	facet normal -1 0 0
		outer loop
			vertex -0.03057529777288437 0.6594744324684143 0.1245787963271141
			vertex -0.03057529777288437 0.6594744324684143 0.15505880117416382
			vertex -0.03057529777288437 0.7204344272613525 0.1245787963271141
		endloop
	endfacet
	facet normal 0 1 0
		outer loop
			vertex 0.45710471272468567 0.7509143948554993 0.07885879278182983
			vertex 0.4487960636615753 0.7509143948554993 0.03421395644545555
			vertex 0.4244363605976105 0.7509143948554993 0.06361878663301468
		endloop
	endfacet
	facet normal 0 1 0
		outer loop
			vertex 0.4487960636615753 0.7509143948554993 0.03421395644545555
			vertex 0.45710471272468567 0.7509143948554993 0.07885879278182983
			vertex 0.45710471272468567 0.7509143948554993 0.0026586868334561586
		endloop
	endfacet
	facet normal -0.7071070964958464 0 -0.7071064658771082
		outer loop
			vertex 0.15230470895767212 0.7204343676567078 0.0026586868334561586
			vertex 0.03038470819592476 0.6594743728637695 0.1245787963271141
			vertex 0.03038470819592476 0.7204343676567078 0.1245787963271141
		endloop
	endfacet
	facet normal 1 0 0
		outer loop
			vertex 0.5180646777153015 0.6594744324684143 3.324979066848755
			vertex 0.5180646777153015 0.689954400062561 3.3402187824249268
			vertex 0.5180646777153015 0.6594744324684143 3.3402187824249268
		endloop
	endfacet
	facet normal 1 0 0
		outer loop
			vertex 0.5180646777153015 0.689954400062561 3.3402187824249268
			vertex 0.5180646777153015 0.6594744324684143 3.324979066848755
			vertex 0.5180646777153015 0.689954400062561 3.324979066848755
		endloop
	endfacet
	facet normal 0 0 1
		outer loop
			vertex 0.5180646777153015 0.689954400062561 3.3402187824249268
			vertex -0.09153527766466141 0.6594744324684143 3.3402187824249268
			vertex 0.5180646777153015 0.6594744324684143 3.3402187824249268
		endloop
	endfacet
	facet normal 0 0 1
		outer loop
			vertex -0.09153527766466141 0.6594744324684143 3.3402187824249268
			vertex 0.5180646777153015 0.689954400062561 3.3402187824249268
			vertex -0.09153527766466141 0.689954400062561 3.3402187824249268
		endloop
	endfacet
	facet normal -1 0 0
		outer loop
			vertex -0.09153527766466141 0.689954400062561 3.324979066848755
			vertex -0.09153527766466141 0.6594744324684143 3.3402187824249268
			vertex -0.09153527766466141 0.689954400062561 3.3402187824249268
		endloop
	endfacet
	facet normal -1 0 0
		outer loop
			vertex -0.09153527766466141 0.6594744324684143 3.3402187824249268
			vertex -0.09153527766466141 0.689954400062561 3.324979066848755
			vertex -0.09153527766466141 0.6594744324684143 3.324979066848755
		endloop
	endfacet
	facet normal 0 0 0
		outer loop
			vertex -0.09153527766466141 0.689954400062561 3.3402187824249268
			vertex -0.09153527766466141 0.689954400062561 3.264019012451172
			vertex -0.09153527766466141 0.689954400062561 3.324979066848755
		endloop
	endfacet
	facet normal 0 1 0
		outer loop
			vertex -0.09153527766466141 0.689954400062561 3.264019012451172
			vertex -0.09153527766466141 0.689954400062561 3.3402187824249268
			vertex -0.02631063386797905 0.689954400062561 3.2182986736297607
		endloop
	endfacet
	facet normal 0 1 0
		outer loop
			vertex -0.02631063386797905 0.689954400062561 3.2182986736297607
			vertex -0.09153527766466141 0.689954400062561 3.3402187824249268
			vertex 0.5180646777153015 0.689954400062561 3.3402187824249268
		endloop
	endfacet
	facet normal 0 1 0
		outer loop
			vertex -0.02631063386797905 0.689954400062561 3.2182986736297607
			vertex 0.5180646777153015 0.689954400062561 3.3402187824249268
			vertex 0.45284003019332886 0.689954400062561 3.2182986736297607
		endloop
	endfacet
	facet normal 0 1 0
		outer loop
			vertex 0.45284003019332886 0.689954400062561 3.2182986736297607
			vertex 0.5180646777153015 0.689954400062561 3.3402187824249268
			vertex 0.5180646777153015 0.689954400062561 3.264019012451172
		endloop
	endfacet
	facet normal 0 0 0
		outer loop
			vertex 0.5180646777153015 0.689954400062561 3.264019012451172
			vertex 0.5180646777153015 0.689954400062561 3.3402187824249268
			vertex 0.5180646777153015 0.689954400062561 3.324979066848755
		endloop
	endfacet
	facet normal 0 -1 0
		outer loop
			vertex 0.5790246725082397 0.6594744324684143 3.264019012451172
			vertex 0.5180646777153015 0.6594744324684143 3.324979066848755
			vertex 0.5180646777153015 0.6594744324684143 3.264019012451172
		endloop
	endfacet
	facet normal 0 -1 0
		outer loop
			vertex 0.5180646777153015 0.6594744324684143 3.324979066848755
			vertex 0.5790246725082397 0.6594744324684143 3.264019012451172
			vertex 0.5790246725082397 0.6594744324684143 3.324979066848755
		endloop
	endfacet
	facet normal 0 -1 0
		outer loop
			vertex -0.09153527766466141 0.6594744324684143 3.264019012451172
			vertex -0.15249529480934143 0.6594744324684143 3.324979066848755
			vertex -0.15249529480934143 0.6594744324684143 3.264019012451172
		endloop
	endfacet
	facet normal 0 -1 0
		outer loop
			vertex -0.15249529480934143 0.6594744324684143 3.324979066848755
			vertex -0.09153527766466141 0.6594744324684143 3.264019012451172
			vertex -0.09153527766466141 0.6594744324684143 3.324979066848755
		endloop
	endfacet
	facet normal 0 -1 0
		outer loop
			vertex -0.09153527766466141 0.6594744324684143 3.324979066848755
			vertex -0.09153527766466141 0.6594744324684143 3.264019012451172
			vertex 0.03038470819592476 0.6594744324684143 3.1785576343536377
		endloop
	endfacet
	facet normal 0 -1 0
		outer loop
			vertex -0.09153527766466141 0.6594744324684143 3.324979066848755
			vertex 0.03038470819592476 0.6594744324684143 3.1785576343536377
			vertex -0.09153527766466141 0.6594744324684143 3.3402187824249268
		endloop
	endfacet
	facet normal 0 -1 0
		outer loop
			vertex -0.09153527766466141 0.6594744324684143 3.3402187824249268
			vertex 0.03038470819592476 0.6594744324684143 3.1785576343536377
			vertex 0.5180646777153015 0.6594744324684143 3.3402187824249268
		endloop
	endfacet
	facet normal 0 -1 0
		outer loop
			vertex 0.5180646777153015 0.6594744324684143 3.3402187824249268
			vertex 0.03038470819592476 0.6594744324684143 3.1785576343536377
			vertex 0.1185990571975708 0.6594744324684143 3.1968274116516113
		endloop
	endfacet
	facet normal 0 -1 0
		outer loop
			vertex 0.5180646777153015 0.6594744324684143 3.3402187824249268
			vertex 0.1185990571975708 0.6594744324684143 3.1968274116516113
			vertex 0.21326470375061035 0.6594744324684143 3.203059196472168
		endloop
	endfacet
	facet normal 0 -1 0
		outer loop
			vertex 0.5180646777153015 0.6594744324684143 3.3402187824249268
			vertex 0.21326470375061035 0.6594744324684143 3.203059196472168
			vertex 0.3079303503036499 0.6594744324684143 3.1968274116516113
		endloop
	endfacet
	facet normal 0 -1 0
		outer loop
			vertex 0.5180646777153015 0.6594744324684143 3.3402187824249268
			vertex 0.3079303503036499 0.6594744324684143 3.1968274116516113
			vertex 0.39614471793174744 0.6594744324684143 3.1785576343536377
		endloop
	endfacet
	facet normal 0 -1 0
		outer loop
			vertex 0.5180646777153015 0.6594744324684143 3.3402187824249268
			vertex 0.39614471793174744 0.6594744324684143 3.1785576343536377
			vertex 0.5180646777153015 0.6594744324684143 3.264019012451172
		endloop
	endfacet
	facet normal 0 0 0
		outer loop
			vertex 0.5180646777153015 0.6594744324684143 3.3402187824249268
			vertex 0.5180646777153015 0.6594744324684143 3.264019012451172
			vertex 0.5180646777153015 0.6594744324684143 3.324979066848755
		endloop
	endfacet
	facet normal 0.5739914498572067 0 -0.8188612919724694
		outer loop
			vertex 0.39614471793174744 0.6594744324684143 3.1785576343536377
			vertex 0.5180646777153015 0.689954400062561 3.264019012451172
			vertex 0.5180646777153015 0.6594744324684143 3.264019012451172
		endloop
	endfacet
	facet normal 0.5739937702728123 -0.000013842550823069132 -0.8188596653251312
		outer loop
			vertex 0.5180646777153015 0.689954400062561 3.264019012451172
			vertex 0.39614471793174744 0.6594744324684143 3.1785576343536377
			vertex 0.45284003019332886 0.689954400062561 3.2182986736297607
		endloop
	endfacet
	facet normal 0.5739887802741208 0 -0.8188631632448898
		outer loop
			vertex 0.45284003019332886 0.689954400062561 3.2182986736297607
			vertex 0.39614471793174744 0.6594744324684143 3.1785576343536377
			vertex 0.39614471793174744 0.689954400062561 3.1785576343536377
		endloop
	endfacet
	facet normal 0 0 1
		outer loop
			vertex -0.09153527766466141 0.689954400062561 3.324979066848755
			vertex -0.15249529480934143 0.6594744324684143 3.324979066848755
			vertex -0.09153527766466141 0.6594744324684143 3.324979066848755
		endloop
	endfacet
	facet normal 0 0 -1
		outer loop
			vertex 0.5180646777153015 0.689954400062561 3.264019012451172
			vertex 0.5790246725082397 0.6594744324684143 3.264019012451172
			vertex 0.5180646777153015 0.6594744324684143 3.264019012451172
		endloop
	endfacet
	facet normal 0 -1 0
		outer loop
			vertex 0.47189605236053467 0.689954400062561 3.1494946479797363
			vertex 0.45284003019332886 0.689954400062561 3.2182986736297607
			vertex 0.39614471793174744 0.689954400062561 3.1785576343536377
		endloop
	endfacet
	facet normal 0 -1 0
		outer loop
			vertex 0.45284003019332886 0.689954400062561 3.2182986736297607
			vertex 0.47189605236053467 0.689954400062561 3.1494946479797363
			vertex 0.5028246641159058 0.689954400062561 3.1991217136383057
		endloop
	endfacet
	facet normal 0 -1 0
		outer loop
			vertex 0.5028246641159058 0.689954400062561 3.1991217136383057
			vertex 0.47189605236053467 0.689954400062561 3.1494946479797363
			vertex 0.5028246641159058 0.689954400062561 3.1711742877960205
		endloop
	endfacet
	facet normal 0 -1 0
		outer loop
			vertex -0.045366667211055756 0.689954400062561 3.1494946479797363
			vertex -0.07629527896642685 0.689954400062561 3.1991217136383057
			vertex -0.07629527896642685 0.689954400062561 3.1711742877960205
		endloop
	endfacet
	facet normal 0 -1 0
		outer loop
			vertex -0.07629527896642685 0.689954400062561 3.1991217136383057
			vertex -0.045366667211055756 0.689954400062561 3.1494946479797363
			vertex -0.02631063386797905 0.689954400062561 3.2182986736297607
		endloop
	endfacet
	facet normal 0 -1 0
		outer loop
			vertex -0.02631063386797905 0.689954400062561 3.2182986736297607
			vertex -0.045366667211055756 0.689954400062561 3.1494946479797363
			vertex 0.03038470819592476 0.689954400062561 3.1785576343536377
		endloop
	endfacet
	facet normal -0.5739937923101763 0 -0.8188596499946631
		outer loop
			vertex -0.02631063386797905 0.689954400062561 3.2182986736297607
			vertex -0.09153527766466141 0.6594744324684143 3.264019012451172
			vertex -0.09153527766466141 0.689954400062561 3.264019012451172
		endloop
	endfacet
	facet normal -0.5739913675192532 -0.000007738361981213309 -0.818861349651756
		outer loop
			vertex -0.09153527766466141 0.6594744324684143 3.264019012451172
			vertex -0.02631063386797905 0.689954400062561 3.2182986736297607
			vertex 0.03038470819592476 0.6594744324684143 3.1785576343536377
		endloop
	endfacet
	facet normal -0.5739885779587339 0 -0.8188633050594653
		outer loop
			vertex 0.03038470819592476 0.6594744324684143 3.1785576343536377
			vertex -0.02631063386797905 0.689954400062561 3.2182986736297607
			vertex 0.03038470819592476 0.689954400062561 3.1785576343536377
		endloop
	endfacet
	facet normal 0 0 -1
		outer loop
			vertex -0.015335296280682087 0.6594744324684143 1.67905855178833
			vertex 0.015144706703722477 0.689954400062561 1.67905855178833
			vertex 0.4418647289276123 0.6594744324684143 1.67905855178833
		endloop
	endfacet
	facet normal 0 0 -1
		outer loop
			vertex 0.4113847017288208 0.689954400062561 1.67905855178833
			vertex 0.4418647289276123 0.6594744324684143 1.67905855178833
			vertex 0.015144706703722477 0.689954400062561 1.67905855178833
		endloop
	endfacet
	facet normal 1 0 0
		outer loop
			vertex 0.4418647289276123 0.7509143948554993 2.197218894958496
			vertex 0.4418647289276123 0.6594744324684143 2.547738790512085
			vertex 0.4418647289276123 0.6594744324684143 1.67905855178833
		endloop
	endfacet
	facet normal 1 0 0
		outer loop
			vertex 0.4418647289276123 0.7509143948554993 2.197218894958496
			vertex 0.4418647289276123 0.6594744324684143 1.67905855178833
			vertex 0.4418647289276123 0.7509143948554993 2.044818639755249
		endloop
	endfacet
	facet normal 1 0 0
		outer loop
			vertex 0.4418647289276123 0.7509143948554993 2.044818639755249
			vertex 0.4418647289276123 0.6594744324684143 1.67905855178833
			vertex 0.4418647289276123 0.689954400062561 1.7857387065887451
		endloop
	endfacet
	facet normal 1 0 0
		outer loop
			vertex 0.4418647289276123 0.689954400062561 1.7857387065887451
			vertex 0.4418647289276123 0.6594744324684143 1.67905855178833
			vertex 0.4418647289276123 0.689954400062561 1.740018606185913
		endloop
	endfacet
	facet normal 0 -1 0
		outer loop
			vertex 0.5028247237205505 0.6594744324684143 2.547738790512085
			vertex 0.4418647289276123 0.6594744324684143 2.578218698501587
			vertex 0.4418647289276123 0.6594744324684143 2.547738790512085
		endloop
	endfacet
	facet normal 0 -1 0
		outer loop
			vertex 0.4418647289276123 0.6594744324684143 2.578218698501587
			vertex 0.5028247237205505 0.6594744324684143 2.547738790512085
			vertex 0.5028247237205505 0.6594744324684143 2.578218698501587
		endloop
	endfacet
	facet normal 0 -1 0
		outer loop
			vertex 0.4418647289276123 0.6594744324684143 1.67905855178833
			vertex -0.015335296280682087 0.6594744324684143 2.547738790512085
			vertex -0.015335296280682087 0.6594744324684143 1.67905855178833
		endloop
	endfacet
	facet normal 0 -1 0
		outer loop
			vertex -0.015335296280682087 0.6594744324684143 2.547738790512085
			vertex 0.4418647289276123 0.6594744324684143 1.67905855178833
			vertex -0.015335296280682087 0.6594744324684143 2.578218698501587
		endloop
	endfacet
	facet normal 0 -1 0
		outer loop
			vertex -0.015335296280682087 0.6594744324684143 2.578218698501587
			vertex 0.4418647289276123 0.6594744324684143 1.67905855178833
			vertex -0.015335296280682087 0.6594744324684143 2.867778778076172
		endloop
	endfacet
	facet normal 0 -1 0
		outer loop
			vertex -0.015335296280682087 0.6594744324684143 2.867778778076172
			vertex 0.4418647289276123 0.6594744324684143 1.67905855178833
			vertex 0.4418647289276123 0.6594744324684143 2.867778778076172
		endloop
	endfacet
	facet normal 0 0 0
		outer loop
			vertex 0.4418647289276123 0.6594744324684143 2.867778778076172
			vertex 0.4418647289276123 0.6594744324684143 1.67905855178833
			vertex 0.4418647289276123 0.6594744324684143 2.547738790512085
		endloop
	endfacet
	facet normal 0 0 0
		outer loop
			vertex 0.4418647289276123 0.6594744324684143 2.867778778076172
			vertex 0.4418647289276123 0.6594744324684143 2.547738790512085
			vertex 0.4418647289276123 0.6594744324684143 2.578218698501587
		endloop
	endfacet
	facet normal 0 -1 0
		outer loop
			vertex -0.015335296280682087 0.6594744324684143 2.547738790512085
			vertex -0.07629530131816864 0.6594744324684143 2.578218698501587
			vertex -0.07629530131816864 0.6594744324684143 2.547738790512085
		endloop
	endfacet
	facet normal 0 -1 0
		outer loop
			vertex -0.07629530131816864 0.6594744324684143 2.578218698501587
			vertex -0.015335296280682087 0.6594744324684143 2.547738790512085
			vertex -0.015335296280682087 0.6594744324684143 2.578218698501587
		endloop
	endfacet
	facet normal 0 -1 0
		outer loop
			vertex -0.015335296280682087 0.6289944052696228 2.867778778076172
			vertex 0.015144706703722477 0.6289944052696228 2.898258686065674
			vertex -0.015335296280682087 0.6289944052696228 3.111618757247925
		endloop
	endfacet
	facet normal 0 -1 0
		outer loop
			vertex 0.015144706703722477 0.6289944052696228 2.898258686065674
			vertex -0.015335296280682087 0.6289944052696228 2.867778778076172
			vertex 0.4418647289276123 0.6289944052696228 2.867778778076172
		endloop
	endfacet
	facet normal 0 -1 0
		outer loop
			vertex 0.015144706703722477 0.6289944052696228 2.898258686065674
			vertex 0.4418647289276123 0.6289944052696228 2.867778778076172
			vertex 0.4113847017288208 0.6289944052696228 2.898258686065674
		endloop
	endfacet
	facet normal 0 -1 0
		outer loop
			vertex 0.4113847017288208 0.6289944052696228 2.898258686065674
			vertex 0.4418647289276123 0.6289944052696228 2.867778778076172
			vertex 0.4113847017288208 0.6289944052696228 3.111618757247925
		endloop
	endfacet
	facet normal 0 -1 0
		outer loop
			vertex 0.4113847017288208 0.6289944052696228 3.111618757247925
			vertex 0.4418647289276123 0.6289944052696228 2.867778778076172
			vertex 0.4418647289276123 0.6289944052696228 3.111618757247925
		endloop
	endfacet
	facet normal 0 -1 0
		outer loop
			vertex 0.015144706703722477 0.6289944052696228 3.111618757247925
			vertex -0.015335296280682087 0.6289944052696228 3.111618757247925
			vertex 0.015144706703722477 0.6289944052696228 2.898258686065674
		endloop
	endfacet
	facet normal 0 0 -1
		outer loop
			vertex -0.015335296280682087 0.6594744324684143 2.867778778076172
			vertex 0.4418647289276123 0.6289944052696228 2.867778778076172
			vertex -0.015335296280682087 0.6289944052696228 2.867778778076172
		endloop
	endfacet
	facet normal 0 0 -1
		outer loop
			vertex 0.4418647289276123 0.6289944052696228 2.867778778076172
			vertex -0.015335296280682087 0.6594744324684143 2.867778778076172
			vertex 0.4418647289276123 0.6594744324684143 2.867778778076172
		endloop
	endfacet
	facet normal -1 0 0
		outer loop
			vertex -0.015335296280682087 0.6594744324684143 2.989698648452759
			vertex -0.015335296280682087 0.6289944052696228 3.111618757247925
			vertex -0.015335296280682087 0.6594744324684143 3.1420986652374268
		endloop
	endfacet
	facet normal -1 0 0
		outer loop
			vertex -0.015335296280682087 0.6289944052696228 3.111618757247925
			vertex -0.015335296280682087 0.6594744324684143 2.989698648452759
			vertex -0.015335296280682087 0.6289944052696228 2.867778778076172
		endloop
	endfacet
	facet normal -1 0 0
		outer loop
			vertex -0.015335296280682087 0.6289944052696228 2.867778778076172
			vertex -0.015335296280682087 0.6594744324684143 2.989698648452759
			vertex -0.015335296280682087 0.6594744324684143 2.898258686065674
		endloop
	endfacet
	facet normal -1 0 0
		outer loop
			vertex -0.015335296280682087 0.6289944052696228 2.867778778076172
			vertex -0.015335296280682087 0.6594744324684143 2.898258686065674
			vertex -0.015335296280682087 0.6594744324684143 2.8793411254882812
		endloop
	endfacet
	facet normal -1 0 0
		outer loop
			vertex -0.015335296280682087 0.6289944052696228 2.867778778076172
			vertex -0.015335296280682087 0.6594744324684143 2.8793411254882812
			vertex -0.015335296280682087 0.6594744324684143 2.867778778076172
		endloop
	endfacet
	facet normal -1 0 0
		outer loop
			vertex -0.015335296280682087 0.689954400062561 2.8793411254882812
			vertex -0.015335296280682087 0.6594744324684143 2.898258686065674
			vertex -0.015335296280682087 0.689954400062561 2.898258686065674
		endloop
	endfacet
	facet normal -1 0 0
		outer loop
			vertex -0.015335296280682087 0.6594744324684143 2.898258686065674
			vertex -0.015335296280682087 0.689954400062561 2.8793411254882812
			vertex -0.015335296280682087 0.6594744324684143 2.8793411254882812
		endloop
	endfacet
	facet normal -1 0 0
		outer loop
			vertex -0.015335296280682087 0.689954400062561 2.867778778076172
			vertex -0.015335296280682087 0.6594744324684143 2.8793411254882812
			vertex -0.015335296280682087 0.689954400062561 2.8793411254882812
		endloop
	endfacet
	facet normal -1 0 0
		outer loop
			vertex -0.015335296280682087 0.6594744324684143 2.8793411254882812
			vertex -0.015335296280682087 0.689954400062561 2.867778778076172
			vertex -0.015335296280682087 0.6594744324684143 2.867778778076172
		endloop
	endfacet
	facet normal 0 0 1
		outer loop
			vertex 0.4113847017288208 0.6594744324684143 2.898258686065674
			vertex 0.015144706703722477 0.6289944052696228 2.898258686065674
			vertex 0.4113847017288208 0.6289944052696228 2.898258686065674
		endloop
	endfacet
	facet normal 0 0 1
		outer loop
			vertex 0.015144706703722477 0.6289944052696228 2.898258686065674
			vertex 0.4113847017288208 0.6594744324684143 2.898258686065674
			vertex 0.015144706703722477 0.6594744324684143 2.898258686065674
		endloop
	endfacet
	facet normal -1 0 0
		outer loop
			vertex 0.4113847017288208 0.6594744324684143 2.898258686065674
			vertex 0.4113847017288208 0.6289944052696228 3.111618757247925
			vertex 0.4113847017288208 0.6594744324684143 3.1420986652374268
		endloop
	endfacet
	facet normal -1 0 0
		outer loop
			vertex 0.4113847017288208 0.6289944052696228 3.111618757247925
			vertex 0.4113847017288208 0.6594744324684143 2.898258686065674
			vertex 0.4113847017288208 0.6289944052696228 2.898258686065674
		endloop
	endfacet
	facet normal 0 -0.7071053984131049 0.707108163957286
		outer loop
			vertex 0.4418647289276123 0.6289944052696228 3.111618757247925
			vertex 0.4113847017288208 0.6594744324684143 3.1420986652374268
			vertex 0.4113847017288208 0.6289944052696228 3.111618757247925
		endloop
	endfacet
	facet normal 0 -0.7071053984131049 0.707108163957286
		outer loop
			vertex 0.4113847017288208 0.6594744324684143 3.1420986652374268
			vertex 0.4418647289276123 0.6289944052696228 3.111618757247925
			vertex 0.4418647289276123 0.6594744324684143 3.1420986652374268
		endloop
	endfacet
	facet normal 1 0 0
		outer loop
			vertex 0.015144706703722477 0.6289944052696228 3.111618757247925
			vertex 0.015144706703722477 0.6594744324684143 2.898258686065674
			vertex 0.015144706703722477 0.6594744324684143 3.1420986652374268
		endloop
	endfacet
	facet normal 1 0 0
		outer loop
			vertex 0.015144706703722477 0.6594744324684143 2.898258686065674
			vertex 0.015144706703722477 0.6289944052696228 3.111618757247925
			vertex 0.015144706703722477 0.6289944052696228 2.898258686065674
		endloop
	endfacet
	facet normal 0 -0.7071053984131049 0.707108163957286
		outer loop
			vertex 0.015144706703722477 0.6289944052696228 3.111618757247925
			vertex -0.015335296280682087 0.6594744324684143 3.1420986652374268
			vertex -0.015335296280682087 0.6289944052696228 3.111618757247925
		endloop
	endfacet
	facet normal 0 -0.7071053984131049 0.707108163957286
		outer loop
			vertex -0.015335296280682087 0.6594744324684143 3.1420986652374268
			vertex 0.015144706703722477 0.6289944052696228 3.111618757247925
			vertex 0.015144706703722477 0.6594744324684143 3.1420986652374268
		endloop
	endfacet
	facet normal 0 -1 0
		outer loop
			vertex 0.47189611196517944 0.6594744324684143 2.8908629417419434
			vertex 0.4418647289276123 0.6594744324684143 3.1420986652374268
			vertex 0.4418647289276123 0.6594744324684143 2.8793411254882812
		endloop
	endfacet
	facet normal 0 -1 0
		outer loop
			vertex 0.4418647289276123 0.6594744324684143 3.1420986652374268
			vertex 0.47189611196517944 0.6594744324684143 2.8908629417419434
			vertex 0.47189611196517944 0.6594744324684143 3.1494944095611572
		endloop
	endfacet
	facet normal 0 -1 0
		outer loop
			vertex 0.47189611196517944 0.6594744324684143 3.1494944095611572
			vertex 0.47189611196517944 0.6594744324684143 2.8908629417419434
			vertex 0.5300222039222717 0.6594744324684143 3.111618757247925
		endloop
	endfacet
	facet normal 0 -1 0
		outer loop
			vertex 0.5300222039222717 0.6594744324684143 3.111618757247925
			vertex 0.47189611196517944 0.6594744324684143 2.8908629417419434
			vertex 0.5300222039222717 0.6594744324684143 2.928738832473755
		endloop
	endfacet
	facet normal 0 -1 0
		outer loop
			vertex 0.5300222039222717 0.6594744324684143 3.111618757247925
			vertex 0.5300222039222717 0.6594744324684143 2.928738832473755
			vertex 0.566561758518219 0.6594744324684143 3.067511558532715
		endloop
	endfacet
	facet normal 0 -1 0
		outer loop
			vertex 0.566561758518219 0.6594744324684143 3.067511558532715
			vertex 0.5300222039222717 0.6594744324684143 2.928738832473755
			vertex 0.566561758518219 0.6594744324684143 2.972846031188965
		endloop
	endfacet
	facet normal 0 -1 0
		outer loop
			vertex 0.566561758518219 0.6594744324684143 3.067511558532715
			vertex 0.566561758518219 0.6594744324684143 2.972846031188965
			vertex 0.5790247321128845 0.6594744324684143 3.02017879486084
		endloop
	endfacet
	facet normal 0 -1 0
		outer loop
			vertex 0.4113847017288208 0.6594744324684143 2.898258686065674
			vertex 0.015144706703722477 0.6594744324684143 3.1420986652374268
			vertex 0.015144706703722477 0.6594744324684143 2.898258686065674
		endloop
	endfacet
	facet normal 0 -1 0
		outer loop
			vertex 0.015144706703722477 0.6594744324684143 3.1420986652374268
			vertex 0.4113847017288208 0.6594744324684143 2.898258686065674
			vertex 0.03038470819592476 0.6594744324684143 3.1785573959350586
		endloop
	endfacet
	facet normal 0 -1 0
		outer loop
			vertex 0.03038470819592476 0.6594744324684143 3.1785573959350586
			vertex 0.4113847017288208 0.6594744324684143 2.898258686065674
			vertex 0.1185990497469902 0.6594744324684143 3.1968271732330322
		endloop
	endfacet
	facet normal 0 -1 0
		outer loop
			vertex 0.1185990497469902 0.6594744324684143 3.1968271732330322
			vertex 0.4113847017288208 0.6594744324684143 2.898258686065674
			vertex 0.21326470375061035 0.6594744324684143 3.2030587196350098
		endloop
	endfacet
	facet normal 0 -1 0
		outer loop
			vertex 0.21326470375061035 0.6594744324684143 3.2030587196350098
			vertex 0.4113847017288208 0.6594744324684143 2.898258686065674
			vertex 0.3079303503036499 0.6594744324684143 3.1968271732330322
		endloop
	endfacet
	facet normal 0 -1 0
		outer loop
			vertex 0.3079303503036499 0.6594744324684143 3.1968271732330322
			vertex 0.4113847017288208 0.6594744324684143 2.898258686065674
			vertex 0.39614471793174744 0.6594744324684143 3.1785573959350586
		endloop
	endfacet
	facet normal 0 -1 0
		outer loop
			vertex 0.39614471793174744 0.6594744324684143 3.1785573959350586
			vertex 0.4113847017288208 0.6594744324684143 2.898258686065674
			vertex 0.4113847017288208 0.6594744324684143 3.1420986652374268
		endloop
	endfacet
	facet normal 0 -1 0
		outer loop
			vertex 0.39614471793174744 0.6594744324684143 3.1785573959350586
			vertex 0.4113847017288208 0.6594744324684143 3.1420986652374268
			vertex 0.47189611196517944 0.6594744324684143 3.1494944095611572
		endloop
	endfacet
	facet normal 0 -1 0
		outer loop
			vertex 0.47189611196517944 0.6594744324684143 3.1494944095611572
			vertex 0.4113847017288208 0.6594744324684143 3.1420986652374268
			vertex 0.4418647289276123 0.6594744324684143 3.1420986652374268
		endloop
	endfacet
	facet normal 0 -1 0
		outer loop
			vertex -0.015335296280682087 0.6594744324684143 2.867778778076172
			vertex -0.2744153141975403 0.6594744324684143 2.959218740463257
			vertex -0.2744153141975403 0.6594744324684143 2.867778778076172
		endloop
	endfacet
	facet normal 0 -1 0
		outer loop
			vertex -0.2744153141975403 0.6594744324684143 2.959218740463257
			vertex -0.015335296280682087 0.6594744324684143 2.867778778076172
			vertex -0.15249529480934143 0.6594744324684143 3.02017879486084
		endloop
	endfacet
	facet normal 0 -1 0
		outer loop
			vertex -0.15249529480934143 0.6594744324684143 3.02017879486084
			vertex -0.015335296280682087 0.6594744324684143 2.867778778076172
			vertex -0.1400323510169983 0.6594744324684143 3.067511558532715
		endloop
	endfacet
	facet normal 0 -1 0
		outer loop
			vertex -0.1400323510169983 0.6594744324684143 3.067511558532715
			vertex -0.015335296280682087 0.6594744324684143 2.867778778076172
			vertex -0.10349273681640625 0.6594744324684143 3.111618757247925
		endloop
	endfacet
	facet normal 0 -1 0
		outer loop
			vertex -0.10349273681640625 0.6594744324684143 3.111618757247925
			vertex -0.015335296280682087 0.6594744324684143 2.867778778076172
			vertex -0.045366667211055756 0.6594744324684143 3.1494944095611572
		endloop
	endfacet
	facet normal 0 -1 0
		outer loop
			vertex -0.045366667211055756 0.6594744324684143 3.1494944095611572
			vertex -0.015335296280682087 0.6594744324684143 2.867778778076172
			vertex -0.015335296280682087 0.6594744324684143 3.1420986652374268
		endloop
	endfacet
	facet normal 0 -1 0
		outer loop
			vertex -0.045366667211055756 0.6594744324684143 3.1494944095611572
			vertex -0.015335296280682087 0.6594744324684143 3.1420986652374268
			vertex 0.03038470819592476 0.6594744324684143 3.1785573959350586
		endloop
	endfacet
	facet normal 0 0 0
		outer loop
			vertex -0.015335296280682087 0.6594744324684143 3.1420986652374268
			vertex -0.015335296280682087 0.6594744324684143 2.867778778076172
			vertex -0.015335296280682087 0.6594744324684143 2.8793411254882812
		endloop
	endfacet
	facet normal 0 0 0
		outer loop
			vertex -0.015335296280682087 0.6594744324684143 3.1420986652374268
			vertex -0.015335296280682087 0.6594744324684143 2.8793411254882812
			vertex -0.015335296280682087 0.6594744324684143 2.898258686065674
		endloop
	endfacet
	facet normal 0 0 0
		outer loop
			vertex -0.015335296280682087 0.6594744324684143 3.1420986652374268
			vertex -0.015335296280682087 0.6594744324684143 2.898258686065674
			vertex -0.015335296280682087 0.6594744324684143 2.989698648452759
		endloop
	endfacet
	facet normal 0 -1 0
		outer loop
			vertex 0.03038470819592476 0.6594744324684143 3.1785573959350586
			vertex -0.015335296280682087 0.6594744324684143 3.1420986652374268
			vertex 0.015144706703722477 0.6594744324684143 3.1420986652374268
		endloop
	endfacet
	facet normal -0.44721443186968485 0 0.8944267728145638
		outer loop
			vertex -0.2672311067581177 0.689954400062561 2.962810754776001
			vertex -0.15249529480934143 0.6594744324684143 3.02017879486084
			vertex -0.15249529480934143 0.689954400062561 3.02017879486084
		endloop
	endfacet
	facet normal -0.4472138578605059 0.000002700924503404327 0.894427059815516
		outer loop
			vertex -0.15249529480934143 0.6594744324684143 3.02017879486084
			vertex -0.2672311067581177 0.689954400062561 2.962810754776001
			vertex -0.2744153141975403 0.6594744324684143 2.959218740463257
		endloop
	endfacet
	facet normal -0.4472046905655959 0 0.894431643411686
		outer loop
			vertex -0.2744153141975403 0.6594744324684143 2.959218740463257
			vertex -0.2672311067581177 0.689954400062561 2.962810754776001
			vertex -0.2744153141975403 0.689954400062561 2.959218740463257
		endloop
	endfacet
	facet normal 0 -1 0
		outer loop
			vertex -0.2744153141975403 0.6594744324684143 2.867778778076172
			vertex -0.457295298576355 0.6594744324684143 2.959218740463257
			vertex -0.457295298576355 0.6594744324684143 2.867778778076172
		endloop
	endfacet
	facet normal 0 -1 0
		outer loop
			vertex -0.457295298576355 0.6594744324684143 2.959218740463257
			vertex -0.2744153141975403 0.6594744324684143 2.867778778076172
			vertex -0.2744153141975403 0.6594744324684143 2.959218740463257
		endloop
	endfacet
	facet normal 0 0 1
		outer loop
			vertex -0.2744153141975403 0.689954400062561 2.959218740463257
			vertex -0.457295298576355 0.6594744324684143 2.959218740463257
			vertex -0.2744153141975403 0.6594744324684143 2.959218740463257
		endloop
	endfacet
	facet normal 0 0 1
		outer loop
			vertex -0.457295298576355 0.6594744324684143 2.959218740463257
			vertex -0.2744153141975403 0.689954400062561 2.959218740463257
			vertex -0.457295298576355 0.689954400062561 2.959218740463257
		endloop
	endfacet
	facet normal 0 0 0
		outer loop
			vertex -0.457295298576355 0.689954400062561 2.959218740463257
			vertex -0.2744153141975403 0.689954400062561 2.959218740463257
			vertex -0.447135329246521 0.689954400062561 2.959218740463257
		endloop
	endfacet
	facet normal 0 1 0
		outer loop
			vertex -0.2672311067581177 0.689954400062561 2.962810754776001
			vertex -0.2744153141975403 0.689954400062561 2.872858762741089
			vertex -0.2744153141975403 0.689954400062561 2.959218740463257
		endloop
	endfacet
	facet normal 0 1 0
		outer loop
			vertex -0.2744153141975403 0.689954400062561 2.872858762741089
			vertex -0.2672311067581177 0.689954400062561 2.962810754776001
			vertex -0.2744153141975403 0.689954400062561 2.867778778076172
		endloop
	endfacet
	facet normal 0 1 0
		outer loop
			vertex -0.2744153141975403 0.689954400062561 2.867778778076172
			vertex -0.2672311067581177 0.689954400062561 2.962810754776001
			vertex -0.015335296280682087 0.689954400062561 2.867778778076172
		endloop
	endfacet
	facet normal 0 1 0
		outer loop
			vertex -0.015335296280682087 0.689954400062561 2.867778778076172
			vertex -0.2672311067581177 0.689954400062561 2.962810754776001
			vertex -0.15249529480934143 0.689954400062561 3.02017879486084
		endloop
	endfacet
	facet normal 0 1 0
		outer loop
			vertex -0.015335296280682087 0.689954400062561 2.867778778076172
			vertex -0.15249529480934143 0.689954400062561 3.02017879486084
			vertex -0.015335296280682087 0.689954400062561 2.959218740463257
		endloop
	endfacet
	facet normal 0 0 0
		outer loop
			vertex -0.015335296280682087 0.689954400062561 2.867778778076172
			vertex -0.015335296280682087 0.689954400062561 2.959218740463257
			vertex -0.015335296280682087 0.689954400062561 2.898258686065674
		endloop
	endfacet
	facet normal 0 0 0
		outer loop
			vertex -0.015335296280682087 0.689954400062561 2.867778778076172
			vertex -0.015335296280682087 0.689954400062561 2.898258686065674
			vertex -0.015335296280682087 0.689954400062561 2.8793411254882812
		endloop
	endfacet
	facet normal 0 0 -1
		outer loop
			vertex -0.457295298576355 0.689954400062561 2.867778778076172
			vertex -0.2744153141975403 0.6594744324684143 2.867778778076172
			vertex -0.457295298576355 0.6594744324684143 2.867778778076172
		endloop
	endfacet
	facet normal 0 0 -1
		outer loop
			vertex -0.2744153141975403 0.6594744324684143 2.867778778076172
			vertex -0.457295298576355 0.689954400062561 2.867778778076172
			vertex -0.015335296280682087 0.6594744324684143 2.867778778076172
		endloop
	endfacet
	facet normal 0 0 -1
		outer loop
			vertex -0.015335296280682087 0.6594744324684143 2.867778778076172
			vertex -0.457295298576355 0.689954400062561 2.867778778076172
			vertex -0.015335296280682087 0.689954400062561 2.867778778076172
		endloop
	endfacet
	facet normal 0 0 0
		outer loop
			vertex -0.015335296280682087 0.689954400062561 2.867778778076172
			vertex -0.457295298576355 0.689954400062561 2.867778778076172
			vertex -0.2744153141975403 0.689954400062561 2.867778778076172
		endloop
	endfacet
	facet normal -1 0 0
		outer loop
			vertex -0.457295298576355 0.689954400062561 2.872858762741089
			vertex -0.457295298576355 0.6594744324684143 2.959218740463257
			vertex -0.457295298576355 0.689954400062561 2.959218740463257
		endloop
	endfacet
	facet normal -1 0 0
		outer loop
			vertex -0.457295298576355 0.6594744324684143 2.959218740463257
			vertex -0.457295298576355 0.689954400062561 2.872858762741089
			vertex -0.457295298576355 0.6594744324684143 2.867778778076172
		endloop
	endfacet
	facet normal -1 0 0
		outer loop
			vertex -0.457295298576355 0.6594744324684143 2.867778778076172
			vertex -0.457295298576355 0.689954400062561 2.872858762741089
			vertex -0.457295298576355 0.689954400062561 2.867778778076172
		endloop
	endfacet
	facet normal 1 0 0
		outer loop
			vertex 0.4418647289276123 0.6289944052696228 3.111618757247925
			vertex 0.4418647289276123 0.6594744324684143 2.8793411254882812
			vertex 0.4418647289276123 0.6594744324684143 3.1420986652374268
		endloop
	endfacet
	facet normal 1 0 0
		outer loop
			vertex 0.4418647289276123 0.6594744324684143 2.8793411254882812
			vertex 0.4418647289276123 0.6289944052696228 3.111618757247925
			vertex 0.4418647289276123 0.6289944052696228 2.867778778076172
		endloop
	endfacet
	facet normal 1 0 0
		outer loop
			vertex 0.4418647289276123 0.6594744324684143 2.8793411254882812
			vertex 0.4418647289276123 0.6289944052696228 2.867778778076172
			vertex 0.4418647289276123 0.6594744324684143 2.867778778076172
		endloop
	endfacet
	facet normal 0 -1 0
		outer loop
			vertex 0.4418647289276123 0.6594744324684143 2.867778778076172
			vertex -0.015335296280682087 0.6594744324684143 2.8793411254882812
			vertex -0.015335296280682087 0.6594744324684143 2.867778778076172
		endloop
	endfacet
	facet normal 0 -1 0
		outer loop
			vertex -0.015335296280682087 0.6594744324684143 2.8793411254882812
			vertex 0.4418647289276123 0.6594744324684143 2.867778778076172
			vertex -0.015335296280682087 0.6594744324684143 2.898258686065674
		endloop
	endfacet
	facet normal 0 -1 0
		outer loop
			vertex -0.015335296280682087 0.6594744324684143 2.898258686065674
			vertex 0.4418647289276123 0.6594744324684143 2.867778778076172
			vertex 0.015144706703722477 0.6594744324684143 2.898258686065674
		endloop
	endfacet
	facet normal 0 -1 0
		outer loop
			vertex -0.015335296280682087 0.6594744324684143 2.898258686065674
			vertex 0.015144706703722477 0.6594744324684143 2.898258686065674
			vertex -0.015335296280682087 0.6594744324684143 2.989698648452759
		endloop
	endfacet
	facet normal 0 -1 0
		outer loop
			vertex -0.015335296280682087 0.6594744324684143 2.989698648452759
			vertex 0.015144706703722477 0.6594744324684143 2.898258686065674
			vertex -0.015335296280682087 0.6594744324684143 3.1420986652374268
		endloop
	endfacet
	facet normal 0 -1 0
		outer loop
			vertex 0.015144706703722477 0.6594744324684143 2.898258686065674
			vertex 0.4418647289276123 0.6594744324684143 2.867778778076172
			vertex 0.4113847017288208 0.6594744324684143 2.898258686065674
		endloop
	endfacet
	facet normal 0 -1 0
		outer loop
			vertex 0.4113847017288208 0.6594744324684143 2.898258686065674
			vertex 0.4418647289276123 0.6594744324684143 2.867778778076172
			vertex 0.4113847017288208 0.6594744324684143 3.1420986652374268
		endloop
	endfacet
	facet normal 0 -1 0
		outer loop
			vertex 0.4113847017288208 0.6594744324684143 3.1420986652374268
			vertex 0.4418647289276123 0.6594744324684143 2.867778778076172
			vertex 0.4418647289276123 0.6594744324684143 3.1420986652374268
		endloop
	endfacet
	facet normal 0 0 0
		outer loop
			vertex 0.4418647289276123 0.6594744324684143 3.1420986652374268
			vertex 0.4418647289276123 0.6594744324684143 2.867778778076172
			vertex 0.4418647289276123 0.6594744324684143 2.8793411254882812
		endloop
	endfacet
	facet normal 0 -1 0
		outer loop
			vertex 0.015144706703722477 0.6594744324684143 3.1420986652374268
			vertex -0.015335296280682087 0.6594744324684143 3.1420986652374268
			vertex 0.015144706703722477 0.6594744324684143 2.898258686065674
		endloop
	endfacet
	facet normal 0 1 0
		outer loop
			vertex -0.447135329246521 0.689954400062561 2.959218740463257
			vertex -0.457295298576355 0.689954400062561 2.872858762741089
			vertex -0.457295298576355 0.689954400062561 2.959218740463257
		endloop
	endfacet
	facet normal 0 1 0
		outer loop
			vertex -0.457295298576355 0.689954400062561 2.872858762741089
			vertex -0.447135329246521 0.689954400062561 2.959218740463257
			vertex -0.457295298576355 0.689954400062561 2.867778778076172
		endloop
	endfacet
	facet normal 0 1 0
		outer loop
			vertex -0.457295298576355 0.689954400062561 2.867778778076172
			vertex -0.447135329246521 0.689954400062561 2.959218740463257
			vertex -0.2744153141975403 0.689954400062561 2.867778778076172
		endloop
	endfacet
	facet normal 0 1 0
		outer loop
			vertex -0.2744153141975403 0.689954400062561 2.867778778076172
			vertex -0.447135329246521 0.689954400062561 2.959218740463257
			vertex -0.2744153141975403 0.689954400062561 2.959218740463257
		endloop
	endfacet
	facet normal 0 0 0
		outer loop
			vertex -0.2744153141975403 0.689954400062561 2.867778778076172
			vertex -0.2744153141975403 0.689954400062561 2.959218740463257
			vertex -0.2744153141975403 0.689954400062561 2.872858762741089
		endloop
	endfacet
	facet normal -1 0 0
		outer loop
			vertex -0.015335296280682087 0.6594744324684143 2.547738790512085
			vertex -0.015335296280682087 0.7509143948554993 2.197218894958496
			vertex -0.015335296280682087 0.6594744324684143 1.67905855178833
		endloop
	endfacet
	facet normal -1 0 0
		outer loop
			vertex -0.015335296280682087 0.6594744324684143 1.67905855178833
			vertex -0.015335296280682087 0.7509143948554993 2.197218894958496
			vertex -0.015335296280682087 0.7509143948554993 2.044818639755249
		endloop
	endfacet
	facet normal -1 0 0
		outer loop
			vertex -0.015335296280682087 0.6594744324684143 1.67905855178833
			vertex -0.015335296280682087 0.7509143948554993 2.044818639755249
			vertex -0.015335296280682087 0.689954400062561 1.7857387065887451
		endloop
	endfacet
	facet normal -1 0 0
		outer loop
			vertex -0.015335296280682087 0.6594744324684143 1.67905855178833
			vertex -0.015335296280682087 0.689954400062561 1.7857387065887451
			vertex -0.015335296280682087 0.689954400062561 1.740018606185913
		endloop
	endfacet
	facet normal 0 1 0
		outer loop
			vertex 0.16047179698944092 0.7204343676567078 0.017898783087730408
			vertex 0.16047179698944092 0.7204343676567078 -0.012581219896674156
			vertex 0.15230470895767212 0.7204343676567078 0.0026586868334561586
		endloop
	endfacet
	facet normal 0 1 0
		outer loop
			vertex 0.16047179698944092 0.7204343676567078 -0.012581219896674156
			vertex 0.16047179698944092 0.7204343676567078 0.017898783087730408
			vertex 0.18278470635414124 0.7204343676567078 0.029055247083306313
		endloop
	endfacet
	facet normal 0 1 0
		outer loop
			vertex 0.18278470635414124 0.7204343676567078 -0.02373768389225006
			vertex 0.16047179698944092 0.7204343676567078 -0.012581219896674156
			vertex 0.18278470635414124 0.7204343676567078 0.029055247083306313
		endloop
	endfacet
	facet normal 0 1 0
		outer loop
			vertex 0.18278470635414124 0.7204343676567078 -0.02373768389225006
			vertex 0.18278470635414124 0.7204343676567078 0.029055247083306313
			vertex 0.21326470375061035 0.7204343676567078 0.033138785511255264
		endloop
	endfacet
	facet normal 0 1 0
		outer loop
			vertex 0.18278470635414124 0.7204343676567078 -0.02373768389225006
			vertex 0.21326470375061035 0.7204343676567078 0.033138785511255264
			vertex 0.21326470375061035 0.7204343676567078 -0.027821317315101624
		endloop
	endfacet
	facet normal 0 1 0
		outer loop
			vertex 0.21326470375061035 0.7204343676567078 -0.027821317315101624
			vertex 0.21326470375061035 0.7204343676567078 0.033138785511255264
			vertex 0.24374470114707947 0.7204343676567078 0.029055247083306313
		endloop
	endfacet
	facet normal 0 1 0
		outer loop
			vertex 0.21326470375061035 0.7204343676567078 -0.027821317315101624
			vertex 0.24374470114707947 0.7204343676567078 0.029055247083306313
			vertex 0.24374470114707947 0.7204343676567078 -0.02373768389225006
		endloop
	endfacet
	facet normal 0 1 0
		outer loop
			vertex 0.24374470114707947 0.7204343676567078 -0.02373768389225006
			vertex 0.24374470114707947 0.7204343676567078 0.029055247083306313
			vertex 0.2660576105117798 0.7204343676567078 0.017898783087730408
		endloop
	endfacet
	facet normal 0 1 0
		outer loop
			vertex 0.24374470114707947 0.7204343676567078 -0.02373768389225006
			vertex 0.2660576105117798 0.7204343676567078 0.017898783087730408
			vertex 0.2660576105117798 0.7204343676567078 -0.012581219896674156
		endloop
	endfacet
	facet normal 0 1 0
		outer loop
			vertex 0.2660576105117798 0.7204343676567078 -0.012581219896674156
			vertex 0.2660576105117798 0.7204343676567078 0.017898783087730408
			vertex 0.2742246985435486 0.7204343676567078 0.0026586868334561586
		endloop
	endfacet
	facet normal 0 1 0
		outer loop
			vertex 0.4418647289276123 0.628994345664978 2.380098819732666
			vertex -0.015335296280682087 0.628994345664978 2.364858865737915
			vertex -0.015335296280682087 0.628994345664978 2.380098819732666
		endloop
	endfacet
	facet normal 0 1 0
		outer loop
			vertex -0.015335296280682087 0.628994345664978 2.364858865737915
			vertex 0.4418647289276123 0.628994345664978 2.380098819732666
			vertex -0.015335296280682087 0.628994345664978 2.341998815536499
		endloop
	endfacet
	facet normal 0 1 0
		outer loop
			vertex -0.015335296280682087 0.628994345664978 2.341998815536499
			vertex 0.4418647289276123 0.628994345664978 2.380098819732666
			vertex -0.015335296280682087 0.628994345664978 2.082918882369995
		endloop
	endfacet
	facet normal 0 1 0
		outer loop
			vertex -0.015335296280682087 0.628994345664978 2.082918882369995
			vertex 0.4418647289276123 0.628994345664978 2.380098819732666
			vertex -0.015335296280682087 0.628994345664978 2.060058832168579
		endloop
	endfacet
	facet normal 0 1 0
		outer loop
			vertex -0.015335296280682087 0.628994345664978 2.060058832168579
			vertex 0.4418647289276123 0.628994345664978 2.380098819732666
			vertex -0.015335296280682087 0.628994345664978 2.044818878173828
		endloop
	endfacet
	facet normal 0 1 0
		outer loop
			vertex -0.015335296280682087 0.628994345664978 2.044818878173828
			vertex 0.4418647289276123 0.628994345664978 2.380098819732666
			vertex 0.4418647289276123 0.628994345664978 2.044818878173828
		endloop
	endfacet
	facet normal 0 0 0
		outer loop
			vertex 0.4418647289276123 0.628994345664978 2.044818878173828
			vertex 0.4418647289276123 0.628994345664978 2.380098819732666
			vertex 0.4418647289276123 0.628994345664978 2.364858865737915
		endloop
	endfacet
	facet normal 0 0 0
		outer loop
			vertex 0.4418647289276123 0.628994345664978 2.044818878173828
			vertex 0.4418647289276123 0.628994345664978 2.364858865737915
			vertex 0.4418647289276123 0.628994345664978 2.341998815536499
		endloop
	endfacet
	facet normal 0 0 0
		outer loop
			vertex 0.4418647289276123 0.628994345664978 2.044818878173828
			vertex 0.4418647289276123 0.628994345664978 2.341998815536499
			vertex 0.4418647289276123 0.628994345664978 2.082918882369995
		endloop
	endfacet
	facet normal 0 0 0
		outer loop
			vertex 0.4418647289276123 0.628994345664978 2.044818878173828
			vertex 0.4418647289276123 0.628994345664978 2.082918882369995
			vertex 0.4418647289276123 0.628994345664978 2.060058832168579
		endloop
	endfacet
	facet normal 1 0 0
		outer loop
			vertex 0.4418647289276123 0.628994345664978 2.341998815536499
			vertex 0.4418647289276123 0.6594743728637695 2.364858865737915
			vertex 0.4418647289276123 0.628994345664978 2.364858865737915
		endloop
	endfacet
	facet normal 1 0 0
		outer loop
			vertex 0.4418647289276123 0.6594743728637695 2.364858865737915
			vertex 0.4418647289276123 0.628994345664978 2.341998815536499
			vertex 0.4418647289276123 0.6594743728637695 2.341998815536499
		endloop
	endfacet
	facet normal 1 0 0
		outer loop
			vertex 0.4418647289276123 0.628994345664978 2.060058832168579
			vertex 0.4418647289276123 0.6594743728637695 2.082918882369995
			vertex 0.4418647289276123 0.628994345664978 2.082918882369995
		endloop
	endfacet
	facet normal 1 0 0
		outer loop
			vertex 0.4418647289276123 0.6594743728637695 2.082918882369995
			vertex 0.4418647289276123 0.628994345664978 2.060058832168579
			vertex 0.4418647289276123 0.6594743728637695 2.060058832168579
		endloop
	endfacet
	facet normal -1 0 0
		outer loop
			vertex -0.015335296280682087 0.6594743728637695 2.341998815536499
			vertex -0.015335296280682087 0.628994345664978 2.364858865737915
			vertex -0.015335296280682087 0.6594743728637695 2.364858865737915
		endloop
	endfacet
	facet normal -1 0 0
		outer loop
			vertex -0.015335296280682087 0.628994345664978 2.364858865737915
			vertex -0.015335296280682087 0.6594743728637695 2.341998815536499
			vertex -0.015335296280682087 0.628994345664978 2.341998815536499
		endloop
	endfacet
	facet normal -1 0 0
		outer loop
			vertex -0.015335296280682087 0.6594743728637695 2.060058832168579
			vertex -0.015335296280682087 0.628994345664978 2.082918882369995
			vertex -0.015335296280682087 0.6594743728637695 2.082918882369995
		endloop
	endfacet
	facet normal -1 0 0
		outer loop
			vertex -0.015335296280682087 0.628994345664978 2.082918882369995
			vertex -0.015335296280682087 0.6594743728637695 2.060058832168579
			vertex -0.015335296280682087 0.628994345664978 2.060058832168579
		endloop
	endfacet
	facet normal 0 1 0
		outer loop
			vertex 0.3656647205352783 0.6594744324684143 3.081138849258423
			vertex 0.06086470186710358 0.6594744324684143 2.989698648452759
			vertex 0.06086470186710358 0.6594744324684143 3.081138849258423
		endloop
	endfacet
	facet normal 0 1 0
		outer loop
			vertex 0.06086470186710358 0.6594744324684143 2.989698648452759
			vertex 0.3656647205352783 0.6594744324684143 3.081138849258423
			vertex 0.3656647205352783 0.6594744324684143 2.989698648452759
		endloop
	endfacet
	facet normal 0 -1 0
		outer loop
			vertex 0.5028247237205505 0.7509143948554993 2.441058874130249
			vertex 0.4418647289276123 0.7509143948554993 2.517258882522583
			vertex 0.4418647289276123 0.7509143948554993 2.441058874130249
		endloop
	endfacet
	facet normal 0 -1 0
		outer loop
			vertex 0.4418647289276123 0.7509143948554993 2.517258882522583
			vertex 0.5028247237205505 0.7509143948554993 2.441058874130249
			vertex 0.5028247237205505 0.7509143948554993 2.517258882522583
		endloop
	endfacet
	facet normal -1 0 0
		outer loop
			vertex -0.25917530059814453 0.685410737991333 2.8632349967956543
			vertex -0.25917530059814453 0.6594744324684143 2.867778778076172
			vertex -0.25917530059814453 0.689954400062561 2.867778778076172
		endloop
	endfacet
	facet normal -1 0 0
		outer loop
			vertex -0.25917530059814453 0.759015679359436 2.8448336124420166
			vertex -0.25917530059814453 0.6726855635643005 2.7698628902435303
			vertex -0.25917530059814453 0.7499282956123352 2.8471055030822754
		endloop
	endfacet
	facet normal -1 0 0
		outer loop
			vertex -0.25917530059814453 0.6726855635643005 2.7698628902435303
			vertex -0.25917530059814453 0.759015679359436 2.8448336124420166
			vertex -0.25917530059814453 0.6817729473114014 2.7675909996032715
		endloop
	endfacet
	facet normal -1 0 0
		outer loop
			vertex -0.25917530059814453 0.754472017288208 2.851649522781372
			vertex -0.25917530059814453 0.685410737991333 2.8632349967956543
			vertex -0.25917530059814453 0.689954400062561 2.867778778076172
		endloop
	endfacet
	facet normal -1 0 0
		outer loop
			vertex -0.25917530059814453 0.685410737991333 2.8632349967956543
			vertex -0.25917530059814453 0.754472017288208 2.851649522781372
			vertex -0.25917530059814453 0.7499282956123352 2.8471055030822754
		endloop
	endfacet
	facet normal -1 0 0
		outer loop
			vertex -0.25917530059814453 0.6681419014930725 2.7653191089630127
			vertex -0.25917530059814453 0.6726855635643005 2.7698628902435303
			vertex -0.25917530059814453 0.6817729473114014 2.7675909996032715
		endloop
	endfacet
	facet normal -1 0 0
		outer loop
			vertex -0.25917530059814453 0.6681419014930725 2.7653191089630127
			vertex -0.25917530059814453 0.6817729473114014 2.7675909996032715
			vertex -0.25917530059814453 0.7453845739364624 2.751688241958618
		endloop
	endfacet
	facet normal -1 0 0
		outer loop
			vertex -0.25917530059814453 0.6681419014930725 2.7653191089630127
			vertex -0.25917530059814453 0.7453845739364624 2.751688241958618
			vertex -0.25917530059814453 0.6772292256355286 2.763047456741333
		endloop
	endfacet
	facet normal -1 0 0
		outer loop
			vertex -0.25917530059814453 0.6772292256355286 2.763047456741333
			vertex -0.25917530059814453 0.7453845739364624 2.751688241958618
			vertex -0.25917530059814453 0.7408409118652344 2.7471444606781006
		endloop
	endfacet
	facet normal 1 0 0
		outer loop
			vertex -0.07629530131816864 0.685410737991333 2.8632349967956543
			vertex -0.07629530131816864 0.754472017288208 2.851649522781372
			vertex -0.07629530131816864 0.689954400062561 2.867778778076172
		endloop
	endfacet
	facet normal 1 0 0
		outer loop
			vertex -0.07629530131816864 0.754472017288208 2.851649522781372
			vertex -0.07629530131816864 0.685410737991333 2.8632349967956543
			vertex -0.07629530131816864 0.7499282956123352 2.8471055030822754
		endloop
	endfacet
	facet normal 1 0 0
		outer loop
			vertex -0.07629530131816864 0.6726855635643005 2.7698628902435303
			vertex -0.07629530131816864 0.6681419014930725 2.7653191089630127
			vertex -0.07629530131816864 0.6817729473114014 2.7675909996032715
		endloop
	endfacet
	facet normal 1 0 0
		outer loop
			vertex -0.07629530131816864 0.6817729473114014 2.7675909996032715
			vertex -0.07629530131816864 0.6681419014930725 2.7653191089630127
			vertex -0.07629530131816864 0.7453845739364624 2.751688241958618
		endloop
	endfacet
	facet normal 1 0 0
		outer loop
			vertex -0.07629530131816864 0.7453845739364624 2.751688241958618
			vertex -0.07629530131816864 0.6681419014930725 2.7653191089630127
			vertex -0.07629530131816864 0.6772292256355286 2.763047456741333
		endloop
	endfacet
	facet normal 1 0 0
		outer loop
			vertex -0.07629530131816864 0.7453845739364624 2.751688241958618
			vertex -0.07629530131816864 0.6772292256355286 2.763047456741333
			vertex -0.07629530131816864 0.7408409118652344 2.7471444606781006
		endloop
	endfacet
	facet normal 1 0 0
		outer loop
			vertex -0.07629530131816864 0.6726855635643005 2.7698628902435303
			vertex -0.07629530131816864 0.759015679359436 2.8448336124420166
			vertex -0.07629530131816864 0.7499282956123352 2.8471055030822754
		endloop
	endfacet
	facet normal 1 0 0
		outer loop
			vertex -0.07629530131816864 0.759015679359436 2.8448336124420166
			vertex -0.07629530131816864 0.6726855635643005 2.7698628902435303
			vertex -0.07629530131816864 0.6817729473114014 2.7675909996032715
		endloop
	endfacet
	facet normal 0 1 0
		outer loop
			vertex -0.07629530131816864 0.6289944052696228 2.837298631668091
			vertex -0.25917530059814453 0.6289944052696228 2.806818723678589
			vertex -0.25917530059814453 0.6289944052696228 2.837298631668091
		endloop
	endfacet
	facet normal 0 1 0
		outer loop
			vertex -0.25917530059814453 0.6289944052696228 2.806818723678589
			vertex -0.07629530131816864 0.6289944052696228 2.837298631668091
			vertex -0.07629530131816864 0.6289944052696228 2.806818723678589
		endloop
	endfacet
	facet normal 0 1 0
		outer loop
			vertex -0.07629530131816864 0.6594744324684143 2.867778778076172
			vertex -0.25917530059814453 0.6594744324684143 2.837298631668091
			vertex -0.25917530059814453 0.6594744324684143 2.867778778076172
		endloop
	endfacet
	facet normal 0 1 0
		outer loop
			vertex -0.25917530059814453 0.6594744324684143 2.837298631668091
			vertex -0.07629530131816864 0.6594744324684143 2.867778778076172
			vertex -0.07629530131816864 0.6594744324684143 2.837298631668091
		endloop
	endfacet
	facet normal 0 0 1
		outer loop
			vertex -0.33537527918815613 0.689954400062561 2.867778778076172
			vertex -0.457295298576355 0.6594744324684143 2.867778778076172
			vertex -0.33537527918815613 0.6594744324684143 2.867778778076172
		endloop
	endfacet
	facet normal 0 0 1
		outer loop
			vertex -0.457295298576355 0.6594744324684143 2.867778778076172
			vertex -0.33537527918815613 0.689954400062561 2.867778778076172
			vertex -0.457295298576355 0.689954400062561 2.867778778076172
		endloop
	endfacet
	facet normal 0 1 0
		outer loop
			vertex 0.0040445527993142605 0.6847437620162964 1.7142643928527832
			vertex 0.4520335793495178 0.6847437620162964 0.9724394679069519
			vertex 0.0040445527993142605 0.6847437620162964 0.9724394679069519
		endloop
	endfacet
	facet normal 0 1 0
		outer loop
			vertex 0.4520335793495178 0.6847437620162964 0.9724394679069519
			vertex 0.0040445527993142605 0.6847437620162964 1.7142643928527832
			vertex 0.4520335793495178 0.6847437620162964 1.7142643928527832
		endloop
	endfacet
	facet normal 0 -1 0
		outer loop
			vertex -0.2368692010641098 0.7065484523773193 -0.10901886224746704
			vertex -0.2368692010641098 0.7065484523773193 0.12950876355171204
			vertex -0.2525705397129059 0.7065484523773193 0.010244946926832199
		endloop
	endfacet
	facet normal 0 -1 0
		outer loop
			vertex -0.2368692010641098 0.7065484523773193 0.12950876355171204
			vertex -0.2368692010641098 0.7065484523773193 -0.10901886224746704
			vertex -0.19083507359027863 0.7065484523773193 -0.2201550453901291
		endloop
	endfacet
	facet normal 0 -1 0
		outer loop
			vertex -0.2368692010641098 0.7065484523773193 0.12950876355171204
			vertex -0.19083507359027863 0.7065484523773193 -0.2201550453901291
			vertex -0.19083507359027863 0.7065484523773193 0.24064494669437408
		endloop
	endfacet
	facet normal 0 -1 0
		outer loop
			vertex -0.19083507359027863 0.7065484523773193 0.24064494669437408
			vertex -0.19083507359027863 0.7065484523773193 -0.2201550453901291
			vertex -0.11760535091161728 0.7065484523773193 -0.3155898451805115
		endloop
	endfacet
	facet normal 0 -1 0
		outer loop
			vertex -0.19083507359027863 0.7065484523773193 0.24064494669437408
			vertex -0.11760535091161728 0.7065484523773193 -0.3155898451805115
			vertex -0.11760535091161728 0.7065484523773193 0.33607974648475647
		endloop
	endfacet
	facet normal 0 -1 0
		outer loop
			vertex -0.11760535091161728 0.7065484523773193 0.33607974648475647
			vertex -0.11760535091161728 0.7065484523773193 -0.3155898451805115
			vertex -0.022170554846525192 0.7065484523773193 -0.38881954550743103
		endloop
	endfacet
	facet normal 0 -1 0
		outer loop
			vertex -0.11760535091161728 0.7065484523773193 0.33607974648475647
			vertex -0.022170554846525192 0.7065484523773193 -0.38881954550743103
			vertex -0.022170554846525192 0.7065484523773193 0.409309446811676
		endloop
	endfacet
	facet normal 0 -1 0
		outer loop
			vertex -0.022170554846525192 0.7065484523773193 0.409309446811676
			vertex -0.022170554846525192 0.7065484523773193 -0.38881954550743103
			vertex 0.08896562457084656 0.7065484523773193 -0.4348537027835846
		endloop
	endfacet
	facet normal 0 -1 0
		outer loop
			vertex -0.022170554846525192 0.7065484523773193 0.409309446811676
			vertex 0.08896562457084656 0.7065484523773193 -0.4348537027835846
			vertex 0.08896562457084656 0.7065484523773193 0.4553435742855072
		endloop
	endfacet
	facet normal 0 -1 0
		outer loop
			vertex 0.08896562457084656 0.7065484523773193 0.4553435742855072
			vertex 0.08896562457084656 0.7065484523773193 -0.4348537027835846
			vertex 0.2082294374704361 0.7065484523773193 -0.45055505633354187
		endloop
	endfacet
	facet normal 0 -1 0
		outer loop
			vertex 0.08896562457084656 0.7065484523773193 0.4553435742855072
			vertex 0.2082294374704361 0.7065484523773193 -0.45055505633354187
			vertex 0.2082294374704361 0.7065484523773193 0.4710449278354645
		endloop
	endfacet
	facet normal 0 -1 0
		outer loop
			vertex 0.2082294374704361 0.7065484523773193 0.4710449278354645
			vertex 0.2082294374704361 0.7065484523773193 -0.45055505633354187
			vertex 0.32749325037002563 0.7065484523773193 -0.4348537027835846
		endloop
	endfacet
	facet normal 0 -1 0
		outer loop
			vertex 0.2082294374704361 0.7065484523773193 0.4710449278354645
			vertex 0.32749325037002563 0.7065484523773193 -0.4348537027835846
			vertex 0.32749325037002563 0.7065484523773193 0.4553435742855072
		endloop
	endfacet
	facet normal 0 -1 0
		outer loop
			vertex 0.32749325037002563 0.7065484523773193 0.4553435742855072
			vertex 0.32749325037002563 0.7065484523773193 -0.4348537027835846
			vertex 0.4386294484138489 0.7065484523773193 -0.38881954550743103
		endloop
	endfacet
	facet normal 0 -1 0
		outer loop
			vertex 0.32749325037002563 0.7065484523773193 0.4553435742855072
			vertex 0.4386294484138489 0.7065484523773193 -0.38881954550743103
			vertex 0.4386294484138489 0.7065484523773193 0.409309446811676
		endloop
	endfacet
	facet normal 0 -1 0
		outer loop
			vertex 0.4386294484138489 0.7065484523773193 0.409309446811676
			vertex 0.4386294484138489 0.7065484523773193 -0.38881954550743103
			vertex 0.5340642333030701 0.7065484523773193 -0.3155898451805115
		endloop
	endfacet
	facet normal 0 -1 0
		outer loop
			vertex 0.4386294484138489 0.7065484523773193 0.409309446811676
			vertex 0.5340642333030701 0.7065484523773193 -0.3155898451805115
			vertex 0.5340642333030701 0.7065484523773193 0.33607974648475647
		endloop
	endfacet
	facet normal 0 -1 0
		outer loop
			vertex 0.5340642333030701 0.7065484523773193 0.33607974648475647
			vertex 0.5340642333030701 0.7065484523773193 -0.3155898451805115
			vertex 0.607293963432312 0.7065484523773193 -0.2201550453901291
		endloop
	endfacet
	facet normal 0 -1 0
		outer loop
			vertex 0.5340642333030701 0.7065484523773193 0.33607974648475647
			vertex 0.607293963432312 0.7065484523773193 -0.2201550453901291
			vertex 0.607293963432312 0.7065484523773193 0.24064494669437408
		endloop
	endfacet
	facet normal 0 -1 0
		outer loop
			vertex 0.607293963432312 0.7065484523773193 0.24064494669437408
			vertex 0.607293963432312 0.7065484523773193 -0.2201550453901291
			vertex 0.6533280611038208 0.7065484523773193 -0.10901886224746704
		endloop
	endfacet
	facet normal 0 -1 0
		outer loop
			vertex 0.607293963432312 0.7065484523773193 0.24064494669437408
			vertex 0.6533280611038208 0.7065484523773193 -0.10901886224746704
			vertex 0.6533280611038208 0.7065484523773193 0.12950876355171204
		endloop
	endfacet
	facet normal 0 -1 0
		outer loop
			vertex 0.6533280611038208 0.7065484523773193 0.12950876355171204
			vertex 0.6533280611038208 0.7065484523773193 -0.10901886224746704
			vertex 0.6690294146537781 0.7065484523773193 0.010244946926832199
		endloop
	endfacet
	facet normal 0 1 0
		outer loop
			vertex 0.10623017698526382 0.6731398105621338 0.036792367696762085
			vertex 0.10623017698526382 0.6731398105621338 -0.01621376909315586
			vertex 0.10274098813533783 0.6731398105621338 0.010289300233125687
		endloop
	endfacet
	facet normal 0 1 0
		outer loop
			vertex 0.10623017698526382 0.6731398105621338 -0.01621376909315586
			vertex 0.10623017698526382 0.6731398105621338 0.036792367696762085
			vertex 0.11645998060703278 0.6731398105621338 0.061489298939704895
		endloop
	endfacet
	facet normal 0 1 0
		outer loop
			vertex 0.10623017698526382 0.6731398105621338 -0.01621376909315586
			vertex 0.11645998060703278 0.6731398105621338 0.061489298939704895
			vertex 0.11645998060703278 0.6731398105621338 -0.04091069847345352
		endloop
	endfacet
	facet normal 0 1 0
		outer loop
			vertex 0.11645998060703278 0.6731398105621338 -0.04091069847345352
			vertex 0.11645998060703278 0.6731398105621338 0.061489298939704895
			vertex 0.13273325562477112 0.6731398105621338 -0.06211843341588974
		endloop
	endfacet
	facet normal 0 1 0
		outer loop
			vertex 0.13273325562477112 0.6731398105621338 -0.06211843341588974
			vertex 0.11645998060703278 0.6731398105621338 0.061489298939704895
			vertex 0.13273325562477112 0.6731398105621338 0.08269703388214111
		endloop
	endfacet
	facet normal 0 1 0
		outer loop
			vertex 0.13273325562477112 0.6731398105621338 -0.06211843341588974
			vertex 0.13273325562477112 0.6731398105621338 0.08269703388214111
			vertex 0.15394099056720734 0.6731398105621338 -0.07839170098304749
		endloop
	endfacet
	facet normal 0 1 0
		outer loop
			vertex 0.15394099056720734 0.6731398105621338 -0.07839170098304749
			vertex 0.13273325562477112 0.6731398105621338 0.08269703388214111
			vertex 0.15394099056720734 0.6731398105621338 0.09897030144929886
		endloop
	endfacet
	facet normal 0 1 0
		outer loop
			vertex 0.15394099056720734 0.6731398105621338 -0.07839170098304749
			vertex 0.15394099056720734 0.6731398105621338 0.09897030144929886
			vertex 0.17863792181015015 0.6731398105621338 -0.08862151205539703
		endloop
	endfacet
	facet normal 0 1 0
		outer loop
			vertex 0.17863792181015015 0.6731398105621338 -0.08862151205539703
			vertex 0.15394099056720734 0.6731398105621338 0.09897030144929886
			vertex 0.17863792181015015 0.6731398105621338 0.10920010507106781
		endloop
	endfacet
	facet normal 0 1 0
		outer loop
			vertex 0.17863792181015015 0.6731398105621338 -0.08862151205539703
			vertex 0.17863792181015015 0.6731398105621338 0.10920010507106781
			vertex 0.20514097809791565 0.6731398105621338 -0.09211070090532303
		endloop
	endfacet
	facet normal 0 1 0
		outer loop
			vertex 0.20514097809791565 0.6731398105621338 -0.09211070090532303
			vertex 0.17863792181015015 0.6731398105621338 0.10920010507106781
			vertex 0.20514097809791565 0.6731398105621338 0.1126892939209938
		endloop
	endfacet
	facet normal 0 1 0
		outer loop
			vertex 0.20514097809791565 0.6731398105621338 -0.09211070090532303
			vertex 0.20514097809791565 0.6731398105621338 0.1126892939209938
			vertex 0.23164404928684235 0.6731398105621338 -0.08862151205539703
		endloop
	endfacet
	facet normal 0 1 0
		outer loop
			vertex 0.23164404928684235 0.6731398105621338 -0.08862151205539703
			vertex 0.20514097809791565 0.6731398105621338 0.1126892939209938
			vertex 0.23164404928684235 0.6731398105621338 0.10920010507106781
		endloop
	endfacet
	facet normal 0 1 0
		outer loop
			vertex 0.23164404928684235 0.6731398105621338 -0.08862151205539703
			vertex 0.23164404928684235 0.6731398105621338 0.10920010507106781
			vertex 0.25634098052978516 0.6731398105621338 -0.07839170098304749
		endloop
	endfacet
	facet normal 0 1 0
		outer loop
			vertex 0.25634098052978516 0.6731398105621338 -0.07839170098304749
			vertex 0.23164404928684235 0.6731398105621338 0.10920010507106781
			vertex 0.25634098052978516 0.6731398105621338 0.09897030144929886
		endloop
	endfacet
	facet normal 0 1 0
		outer loop
			vertex 0.25634098052978516 0.6731398105621338 -0.07839170098304749
			vertex 0.25634098052978516 0.6731398105621338 0.09897030144929886
			vertex 0.27754873037338257 0.6731398105621338 -0.06211843341588974
		endloop
	endfacet
	facet normal 0 1 0
		outer loop
			vertex 0.27754873037338257 0.6731398105621338 -0.06211843341588974
			vertex 0.25634098052978516 0.6731398105621338 0.09897030144929886
			vertex 0.27754873037338257 0.6731398105621338 0.08269703388214111
		endloop
	endfacet
	facet normal 0 1 0
		outer loop
			vertex 0.27754873037338257 0.6731398105621338 -0.06211843341588974
			vertex 0.27754873037338257 0.6731398105621338 0.08269703388214111
			vertex 0.2938219904899597 0.6731398105621338 -0.04091069847345352
		endloop
	endfacet
	facet normal 0 1 0
		outer loop
			vertex 0.2938219904899597 0.6731398105621338 -0.04091069847345352
			vertex 0.27754873037338257 0.6731398105621338 0.08269703388214111
			vertex 0.2938219904899597 0.6731398105621338 0.061489298939704895
		endloop
	endfacet
	facet normal 0 1 0
		outer loop
			vertex 0.2938219904899597 0.6731398105621338 -0.04091069847345352
			vertex 0.2938219904899597 0.6731398105621338 0.061489298939704895
			vertex 0.30405178666114807 0.6731398105621338 -0.01621376909315586
		endloop
	endfacet
	facet normal 0 1 0
		outer loop
			vertex 0.30405178666114807 0.6731398105621338 -0.01621376909315586
			vertex 0.2938219904899597 0.6731398105621338 0.061489298939704895
			vertex 0.30405178666114807 0.6731398105621338 0.036792367696762085
		endloop
	endfacet
	facet normal 0 1 0
		outer loop
			vertex 0.30405178666114807 0.6731398105621338 -0.01621376909315586
			vertex 0.30405178666114807 0.6731398105621338 0.036792367696762085
			vertex 0.30754098296165466 0.6731398105621338 0.010289300233125687
		endloop
	endfacet
	facet normal 0 -1 0
		outer loop
			vertex 0.6417790651321411 0.694648027420044 -0.0945785865187645
			vertex 1.1640547513961792 0.694648027420044 -1.3208011388778687
			vertex 1.5160281658172607 0.694648027420044 -0.9688276648521423
		endloop
	endfacet
	facet normal 0 -1 0
		outer loop
			vertex 1.1640547513961792 0.694648027420044 -1.3208011388778687
			vertex 0.6417790651321411 0.694648027420044 -0.0945785865187645
			vertex 0.28980565071105957 0.694648027420044 -0.44655200839042664
		endloop
	endfacet
endsolid exported
