solid exported
	facet normal -1 0 0
		outer loop
			vertex -0.2744153141975403 0.8728343844413757 2.867778778076172
			vertex -0.2744153141975403 0.8626744151115417 2.959218740463257
			vertex -0.2744153141975403 0.8728343844413757 2.959218740463257
		endloop
	endfacet
	facet normal -1 0 0
		outer loop
			vertex -0.2744153141975403 0.8626744151115417 2.959218740463257
			vertex -0.2744153141975403 0.8728343844413757 2.867778778076172
			vertex -0.2744153141975403 0.8626744151115417 2.872858762741089
		endloop
	endfacet
	facet normal -0.4472144318696848 0 0.8944267728145637
		outer loop
			vertex -0.15249529480934143 0.8728343844413757 3.02017879486084
			vertex -0.2672311067581177 0.8626744151115417 2.962810754776001
			vertex -0.15249529480934143 0.8626744151115417 3.02017879486084
		endloop
	endfacet
	facet normal -0.44720468633752564 -0.0001375095717767888 0.8944316349553348
		outer loop
			vertex -0.2672311067581177 0.8626744151115417 2.962810754776001
			vertex -0.15249529480934143 0.8728343844413757 3.02017879486084
			vertex -0.2744153141975403 0.8626744151115417 2.959218740463257
		endloop
	endfacet
	facet normal -0.4472138578621371 0 0.8944270598187783
		outer loop
			vertex -0.2744153141975403 0.8626744151115417 2.959218740463257
			vertex -0.15249529480934143 0.8728343844413757 3.02017879486084
			vertex -0.2744153141975403 0.8728343844413757 2.959218740463257
		endloop
	endfacet
	facet normal -0.4472144318696848 0 0.8944267728145637
		outer loop
			vertex -0.15249529480934143 0.7813944220542908 3.02017879486084
			vertex -0.2672311067581177 0.771234393119812 2.962810754776001
			vertex -0.15249529480934143 0.771234393119812 3.02017879486084
		endloop
	endfacet
	facet normal -0.44721385784745626 -0.00000810274181958538 0.8944270597894167
		outer loop
			vertex -0.2672311067581177 0.771234393119812 2.962810754776001
			vertex -0.15249529480934143 0.7813944220542908 3.02017879486084
			vertex -0.2744153141975403 0.7813944220542908 2.959218740463257
		endloop
	endfacet
	facet normal 0 1 0
		outer loop
			vertex -0.2744153141975403 0.7813944220542908 2.959218740463257
			vertex -0.15249529480934143 0.7813944220542908 3.02017879486084
			vertex -0.2672311067581177 0.7813944220542908 2.962810754776001
		endloop
	endfacet
	facet normal -0.4472046905655959 0 0.894431643411686
		outer loop
			vertex -0.2744153141975403 0.7813944220542908 2.959218740463257
			vertex -0.2672311067581177 0.7813944220542908 2.962810754776001
			vertex -0.2744153141975403 0.8626744151115417 2.959218740463257
		endloop
	endfacet
	facet normal -0.4472046905655959 0 0.894431643411686
		outer loop
			vertex -0.2744153141975403 0.8626744151115417 2.959218740463257
			vertex -0.2672311067581177 0.7813944220542908 2.962810754776001
			vertex -0.2672311067581177 0.8626744151115417 2.962810754776001
		endloop
	endfacet
	facet normal -0.447204690565596 0 0.8944316434116861
		outer loop
			vertex -0.2744153141975403 0.771234393119812 2.959218740463257
			vertex -0.2672311067581177 0.771234393119812 2.962810754776001
			vertex -0.2744153141975403 0.7813944220542908 2.959218740463257
		endloop
	endfacet
	facet normal 0 0 1
		outer loop
			vertex -0.2744153141975403 0.8728343844413757 2.959218740463257
			vertex -0.447135329246521 0.8626744151115417 2.959218740463257
			vertex -0.2744153141975403 0.8626744151115417 2.959218740463257
		endloop
	endfacet
	facet normal 0 0 1
		outer loop
			vertex -0.447135329246521 0.8626744151115417 2.959218740463257
			vertex -0.2744153141975403 0.8728343844413757 2.959218740463257
			vertex -0.457295298576355 0.8626744151115417 2.959218740463257
		endloop
	endfacet
	facet normal 0 0 1
		outer loop
			vertex -0.457295298576355 0.8626744151115417 2.959218740463257
			vertex -0.2744153141975403 0.8728343844413757 2.959218740463257
			vertex -0.457295298576355 0.8728343844413757 2.959218740463257
		endloop
	endfacet
	facet normal 0 0 1
		outer loop
			vertex -0.2744153141975403 0.7813944220542908 2.959218740463257
			vertex -0.447135329246521 0.771234393119812 2.959218740463257
			vertex -0.2744153141975403 0.771234393119812 2.959218740463257
		endloop
	endfacet
	facet normal 0 0 1
		outer loop
			vertex -0.447135329246521 0.771234393119812 2.959218740463257
			vertex -0.2744153141975403 0.7813944220542908 2.959218740463257
			vertex -0.457295298576355 0.771234393119812 2.959218740463257
		endloop
	endfacet
	facet normal 0 0 1
		outer loop
			vertex -0.457295298576355 0.771234393119812 2.959218740463257
			vertex -0.2744153141975403 0.7813944220542908 2.959218740463257
			vertex -0.447135329246521 0.7813944220542908 2.959218740463257
		endloop
	endfacet
	facet normal 0 0 1
		outer loop
			vertex -0.457295298576355 0.771234393119812 2.959218740463257
			vertex -0.447135329246521 0.7813944220542908 2.959218740463257
			vertex -0.457295298576355 0.7813944220542908 2.959218740463257
		endloop
	endfacet
	facet normal 0 0 1
		outer loop
			vertex -0.457295298576355 0.7813944220542908 2.959218740463257
			vertex -0.447135329246521 0.7813944220542908 2.959218740463257
			vertex -0.447135329246521 0.8626744151115417 2.959218740463257
		endloop
	endfacet
	facet normal 0 0 1
		outer loop
			vertex -0.457295298576355 0.7813944220542908 2.959218740463257
			vertex -0.447135329246521 0.8626744151115417 2.959218740463257
			vertex -0.457295298576355 0.8626744151115417 2.959218740463257
		endloop
	endfacet
	facet normal -1 0 0
		outer loop
			vertex -0.457295298576355 0.8728343844413757 2.867778778076172
			vertex -0.457295298576355 0.8626744151115417 2.959218740463257
			vertex -0.457295298576355 0.8728343844413757 2.959218740463257
		endloop
	endfacet
	facet normal -1 0 0
		outer loop
			vertex -0.457295298576355 0.8626744151115417 2.959218740463257
			vertex -0.457295298576355 0.8728343844413757 2.867778778076172
			vertex -0.457295298576355 0.8626744151115417 2.872858762741089
		endloop
	endfacet
	facet normal -1 0 0
		outer loop
			vertex -0.457295298576355 0.8626744151115417 2.872858762741089
			vertex -0.457295298576355 0.8728343844413757 2.867778778076172
			vertex -0.457295298576355 0.7813944220542908 2.872858762741089
		endloop
	endfacet
	facet normal -1 0 0
		outer loop
			vertex -0.457295298576355 0.7813944220542908 2.872858762741089
			vertex -0.457295298576355 0.8728343844413757 2.867778778076172
			vertex -0.457295298576355 0.771234393119812 2.872858762741089
		endloop
	endfacet
	facet normal -1 0 0
		outer loop
			vertex -0.457295298576355 0.7813944220542908 2.872858762741089
			vertex -0.457295298576355 0.771234393119812 2.959218740463257
			vertex -0.457295298576355 0.7813944220542908 2.959218740463257
		endloop
	endfacet
	facet normal -1 0 0
		outer loop
			vertex -0.457295298576355 0.771234393119812 2.959218740463257
			vertex -0.457295298576355 0.7813944220542908 2.872858762741089
			vertex -0.457295298576355 0.771234393119812 2.872858762741089
		endloop
	endfacet
	facet normal -1 0 0
		outer loop
			vertex -0.25917530059814453 0.7768805623054504 2.862698793411255
			vertex -0.25917530059814453 0.7706013321876526 2.867778778076172
			vertex -0.25917530059814453 0.8563951253890991 2.862698793411255
		endloop
	endfacet
	facet normal -1 0 0
		outer loop
			vertex -0.25917530059814453 0.8728343844413757 2.867778778076172
			vertex -0.25917530059814453 0.8563951253890991 2.862698793411255
			vertex -0.25917530059814453 0.7706013321876526 2.867778778076172
		endloop
	endfacet
	facet normal 1 0 0
		outer loop
			vertex -0.07629530131816864 0.8563951253890991 2.862698793411255
			vertex -0.07629530131816864 0.8728343844413757 2.867778778076172
			vertex -0.07629530131816864 0.7768805623054504 2.862698793411255
		endloop
	endfacet
	facet normal 1 0 0
		outer loop
			vertex -0.07629530131816864 0.7706013321876526 2.867778778076172
			vertex -0.07629530131816864 0.7768805623054504 2.862698793411255
			vertex -0.07629530131816864 0.8728343844413757 2.867778778076172
		endloop
	endfacet
endsolid exported
