solid exported
	facet normal 0 1 0
		outer loop
			vertex 0.3809047043323517 0.001743200793862343 0.9170587658882141
			vertex 0.045624710619449615 0.001743200793862343 0.15505880117416382
			vertex 0.045624710619449615 0.001743200793862343 0.9170587658882141
		endloop
	endfacet
	facet normal 0 1 0
		outer loop
			vertex 0.045624710619449615 0.001743200793862343 0.15505880117416382
			vertex 0.3809047043323517 0.001743200793862343 0.9170587658882141
			vertex 0.3809047043323517 0.001743200793862343 0.15505880117416382
		endloop
	endfacet
	facet normal 0 -1 0
		outer loop
			vertex 0.2589847147464752 0.0014384018257260324 0.17791874706745148
			vertex 0.16754469275474548 0.0014384018257260324 0.22363875806331635
			vertex 0.16754469275474548 0.0014384018257260324 0.17791874706745148
		endloop
	endfacet
	facet normal 0 -1 0
		outer loop
			vertex 0.16754469275474548 0.0014384018257260324 0.22363875806331635
			vertex 0.2589847147464752 0.0014384018257260324 0.17791874706745148
			vertex 0.2589847147464752 0.0014384018257260324 0.22363875806331635
		endloop
	endfacet
	facet normal 0 -0.9982047975698589 0.05989308898793818
		outer loop
			vertex -0.09153527766466141 0.001774885505437851 3.3482329845428467
			vertex -0.15249529480934143 0.0011496434919536114 3.3378124237060547
			vertex -0.09153527766466141 0.0011496434919536114 3.3378124237060547
		endloop
	endfacet
	facet normal 0 -1 0
		outer loop
			vertex 0.563784658908844 0.0005240009166300297 2.456299066543579
			vertex 0.4418647289276123 0.0005240009166300297 2.502018928527832
			vertex 0.4418647289276123 0.0005240009166300297 2.456299066543579
		endloop
	endfacet
	facet normal 0 -1 0
		outer loop
			vertex 0.4418647289276123 0.0005240009166300297 2.502018928527832
			vertex 0.563784658908844 0.0005240009166300297 2.456299066543579
			vertex 0.563784658908844 0.0005240009166300297 2.502018928527832
		endloop
	endfacet
	facet normal 0 0 -1
		outer loop
			vertex 0.4418647289276123 0.0011336015537381173 2.456299066543579
			vertex 0.563784658908844 0.0005240009166300297 2.456299066543579
			vertex 0.4418647289276123 0.0005240009166300297 2.456299066543579
		endloop
	endfacet
	facet normal 0 0 -1
		outer loop
			vertex 0.563784658908844 0.0005240009166300297 2.456299066543579
			vertex 0.4418647289276123 0.0011336015537381173 2.456299066543579
			vertex 0.563784658908844 0.0011336015537381173 2.456299066543579
		endloop
	endfacet
	facet normal 0 0 1
		outer loop
			vertex 0.563784658908844 0.0011336015537381173 2.502018928527832
			vertex 0.4418647289276123 0.0005240009166300297 2.502018928527832
			vertex 0.563784658908844 0.0005240009166300297 2.502018928527832
		endloop
	endfacet
	facet normal 0 0 1
		outer loop
			vertex 0.4418647289276123 0.0005240009166300297 2.502018928527832
			vertex 0.563784658908844 0.0011336015537381173 2.502018928527832
			vertex 0.4418647289276123 0.0011336015537381173 2.502018928527832
		endloop
	endfacet
	facet normal 1 0 0
		outer loop
			vertex 0.563784658908844 0.0005240009166300297 2.456299066543579
			vertex 0.563784658908844 0.0011336015537381173 2.502018928527832
			vertex 0.563784658908844 0.0005240009166300297 2.502018928527832
		endloop
	endfacet
	facet normal 1 0 0
		outer loop
			vertex 0.563784658908844 0.0011336015537381173 2.502018928527832
			vertex 0.563784658908844 0.0005240009166300297 2.456299066543579
			vertex 0.563784658908844 0.0011336015537381173 2.456299066543579
		endloop
	endfacet
	facet normal 0 1 0
		outer loop
			vertex 0.563784658908844 0.0011336015537381173 2.502018928527832
			vertex 0.4418647289276123 0.0011336015537381173 2.456299066543579
			vertex 0.4418647289276123 0.0011336015537381173 2.502018928527832
		endloop
	endfacet
	facet normal 0 1 0
		outer loop
			vertex 0.4418647289276123 0.0011336015537381173 2.456299066543579
			vertex 0.563784658908844 0.0011336015537381173 2.502018928527832
			vertex 0.563784658908844 0.0011336015537381173 2.456299066543579
		endloop
	endfacet
	facet normal 0 1 0
		outer loop
			vertex -0.2368692010641098 0.0016625415533781053 0.12950876355171204
			vertex -0.2368692010641098 0.0016625415533781053 -0.10901886224746704
			vertex -0.2525705397129059 0.0016625415533781053 0.010244946926832199
		endloop
	endfacet
	facet normal 0 1 0
		outer loop
			vertex -0.2368692010641098 0.0016625415533781053 -0.10901886224746704
			vertex -0.2368692010641098 0.0016625415533781053 0.12950876355171204
			vertex -0.19083507359027863 0.0016625415533781053 0.24064494669437408
		endloop
	endfacet
	facet normal 0 1 0
		outer loop
			vertex -0.2368692010641098 0.0016625415533781053 -0.10901886224746704
			vertex -0.19083507359027863 0.0016625415533781053 0.24064494669437408
			vertex -0.19083507359027863 0.0016625415533781053 -0.2201550453901291
		endloop
	endfacet
	facet normal 0 1 0
		outer loop
			vertex -0.19083507359027863 0.0016625415533781053 -0.2201550453901291
			vertex -0.19083507359027863 0.0016625415533781053 0.24064494669437408
			vertex -0.11760535091161728 0.0016625415533781053 -0.3155898451805115
		endloop
	endfacet
	facet normal 0 1 0
		outer loop
			vertex -0.11760535091161728 0.0016625415533781053 -0.3155898451805115
			vertex -0.19083507359027863 0.0016625415533781053 0.24064494669437408
			vertex -0.11760535091161728 0.0016625415533781053 0.33607974648475647
		endloop
	endfacet
	facet normal 0 1 0
		outer loop
			vertex -0.11760535091161728 0.0016625415533781053 -0.3155898451805115
			vertex -0.11760535091161728 0.0016625415533781053 0.33607974648475647
			vertex -0.022170554846525192 0.0016625415533781053 -0.38881954550743103
		endloop
	endfacet
	facet normal 0 1 0
		outer loop
			vertex -0.022170554846525192 0.0016625415533781053 -0.38881954550743103
			vertex -0.11760535091161728 0.0016625415533781053 0.33607974648475647
			vertex -0.022170554846525192 0.0016625415533781053 0.409309446811676
		endloop
	endfacet
	facet normal 0 1 0
		outer loop
			vertex -0.022170554846525192 0.0016625415533781053 -0.38881954550743103
			vertex -0.022170554846525192 0.0016625415533781053 0.409309446811676
			vertex 0.08896562457084656 0.0016625415533781053 -0.4348537027835846
		endloop
	endfacet
	facet normal 0 1 0
		outer loop
			vertex 0.08896562457084656 0.0016625415533781053 -0.4348537027835846
			vertex -0.022170554846525192 0.0016625415533781053 0.409309446811676
			vertex 0.08896562457084656 0.0016625415533781053 0.4553435742855072
		endloop
	endfacet
	facet normal 0 1 0
		outer loop
			vertex 0.08896562457084656 0.0016625415533781053 -0.4348537027835846
			vertex 0.08896562457084656 0.0016625415533781053 0.4553435742855072
			vertex 0.2082294374704361 0.0016625415533781053 -0.45055505633354187
		endloop
	endfacet
	facet normal 0 1 0
		outer loop
			vertex 0.2082294374704361 0.0016625415533781053 -0.45055505633354187
			vertex 0.08896562457084656 0.0016625415533781053 0.4553435742855072
			vertex 0.2082294374704361 0.0016625415533781053 0.4710449278354645
		endloop
	endfacet
	facet normal 0 1 0
		outer loop
			vertex 0.2082294374704361 0.0016625415533781053 -0.45055505633354187
			vertex 0.2082294374704361 0.0016625415533781053 0.4710449278354645
			vertex 0.32749325037002563 0.0016625415533781053 -0.4348537027835846
		endloop
	endfacet
	facet normal 0 1 0
		outer loop
			vertex 0.32749325037002563 0.0016625415533781053 -0.4348537027835846
			vertex 0.2082294374704361 0.0016625415533781053 0.4710449278354645
			vertex 0.32749325037002563 0.0016625415533781053 0.4553435742855072
		endloop
	endfacet
	facet normal 0 1 0
		outer loop
			vertex 0.32749325037002563 0.0016625415533781053 -0.4348537027835846
			vertex 0.32749325037002563 0.0016625415533781053 0.4553435742855072
			vertex 0.4386294484138489 0.0016625415533781053 -0.38881954550743103
		endloop
	endfacet
	facet normal 0 1 0
		outer loop
			vertex 0.4386294484138489 0.0016625415533781053 -0.38881954550743103
			vertex 0.32749325037002563 0.0016625415533781053 0.4553435742855072
			vertex 0.4386294484138489 0.0016625415533781053 0.409309446811676
		endloop
	endfacet
	facet normal 0 1 0
		outer loop
			vertex 0.4386294484138489 0.0016625415533781053 -0.38881954550743103
			vertex 0.4386294484138489 0.0016625415533781053 0.409309446811676
			vertex 0.5340642333030701 0.0016625415533781053 -0.3155898451805115
		endloop
	endfacet
	facet normal 0 1 0
		outer loop
			vertex 0.5340642333030701 0.0016625415533781053 -0.3155898451805115
			vertex 0.4386294484138489 0.0016625415533781053 0.409309446811676
			vertex 0.5340642333030701 0.0016625415533781053 0.33607974648475647
		endloop
	endfacet
	facet normal 0 1 0
		outer loop
			vertex 0.5340642333030701 0.0016625415533781053 -0.3155898451805115
			vertex 0.5340642333030701 0.0016625415533781053 0.33607974648475647
			vertex 0.607293963432312 0.0016625415533781053 -0.2201550453901291
		endloop
	endfacet
	facet normal 0 1 0
		outer loop
			vertex 0.607293963432312 0.0016625415533781053 -0.2201550453901291
			vertex 0.5340642333030701 0.0016625415533781053 0.33607974648475647
			vertex 0.607293963432312 0.0016625415533781053 0.24064494669437408
		endloop
	endfacet
	facet normal 0 1 0
		outer loop
			vertex 0.607293963432312 0.0016625415533781053 -0.2201550453901291
			vertex 0.607293963432312 0.0016625415533781053 0.24064494669437408
			vertex 0.6533280611038208 0.0016625415533781053 -0.10901886224746704
		endloop
	endfacet
	facet normal 0 1 0
		outer loop
			vertex 0.6533280611038208 0.0016625415533781053 -0.10901886224746704
			vertex 0.607293963432312 0.0016625415533781053 0.24064494669437408
			vertex 0.6533280611038208 0.0016625415533781053 0.12950876355171204
		endloop
	endfacet
	facet normal 0 1 0
		outer loop
			vertex 0.6533280611038208 0.0016625415533781053 -0.10901886224746704
			vertex 0.6533280611038208 0.0016625415533781053 0.12950876355171204
			vertex 0.6690294146537781 0.0016625415533781053 0.010244946926832199
		endloop
	endfacet
	facet normal 0 1 0
		outer loop
			vertex 0.28980565071105957 0.00180828794836998 -0.44655200839042664
			vertex 1.5160281658172607 0.00180828794836998 -0.9688276648521423
			vertex 1.1640547513961792 0.00180828794836998 -1.3208011388778687
		endloop
	endfacet
	facet normal 0 1 0
		outer loop
			vertex 1.5160281658172607 0.00180828794836998 -0.9688276648521423
			vertex 0.28980565071105957 0.00180828794836998 -0.44655200839042664
			vertex 0.6417790651321411 0.00180828794836998 -0.0945785865187645
		endloop
	endfacet
	facet normal 0 1 0
		outer loop
			vertex 0.4113847017288208 0.0018942000344395638 1.6790587902069092
			vertex 0.015144706703722477 0.0018942000344395638 0.9170587658882141
			vertex 0.015144706703722477 0.0018942000344395638 1.6790587902069092
		endloop
	endfacet
	facet normal 0 1 0
		outer loop
			vertex 0.015144706703722477 0.0018942000344395638 0.9170587658882141
			vertex 0.4113847017288208 0.0018942000344395638 1.6790587902069092
			vertex 0.4113847017288208 0.0018942000344395638 0.9170587658882141
		endloop
	endfacet
	facet normal 0 1 0
		outer loop
			vertex 0.15230469405651093 0.002199000306427479 0.15505880117416382
			vertex -0.03057529777288437 0.002199000306427479 0.0026586868334561586
			vertex -0.03057529777288437 0.002199000306427479 0.15505880117416382
		endloop
	endfacet
	facet normal 0 1 0
		outer loop
			vertex -0.03057529777288437 0.002199000306427479 0.0026586868334561586
			vertex 0.15230469405651093 0.002199000306427479 0.15505880117416382
			vertex -0.022266648709774017 0.002199000306427479 -0.02889648824930191
		endloop
	endfacet
	facet normal 0 1 0
		outer loop
			vertex -0.022266648709774017 0.002199000306427479 -0.02889648824930191
			vertex 0.15230469405651093 0.002199000306427479 0.15505880117416382
			vertex 0.0020930778700858355 0.002199000306427479 -0.05830112844705582
		endloop
	endfacet
	facet normal 0 1 0
		outer loop
			vertex 0.0020930778700858355 0.002199000306427479 -0.05830112844705582
			vertex 0.15230469405651093 0.002199000306427479 0.15505880117416382
			vertex 0.04084378480911255 0.002199000306427479 -0.08355175703763962
		endloop
	endfacet
	facet normal 0 1 0
		outer loop
			vertex 0.04084378480911255 0.002199000306427479 -0.08355175703763962
			vertex 0.15230469405651093 0.002199000306427479 0.15505880117416382
			vertex 0.09134470671415329 0.002199000306427479 -0.10292698442935944
		endloop
	endfacet
	facet normal 0 1 0
		outer loop
			vertex 0.09134470671415329 0.002199000306427479 -0.10292698442935944
			vertex 0.15230469405651093 0.002199000306427479 0.15505880117416382
			vertex 0.1501542627811432 0.002199000306427479 -0.11510693281888962
		endloop
	endfacet
	facet normal 0 1 0
		outer loop
			vertex 0.1501542627811432 0.002199000306427479 -0.11510693281888962
			vertex 0.15230469405651093 0.002199000306427479 0.15505880117416382
			vertex 0.21326470375061035 0.002199000306427479 -0.11926113814115524
		endloop
	endfacet
	facet normal 0 1 0
		outer loop
			vertex 0.21326470375061035 0.002199000306427479 -0.11926113814115524
			vertex 0.15230469405651093 0.002199000306427479 0.15505880117416382
			vertex 0.2742246985435486 0.002199000306427479 0.15505880117416382
		endloop
	endfacet
	facet normal 0 1 0
		outer loop
			vertex 0.21326470375061035 0.002199000306427479 -0.11926113814115524
			vertex 0.2742246985435486 0.002199000306427479 0.15505880117416382
			vertex 0.2763751447200775 0.002199000306427479 -0.11510693281888962
		endloop
	endfacet
	facet normal 0 1 0
		outer loop
			vertex 0.2763751447200775 0.002199000306427479 -0.11510693281888962
			vertex 0.2742246985435486 0.002199000306427479 0.15505880117416382
			vertex 0.45710471272468567 0.002199000306427479 0.15505880117416382
		endloop
	endfacet
	facet normal 0 1 0
		outer loop
			vertex 0.2763751447200775 0.002199000306427479 -0.11510693281888962
			vertex 0.45710471272468567 0.002199000306427479 0.15505880117416382
			vertex 0.3351846933364868 0.002199000306427479 -0.10292698442935944
		endloop
	endfacet
	facet normal 0 1 0
		outer loop
			vertex 0.3351846933364868 0.002199000306427479 -0.10292698442935944
			vertex 0.45710471272468567 0.002199000306427479 0.15505880117416382
			vertex 0.38568562269210815 0.002199000306427479 -0.08355175703763962
		endloop
	endfacet
	facet normal 0 1 0
		outer loop
			vertex 0.38568562269210815 0.002199000306427479 -0.08355175703763962
			vertex 0.45710471272468567 0.002199000306427479 0.15505880117416382
			vertex 0.4244363605976105 0.002199000306427479 -0.05830112844705582
		endloop
	endfacet
	facet normal 0 1 0
		outer loop
			vertex 0.4244363605976105 0.002199000306427479 -0.05830112844705582
			vertex 0.45710471272468567 0.002199000306427479 0.15505880117416382
			vertex 0.4487960636615753 0.002199000306427479 -0.02889648824930191
		endloop
	endfacet
	facet normal 0 1 0
		outer loop
			vertex 0.4487960636615753 0.002199000306427479 -0.02889648824930191
			vertex 0.45710471272468567 0.002199000306427479 0.15505880117416382
			vertex 0.45710471272468567 0.002199000306427479 0.0026586868334561586
		endloop
	endfacet
	facet normal -0.9670394134807374 0 -0.25462673224709087
		outer loop
			vertex -0.022266648709774017 0.002199000306427479 -0.02889648824930191
			vertex -0.03057529777288437 0.0018942000344395638 0.0026586868334561586
			vertex -0.03057529777288437 0.002199000306427479 0.0026586868334561586
		endloop
	endfacet
	facet normal 1 0 0
		outer loop
			vertex 0.45710471272468567 0.002199000306427479 0.15505880117416382
			vertex 0.45710471272468567 0.0018942000344395638 0.07885879278182983
			vertex 0.45710471272468567 0.002199000306427479 0.0026586868334561586
		endloop
	endfacet
	facet normal 1 0 0
		outer loop
			vertex 0.45710471272468567 0.002199000306427479 0.0026586868334561586
			vertex 0.45710471272468567 0.0018942000344395638 0.07885879278182983
			vertex 0.45710471272468567 0.0018942000344395638 0.0026586868334561586
		endloop
	endfacet
	facet normal -1 0 0
		outer loop
			vertex -0.03057529777288437 0.0018942000344395638 0.07885879278182983
			vertex -0.03057529777288437 0.002199000306427479 0.15505880117416382
			vertex -0.03057529777288437 0.002199000306427479 0.0026586868334561586
		endloop
	endfacet
	facet normal -1 0 0
		outer loop
			vertex -0.03057529777288437 0.0018942000344395638 0.07885879278182983
			vertex -0.03057529777288437 0.002199000306427479 0.0026586868334561586
			vertex -0.03057529777288437 0.0018942000344395638 0.0026586868334561586
		endloop
	endfacet
	facet normal 0 -1 0
		outer loop
			vertex 0.4487960636615753 0.0018942000344395638 0.03421395644545555
			vertex 0.45710471272468567 0.0018942000344395638 0.07885879278182983
			vertex 0.4244363605976105 0.0018942000344395638 0.06361878663301468
		endloop
	endfacet
	facet normal 0 -1 0
		outer loop
			vertex 0.45710471272468567 0.0018942000344395638 0.07885879278182983
			vertex 0.4487960636615753 0.0018942000344395638 0.03421395644545555
			vertex 0.45710471272468567 0.0018942000344395638 0.0026586868334561586
		endloop
	endfacet
	facet normal 0 -1 0
		outer loop
			vertex -0.022266648709774017 0.0018942000344395638 0.03421395644545555
			vertex -0.03057529777288437 0.0018942000344395638 0.07885879278182983
			vertex -0.03057529777288437 0.0018942000344395638 0.0026586868334561586
		endloop
	endfacet
	facet normal 0 -1 0
		outer loop
			vertex -0.03057529777288437 0.0018942000344395638 0.07885879278182983
			vertex -0.022266648709774017 0.0018942000344395638 0.03421395644545555
			vertex 0.0020930778700858355 0.0018942000344395638 0.06361878663301468
		endloop
	endfacet
	facet normal -1 0 0
		outer loop
			vertex 0.15230469405651093 0.002503800764679909 0.15505880117416382
			vertex 0.15230469405651093 0.002351399883627892 0.2312588095664978
			vertex 0.15230469405651093 0.002503800764679909 0.2312588095664978
		endloop
	endfacet
	facet normal 0 0 1
		outer loop
			vertex 0.2742246985435486 0.002503800764679909 0.2312588095664978
			vertex 0.15230469405651093 0.002351399883627892 0.2312588095664978
			vertex 0.2742246985435486 0.002351399883627892 0.2312588095664978
		endloop
	endfacet
	facet normal 0 0 1
		outer loop
			vertex 0.15230469405651093 0.002351399883627892 0.2312588095664978
			vertex 0.2742246985435486 0.002503800764679909 0.2312588095664978
			vertex 0.15230469405651093 0.002503800764679909 0.2312588095664978
		endloop
	endfacet
	facet normal 0 1 0
		outer loop
			vertex 0.15230469405651093 0.002503800764679909 0.2312588095664978
			vertex 0.16754469275474548 0.002503800764679909 0.22363875806331635
			vertex 0.15230469405651093 0.002503800764679909 0.15505880117416382
		endloop
	endfacet
	facet normal 0 1 0
		outer loop
			vertex 0.16754469275474548 0.002503800764679909 0.22363875806331635
			vertex 0.15230469405651093 0.002503800764679909 0.2312588095664978
			vertex 0.2742246985435486 0.002503800764679909 0.2312588095664978
		endloop
	endfacet
	facet normal 0 1 0
		outer loop
			vertex 0.16754469275474548 0.002503800764679909 0.22363875806331635
			vertex 0.2742246985435486 0.002503800764679909 0.2312588095664978
			vertex 0.2589847147464752 0.002503800764679909 0.22363875806331635
		endloop
	endfacet
	facet normal 0 1 0
		outer loop
			vertex 0.2589847147464752 0.002503800764679909 0.22363875806331635
			vertex 0.2742246985435486 0.002503800764679909 0.2312588095664978
			vertex 0.2589847147464752 0.002503800764679909 0.17791874706745148
		endloop
	endfacet
	facet normal 0 1 0
		outer loop
			vertex 0.15230469405651093 0.002503800764679909 0.15505880117416382
			vertex 0.16754469275474548 0.002503800764679909 0.17791874706745148
			vertex 0.2742246985435486 0.002503800764679909 0.15505880117416382
		endloop
	endfacet
	facet normal 0 1 0
		outer loop
			vertex 0.16754469275474548 0.002503800764679909 0.17791874706745148
			vertex 0.15230469405651093 0.002503800764679909 0.15505880117416382
			vertex 0.16754469275474548 0.002503800764679909 0.22363875806331635
		endloop
	endfacet
	facet normal 0 1 0
		outer loop
			vertex 0.2742246985435486 0.002503800764679909 0.15505880117416382
			vertex 0.16754469275474548 0.002503800764679909 0.17791874706745148
			vertex 0.2589847147464752 0.002503800764679909 0.17791874706745148
		endloop
	endfacet
	facet normal 0 1 0
		outer loop
			vertex 0.2742246985435486 0.002503800764679909 0.15505880117416382
			vertex 0.2589847147464752 0.002503800764679909 0.17791874706745148
			vertex 0.2742246985435486 0.002503800764679909 0.2312588095664978
		endloop
	endfacet
	facet normal 0 0 -1
		outer loop
			vertex 0.15230469405651093 0.002199000306427479 0.15505880117416382
			vertex 0.15230469405651093 0.002503800764679909 0.15505880117416382
			vertex 0.2742246985435486 0.002199000306427479 0.15505880117416382
		endloop
	endfacet
	facet normal 0 0 -1
		outer loop
			vertex 0.2742246985435486 0.002199000306427479 0.15505880117416382
			vertex 0.15230469405651093 0.002503800764679909 0.15505880117416382
			vertex 0.2742246985435486 0.002503800764679909 0.15505880117416382
		endloop
	endfacet
	facet normal -1 0 0
		outer loop
			vertex 0.16754469275474548 0.0026562001556158068 0.17791874706745148
			vertex 0.16754469275474548 0.002503800764679909 0.22363875806331635
			vertex 0.16754469275474548 0.0026562001556158068 0.22363875806331635
		endloop
	endfacet
	facet normal -1 0 0
		outer loop
			vertex 0.16754469275474548 0.002503800764679909 0.22363875806331635
			vertex 0.16754469275474548 0.0026562001556158068 0.17791874706745148
			vertex 0.16754469275474548 0.002503800764679909 0.17791874706745148
		endloop
	endfacet
	facet normal 0 0 1
		outer loop
			vertex 0.2589847147464752 0.0026562001556158068 0.22363875806331635
			vertex 0.16754469275474548 0.002503800764679909 0.22363875806331635
			vertex 0.2589847147464752 0.002503800764679909 0.22363875806331635
		endloop
	endfacet
	facet normal 0 0 1
		outer loop
			vertex 0.16754469275474548 0.002503800764679909 0.22363875806331635
			vertex 0.2589847147464752 0.0026562001556158068 0.22363875806331635
			vertex 0.16754469275474548 0.0026562001556158068 0.22363875806331635
		endloop
	endfacet
	facet normal 1 0 0
		outer loop
			vertex 0.2589847147464752 0.002503800764679909 0.17791874706745148
			vertex 0.2589847147464752 0.0026562001556158068 0.22363875806331635
			vertex 0.2589847147464752 0.002503800764679909 0.22363875806331635
		endloop
	endfacet
	facet normal 1 0 0
		outer loop
			vertex 0.2589847147464752 0.0026562001556158068 0.22363875806331635
			vertex 0.2589847147464752 0.002503800764679909 0.17791874706745148
			vertex 0.2589847147464752 0.0026562001556158068 0.17791874706745148
		endloop
	endfacet
	facet normal 0 0 -1
		outer loop
			vertex 0.16754469275474548 0.0026562001556158068 0.17791874706745148
			vertex 0.2589847147464752 0.002503800764679909 0.17791874706745148
			vertex 0.16754469275474548 0.002503800764679909 0.17791874706745148
		endloop
	endfacet
	facet normal 0 0 -1
		outer loop
			vertex 0.2589847147464752 0.002503800764679909 0.17791874706745148
			vertex 0.16754469275474548 0.0026562001556158068 0.17791874706745148
			vertex 0.2589847147464752 0.0026562001556158068 0.17791874706745148
		endloop
	endfacet
	facet normal 0 -1 0
		outer loop
			vertex 0.15230469405651093 0.0026562001556158068 0.17029879987239838
			vertex 0.16754469275474548 0.0026562001556158068 0.17791874706745148
			vertex 0.15230469405651093 0.0026562001556158068 0.2312588095664978
		endloop
	endfacet
	facet normal 0 -1 0
		outer loop
			vertex 0.16754469275474548 0.0026562001556158068 0.17791874706745148
			vertex 0.15230469405651093 0.0026562001556158068 0.17029879987239838
			vertex 0.2742246985435486 0.0026562001556158068 0.17029879987239838
		endloop
	endfacet
	facet normal 0 -1 0
		outer loop
			vertex 0.16754469275474548 0.0026562001556158068 0.17791874706745148
			vertex 0.2742246985435486 0.0026562001556158068 0.17029879987239838
			vertex 0.2589847147464752 0.0026562001556158068 0.17791874706745148
		endloop
	endfacet
	facet normal 0 -1 0
		outer loop
			vertex 0.2589847147464752 0.0026562001556158068 0.17791874706745148
			vertex 0.2742246985435486 0.0026562001556158068 0.17029879987239838
			vertex 0.2589847147464752 0.0026562001556158068 0.22363875806331635
		endloop
	endfacet
	facet normal 0 -1 0
		outer loop
			vertex 0.15230469405651093 0.0026562001556158068 0.2312588095664978
			vertex 0.16754469275474548 0.0026562001556158068 0.22363875806331635
			vertex 0.2742246985435486 0.0026562001556158068 0.2312588095664978
		endloop
	endfacet
	facet normal 0 -1 0
		outer loop
			vertex 0.16754469275474548 0.0026562001556158068 0.22363875806331635
			vertex 0.15230469405651093 0.0026562001556158068 0.2312588095664978
			vertex 0.16754469275474548 0.0026562001556158068 0.17791874706745148
		endloop
	endfacet
	facet normal 0 -1 0
		outer loop
			vertex 0.2742246985435486 0.0026562001556158068 0.2312588095664978
			vertex 0.16754469275474548 0.0026562001556158068 0.22363875806331635
			vertex 0.2589847147464752 0.0026562001556158068 0.22363875806331635
		endloop
	endfacet
	facet normal 0 -1 0
		outer loop
			vertex 0.2742246985435486 0.0026562001556158068 0.2312588095664978
			vertex 0.2589847147464752 0.0026562001556158068 0.22363875806331635
			vertex 0.2742246985435486 0.0026562001556158068 0.17029879987239838
		endloop
	endfacet
	facet normal 0 1 0
		outer loop
			vertex 0.2742246985435486 0.003265800699591637 0.2312588095664978
			vertex 0.15230469405651093 0.003265800699591637 0.17029879987239838
			vertex 0.15230469405651093 0.003265800699591637 0.2312588095664978
		endloop
	endfacet
	facet normal 0 1 0
		outer loop
			vertex 0.15230469405651093 0.003265800699591637 0.17029879987239838
			vertex 0.2742246985435486 0.003265800699591637 0.2312588095664978
			vertex 0.2742246985435486 0.003265800699591637 0.17029879987239838
		endloop
	endfacet
	facet normal 0 0 1
		outer loop
			vertex 0.2742246985435486 0.003265800699591637 0.2312588095664978
			vertex 0.15230469405651093 0.0026562001556158068 0.2312588095664978
			vertex 0.2742246985435486 0.0026562001556158068 0.2312588095664978
		endloop
	endfacet
	facet normal 0 0 1
		outer loop
			vertex 0.15230469405651093 0.0026562001556158068 0.2312588095664978
			vertex 0.2742246985435486 0.003265800699591637 0.2312588095664978
			vertex 0.15230469405651093 0.003265800699591637 0.2312588095664978
		endloop
	endfacet
	facet normal 0 0 -1
		outer loop
			vertex 0.15230469405651093 0.003265800699591637 0.17029879987239838
			vertex 0.2742246985435486 0.0026562001556158068 0.17029879987239838
			vertex 0.15230469405651093 0.0026562001556158068 0.17029879987239838
		endloop
	endfacet
	facet normal 0 0 -1
		outer loop
			vertex 0.2742246985435486 0.0026562001556158068 0.17029879987239838
			vertex 0.15230469405651093 0.003265800699591637 0.17029879987239838
			vertex 0.2742246985435486 0.003265800699591637 0.17029879987239838
		endloop
	endfacet
	facet normal -1 0 0
		outer loop
			vertex 0.15230469405651093 0.003265800699591637 0.17029879987239838
			vertex 0.15230469405651093 0.0026562001556158068 0.2312588095664978
			vertex 0.15230469405651093 0.003265800699591637 0.2312588095664978
		endloop
	endfacet
	facet normal -1 0 0
		outer loop
			vertex 0.15230469405651093 0.0026562001556158068 0.2312588095664978
			vertex 0.15230469405651093 0.003265800699591637 0.17029879987239838
			vertex 0.15230469405651093 0.0026562001556158068 0.17029879987239838
		endloop
	endfacet
	facet normal 1 0 0
		outer loop
			vertex 0.2742246985435486 0.0026562001556158068 0.17029879987239838
			vertex 0.2742246985435486 0.003265800699591637 0.2312588095664978
			vertex 0.2742246985435486 0.0026562001556158068 0.2312588095664978
		endloop
	endfacet
	facet normal 1 0 0
		outer loop
			vertex 0.2742246985435486 0.003265800699591637 0.2312588095664978
			vertex 0.2742246985435486 0.0026562001556158068 0.17029879987239838
			vertex 0.2742246985435486 0.003265800699591637 0.17029879987239838
		endloop
	endfacet
	facet normal 0 0 1
		outer loop
			vertex -0.02631063386797905 0.002199000306427479 3.2182986736297607
			vertex -0.02631063386797905 0.0018942000344395638 3.2182986736297607
			vertex 0.45284003019332886 0.0018942000344395638 3.2182986736297607
		endloop
	endfacet
	facet normal 0 0 1
		outer loop
			vertex -0.02631063386797905 0.002199000306427479 3.2182986736297607
			vertex 0.45284003019332886 0.0018942000344395638 3.2182986736297607
			vertex 0.45284003019332886 0.002199000306427479 3.2182986736297607
		endloop
	endfacet
	facet normal 0 0.9999777783622934 0.00666654195307656
		outer loop
			vertex 0.5790246725082397 0.0019102420657873154 3.3530526161193848
			vertex -0.15249529480934143 0.002207021787762642 3.3085358142852783
			vertex -0.15249529480934143 0.0019102420657873154 3.3530526161193848
		endloop
	endfacet
	facet normal 0 0.9999777783622934 0.00666654195307656
		outer loop
			vertex -0.15249529480934143 0.002207021787762642 3.3085358142852783
			vertex 0.5790246725082397 0.0019102420657873154 3.3530526161193848
			vertex 0.5790246725082397 0.002207021787762642 3.3085358142852783
		endloop
	endfacet
	facet normal 0 0 -1
		outer loop
			vertex -0.15249529480934143 0.002503800764679909 3.264019012451172
			vertex -0.09153527766466141 0.002199000306427479 3.264019012451172
			vertex -0.15249529480934143 0.002199000306427479 3.264019012451172
		endloop
	endfacet
	facet normal 0 0 -1
		outer loop
			vertex -0.09153527766466141 0.002199000306427479 3.264019012451172
			vertex -0.15249529480934143 0.002503800764679909 3.264019012451172
			vertex 0.5180646777153015 0.002199000306427479 3.264019012451172
		endloop
	endfacet
	facet normal 0 0 -1
		outer loop
			vertex 0.5180646777153015 0.002199000306427479 3.264019012451172
			vertex -0.15249529480934143 0.002503800764679909 3.264019012451172
			vertex 0.5790246725082397 0.002199000306427479 3.264019012451172
		endloop
	endfacet
	facet normal 0 0 -1
		outer loop
			vertex 0.5790246725082397 0.002199000306427479 3.264019012451172
			vertex -0.15249529480934143 0.002503800764679909 3.264019012451172
			vertex 0.5790246725082397 0.002503800764679909 3.264019012451172
		endloop
	endfacet
	facet normal 0 1 0
		outer loop
			vertex -0.02631063386797905 0.002199000306427479 3.2182986736297607
			vertex 0.1185990571975708 0.002199000306427479 3.1968274116516113
			vertex 0.03038470819592476 0.002199000306427479 3.1785576343536377
		endloop
	endfacet
	facet normal 0 1 0
		outer loop
			vertex 0.1185990571975708 0.002199000306427479 3.1968274116516113
			vertex -0.02631063386797905 0.002199000306427479 3.2182986736297607
			vertex 0.21326470375061035 0.002199000306427479 3.203059196472168
		endloop
	endfacet
	facet normal 0 1 0
		outer loop
			vertex 0.21326470375061035 0.002199000306427479 3.203059196472168
			vertex -0.02631063386797905 0.002199000306427479 3.2182986736297607
			vertex 0.45284003019332886 0.002199000306427479 3.2182986736297607
		endloop
	endfacet
	facet normal 0 1 0
		outer loop
			vertex 0.21326470375061035 0.002199000306427479 3.203059196472168
			vertex 0.45284003019332886 0.002199000306427479 3.2182986736297607
			vertex 0.3079303503036499 0.002199000306427479 3.1968274116516113
		endloop
	endfacet
	facet normal 0 1 0
		outer loop
			vertex 0.3079303503036499 0.002199000306427479 3.1968274116516113
			vertex 0.45284003019332886 0.002199000306427479 3.2182986736297607
			vertex 0.39614471793174744 0.002199000306427479 3.1785576343536377
		endloop
	endfacet
	facet normal 0 -0.9999764541678834 -0.006862296250323029
		outer loop
			vertex 0.5180646777153015 0.002199000306427479 3.264019012451172
			vertex -0.09153527766466141 0.0019174505025148392 3.305046558380127
			vertex -0.09153527766466141 0.002199000306427479 3.264019012451172
		endloop
	endfacet
	facet normal 0 1 0
		outer loop
			vertex 0.5180646777153015 0.002199000306427479 3.264019012451172
			vertex -0.02631063386797905 0.002199000306427479 3.2182986736297607
			vertex -0.09153527766466141 0.002199000306427479 3.264019012451172
		endloop
	endfacet
	facet normal 0 1 0
		outer loop
			vertex -0.02631063386797905 0.002199000306427479 3.2182986736297607
			vertex 0.5180646777153015 0.002199000306427479 3.264019012451172
			vertex 0.45284003019332886 0.002199000306427479 3.2182986736297607
		endloop
	endfacet
	facet normal 0 1 0
		outer loop
			vertex 0.45284003019332886 0.0018942000344395638 3.2182986736297607
			vertex 0.47189605236053467 0.0018942000344395638 3.1494946479797363
			vertex 0.39614471793174744 0.0018942000344395638 3.1785576343536377
		endloop
	endfacet
	facet normal 0 1 0
		outer loop
			vertex 0.47189605236053467 0.0018942000344395638 3.1494946479797363
			vertex 0.45284003019332886 0.0018942000344395638 3.2182986736297607
			vertex 0.5028246641159058 0.0018942000344395638 3.1991217136383057
		endloop
	endfacet
	facet normal 0 1 0
		outer loop
			vertex 0.47189605236053467 0.0018942000344395638 3.1494946479797363
			vertex 0.5028246641159058 0.0018942000344395638 3.1991217136383057
			vertex 0.5028246641159058 0.0018942000344395638 3.1711742877960205
		endloop
	endfacet
	facet normal 0.5739887802741209 0 -0.81886316324489
		outer loop
			vertex 0.39614471793174744 0.0018942000344395638 3.1785576343536377
			vertex 0.45284003019332886 0.002199000306427479 3.2182986736297607
			vertex 0.45284003019332886 0.0018942000344395638 3.2182986736297607
		endloop
	endfacet
	facet normal 0.5739887802741209 0 -0.81886316324489
		outer loop
			vertex 0.45284003019332886 0.002199000306427479 3.2182986736297607
			vertex 0.39614471793174744 0.0018942000344395638 3.1785576343536377
			vertex 0.39614471793174744 0.002199000306427479 3.1785576343536377
		endloop
	endfacet
	facet normal 0 1 0
		outer loop
			vertex -0.02631063386797905 0.0018942000344395638 3.2182986736297607
			vertex -0.07629527896642685 0.0018942000344395638 3.1711742877960205
			vertex -0.07629527896642685 0.0018942000344395638 3.1991217136383057
		endloop
	endfacet
	facet normal 0 1 0
		outer loop
			vertex -0.07629527896642685 0.0018942000344395638 3.1711742877960205
			vertex -0.02631063386797905 0.0018942000344395638 3.2182986736297607
			vertex -0.045366667211055756 0.0018942000344395638 3.1494946479797363
		endloop
	endfacet
	facet normal 0 1 0
		outer loop
			vertex -0.045366667211055756 0.0018942000344395638 3.1494946479797363
			vertex -0.02631063386797905 0.0018942000344395638 3.2182986736297607
			vertex 0.03038470819592476 0.0018942000344395638 3.1785576343536377
		endloop
	endfacet
	facet normal -0.5739885779587338 0 -0.8188633050594651
		outer loop
			vertex -0.02631063386797905 0.002199000306427479 3.2182986736297607
			vertex 0.03038470819592476 0.002199000306427479 3.1785576343536377
			vertex -0.02631063386797905 0.0018942000344395638 3.2182986736297607
		endloop
	endfacet
	facet normal -0.5739885779587338 0 -0.8188633050594651
		outer loop
			vertex -0.02631063386797905 0.0018942000344395638 3.2182986736297607
			vertex 0.03038470819592476 0.002199000306427479 3.1785576343536377
			vertex 0.03038470819592476 0.0018942000344395638 3.1785576343536377
		endloop
	endfacet
	facet normal 0 0.9999777784738634 0.006666525217633739
		outer loop
			vertex 0.5790246725082397 0.002207021787762642 3.3085358142852783
			vertex -0.15249529480934143 0.002503800764679909 3.264019012451172
			vertex -0.15249529480934143 0.002207021787762642 3.3085358142852783
		endloop
	endfacet
	facet normal 0 0.9999777784738634 0.006666525217633739
		outer loop
			vertex -0.15249529480934143 0.002503800764679909 3.264019012451172
			vertex 0.5790246725082397 0.002207021787762642 3.3085358142852783
			vertex 0.5790246725082397 0.002503800764679909 3.264019012451172
		endloop
	endfacet
	facet normal 0 -0.9982049312654914 0.05989086071560432
		outer loop
			vertex 0.5790246725082397 0.002351600117981434 3.310945510864258
			vertex -0.15249529480934143 0.002207021787762642 3.3085358142852783
			vertex 0.5790246725082397 0.002207021787762642 3.3085358142852783
		endloop
	endfacet
	facet normal 0 -0.9982049312654914 0.05989086071560432
		outer loop
			vertex -0.15249529480934143 0.002207021787762642 3.3085358142852783
			vertex 0.5790246725082397 0.002351600117981434 3.310945510864258
			vertex -0.15249529480934143 0.002351600117981434 3.310945510864258
		endloop
	endfacet
	facet normal 0 1 0
		outer loop
			vertex -0.1400323510169983 0.002199000306427479 3.067511558532715
			vertex -0.1400323510169983 0.002199000306427479 2.972846031188965
			vertex -0.15249529480934143 0.002199000306427479 3.02017879486084
		endloop
	endfacet
	facet normal 0 1 0
		outer loop
			vertex -0.1400323510169983 0.002199000306427479 2.972846031188965
			vertex -0.1400323510169983 0.002199000306427479 3.067511558532715
			vertex -0.10349273681640625 0.002199000306427479 3.111618757247925
		endloop
	endfacet
	facet normal 0 1 0
		outer loop
			vertex -0.1400323510169983 0.002199000306427479 2.972846031188965
			vertex -0.10349273681640625 0.002199000306427479 3.111618757247925
			vertex -0.10349273681640625 0.002199000306427479 2.928738832473755
		endloop
	endfacet
	facet normal 0 1 0
		outer loop
			vertex -0.10349273681640625 0.002199000306427479 2.928738832473755
			vertex -0.10349273681640625 0.002199000306427479 3.111618757247925
			vertex -0.045366667211055756 0.002199000306427479 3.1494944095611572
		endloop
	endfacet
	facet normal 0 1 0
		outer loop
			vertex -0.10349273681640625 0.002199000306427479 2.928738832473755
			vertex -0.045366667211055756 0.002199000306427479 3.1494944095611572
			vertex -0.045366667211055756 0.002199000306427479 2.8908629417419434
		endloop
	endfacet
	facet normal 0 1 0
		outer loop
			vertex -0.045366667211055756 0.002199000306427479 2.8908629417419434
			vertex -0.045366667211055756 0.002199000306427479 3.1494944095611572
			vertex 0.03038470819592476 0.002199000306427479 3.1785573959350586
		endloop
	endfacet
	facet normal 0 1 0
		outer loop
			vertex -0.045366667211055756 0.002199000306427479 2.8908629417419434
			vertex 0.03038470819592476 0.002199000306427479 3.1785573959350586
			vertex -0.015335296280682087 0.002199000306427479 2.8793411254882812
		endloop
	endfacet
	facet normal 0 1 0
		outer loop
			vertex -0.015335296280682087 0.002199000306427479 2.8793411254882812
			vertex 0.03038470819592476 0.002199000306427479 3.1785573959350586
			vertex 0.4418647289276123 0.002199000306427479 2.8793411254882812
		endloop
	endfacet
	facet normal 0 1 0
		outer loop
			vertex 0.4418647289276123 0.002199000306427479 2.8793411254882812
			vertex 0.03038470819592476 0.002199000306427479 3.1785573959350586
			vertex 0.1185990497469902 0.002199000306427479 3.1968271732330322
		endloop
	endfacet
	facet normal 0 1 0
		outer loop
			vertex 0.4418647289276123 0.002199000306427479 2.8793411254882812
			vertex 0.1185990497469902 0.002199000306427479 3.1968271732330322
			vertex 0.21326470375061035 0.002199000306427479 3.2030587196350098
		endloop
	endfacet
	facet normal 0 1 0
		outer loop
			vertex 0.4418647289276123 0.002199000306427479 2.8793411254882812
			vertex 0.21326470375061035 0.002199000306427479 3.2030587196350098
			vertex 0.3079303503036499 0.002199000306427479 3.1968271732330322
		endloop
	endfacet
	facet normal 0 1 0
		outer loop
			vertex 0.4418647289276123 0.002199000306427479 2.8793411254882812
			vertex 0.3079303503036499 0.002199000306427479 3.1968271732330322
			vertex 0.39614471793174744 0.002199000306427479 3.1785573959350586
		endloop
	endfacet
	facet normal 0 1 0
		outer loop
			vertex 0.4418647289276123 0.002199000306427479 2.8793411254882812
			vertex 0.39614471793174744 0.002199000306427479 3.1785573959350586
			vertex 0.47189611196517944 0.002199000306427479 3.1494944095611572
		endloop
	endfacet
	facet normal 0 1 0
		outer loop
			vertex 0.4418647289276123 0.002199000306427479 2.8793411254882812
			vertex 0.47189611196517944 0.002199000306427479 3.1494944095611572
			vertex 0.47189611196517944 0.002199000306427479 2.8908629417419434
		endloop
	endfacet
	facet normal 0 1 0
		outer loop
			vertex 0.47189611196517944 0.002199000306427479 2.8908629417419434
			vertex 0.47189611196517944 0.002199000306427479 3.1494944095611572
			vertex 0.5300222039222717 0.002199000306427479 3.111618757247925
		endloop
	endfacet
	facet normal 0 1 0
		outer loop
			vertex 0.47189611196517944 0.002199000306427479 2.8908629417419434
			vertex 0.5300222039222717 0.002199000306427479 3.111618757247925
			vertex 0.5300222039222717 0.002199000306427479 2.928738832473755
		endloop
	endfacet
	facet normal 0 1 0
		outer loop
			vertex 0.5300222039222717 0.002199000306427479 2.928738832473755
			vertex 0.5300222039222717 0.002199000306427479 3.111618757247925
			vertex 0.566561758518219 0.002199000306427479 3.067511558532715
		endloop
	endfacet
	facet normal 0 1 0
		outer loop
			vertex 0.5300222039222717 0.002199000306427479 2.928738832473755
			vertex 0.566561758518219 0.002199000306427479 3.067511558532715
			vertex 0.566561758518219 0.002199000306427479 2.972846031188965
		endloop
	endfacet
	facet normal 0 1 0
		outer loop
			vertex 0.566561758518219 0.002199000306427479 2.972846031188965
			vertex 0.566561758518219 0.002199000306427479 3.067511558532715
			vertex 0.5790247321128845 0.002199000306427479 3.02017879486084
		endloop
	endfacet
	facet normal 0 0 -1
		outer loop
			vertex 0.015144706703722477 0.0018942000344395638 1.67905855178833
			vertex -0.015335296280682087 0.002199000306427479 1.67905855178833
			vertex 0.4113847017288208 0.0018942000344395638 1.67905855178833
		endloop
	endfacet
	facet normal 0 0 -1
		outer loop
			vertex 0.4418647289276123 0.002199000306427479 1.67905855178833
			vertex 0.4113847017288208 0.0018942000344395638 1.67905855178833
			vertex -0.015335296280682087 0.002199000306427479 1.67905855178833
		endloop
	endfacet
	facet normal -0.3582013837947554 0 -0.9336443480509709
		outer loop
			vertex -0.045366667211055756 0.002199000306427479 2.8908629417419434
			vertex -0.015335296280682087 0.0018942000344395638 2.8793411254882812
			vertex -0.045366667211055756 0.0018942000344395638 2.8908629417419434
		endloop
	endfacet
	facet normal -0.3582013837947554 0 -0.9336443480509709
		outer loop
			vertex -0.015335296280682087 0.0018942000344395638 2.8793411254882812
			vertex -0.045366667211055756 0.002199000306427479 2.8908629417419434
			vertex -0.015335296280682087 0.002199000306427479 2.8793411254882812
		endloop
	endfacet
	facet normal -0.5459399307548678 0 -0.8378243204916949
		outer loop
			vertex -0.045366667211055756 0.002199000306427479 2.8908629417419434
			vertex -0.10349273681640625 0.0018942000344395638 2.928738832473755
			vertex -0.10349273681640625 0.002199000306427479 2.928738832473755
		endloop
	endfacet
	facet normal -0.5459399307548678 0 -0.8378243204916949
		outer loop
			vertex -0.10349273681640625 0.0018942000344395638 2.928738832473755
			vertex -0.045366667211055756 0.002199000306427479 2.8908629417419434
			vertex -0.045366667211055756 0.0018942000344395638 2.8908629417419434
		endloop
	endfacet
	facet normal -0.7700760289673577 0 -0.6379521217222068
		outer loop
			vertex -0.10349273681640625 0.002199000306427479 2.928738832473755
			vertex -0.1400323510169983 0.0018942000344395638 2.972846031188965
			vertex -0.1400323510169983 0.002199000306427479 2.972846031188965
		endloop
	endfacet
	facet normal -0.7700760289673577 0 -0.6379521217222068
		outer loop
			vertex -0.1400323510169983 0.0018942000344395638 2.972846031188965
			vertex -0.10349273681640625 0.002199000306427479 2.928738832473755
			vertex -0.10349273681640625 0.0018942000344395638 2.928738832473755
		endloop
	endfacet
	facet normal -0.9670395647956974 0 -0.25462615757173945
		outer loop
			vertex -0.1400323510169983 0.002199000306427479 2.972846031188965
			vertex -0.15249529480934143 0.0018942000344395638 3.02017879486084
			vertex -0.15249529480934143 0.002199000306427479 3.02017879486084
		endloop
	endfacet
	facet normal -0.9670395647956974 0 -0.25462615757173945
		outer loop
			vertex -0.15249529480934143 0.0018942000344395638 3.02017879486084
			vertex -0.1400323510169983 0.002199000306427479 2.972846031188965
			vertex -0.1400323510169983 0.0018942000344395638 2.972846031188965
		endloop
	endfacet
	facet normal 0 -1 0
		outer loop
			vertex -0.015335296280682087 0.0018942000344395638 2.8793411254882812
			vertex -0.015335296280682087 0.0018942000344395638 2.898258686065674
			vertex -0.045366667211055756 0.0018942000344395638 2.8908629417419434
		endloop
	endfacet
	facet normal 0 -1 0
		outer loop
			vertex -0.1400323510169983 0.0018942000344395638 2.972846031188965
			vertex -0.015335296280682087 0.0018942000344395638 2.959218740463257
			vertex -0.15249529480934143 0.0018942000344395638 3.02017879486084
		endloop
	endfacet
	facet normal 0 -1 0
		outer loop
			vertex -0.015335296280682087 0.0018942000344395638 2.959218740463257
			vertex -0.1400323510169983 0.0018942000344395638 2.972846031188965
			vertex -0.10349273681640625 0.0018942000344395638 2.928738832473755
		endloop
	endfacet
	facet normal 0 -1 0
		outer loop
			vertex -0.015335296280682087 0.0018942000344395638 2.959218740463257
			vertex -0.10349273681640625 0.0018942000344395638 2.928738832473755
			vertex -0.045366667211055756 0.0018942000344395638 2.8908629417419434
		endloop
	endfacet
	facet normal 0 -1 0
		outer loop
			vertex -0.015335296280682087 0.0018942000344395638 2.959218740463257
			vertex -0.045366667211055756 0.0018942000344395638 2.8908629417419434
			vertex -0.015335296280682087 0.0018942000344395638 2.898258686065674
		endloop
	endfacet
	facet normal 1 0 0
		outer loop
			vertex -0.015335296280682087 0.002199000306427479 2.547738790512085
			vertex -0.015335296280682087 0.0030118003487586975 2.578218698501587
			vertex -0.015335296280682087 0.002199000306427479 2.578218698501587
		endloop
	endfacet
	facet normal 1 0 0
		outer loop
			vertex -0.015335296280682087 0.0030118003487586975 2.578218698501587
			vertex -0.015335296280682087 0.002199000306427479 2.547738790512085
			vertex -0.015335296280682087 0.0031134000048041346 2.578218698501587
		endloop
	endfacet
	facet normal -1 0 0
		outer loop
			vertex -0.015335296280682087 0.002199000306427479 2.7929811477661133
			vertex -0.015335296280682087 0.0018942000344395638 2.8793411254882812
			vertex -0.015335296280682087 0.002199000306427479 2.8793411254882812
		endloop
	endfacet
	facet normal 0 0 0
		outer loop
			vertex -0.015335296280682087 0.002199000306427479 2.8793411254882812
			vertex -0.015335296280682087 0.002199000306427479 2.7879011631011963
			vertex -0.015335296280682087 0.002199000306427479 2.7929811477661133
		endloop
	endfacet
	facet normal 0 0 0
		outer loop
			vertex -0.015335296280682087 0.002199000306427479 2.7879011631011963
			vertex -0.015335296280682087 0.002199000306427479 2.8793411254882812
			vertex -0.015335296280682087 0.002199000306427479 2.7015411853790283
		endloop
	endfacet
	facet normal 0 0 0
		outer loop
			vertex -0.015335296280682087 0.002199000306427479 2.7015411853790283
			vertex -0.015335296280682087 0.002199000306427479 2.8793411254882812
			vertex -0.015335296280682087 0.002199000306427479 2.6964609622955322
		endloop
	endfacet
	facet normal 0 0 0
		outer loop
			vertex -0.015335296280682087 0.002199000306427479 2.6964609622955322
			vertex -0.015335296280682087 0.002199000306427479 2.8793411254882812
			vertex -0.015335296280682087 0.002199000306427479 2.6101009845733643
		endloop
	endfacet
	facet normal 0 0 0
		outer loop
			vertex -0.015335296280682087 0.002199000306427479 2.6101009845733643
			vertex -0.015335296280682087 0.002199000306427479 2.8793411254882812
			vertex -0.015335296280682087 0.002199000306427479 2.6050209999084473
		endloop
	endfacet
	facet normal 0 0 0
		outer loop
			vertex -0.015335296280682087 0.002199000306427479 2.6050209999084473
			vertex -0.015335296280682087 0.002199000306427479 2.8793411254882812
			vertex -0.015335296280682087 0.002199000306427479 2.578218698501587
		endloop
	endfacet
	facet normal 0 1 0
		outer loop
			vertex -0.015335296280682087 0.002199000306427479 2.578218698501587
			vertex -0.015335296280682087 0.002199000306427479 2.8793411254882812
			vertex 0.4418647289276123 0.002199000306427479 2.8793411254882812
		endloop
	endfacet
	facet normal 0 1 0
		outer loop
			vertex -0.015335296280682087 0.002199000306427479 2.578218698501587
			vertex 0.4418647289276123 0.002199000306427479 2.8793411254882812
			vertex -0.015335296280682087 0.002199000306427479 2.547738790512085
		endloop
	endfacet
	facet normal 0 1 0
		outer loop
			vertex -0.015335296280682087 0.002199000306427479 2.547738790512085
			vertex 0.4418647289276123 0.002199000306427479 2.8793411254882812
			vertex -0.015335296280682087 0.002199000306427479 1.67905855178833
		endloop
	endfacet
	facet normal 0 1 0
		outer loop
			vertex -0.015335296280682087 0.002199000306427479 1.67905855178833
			vertex 0.4418647289276123 0.002199000306427479 2.8793411254882812
			vertex 0.4418647289276123 0.002199000306427479 1.67905855178833
		endloop
	endfacet
	facet normal 0 0 0
		outer loop
			vertex 0.4418647289276123 0.002199000306427479 1.67905855178833
			vertex 0.4418647289276123 0.002199000306427479 2.8793411254882812
			vertex 0.4418647289276123 0.002199000306427479 2.7929811477661133
		endloop
	endfacet
	facet normal 0 0 0
		outer loop
			vertex 0.4418647289276123 0.002199000306427479 1.67905855178833
			vertex 0.4418647289276123 0.002199000306427479 2.7929811477661133
			vertex 0.4418647289276123 0.002199000306427479 2.7879011631011963
		endloop
	endfacet
	facet normal 0 0 0
		outer loop
			vertex 0.4418647289276123 0.002199000306427479 1.67905855178833
			vertex 0.4418647289276123 0.002199000306427479 2.7879011631011963
			vertex 0.4418647289276123 0.002199000306427479 2.7015411853790283
		endloop
	endfacet
	facet normal 0 0 0
		outer loop
			vertex 0.4418647289276123 0.002199000306427479 1.67905855178833
			vertex 0.4418647289276123 0.002199000306427479 2.7015411853790283
			vertex 0.4418647289276123 0.002199000306427479 2.6964609622955322
		endloop
	endfacet
	facet normal 0 0 0
		outer loop
			vertex 0.4418647289276123 0.002199000306427479 1.67905855178833
			vertex 0.4418647289276123 0.002199000306427479 2.6964609622955322
			vertex 0.4418647289276123 0.002199000306427479 2.6101009845733643
		endloop
	endfacet
	facet normal 0 0 0
		outer loop
			vertex 0.4418647289276123 0.002199000306427479 1.67905855178833
			vertex 0.4418647289276123 0.002199000306427479 2.6101009845733643
			vertex 0.4418647289276123 0.002199000306427479 2.6050209999084473
		endloop
	endfacet
	facet normal 0 0 0
		outer loop
			vertex 0.4418647289276123 0.002199000306427479 1.67905855178833
			vertex 0.4418647289276123 0.002199000306427479 2.6050209999084473
			vertex 0.4418647289276123 0.002199000306427479 2.578218698501587
		endloop
	endfacet
	facet normal 0 0 0
		outer loop
			vertex 0.4418647289276123 0.002199000306427479 1.67905855178833
			vertex 0.4418647289276123 0.002199000306427479 2.578218698501587
			vertex 0.4418647289276123 0.002199000306427479 2.547738790512085
		endloop
	endfacet
	facet normal 0 0 0
		outer loop
			vertex 0.4418647289276123 0.002199000306427479 1.67905855178833
			vertex 0.4418647289276123 0.002199000306427479 2.547738790512085
			vertex 0.4418647289276123 0.002199000306427479 2.5186610221862793
		endloop
	endfacet
	facet normal 0 0 0
		outer loop
			vertex 0.4418647289276123 0.002199000306427479 1.67905855178833
			vertex 0.4418647289276123 0.002199000306427479 2.5186610221862793
			vertex 0.4418647289276123 0.002199000306427479 2.5135810375213623
		endloop
	endfacet
	facet normal 0 0 0
		outer loop
			vertex 0.4418647289276123 0.002199000306427479 1.67905855178833
			vertex 0.4418647289276123 0.002199000306427479 2.5135810375213623
			vertex 0.4418647289276123 0.002199000306427479 2.4272210597991943
		endloop
	endfacet
	facet normal 0 0 0
		outer loop
			vertex 0.4418647289276123 0.002199000306427479 1.67905855178833
			vertex 0.4418647289276123 0.002199000306427479 2.4272210597991943
			vertex 0.4418647289276123 0.002199000306427479 2.4221410751342773
		endloop
	endfacet
	facet normal 0 0 0
		outer loop
			vertex -0.015335296280682087 0.002199000306427479 2.547738790512085
			vertex -0.015335296280682087 0.002199000306427479 2.5135810375213623
			vertex -0.015335296280682087 0.002199000306427479 2.5186610221862793
		endloop
	endfacet
	facet normal 0 0 0
		outer loop
			vertex -0.015335296280682087 0.002199000306427479 2.5135810375213623
			vertex -0.015335296280682087 0.002199000306427479 2.547738790512085
			vertex -0.015335296280682087 0.002199000306427479 2.4272210597991943
		endloop
	endfacet
	facet normal 0 0 0
		outer loop
			vertex -0.015335296280682087 0.002199000306427479 2.4272210597991943
			vertex -0.015335296280682087 0.002199000306427479 2.547738790512085
			vertex -0.015335296280682087 0.002199000306427479 2.4221410751342773
		endloop
	endfacet
	facet normal 0 0 0
		outer loop
			vertex -0.015335296280682087 0.002199000306427479 2.4221410751342773
			vertex -0.015335296280682087 0.002199000306427479 2.547738790512085
			vertex -0.015335296280682087 0.002199000306427479 1.67905855178833
		endloop
	endfacet
	facet normal -1 0 0
		outer loop
			vertex -0.015335296280682087 0.0031134000048041346 2.7929811477661133
			vertex -0.015335296280682087 0.0030118003487586975 2.8793411254882812
			vertex -0.015335296280682087 0.0031134000048041346 2.8793411254882812
		endloop
	endfacet
	facet normal -1 0 0
		outer loop
			vertex -0.015335296280682087 0.0030118003487586975 2.8793411254882812
			vertex -0.015335296280682087 0.0031134000048041346 2.7929811477661133
			vertex -0.015335296280682087 0.0030118003487586975 2.7929811477661133
		endloop
	endfacet
	facet normal 0 0 0
		outer loop
			vertex -0.015335296280682087 0.002199000306427479 2.8793411254882812
			vertex -0.015335296280682087 0.0031134000048041346 2.8793411254882812
			vertex -0.015335296280682087 0.0030118003487586975 2.8793411254882812
		endloop
	endfacet
	facet normal -1 0 0
		outer loop
			vertex -0.015335296280682087 0.0030118003487586975 2.9403011798858643
			vertex -0.015335296280682087 0.0031134000048041346 2.935220956802368
			vertex -0.015335296280682087 0.0030118003487586975 2.8844211101531982
		endloop
	endfacet
	facet normal -1 0 0
		outer loop
			vertex -0.015335296280682087 0.0030118003487586975 2.8844211101531982
			vertex -0.015335296280682087 0.0031134000048041346 2.935220956802368
			vertex -0.015335296280682087 0.0031134000048041346 2.8844211101531982
		endloop
	endfacet
	facet normal -1 0 0
		outer loop
			vertex -0.015335296280682087 0.0031134000048041346 2.7015411853790283
			vertex -0.015335296280682087 0.0030118003487586975 2.7879011631011963
			vertex -0.015335296280682087 0.0031134000048041346 2.7879011631011963
		endloop
	endfacet
	facet normal -1 0 0
		outer loop
			vertex -0.015335296280682087 0.0030118003487586975 2.7879011631011963
			vertex -0.015335296280682087 0.0031134000048041346 2.7015411853790283
			vertex -0.015335296280682087 0.0030118003487586975 2.7015411853790283
		endloop
	endfacet
	facet normal 0 0 0
		outer loop
			vertex -0.015335296280682087 0.002199000306427479 2.7879011631011963
			vertex -0.015335296280682087 0.0031134000048041346 2.7879011631011963
			vertex -0.015335296280682087 0.0030118003487586975 2.7879011631011963
		endloop
	endfacet
	facet normal -1 0 0
		outer loop
			vertex -0.015335296280682087 0.0031134000048041346 2.6101009845733643
			vertex -0.015335296280682087 0.0030118003487586975 2.6964609622955322
			vertex -0.015335296280682087 0.0031134000048041346 2.6964609622955322
		endloop
	endfacet
	facet normal -1 0 0
		outer loop
			vertex -0.015335296280682087 0.0030118003487586975 2.6964609622955322
			vertex -0.015335296280682087 0.0031134000048041346 2.6101009845733643
			vertex -0.015335296280682087 0.0030118003487586975 2.6101009845733643
		endloop
	endfacet
	facet normal 0 0 0
		outer loop
			vertex -0.015335296280682087 0.002199000306427479 2.6964609622955322
			vertex -0.015335296280682087 0.0031134000048041346 2.6964609622955322
			vertex -0.015335296280682087 0.0030118003487586975 2.6964609622955322
		endloop
	endfacet
	facet normal -1 0 0
		outer loop
			vertex -0.015335296280682087 0.0031134000048041346 2.578218698501587
			vertex -0.015335296280682087 0.0030118003487586975 2.6050209999084473
			vertex -0.015335296280682087 0.0031134000048041346 2.6050209999084473
		endloop
	endfacet
	facet normal -1 0 0
		outer loop
			vertex -0.015335296280682087 0.0030118003487586975 2.6050209999084473
			vertex -0.015335296280682087 0.0031134000048041346 2.578218698501587
			vertex -0.015335296280682087 0.0030118003487586975 2.578218698501587
		endloop
	endfacet
	facet normal 0 0 0
		outer loop
			vertex -0.015335296280682087 0.002199000306427479 2.6050209999084473
			vertex -0.015335296280682087 0.0031134000048041346 2.6050209999084473
			vertex -0.015335296280682087 0.0030118003487586975 2.6050209999084473
		endloop
	endfacet
	facet normal -1 0 0
		outer loop
			vertex -0.015335296280682087 0.0031134000048041346 2.4272210597991943
			vertex -0.015335296280682087 0.0030118003487586975 2.5135810375213623
			vertex -0.015335296280682087 0.0031134000048041346 2.5135810375213623
		endloop
	endfacet
	facet normal -1 0 0
		outer loop
			vertex -0.015335296280682087 0.0030118003487586975 2.5135810375213623
			vertex -0.015335296280682087 0.0031134000048041346 2.4272210597991943
			vertex -0.015335296280682087 0.0030118003487586975 2.4272210597991943
		endloop
	endfacet
	facet normal 0 0 0
		outer loop
			vertex -0.015335296280682087 0.002199000306427479 2.5135810375213623
			vertex -0.015335296280682087 0.0031134000048041346 2.5135810375213623
			vertex -0.015335296280682087 0.0030118003487586975 2.5135810375213623
		endloop
	endfacet
	facet normal -1 0 0
		outer loop
			vertex -0.015335296280682087 0.0031134000048041346 2.5186610221862793
			vertex -0.015335296280682087 0.0030118003487586975 2.547738790512085
			vertex -0.015335296280682087 0.0031134000048041346 2.547738790512085
		endloop
	endfacet
	facet normal -1 0 0
		outer loop
			vertex -0.015335296280682087 0.0030118003487586975 2.547738790512085
			vertex -0.015335296280682087 0.0031134000048041346 2.5186610221862793
			vertex -0.015335296280682087 0.0030118003487586975 2.5186610221862793
		endloop
	endfacet
	facet normal 1 0 0
		outer loop
			vertex 0.4418647289276123 0.002199000306427479 2.8793411254882812
			vertex 0.4418647289276123 0.0030118003487586975 2.8844211101531982
			vertex 0.4418647289276123 0.002199000306427479 2.8844211101531982
		endloop
	endfacet
	facet normal 1 0 0
		outer loop
			vertex 0.4418647289276123 0.0030118003487586975 2.8844211101531982
			vertex 0.4418647289276123 0.002199000306427479 2.8793411254882812
			vertex 0.4418647289276123 0.0031134000048041346 2.8844211101531982
		endloop
	endfacet
	facet normal 1 0 0
		outer loop
			vertex 0.4418647289276123 0.002199000306427479 2.7879011631011963
			vertex 0.4418647289276123 0.0030118003487586975 2.7929811477661133
			vertex 0.4418647289276123 0.002199000306427479 2.7929811477661133
		endloop
	endfacet
	facet normal 1 0 0
		outer loop
			vertex 0.4418647289276123 0.0030118003487586975 2.7929811477661133
			vertex 0.4418647289276123 0.002199000306427479 2.7879011631011963
			vertex 0.4418647289276123 0.0031134000048041346 2.7929811477661133
		endloop
	endfacet
	facet normal 1 0 0
		outer loop
			vertex 0.4418647289276123 0.002199000306427479 2.6964609622955322
			vertex 0.4418647289276123 0.0030118003487586975 2.7015411853790283
			vertex 0.4418647289276123 0.002199000306427479 2.7015411853790283
		endloop
	endfacet
	facet normal 1 0 0
		outer loop
			vertex 0.4418647289276123 0.0030118003487586975 2.7015411853790283
			vertex 0.4418647289276123 0.002199000306427479 2.6964609622955322
			vertex 0.4418647289276123 0.0031134000048041346 2.7015411853790283
		endloop
	endfacet
	facet normal 1 0 0
		outer loop
			vertex 0.4418647289276123 0.002199000306427479 2.6050209999084473
			vertex 0.4418647289276123 0.0030118003487586975 2.6101009845733643
			vertex 0.4418647289276123 0.002199000306427479 2.6101009845733643
		endloop
	endfacet
	facet normal 1 0 0
		outer loop
			vertex 0.4418647289276123 0.0030118003487586975 2.6101009845733643
			vertex 0.4418647289276123 0.002199000306427479 2.6050209999084473
			vertex 0.4418647289276123 0.0031134000048041346 2.6101009845733643
		endloop
	endfacet
	facet normal 1 0 0
		outer loop
			vertex 0.4418647289276123 0.0030118003487586975 2.578218698501587
			vertex 0.4418647289276123 0.0031134000048041346 2.6050209999084473
			vertex 0.4418647289276123 0.0030118003487586975 2.6050209999084473
		endloop
	endfacet
	facet normal 1 0 0
		outer loop
			vertex 0.4418647289276123 0.0031134000048041346 2.6050209999084473
			vertex 0.4418647289276123 0.0030118003487586975 2.578218698501587
			vertex 0.4418647289276123 0.0031134000048041346 2.578218698501587
		endloop
	endfacet
	facet normal 1 0 0
		outer loop
			vertex 0.4418647289276123 0.0030118003487586975 2.6101009845733643
			vertex 0.4418647289276123 0.0031134000048041346 2.6964609622955322
			vertex 0.4418647289276123 0.0030118003487586975 2.6964609622955322
		endloop
	endfacet
	facet normal 1 0 0
		outer loop
			vertex 0.4418647289276123 0.0031134000048041346 2.6964609622955322
			vertex 0.4418647289276123 0.0030118003487586975 2.6101009845733643
			vertex 0.4418647289276123 0.0031134000048041346 2.6101009845733643
		endloop
	endfacet
	facet normal 1 0 0
		outer loop
			vertex 0.4418647289276123 0.0030118003487586975 2.7015411853790283
			vertex 0.4418647289276123 0.0031134000048041346 2.7879011631011963
			vertex 0.4418647289276123 0.0030118003487586975 2.7879011631011963
		endloop
	endfacet
	facet normal 1 0 0
		outer loop
			vertex 0.4418647289276123 0.0031134000048041346 2.7879011631011963
			vertex 0.4418647289276123 0.0030118003487586975 2.7015411853790283
			vertex 0.4418647289276123 0.0031134000048041346 2.7015411853790283
		endloop
	endfacet
	facet normal 1 0 0
		outer loop
			vertex 0.4418647289276123 0.0030118003487586975 2.7929811477661133
			vertex 0.4418647289276123 0.0031134000048041346 2.8793411254882812
			vertex 0.4418647289276123 0.0030118003487586975 2.8793411254882812
		endloop
	endfacet
	facet normal 1 0 0
		outer loop
			vertex 0.4418647289276123 0.0031134000048041346 2.8793411254882812
			vertex 0.4418647289276123 0.0030118003487586975 2.7929811477661133
			vertex 0.4418647289276123 0.0031134000048041346 2.7929811477661133
		endloop
	endfacet
	facet normal 1 0 0
		outer loop
			vertex 0.4418647289276123 0.0031134000048041346 2.935220956802368
			vertex 0.4418647289276123 0.0030118003487586975 2.9403011798858643
			vertex 0.4418647289276123 0.0030118003487586975 2.8844211101531982
		endloop
	endfacet
	facet normal 1 0 0
		outer loop
			vertex 0.4418647289276123 0.0031134000048041346 2.935220956802368
			vertex 0.4418647289276123 0.0030118003487586975 2.8844211101531982
			vertex 0.4418647289276123 0.0031134000048041346 2.8844211101531982
		endloop
	endfacet
	facet normal 1 0 0
		outer loop
			vertex 0.4418647289276123 0.002199000306427479 2.5135810375213623
			vertex 0.4418647289276123 0.0030118003487586975 2.5186610221862793
			vertex 0.4418647289276123 0.002199000306427479 2.5186610221862793
		endloop
	endfacet
	facet normal 1 0 0
		outer loop
			vertex 0.4418647289276123 0.0030118003487586975 2.5186610221862793
			vertex 0.4418647289276123 0.002199000306427479 2.5135810375213623
			vertex 0.4418647289276123 0.0031134000048041346 2.5186610221862793
		endloop
	endfacet
	facet normal 1 0 0
		outer loop
			vertex 0.4418647289276123 0.002199000306427479 2.4221410751342773
			vertex 0.4418647289276123 0.0030118003487586975 2.4272210597991943
			vertex 0.4418647289276123 0.002199000306427479 2.4272210597991943
		endloop
	endfacet
	facet normal 1 0 0
		outer loop
			vertex 0.4418647289276123 0.0030118003487586975 2.4272210597991943
			vertex 0.4418647289276123 0.002199000306427479 2.4221410751342773
			vertex 0.4418647289276123 0.0031134000048041346 2.4272210597991943
		endloop
	endfacet
	facet normal 1 0 0
		outer loop
			vertex 0.4418647289276123 0.0030118003487586975 2.4272210597991943
			vertex 0.4418647289276123 0.0031134000048041346 2.5135810375213623
			vertex 0.4418647289276123 0.0030118003487586975 2.5135810375213623
		endloop
	endfacet
	facet normal 1 0 0
		outer loop
			vertex 0.4418647289276123 0.0031134000048041346 2.5135810375213623
			vertex 0.4418647289276123 0.0030118003487586975 2.4272210597991943
			vertex 0.4418647289276123 0.0031134000048041346 2.4272210597991943
		endloop
	endfacet
	facet normal 1 0 0
		outer loop
			vertex 0.4418647289276123 0.0030118003487586975 2.5186610221862793
			vertex 0.4418647289276123 0.0031134000048041346 2.547738790512085
			vertex 0.4418647289276123 0.0030118003487586975 2.547738790512085
		endloop
	endfacet
	facet normal 1 0 0
		outer loop
			vertex 0.4418647289276123 0.0031134000048041346 2.547738790512085
			vertex 0.4418647289276123 0.0030118003487586975 2.5186610221862793
			vertex 0.4418647289276123 0.0031134000048041346 2.5186610221862793
		endloop
	endfacet
	facet normal 0 0 0
		outer loop
			vertex 0.4418647289276123 0.002199000306427479 2.547738790512085
			vertex 0.4418647289276123 0.0031134000048041346 2.547738790512085
			vertex 0.4418647289276123 0.0030118003487586975 2.547738790512085
		endloop
	endfacet
	facet normal 0 0 1
		outer loop
			vertex 0.4418647289276123 0.0030118003487586975 2.9403011798858643
			vertex 0.43170469999313354 0.0031134000048041346 2.9403011798858643
			vertex -0.015335296280682087 0.0030118003487586975 2.9403011798858643
		endloop
	endfacet
	facet normal 0 0 1
		outer loop
			vertex -0.00517530320212245 0.0031134000048041346 2.9403011798858643
			vertex -0.015335296280682087 0.0030118003487586975 2.9403011798858643
			vertex 0.43170469999313354 0.0031134000048041346 2.9403011798858643
		endloop
	endfacet
	facet normal 0 0 0
		outer loop
			vertex -0.00517530320212245 0.0031134000048041346 2.9403011798858643
			vertex 0.43170469999313354 0.0031134000048041346 2.9403011798858643
			vertex 0.29454469680786133 0.0031134000048041346 2.9403011798858643
		endloop
	endfacet
	facet normal 0 0 0
		outer loop
			vertex -0.00517530320212245 0.0031134000048041346 2.9403011798858643
			vertex 0.29454469680786133 0.0031134000048041346 2.9403011798858643
			vertex 0.28438472747802734 0.0031134000048041346 2.9403011798858643
		endloop
	endfacet
	facet normal 0 0 0
		outer loop
			vertex -0.00517530320212245 0.0031134000048041346 2.9403011798858643
			vertex 0.28438472747802734 0.0031134000048041346 2.9403011798858643
			vertex 0.14214470982551575 0.0031134000048041346 2.9403011798858643
		endloop
	endfacet
	facet normal 0 0 0
		outer loop
			vertex -0.00517530320212245 0.0031134000048041346 2.9403011798858643
			vertex 0.14214470982551575 0.0031134000048041346 2.9403011798858643
			vertex 0.13198469579219818 0.0031134000048041346 2.9403011798858643
		endloop
	endfacet
	facet normal -0.27734714716697206 0 0.9607697746902439
		outer loop
			vertex -0.004726671148091555 0.002808601036667824 3.2172253131866455
			vertex -0.004726671148091555 0.0025376668199896812 3.2172253131866455
			vertex 0.035913337022066116 0.002808601036667824 3.228956937789917
		endloop
	endfacet
	facet normal 0 -1 0
		outer loop
			vertex -0.0098066795617342 0.002808601036667824 3.162966012954712
			vertex -0.014886664226651192 0.002808601036667824 3.213218927383423
			vertex -0.1012466624379158 0.002808601036667824 3.242155075073242
		endloop
	endfacet
	facet normal 0 -1 0
		outer loop
			vertex -0.014886664226651192 0.002808601036667824 3.213218927383423
			vertex -0.0098066795617342 0.002808601036667824 3.162966012954712
			vertex -0.0098066795617342 0.002808601036667824 3.213218927383423
		endloop
	endfacet
	facet normal 0 -1 0
		outer loop
			vertex -0.0098066795617342 0.002808601036667824 3.213218927383423
			vertex -0.0098066795617342 0.002808601036667824 3.162966012954712
			vertex -0.004726671148091555 0.002808601036667824 3.213218927383423
		endloop
	endfacet
	facet normal 0 -1 0
		outer loop
			vertex -0.004726671148091555 0.002808601036667824 3.213218927383423
			vertex -0.0098066795617342 0.002808601036667824 3.162966012954712
			vertex 0.08163332939147949 0.002808601036667824 3.242155075073242
		endloop
	endfacet
	facet normal 0 -1 0
		outer loop
			vertex -0.004726671148091555 0.002808601036667824 3.2172253131866455
			vertex -0.004726671148091555 0.002808601036667824 3.213218927383423
			vertex 0.08163332939147949 0.002808601036667824 3.242155075073242
		endloop
	endfacet
	facet normal 0 -1 0
		outer loop
			vertex -0.004726671148091555 0.002808601036667824 3.2172253131866455
			vertex 0.08163332939147949 0.002808601036667824 3.242155075073242
			vertex -0.004726671148091555 0.002808601036667824 3.2182986736297607
		endloop
	endfacet
	facet normal 0 -1 0
		outer loop
			vertex -0.1012466624379158 0.002808601036667824 3.242155075073242
			vertex -0.014886664226651192 0.002808601036667824 3.2182986736297607
			vertex 0.08163332939147949 0.002808601036667824 3.242155075073242
		endloop
	endfacet
	facet normal 0 -1 0
		outer loop
			vertex -0.014886664226651192 0.002808601036667824 3.2182986736297607
			vertex -0.1012466624379158 0.002808601036667824 3.242155075073242
			vertex -0.014886664226651192 0.002808601036667824 3.213218927383423
		endloop
	endfacet
	facet normal 0 0 0
		outer loop
			vertex -0.014886664226651192 0.002808601036667824 3.2182986736297607
			vertex -0.014886664226651192 0.002808601036667824 3.213218927383423
			vertex -0.014886664226651192 0.002808601036667824 3.2172253131866455
		endloop
	endfacet
	facet normal 0 -1 0
		outer loop
			vertex 0.08163332939147949 0.002808601036667824 3.242155075073242
			vertex -0.014886664226651192 0.002808601036667824 3.2182986736297607
			vertex -0.004726671148091555 0.002808601036667824 3.2182986736297607
		endloop
	endfacet
	facet normal 0 -1 0
		outer loop
			vertex -0.004726671148091555 0.002199000306427479 3.213218927383423
			vertex -0.014886664226651192 0.002199000306427479 3.2182986736297607
			vertex -0.014886664226651192 0.002199000306427479 3.213218927383423
		endloop
	endfacet
	facet normal 0 -1 0
		outer loop
			vertex -0.014886664226651192 0.002199000306427479 3.2182986736297607
			vertex -0.004726671148091555 0.002199000306427479 3.213218927383423
			vertex -0.004726671148091555 0.002199000306427479 3.2182986736297607
		endloop
	endfacet
	facet normal 0.2773472322370519 0 0.9607697501329061
		outer loop
			vertex -0.05552665889263153 0.002808601036667824 3.228956937789917
			vertex -0.014886664226651192 0.0025376668199896812 3.2172253131866455
			vertex -0.014886664226651192 0.002808601036667824 3.2172253131866455
		endloop
	endfacet
	facet normal -1 0 0
		outer loop
			vertex -0.0098066795617342 0.002808601036667824 3.1893625259399414
			vertex -0.0098066795617342 0.002533129788935185 3.213218927383423
			vertex -0.0098066795617342 0.002808601036667824 3.213218927383423
		endloop
	endfacet
	facet normal 1 0 0
		outer loop
			vertex -0.004726671148091555 0.002199000306427479 3.213218927383423
			vertex -0.004726671148091555 0.002808601036667824 3.2182986736297607
			vertex -0.004726671148091555 0.002199000306427479 3.2182986736297607
		endloop
	endfacet
	facet normal 1 0 0
		outer loop
			vertex -0.004726671148091555 0.002808601036667824 3.2172253131866455
			vertex -0.004726671148091555 0.002808601036667824 3.2182986736297607
			vertex -0.004726671148091555 0.002199000306427479 3.213218927383423
		endloop
	endfacet
	facet normal 1 0 0
		outer loop
			vertex -0.004726671148091555 0.002808601036667824 3.2172253131866455
			vertex -0.004726671148091555 0.002199000306427479 3.213218927383423
			vertex -0.004726671148091555 0.002808601036667824 3.213218927383423
		endloop
	endfacet
	facet normal 0 0 -1
		outer loop
			vertex -0.014886664226651192 0.002808601036667824 3.213218927383423
			vertex -0.004726671148091555 0.002199000306427479 3.213218927383423
			vertex -0.014886664226651192 0.002199000306427479 3.213218927383423
		endloop
	endfacet
	facet normal 0 0 -1
		outer loop
			vertex -0.004726671148091555 0.002199000306427479 3.213218927383423
			vertex -0.014886664226651192 0.002808601036667824 3.213218927383423
			vertex -0.004726671148091555 0.002808601036667824 3.213218927383423
		endloop
	endfacet
	facet normal 0 0 0
		outer loop
			vertex -0.004726671148091555 0.002808601036667824 3.213218927383423
			vertex -0.014886664226651192 0.002808601036667824 3.213218927383423
			vertex -0.0098066795617342 0.002808601036667824 3.213218927383423
		endloop
	endfacet
	facet normal -1 0 0
		outer loop
			vertex -0.014886664226651192 0.002808601036667824 3.2172253131866455
			vertex -0.014886664226651192 0.002199000306427479 3.2182986736297607
			vertex -0.014886664226651192 0.002808601036667824 3.2182986736297607
		endloop
	endfacet
	facet normal -1 0 0
		outer loop
			vertex -0.014886664226651192 0.002199000306427479 3.2182986736297607
			vertex -0.014886664226651192 0.002808601036667824 3.2172253131866455
			vertex -0.014886664226651192 0.002199000306427479 3.213218927383423
		endloop
	endfacet
	facet normal -1 0 0
		outer loop
			vertex -0.014886664226651192 0.002199000306427479 3.213218927383423
			vertex -0.014886664226651192 0.002808601036667824 3.2172253131866455
			vertex -0.014886664226651192 0.002808601036667824 3.213218927383423
		endloop
	endfacet
	facet normal 0 0 1
		outer loop
			vertex -0.004726671148091555 0.002808601036667824 3.2182986736297607
			vertex -0.014886664226651192 0.002199000306427479 3.2182986736297607
			vertex -0.004726671148091555 0.002199000306427479 3.2182986736297607
		endloop
	endfacet
	facet normal 0 0 1
		outer loop
			vertex -0.014886664226651192 0.002199000306427479 3.2182986736297607
			vertex -0.004726671148091555 0.002808601036667824 3.2182986736297607
			vertex -0.014886664226651192 0.002808601036667824 3.2182986736297607
		endloop
	endfacet
endsolid exported
